<?xml version="1.0" encoding="UTF-8" standalone="no"?>
<!DOCTYPE svg PUBLIC "-//W3C//DTD SVG 1.1//EN"
 "http://www.w3.org/Graphics/SVG/1.1/DTD/svg11.dtd">
<!-- Generated by graphviz version 2.38.0 (20140413.2041)
 -->
<!-- Title: src/CMyIP.cpp Pages: 1 -->
<svg width="623pt" height="196pt"
 viewBox="0.00 0.00 622.50 196.00" xmlns="http://www.w3.org/2000/svg" xmlns:xlink="http://www.w3.org/1999/xlink">
<g id="graph0" class="graph" transform="scale(1 1) rotate(0) translate(4 192)">
<title>src/CMyIP.cpp</title>
<polygon fill="white" stroke="none" points="-4,4 -4,-192 618.5,-192 618.5,4 -4,4"/>
<!-- Node1 -->
<g id="node1" class="node"><title>Node1</title>
<polygon fill="#bfbfbf" stroke="black" points="288.5,-168.5 288.5,-187.5 369.5,-187.5 369.5,-168.5 288.5,-168.5"/>
<text text-anchor="middle" x="329" y="-175.5" font-family="Helvetica,sans-Serif" font-size="10.00">src/CMyIP.cpp</text>
</g>
<!-- Node2 -->
<g id="node2" class="node"><title>Node2</title>
<g id="a_node2"><a xlink:href="stdafx_8h.html" target="_top" xlink:title="stdafx.h : 标准系统包含文件的包含文件， &#160;或是经常使用但不常更改的 &#160;特定于项目的包含文件 ...">
<polygon fill="white" stroke="black" points="268.5,-112.5 268.5,-131.5 319.5,-131.5 319.5,-112.5 268.5,-112.5"/>
<text text-anchor="middle" x="294" y="-119.5" font-family="Helvetica,sans-Serif" font-size="10.00">stdafx.h</text>
</a>
</g>
</g>
<!-- Node1&#45;&gt;Node2 -->
<g id="edge1" class="edge"><title>Node1&#45;&gt;Node2</title>
<path fill="none" stroke="midnightblue" d="M323.22,-168.083C318.328,-160.534 311.173,-149.495 305.167,-140.23"/>
<polygon fill="midnightblue" stroke="midnightblue" points="308.048,-138.239 299.672,-131.751 302.174,-142.046 308.048,-138.239"/>
</g>
<!-- Node12 -->
<g id="node12" class="node"><title>Node12</title>
<g id="a_node12"><a xlink:href="_c_my_i_p_8h.html" target="_top" xlink:title="CMyIP.h">
<polygon fill="white" stroke="black" points="338,-112.5 338,-131.5 392,-131.5 392,-112.5 338,-112.5"/>
<text text-anchor="middle" x="365" y="-119.5" font-family="Helvetica,sans-Serif" font-size="10.00">CMyIP.h</text>
</a>
</g>
</g>
<!-- Node1&#45;&gt;Node12 -->
<g id="edge11" class="edge"><title>Node1&#45;&gt;Node12</title>
<path fill="none" stroke="midnightblue" d="M334.945,-168.083C339.977,-160.534 347.337,-149.495 353.513,-140.23"/>
<polygon fill="midnightblue" stroke="midnightblue" points="356.531,-142.013 359.166,-131.751 350.707,-138.13 356.531,-142.013"/>
</g>
<!-- Node3 -->
<g id="node3" class="node"><title>Node3</title>
<g id="a_node3"><a xlink:href="targetver_8h.html" target="_top" xlink:title="包括 SDKDDKVer.h 将定义最高版本的可用 Windows 平台。 如果要为以前的 Windows 平台生成应用程序，请包括 ...">
<polygon fill="white" stroke="black" points="9,-56.5 9,-75.5 71,-75.5 71,-56.5 9,-56.5"/>
<text text-anchor="middle" x="40" y="-63.5" font-family="Helvetica,sans-Serif" font-size="10.00">targetver.h</text>
</a>
</g>
</g>
<!-- Node2&#45;&gt;Node3 -->
<g id="edge2" class="edge"><title>Node2&#45;&gt;Node3</title>
<path fill="none" stroke="midnightblue" d="M268.281,-115.714C229.799,-107.777 154.704,-92.1894 81.3062,-76.263"/>
<polygon fill="midnightblue" stroke="midnightblue" points="81.949,-72.821 71.4336,-74.1164 80.4617,-79.6612 81.949,-72.821"/>
</g>
<!-- Node5 -->
<g id="node5" class="node"><title>Node5</title>
<polygon fill="white" stroke="#bfbfbf" points="89,-56.5 89,-75.5 141,-75.5 141,-56.5 89,-56.5"/>
<text text-anchor="middle" x="115" y="-63.5" font-family="Helvetica,sans-Serif" font-size="10.00">afxwin.h</text>
</g>
<!-- Node2&#45;&gt;Node5 -->
<g id="edge4" class="edge"><title>Node2&#45;&gt;Node5</title>
<path fill="none" stroke="midnightblue" d="M268.354,-113.263C237.559,-103.973 185.72,-88.3345 150.944,-77.8434"/>
<polygon fill="midnightblue" stroke="midnightblue" points="151.766,-74.4356 141.181,-74.8981 149.744,-81.1372 151.766,-74.4356"/>
</g>
<!-- Node6 -->
<g id="node6" class="node"><title>Node6</title>
<polygon fill="white" stroke="#bfbfbf" points="159.5,-56.5 159.5,-75.5 210.5,-75.5 210.5,-56.5 159.5,-56.5"/>
<text text-anchor="middle" x="185" y="-63.5" font-family="Helvetica,sans-Serif" font-size="10.00">afxext.h</text>
</g>
<!-- Node2&#45;&gt;Node6 -->
<g id="edge5" class="edge"><title>Node2&#45;&gt;Node6</title>
<path fill="none" stroke="midnightblue" d="M276.487,-112.324C258.928,-103.625 231.669,-90.1202 211.469,-80.113"/>
<polygon fill="midnightblue" stroke="midnightblue" points="212.984,-76.9575 202.469,-75.6545 209.876,-83.23 212.984,-76.9575"/>
</g>
<!-- Node7 -->
<g id="node7" class="node"><title>Node7</title>
<polygon fill="white" stroke="#bfbfbf" points="229,-56.5 229,-75.5 285,-75.5 285,-56.5 229,-56.5"/>
<text text-anchor="middle" x="257" y="-63.5" font-family="Helvetica,sans-Serif" font-size="10.00">afxdisp.h</text>
</g>
<!-- Node2&#45;&gt;Node7 -->
<g id="edge6" class="edge"><title>Node2&#45;&gt;Node7</title>
<path fill="none" stroke="midnightblue" d="M287.89,-112.083C282.718,-104.534 275.154,-93.4948 268.806,-84.2298"/>
<polygon fill="midnightblue" stroke="midnightblue" points="271.536,-82.0221 262.996,-75.7511 265.761,-85.9787 271.536,-82.0221"/>
</g>
<!-- Node8 -->
<g id="node8" class="node"><title>Node8</title>
<polygon fill="white" stroke="#bfbfbf" points="303,-56.5 303,-75.5 359,-75.5 359,-56.5 303,-56.5"/>
<text text-anchor="middle" x="331" y="-63.5" font-family="Helvetica,sans-Serif" font-size="10.00">afxdtctl.h</text>
</g>
<!-- Node2&#45;&gt;Node8 -->
<g id="edge7" class="edge"><title>Node2&#45;&gt;Node8</title>
<path fill="none" stroke="midnightblue" d="M300.11,-112.083C305.282,-104.534 312.846,-93.4948 319.194,-84.2298"/>
<polygon fill="midnightblue" stroke="midnightblue" points="322.239,-85.9787 325.004,-75.7511 316.464,-82.0221 322.239,-85.9787"/>
</g>
<!-- Node9 -->
<g id="node9" class="node"><title>Node9</title>
<polygon fill="white" stroke="#bfbfbf" points="377,-56.5 377,-75.5 433,-75.5 433,-56.5 377,-56.5"/>
<text text-anchor="middle" x="405" y="-63.5" font-family="Helvetica,sans-Serif" font-size="10.00">afxcmn.h</text>
</g>
<!-- Node2&#45;&gt;Node9 -->
<g id="edge8" class="edge"><title>Node2&#45;&gt;Node9</title>
<path fill="none" stroke="midnightblue" d="M311.834,-112.324C329.716,-103.625 357.475,-90.1202 378.046,-80.113"/>
<polygon fill="midnightblue" stroke="midnightblue" points="379.749,-83.1765 387.21,-75.6545 376.687,-76.8819 379.749,-83.1765"/>
</g>
<!-- Node10 -->
<g id="node10" class="node"><title>Node10</title>
<polygon fill="white" stroke="#bfbfbf" points="451,-56.5 451,-75.5 537,-75.5 537,-56.5 451,-56.5"/>
<text text-anchor="middle" x="494" y="-63.5" font-family="Helvetica,sans-Serif" font-size="10.00">afxcontrolbars.h</text>
</g>
<!-- Node2&#45;&gt;Node10 -->
<g id="edge9" class="edge"><title>Node2&#45;&gt;Node10</title>
<path fill="none" stroke="midnightblue" d="M319.737,-114.051C353.389,-104.965 412.745,-88.9389 452.718,-78.1462"/>
<polygon fill="midnightblue" stroke="midnightblue" points="453.693,-81.5082 462.435,-75.5225 451.869,-74.7502 453.693,-81.5082"/>
</g>
<!-- Node11 -->
<g id="node11" class="node"><title>Node11</title>
<polygon fill="white" stroke="#bfbfbf" points="555.5,-56.5 555.5,-75.5 614.5,-75.5 614.5,-56.5 555.5,-56.5"/>
<text text-anchor="middle" x="585" y="-63.5" font-family="Helvetica,sans-Serif" font-size="10.00">afxsock.h</text>
</g>
<!-- Node2&#45;&gt;Node11 -->
<g id="edge10" class="edge"><title>Node2&#45;&gt;Node11</title>
<path fill="none" stroke="midnightblue" d="M319.554,-114.155C322.725,-113.386 325.931,-112.648 329,-112 421.572,-92.4581 448.389,-94.8191 545.31,-76.0211"/>
<polygon fill="midnightblue" stroke="midnightblue" points="546.093,-79.4342 555.231,-74.0712 544.743,-72.5656 546.093,-79.4342"/>
</g>
<!-- Node4 -->
<g id="node4" class="node"><title>Node4</title>
<polygon fill="white" stroke="#bfbfbf" points="0,-0.5 0,-19.5 80,-19.5 80,-0.5 0,-0.5"/>
<text text-anchor="middle" x="40" y="-7.5" font-family="Helvetica,sans-Serif" font-size="10.00">SDKDDKVer.h</text>
</g>
<!-- Node3&#45;&gt;Node4 -->
<g id="edge3" class="edge"><title>Node3&#45;&gt;Node4</title>
<path fill="none" stroke="midnightblue" d="M40,-56.083C40,-49.0059 40,-38.8611 40,-29.9865"/>
<polygon fill="midnightblue" stroke="midnightblue" points="43.5001,-29.751 40,-19.7511 36.5001,-29.7511 43.5001,-29.751"/>
</g>
</g>
</svg>
