<?xml version="1.0" encoding="UTF-8" standalone="no"?>
<!DOCTYPE svg PUBLIC "-//W3C//DTD SVG 1.1//EN"
 "http://www.w3.org/Graphics/SVG/1.1/DTD/svg11.dtd">
<!-- Generated by graphviz version 2.38.0 (20140413.2041)
 -->
<!-- Title: src/CmdView.cpp Pages: 1 -->
<svg width="623pt" height="420pt"
 viewBox="0.00 0.00 622.50 420.00" xmlns="http://www.w3.org/2000/svg" xmlns:xlink="http://www.w3.org/1999/xlink">
<g id="graph0" class="graph" transform="scale(1 1) rotate(0) translate(4 416)">
<title>src/CmdView.cpp</title>
<polygon fill="white" stroke="none" points="-4,4 -4,-416 618.5,-416 618.5,4 -4,4"/>
<!-- Node1 -->
<g id="node1" class="node"><title>Node1</title>
<polygon fill="#bfbfbf" stroke="black" points="329.5,-392.5 329.5,-411.5 422.5,-411.5 422.5,-392.5 329.5,-392.5"/>
<text text-anchor="middle" x="376" y="-399.5" font-family="Helvetica,sans-Serif" font-size="10.00">src/CmdView.cpp</text>
</g>
<!-- Node2 -->
<g id="node2" class="node"><title>Node2</title>
<g id="a_node2"><a xlink:href="stdafx_8h.html" target="_top" xlink:title="stdafx.h : 标准系统包含文件的包含文件， &#160;或是经常使用但不常更改的 &#160;特定于项目的包含文件 ...">
<polygon fill="white" stroke="black" points="268.5,-112.5 268.5,-131.5 319.5,-131.5 319.5,-112.5 268.5,-112.5"/>
<text text-anchor="middle" x="294" y="-119.5" font-family="Helvetica,sans-Serif" font-size="10.00">stdafx.h</text>
</a>
</g>
</g>
<!-- Node1&#45;&gt;Node2 -->
<g id="edge1" class="edge"><title>Node1&#45;&gt;Node2</title>
<path fill="none" stroke="midnightblue" d="M353.71,-392.496C319.007,-377.632 256,-343.426 256,-291 256,-291 256,-291 256,-233 256,-198.813 272.6,-161.764 283.857,-140.571"/>
<polygon fill="midnightblue" stroke="midnightblue" points="286.947,-142.215 288.716,-131.769 280.819,-138.832 286.947,-142.215"/>
</g>
<!-- Node12 -->
<g id="node12" class="node"><title>Node12</title>
<g id="a_node12"><a xlink:href="_hust_net_8h.html" target="_top" xlink:title="HustNet.h">
<polygon fill="white" stroke="black" points="168,-336.5 168,-355.5 228,-355.5 228,-336.5 168,-336.5"/>
<text text-anchor="middle" x="198" y="-343.5" font-family="Helvetica,sans-Serif" font-size="10.00">HustNet.h</text>
</a>
</g>
</g>
<!-- Node1&#45;&gt;Node12 -->
<g id="edge11" class="edge"><title>Node1&#45;&gt;Node12</title>
<path fill="none" stroke="midnightblue" d="M347.795,-392.444C317.59,-383.28 269.489,-368.688 235.971,-358.519"/>
<polygon fill="midnightblue" stroke="midnightblue" points="236.658,-355.07 226.073,-355.516 234.626,-361.769 236.658,-355.07"/>
</g>
<!-- Node14 -->
<g id="node14" class="node"><title>Node14</title>
<g id="a_node14"><a xlink:href="_cmd_view_8h.html" target="_top" xlink:title="CmdView.h">
<polygon fill="white" stroke="black" points="504,-224.5 504,-243.5 570,-243.5 570,-224.5 504,-224.5"/>
<text text-anchor="middle" x="537" y="-231.5" font-family="Helvetica,sans-Serif" font-size="10.00">CmdView.h</text>
</a>
</g>
</g>
<!-- Node1&#45;&gt;Node14 -->
<g id="edge13" class="edge"><title>Node1&#45;&gt;Node14</title>
<path fill="none" stroke="midnightblue" d="M384.656,-392.075C410.657,-365.267 488.322,-285.19 521.593,-250.885"/>
<polygon fill="midnightblue" stroke="midnightblue" points="524.24,-253.183 528.69,-243.568 519.215,-248.31 524.24,-253.183"/>
</g>
<!-- Node15 -->
<g id="node15" class="node"><title>Node15</title>
<g id="a_node15"><a xlink:href="_user_cmd_8h.html" target="_top" xlink:title="UserCmd.h">
<polygon fill="white" stroke="black" points="534.5,-168.5 534.5,-187.5 599.5,-187.5 599.5,-168.5 534.5,-168.5"/>
<text text-anchor="middle" x="567" y="-175.5" font-family="Helvetica,sans-Serif" font-size="10.00">UserCmd.h</text>
</a>
</g>
</g>
<!-- Node1&#45;&gt;Node15 -->
<g id="edge22" class="edge"><title>Node1&#45;&gt;Node15</title>
<path fill="none" stroke="midnightblue" d="M397.386,-392.464C441.456,-373.528 541.398,-323.308 579,-244 586.052,-229.127 581.434,-210.515 576.01,-197.023"/>
<polygon fill="midnightblue" stroke="midnightblue" points="579.178,-195.535 571.885,-187.85 572.794,-198.406 579.178,-195.535"/>
</g>
<!-- Node18 -->
<g id="node18" class="node"><title>Node18</title>
<g id="a_node18"><a xlink:href="_main_frm_8h.html" target="_top" xlink:title="MainFrm.h">
<polygon fill="white" stroke="black" points="371.5,-280.5 371.5,-299.5 434.5,-299.5 434.5,-280.5 371.5,-280.5"/>
<text text-anchor="middle" x="403" y="-287.5" font-family="Helvetica,sans-Serif" font-size="10.00">MainFrm.h</text>
</a>
</g>
</g>
<!-- Node1&#45;&gt;Node18 -->
<g id="edge18" class="edge"><title>Node1&#45;&gt;Node18</title>
<path fill="none" stroke="midnightblue" d="M378.119,-392.368C382.476,-374.617 392.527,-333.666 398.435,-309.597"/>
<polygon fill="midnightblue" stroke="midnightblue" points="401.906,-310.137 400.891,-299.591 395.108,-308.469 401.906,-310.137"/>
</g>
<!-- Node21 -->
<g id="node21" class="node"><title>Node21</title>
<g id="a_node21"><a xlink:href="_u_i_ctrl_8h.html" target="_top" xlink:title="UICtrl. ">
<polygon fill="white" stroke="black" points="325.5,-336.5 325.5,-355.5 374.5,-355.5 374.5,-336.5 325.5,-336.5"/>
<text text-anchor="middle" x="350" y="-343.5" font-family="Helvetica,sans-Serif" font-size="10.00">UICtrl.h</text>
</a>
</g>
</g>
<!-- Node1&#45;&gt;Node21 -->
<g id="edge23" class="edge"><title>Node1&#45;&gt;Node21</title>
<path fill="none" stroke="midnightblue" d="M371.707,-392.083C368.148,-384.691 362.978,-373.953 358.576,-364.811"/>
<polygon fill="midnightblue" stroke="midnightblue" points="361.705,-363.243 354.213,-355.751 355.398,-366.279 361.705,-363.243"/>
</g>
<!-- Node3 -->
<g id="node3" class="node"><title>Node3</title>
<g id="a_node3"><a xlink:href="targetver_8h.html" target="_top" xlink:title="包括 SDKDDKVer.h 将定义最高版本的可用 Windows 平台。 如果要为以前的 Windows 平台生成应用程序，请包括 ...">
<polygon fill="white" stroke="black" points="9,-56.5 9,-75.5 71,-75.5 71,-56.5 9,-56.5"/>
<text text-anchor="middle" x="40" y="-63.5" font-family="Helvetica,sans-Serif" font-size="10.00">targetver.h</text>
</a>
</g>
</g>
<!-- Node2&#45;&gt;Node3 -->
<g id="edge2" class="edge"><title>Node2&#45;&gt;Node3</title>
<path fill="none" stroke="midnightblue" d="M268.281,-115.714C229.799,-107.777 154.704,-92.1894 81.3062,-76.263"/>
<polygon fill="midnightblue" stroke="midnightblue" points="81.949,-72.821 71.4336,-74.1164 80.4617,-79.6612 81.949,-72.821"/>
</g>
<!-- Node5 -->
<g id="node5" class="node"><title>Node5</title>
<polygon fill="white" stroke="#bfbfbf" points="89,-56.5 89,-75.5 141,-75.5 141,-56.5 89,-56.5"/>
<text text-anchor="middle" x="115" y="-63.5" font-family="Helvetica,sans-Serif" font-size="10.00">afxwin.h</text>
</g>
<!-- Node2&#45;&gt;Node5 -->
<g id="edge4" class="edge"><title>Node2&#45;&gt;Node5</title>
<path fill="none" stroke="midnightblue" d="M268.354,-113.263C237.559,-103.973 185.72,-88.3345 150.944,-77.8434"/>
<polygon fill="midnightblue" stroke="midnightblue" points="151.766,-74.4356 141.181,-74.8981 149.744,-81.1372 151.766,-74.4356"/>
</g>
<!-- Node6 -->
<g id="node6" class="node"><title>Node6</title>
<polygon fill="white" stroke="#bfbfbf" points="159.5,-56.5 159.5,-75.5 210.5,-75.5 210.5,-56.5 159.5,-56.5"/>
<text text-anchor="middle" x="185" y="-63.5" font-family="Helvetica,sans-Serif" font-size="10.00">afxext.h</text>
</g>
<!-- Node2&#45;&gt;Node6 -->
<g id="edge5" class="edge"><title>Node2&#45;&gt;Node6</title>
<path fill="none" stroke="midnightblue" d="M276.487,-112.324C258.928,-103.625 231.669,-90.1202 211.469,-80.113"/>
<polygon fill="midnightblue" stroke="midnightblue" points="212.984,-76.9575 202.469,-75.6545 209.876,-83.23 212.984,-76.9575"/>
</g>
<!-- Node7 -->
<g id="node7" class="node"><title>Node7</title>
<polygon fill="white" stroke="#bfbfbf" points="229,-56.5 229,-75.5 285,-75.5 285,-56.5 229,-56.5"/>
<text text-anchor="middle" x="257" y="-63.5" font-family="Helvetica,sans-Serif" font-size="10.00">afxdisp.h</text>
</g>
<!-- Node2&#45;&gt;Node7 -->
<g id="edge6" class="edge"><title>Node2&#45;&gt;Node7</title>
<path fill="none" stroke="midnightblue" d="M287.89,-112.083C282.718,-104.534 275.154,-93.4948 268.806,-84.2298"/>
<polygon fill="midnightblue" stroke="midnightblue" points="271.536,-82.0221 262.996,-75.7511 265.761,-85.9787 271.536,-82.0221"/>
</g>
<!-- Node8 -->
<g id="node8" class="node"><title>Node8</title>
<polygon fill="white" stroke="#bfbfbf" points="303,-56.5 303,-75.5 359,-75.5 359,-56.5 303,-56.5"/>
<text text-anchor="middle" x="331" y="-63.5" font-family="Helvetica,sans-Serif" font-size="10.00">afxdtctl.h</text>
</g>
<!-- Node2&#45;&gt;Node8 -->
<g id="edge7" class="edge"><title>Node2&#45;&gt;Node8</title>
<path fill="none" stroke="midnightblue" d="M300.11,-112.083C305.282,-104.534 312.846,-93.4948 319.194,-84.2298"/>
<polygon fill="midnightblue" stroke="midnightblue" points="322.239,-85.9787 325.004,-75.7511 316.464,-82.0221 322.239,-85.9787"/>
</g>
<!-- Node9 -->
<g id="node9" class="node"><title>Node9</title>
<polygon fill="white" stroke="#bfbfbf" points="377,-56.5 377,-75.5 433,-75.5 433,-56.5 377,-56.5"/>
<text text-anchor="middle" x="405" y="-63.5" font-family="Helvetica,sans-Serif" font-size="10.00">afxcmn.h</text>
</g>
<!-- Node2&#45;&gt;Node9 -->
<g id="edge8" class="edge"><title>Node2&#45;&gt;Node9</title>
<path fill="none" stroke="midnightblue" d="M311.834,-112.324C329.716,-103.625 357.475,-90.1202 378.046,-80.113"/>
<polygon fill="midnightblue" stroke="midnightblue" points="379.749,-83.1765 387.21,-75.6545 376.687,-76.8819 379.749,-83.1765"/>
</g>
<!-- Node10 -->
<g id="node10" class="node"><title>Node10</title>
<polygon fill="white" stroke="#bfbfbf" points="451,-56.5 451,-75.5 537,-75.5 537,-56.5 451,-56.5"/>
<text text-anchor="middle" x="494" y="-63.5" font-family="Helvetica,sans-Serif" font-size="10.00">afxcontrolbars.h</text>
</g>
<!-- Node2&#45;&gt;Node10 -->
<g id="edge9" class="edge"><title>Node2&#45;&gt;Node10</title>
<path fill="none" stroke="midnightblue" d="M319.737,-114.051C353.389,-104.965 412.745,-88.9389 452.718,-78.1462"/>
<polygon fill="midnightblue" stroke="midnightblue" points="453.693,-81.5082 462.435,-75.5225 451.869,-74.7502 453.693,-81.5082"/>
</g>
<!-- Node11 -->
<g id="node11" class="node"><title>Node11</title>
<polygon fill="white" stroke="#bfbfbf" points="555.5,-56.5 555.5,-75.5 614.5,-75.5 614.5,-56.5 555.5,-56.5"/>
<text text-anchor="middle" x="585" y="-63.5" font-family="Helvetica,sans-Serif" font-size="10.00">afxsock.h</text>
</g>
<!-- Node2&#45;&gt;Node11 -->
<g id="edge10" class="edge"><title>Node2&#45;&gt;Node11</title>
<path fill="none" stroke="midnightblue" d="M319.838,-116.825C363.918,-109.609 456.685,-94.0127 545.28,-76.0617"/>
<polygon fill="midnightblue" stroke="midnightblue" points="546.124,-79.4616 555.223,-74.0333 544.725,-72.6028 546.124,-79.4616"/>
</g>
<!-- Node4 -->
<g id="node4" class="node"><title>Node4</title>
<polygon fill="white" stroke="#bfbfbf" points="0,-0.5 0,-19.5 80,-19.5 80,-0.5 0,-0.5"/>
<text text-anchor="middle" x="40" y="-7.5" font-family="Helvetica,sans-Serif" font-size="10.00">SDKDDKVer.h</text>
</g>
<!-- Node3&#45;&gt;Node4 -->
<g id="edge3" class="edge"><title>Node3&#45;&gt;Node4</title>
<path fill="none" stroke="midnightblue" d="M40,-56.083C40,-49.0059 40,-38.8611 40,-29.9865"/>
<polygon fill="midnightblue" stroke="midnightblue" points="43.5001,-29.751 40,-19.7511 36.5001,-29.7511 43.5001,-29.751"/>
</g>
<!-- Node13 -->
<g id="node13" class="node"><title>Node13</title>
<g id="a_node13"><a xlink:href="_resource_8h.html" target="_top" xlink:title="resource.h">
<polygon fill="white" stroke="black" points="166,-280.5 166,-299.5 228,-299.5 228,-280.5 166,-280.5"/>
<text text-anchor="middle" x="197" y="-287.5" font-family="Helvetica,sans-Serif" font-size="10.00">resource.h</text>
</a>
</g>
</g>
<!-- Node12&#45;&gt;Node13 -->
<g id="edge12" class="edge"><title>Node12&#45;&gt;Node13</title>
<path fill="none" stroke="midnightblue" d="M197.835,-336.083C197.704,-329.006 197.516,-318.861 197.352,-309.986"/>
<polygon fill="midnightblue" stroke="midnightblue" points="200.847,-309.685 197.162,-299.751 193.848,-309.814 200.847,-309.685"/>
</g>
<!-- Node14&#45;&gt;Node15 -->
<g id="edge14" class="edge"><title>Node14&#45;&gt;Node15</title>
<path fill="none" stroke="midnightblue" d="M541.954,-224.083C546.104,-216.613 552.153,-205.724 557.267,-196.52"/>
<polygon fill="midnightblue" stroke="midnightblue" points="560.341,-198.192 562.138,-187.751 554.222,-194.793 560.341,-198.192"/>
</g>
<!-- Node17 -->
<g id="node17" class="node"><title>Node17</title>
<polygon fill="white" stroke="#bfbfbf" points="481.5,-168.5 481.5,-187.5 516.5,-187.5 516.5,-168.5 481.5,-168.5"/>
<text text-anchor="middle" x="499" y="-175.5" font-family="Helvetica,sans-Serif" font-size="10.00">map</text>
</g>
<!-- Node14&#45;&gt;Node17 -->
<g id="edge17" class="edge"><title>Node14&#45;&gt;Node17</title>
<path fill="none" stroke="midnightblue" d="M530.725,-224.083C525.358,-216.455 517.482,-205.264 510.921,-195.941"/>
<polygon fill="midnightblue" stroke="midnightblue" points="513.775,-193.915 505.158,-187.751 508.051,-197.943 513.775,-193.915"/>
</g>
<!-- Node15&#45;&gt;Node2 -->
<g id="edge15" class="edge"><title>Node15&#45;&gt;Node2</title>
<path fill="none" stroke="midnightblue" d="M534.342,-169.756C531.522,-169.153 528.712,-168.561 526,-168 456.668,-153.669 375.393,-138.212 329.778,-129.658"/>
<polygon fill="midnightblue" stroke="midnightblue" points="330.263,-126.188 319.789,-127.789 328.975,-133.069 330.263,-126.188"/>
</g>
<!-- Node16 -->
<g id="node16" class="node"><title>Node16</title>
<g id="a_node16"><a xlink:href="_net_dll_8h.html" target="_top" xlink:title="NetDll.h">
<polygon fill="white" stroke="black" points="541.5,-112.5 541.5,-131.5 592.5,-131.5 592.5,-112.5 541.5,-112.5"/>
<text text-anchor="middle" x="567" y="-119.5" font-family="Helvetica,sans-Serif" font-size="10.00">NetDll.h</text>
</a>
</g>
</g>
<!-- Node15&#45;&gt;Node16 -->
<g id="edge16" class="edge"><title>Node15&#45;&gt;Node16</title>
<path fill="none" stroke="midnightblue" d="M567,-168.083C567,-161.006 567,-150.861 567,-141.986"/>
<polygon fill="midnightblue" stroke="midnightblue" points="570.5,-141.751 567,-131.751 563.5,-141.751 570.5,-141.751"/>
</g>
<!-- Node18&#45;&gt;Node14 -->
<g id="edge19" class="edge"><title>Node18&#45;&gt;Node14</title>
<path fill="none" stroke="midnightblue" d="M424.233,-280.444C446.384,-271.517 481.319,-257.439 506.436,-247.317"/>
<polygon fill="midnightblue" stroke="midnightblue" points="507.9,-250.501 515.867,-243.516 505.283,-244.008 507.9,-250.501"/>
</g>
<!-- Node19 -->
<g id="node19" class="node"><title>Node19</title>
<g id="a_node19"><a xlink:href="_log_view_8h.html" target="_top" xlink:title="LogView.h">
<polygon fill="white" stroke="black" points="322,-224.5 322,-243.5 384,-243.5 384,-224.5 322,-224.5"/>
<text text-anchor="middle" x="353" y="-231.5" font-family="Helvetica,sans-Serif" font-size="10.00">LogView.h</text>
</a>
</g>
</g>
<!-- Node18&#45;&gt;Node19 -->
<g id="edge20" class="edge"><title>Node18&#45;&gt;Node19</title>
<path fill="none" stroke="midnightblue" d="M394.744,-280.083C387.535,-272.298 376.89,-260.801 368.154,-251.367"/>
<polygon fill="midnightblue" stroke="midnightblue" points="370.465,-248.711 361.103,-243.751 365.329,-253.467 370.465,-248.711"/>
</g>
<!-- Node20 -->
<g id="node20" class="node"><title>Node20</title>
<g id="a_node20"><a xlink:href="_respond_view_8h.html" target="_top" xlink:title="RespondView 视图 ">
<polygon fill="white" stroke="black" points="402,-224.5 402,-243.5 486,-243.5 486,-224.5 402,-224.5"/>
<text text-anchor="middle" x="444" y="-231.5" font-family="Helvetica,sans-Serif" font-size="10.00">RespondView.h</text>
</a>
</g>
</g>
<!-- Node18&#45;&gt;Node20 -->
<g id="edge21" class="edge"><title>Node18&#45;&gt;Node20</title>
<path fill="none" stroke="midnightblue" d="M409.77,-280.083C415.562,-272.455 424.058,-261.264 431.138,-251.941"/>
<polygon fill="midnightblue" stroke="midnightblue" points="434.096,-253.832 437.356,-243.751 428.521,-249.599 434.096,-253.832"/>
</g>
<!-- Node21&#45;&gt;Node2 -->
<g id="edge24" class="edge"><title>Node21&#45;&gt;Node2</title>
<path fill="none" stroke="midnightblue" d="M346.139,-336.268C338.648,-318.99 322.084,-279.071 313,-244 303.79,-208.443 298.358,-165.781 295.799,-141.79"/>
<polygon fill="midnightblue" stroke="midnightblue" points="299.26,-141.222 294.77,-131.626 292.296,-141.928 299.26,-141.222"/>
</g>
<!-- Node21&#45;&gt;Node18 -->
<g id="edge25" class="edge"><title>Node21&#45;&gt;Node18</title>
<path fill="none" stroke="midnightblue" d="M358.752,-336.083C366.47,-328.22 377.905,-316.569 387.217,-307.081"/>
<polygon fill="midnightblue" stroke="midnightblue" points="389.904,-309.34 394.411,-299.751 384.908,-304.436 389.904,-309.34"/>
</g>
</g>
</svg>
