<?xml version="1.0" encoding="UTF-8" standalone="no"?>
<!DOCTYPE svg PUBLIC "-//W3C//DTD SVG 1.1//EN"
 "http://www.w3.org/Graphics/SVG/1.1/DTD/svg11.dtd">
<!-- Generated by graphviz version 2.38.0 (20140413.2041)
 -->
<!-- Title: src/CmdView.h Pages: 1 -->
<svg width="508pt" height="196pt"
 viewBox="0.00 0.00 507.50 196.00" xmlns="http://www.w3.org/2000/svg" xmlns:xlink="http://www.w3.org/1999/xlink">
<g id="graph0" class="graph" transform="scale(1 1) rotate(0) translate(4 192)">
<title>src/CmdView.h</title>
<polygon fill="white" stroke="none" points="-4,4 -4,-192 503.5,-192 503.5,4 -4,4"/>
<!-- Node1 -->
<g id="node1" class="node"><title>Node1</title>
<polygon fill="#bfbfbf" stroke="black" points="143,-168.5 143,-187.5 226,-187.5 226,-168.5 143,-168.5"/>
<text text-anchor="middle" x="184.5" y="-175.5" font-family="Helvetica,sans-Serif" font-size="10.00">src/CmdView.h</text>
</g>
<!-- Node2 -->
<g id="node2" class="node"><title>Node2</title>
<g id="a_node2"><a xlink:href="_cmd_view_8cpp.html" target="_top" xlink:title="CmdView.cpp : 实现文件 ">
<polygon fill="white" stroke="black" points="0,-0.5 0,-19.5 93,-19.5 93,-0.5 0,-0.5"/>
<text text-anchor="middle" x="46.5" y="-7.5" font-family="Helvetica,sans-Serif" font-size="10.00">src/CmdView.cpp</text>
</a>
</g>
</g>
<!-- Node1&#45;&gt;Node2 -->
<g id="edge1" class="edge"><title>Node1&#45;&gt;Node2</title>
<path fill="none" stroke="midnightblue" d="M166.894,-161.449C157.421,-152.929 145.635,-142.079 135.5,-132 111.418,-108.05 103.59,-103.385 83.5,-76 69.6747,-57.1546 56.999,-32.6755 50.6913,-19.802"/>
<polygon fill="midnightblue" stroke="midnightblue" points="164.733,-164.212 174.524,-168.259 169.394,-158.989 164.733,-164.212"/>
</g>
<!-- Node3 -->
<g id="node3" class="node"><title>Node3</title>
<g id="a_node3"><a xlink:href="_main_frm_8h.html" target="_top" xlink:title="src/MainFrm.h">
<polygon fill="white" stroke="black" points="144.5,-112.5 144.5,-131.5 224.5,-131.5 224.5,-112.5 144.5,-112.5"/>
<text text-anchor="middle" x="184.5" y="-119.5" font-family="Helvetica,sans-Serif" font-size="10.00">src/MainFrm.h</text>
</a>
</g>
</g>
<!-- Node1&#45;&gt;Node3 -->
<g id="edge2" class="edge"><title>Node1&#45;&gt;Node3</title>
<path fill="none" stroke="midnightblue" d="M184.5,-157.805C184.5,-148.91 184.5,-138.78 184.5,-131.751"/>
<polygon fill="midnightblue" stroke="midnightblue" points="181,-158.083 184.5,-168.083 188,-158.083 181,-158.083"/>
</g>
<!-- Node9 -->
<g id="node9" class="node"><title>Node9</title>
<g id="a_node9"><a xlink:href="_hust_net_8cpp.html" target="_top" xlink:title="HustNet.cpp : 定义应用程序的类行为。 ">
<polygon fill="white" stroke="black" points="310,-56.5 310,-75.5 397,-75.5 397,-56.5 310,-56.5"/>
<text text-anchor="middle" x="353.5" y="-63.5" font-family="Helvetica,sans-Serif" font-size="10.00">src/HustNet.cpp</text>
</a>
</g>
</g>
<!-- Node1&#45;&gt;Node9 -->
<g id="edge12" class="edge"><title>Node1&#45;&gt;Node9</title>
<path fill="none" stroke="midnightblue" d="M206.448,-162.714C242.06,-139.535 311.357,-94.4303 340.3,-75.5914"/>
<polygon fill="midnightblue" stroke="midnightblue" points="204.233,-159.98 197.761,-168.368 208.052,-165.847 204.233,-159.98"/>
</g>
<!-- Node3&#45;&gt;Node2 -->
<g id="edge3" class="edge"><title>Node3&#45;&gt;Node2</title>
<path fill="none" stroke="midnightblue" d="M158.149,-107.731C142.969,-99.5292 123.905,-88.2504 108.5,-76 86.2846,-58.3344 64.3199,-32.934 53.4779,-19.7255"/>
<polygon fill="midnightblue" stroke="midnightblue" points="156.555,-110.847 167.032,-112.421 159.823,-104.657 156.555,-110.847"/>
</g>
<!-- Node4 -->
<g id="node4" class="node"><title>Node4</title>
<g id="a_node4"><a xlink:href="_u_i_ctrl_8h.html" target="_top" xlink:title="UICtrl. ">
<polygon fill="white" stroke="black" points="118,-56.5 118,-75.5 183,-75.5 183,-56.5 118,-56.5"/>
<text text-anchor="middle" x="150.5" y="-63.5" font-family="Helvetica,sans-Serif" font-size="10.00">src/UICtrl.h</text>
</a>
</g>
</g>
<!-- Node3&#45;&gt;Node4 -->
<g id="edge4" class="edge"><title>Node3&#45;&gt;Node4</title>
<path fill="none" stroke="midnightblue" d="M173.523,-103.566C167.673,-94.2747 160.73,-83.2484 156.01,-75.7511"/>
<polygon fill="midnightblue" stroke="midnightblue" points="170.596,-105.486 178.886,-112.083 176.519,-101.756 170.596,-105.486"/>
</g>
<!-- Node3&#45;&gt;Node9 -->
<g id="edge10" class="edge"><title>Node3&#45;&gt;Node9</title>
<path fill="none" stroke="midnightblue" d="M221.103,-109.304C252.947,-99.1294 298.342,-84.6246 326.847,-75.5164"/>
<polygon fill="midnightblue" stroke="midnightblue" points="219.739,-106.066 211.279,-112.444 221.869,-112.734 219.739,-106.066"/>
</g>
<!-- Node10 -->
<g id="node10" class="node"><title>Node10</title>
<g id="a_node10"><a xlink:href="_main_frm_8cpp.html" target="_top" xlink:title="MainFrm.cpp : CMainFrame 类的实现 ">
<polygon fill="white" stroke="black" points="201.5,-56.5 201.5,-75.5 291.5,-75.5 291.5,-56.5 201.5,-56.5"/>
<text text-anchor="middle" x="246.5" y="-63.5" font-family="Helvetica,sans-Serif" font-size="10.00">src/MainFrm.cpp</text>
</a>
</g>
</g>
<!-- Node3&#45;&gt;Node10 -->
<g id="edge11" class="edge"><title>Node3&#45;&gt;Node10</title>
<path fill="none" stroke="midnightblue" d="M202.254,-105.537C213.308,-95.9087 227.131,-83.8694 236.357,-75.8339"/>
<polygon fill="midnightblue" stroke="midnightblue" points="199.703,-103.117 194.461,-112.324 204.301,-108.395 199.703,-103.117"/>
</g>
<!-- Node4&#45;&gt;Node2 -->
<g id="edge5" class="edge"><title>Node4&#45;&gt;Node2</title>
<path fill="none" stroke="midnightblue" d="M124.672,-51.5895C105.443,-41.6052 79.7553,-28.2672 63.1679,-19.6545"/>
<polygon fill="midnightblue" stroke="midnightblue" points="123.303,-54.822 133.791,-56.324 126.529,-48.6095 123.303,-54.822"/>
</g>
<!-- Node5 -->
<g id="node5" class="node"><title>Node5</title>
<g id="a_node5"><a xlink:href="_net_dll_8cpp.html" target="_top" xlink:title="NetDll. ">
<polygon fill="white" stroke="black" points="111.5,-0.5 111.5,-19.5 189.5,-19.5 189.5,-0.5 111.5,-0.5"/>
<text text-anchor="middle" x="150.5" y="-7.5" font-family="Helvetica,sans-Serif" font-size="10.00">src/NetDll.cpp</text>
</a>
</g>
</g>
<!-- Node4&#45;&gt;Node5 -->
<g id="edge6" class="edge"><title>Node4&#45;&gt;Node5</title>
<path fill="none" stroke="midnightblue" d="M150.5,-45.8045C150.5,-36.9102 150.5,-26.7798 150.5,-19.7511"/>
<polygon fill="midnightblue" stroke="midnightblue" points="147,-46.083 150.5,-56.083 154,-46.083 147,-46.083"/>
</g>
<!-- Node6 -->
<g id="node6" class="node"><title>Node6</title>
<g id="a_node6"><a xlink:href="_net_html_8cpp.html" target="_top" xlink:title="NetHtml.cpp. ">
<polygon fill="white" stroke="black" points="208,-0.5 208,-19.5 295,-19.5 295,-0.5 208,-0.5"/>
<text text-anchor="middle" x="251.5" y="-7.5" font-family="Helvetica,sans-Serif" font-size="10.00">src/NetHtml.cpp</text>
</a>
</g>
</g>
<!-- Node4&#45;&gt;Node6 -->
<g id="edge7" class="edge"><title>Node4&#45;&gt;Node6</title>
<path fill="none" stroke="midnightblue" d="M175.583,-51.5895C194.257,-41.6052 219.204,-28.2672 235.313,-19.6545"/>
<polygon fill="midnightblue" stroke="midnightblue" points="173.896,-48.5224 166.727,-56.324 177.196,-54.6955 173.896,-48.5224"/>
</g>
<!-- Node7 -->
<g id="node7" class="node"><title>Node7</title>
<g id="a_node7"><a xlink:href="_u_i_ctrl_8cpp.html" target="_top" xlink:title="src/UICtrl.cpp">
<polygon fill="white" stroke="black" points="313.5,-0.5 313.5,-19.5 389.5,-19.5 389.5,-0.5 313.5,-0.5"/>
<text text-anchor="middle" x="351.5" y="-7.5" font-family="Helvetica,sans-Serif" font-size="10.00">src/UICtrl.cpp</text>
</a>
</g>
</g>
<!-- Node4&#45;&gt;Node7 -->
<g id="edge8" class="edge"><title>Node4&#45;&gt;Node7</title>
<path fill="none" stroke="midnightblue" d="M192.081,-53.8291C230.031,-43.6333 285.31,-28.7823 319.8,-19.5164"/>
<polygon fill="midnightblue" stroke="midnightblue" points="191.098,-50.4688 182.349,-56.4435 192.915,-57.229 191.098,-50.4688"/>
</g>
<!-- Node8 -->
<g id="node8" class="node"><title>Node8</title>
<g id="a_node8"><a xlink:href="_user_cmd_8cpp.html" target="_top" xlink:title="UserCmd.cpp. ">
<polygon fill="white" stroke="black" points="407.5,-0.5 407.5,-19.5 499.5,-19.5 499.5,-0.5 407.5,-0.5"/>
<text text-anchor="middle" x="453.5" y="-7.5" font-family="Helvetica,sans-Serif" font-size="10.00">src/UserCmd.cpp</text>
</a>
</g>
</g>
<!-- Node4&#45;&gt;Node8 -->
<g id="edge9" class="edge"><title>Node4&#45;&gt;Node8</title>
<path fill="none" stroke="midnightblue" d="M193.054,-55.9754C246.482,-45.8938 347.758,-28.74 407.301,-18.7344"/>
<polygon fill="midnightblue" stroke="midnightblue" points="192.197,-52.5758 183.033,-57.8932 193.513,-59.451 192.197,-52.5758"/>
</g>
</g>
</svg>
