<?xml version="1.0" encoding="UTF-8" standalone="no"?>
<!DOCTYPE svg PUBLIC "-//W3C//DTD SVG 1.1//EN"
 "http://www.w3.org/Graphics/SVG/1.1/DTD/svg11.dtd">
<!-- Generated by graphviz version 2.38.0 (20140413.2041)
 -->
<!-- Title: src/HustNet.h Pages: 1 -->
<svg width="869pt" height="84pt"
 viewBox="0.00 0.00 868.50 84.00" xmlns="http://www.w3.org/2000/svg" xmlns:xlink="http://www.w3.org/1999/xlink">
<g id="graph0" class="graph" transform="scale(1 1) rotate(0) translate(4 80)">
<title>src/HustNet.h</title>
<polygon fill="white" stroke="none" points="-4,4 -4,-80 864.5,-80 864.5,4 -4,4"/>
<!-- Node1 -->
<g id="node1" class="node"><title>Node1</title>
<polygon fill="#bfbfbf" stroke="black" points="399,-56.5 399,-75.5 476,-75.5 476,-56.5 399,-56.5"/>
<text text-anchor="middle" x="437.5" y="-63.5" font-family="Helvetica,sans-Serif" font-size="10.00">src/HustNet.h</text>
</g>
<!-- Node2 -->
<g id="node2" class="node"><title>Node2</title>
<g id="a_node2"><a xlink:href="_cmd_view_8cpp.html" target="_top" xlink:title="CmdView.cpp : 实现文件 ">
<polygon fill="white" stroke="black" points="0,-0.5 0,-19.5 93,-19.5 93,-0.5 0,-0.5"/>
<text text-anchor="middle" x="46.5" y="-7.5" font-family="Helvetica,sans-Serif" font-size="10.00">src/CmdView.cpp</text>
</a>
</g>
</g>
<!-- Node1&#45;&gt;Node2 -->
<g id="edge1" class="edge"><title>Node1&#45;&gt;Node2</title>
<path fill="none" stroke="midnightblue" d="M388.882,-58.939C323.483,-50.6831 203.588,-35.1857 101.5,-20 98.8203,-19.6014 96.0689,-19.1823 93.2934,-18.752"/>
<polygon fill="midnightblue" stroke="midnightblue" points="388.54,-62.4235 398.899,-60.2007 389.415,-55.4784 388.54,-62.4235"/>
</g>
<!-- Node3 -->
<g id="node3" class="node"><title>Node3</title>
<g id="a_node3"><a xlink:href="_hust_net_8cpp.html" target="_top" xlink:title="HustNet.cpp : 定义应用程序的类行为。 ">
<polygon fill="white" stroke="black" points="111,-0.5 111,-19.5 198,-19.5 198,-0.5 111,-0.5"/>
<text text-anchor="middle" x="154.5" y="-7.5" font-family="Helvetica,sans-Serif" font-size="10.00">src/HustNet.cpp</text>
</a>
</g>
</g>
<!-- Node1&#45;&gt;Node3 -->
<g id="edge2" class="edge"><title>Node1&#45;&gt;Node3</title>
<path fill="none" stroke="midnightblue" d="M388.799,-55.7072C335.229,-45.4854 249.916,-29.2066 198.357,-19.3685"/>
<polygon fill="midnightblue" stroke="midnightblue" points="388.265,-59.1683 398.743,-57.6048 389.577,-52.2924 388.265,-59.1683"/>
</g>
<!-- Node4 -->
<g id="node4" class="node"><title>Node4</title>
<g id="a_node4"><a xlink:href="_hust_net_doc_8cpp.html" target="_top" xlink:title="HustNetDoc.cpp : CHustNetDoc 类的实现 ">
<polygon fill="white" stroke="black" points="216.5,-0.5 216.5,-19.5 320.5,-19.5 320.5,-0.5 216.5,-0.5"/>
<text text-anchor="middle" x="268.5" y="-7.5" font-family="Helvetica,sans-Serif" font-size="10.00">src/HustNetDoc.cpp</text>
</a>
</g>
</g>
<!-- Node1&#45;&gt;Node4 -->
<g id="edge3" class="edge"><title>Node1&#45;&gt;Node4</title>
<path fill="none" stroke="midnightblue" d="M400.897,-53.3044C369.053,-43.1294 323.658,-28.6246 295.153,-19.5164"/>
<polygon fill="midnightblue" stroke="midnightblue" points="400.131,-56.7337 410.721,-56.4435 402.261,-50.0659 400.131,-56.7337"/>
</g>
<!-- Node5 -->
<g id="node5" class="node"><title>Node5</title>
<g id="a_node5"><a xlink:href="_log_view_8cpp.html" target="_top" xlink:title="LogView.cpp : 实现文件 ">
<polygon fill="white" stroke="black" points="339,-0.5 339,-19.5 428,-19.5 428,-0.5 339,-0.5"/>
<text text-anchor="middle" x="383.5" y="-7.5" font-family="Helvetica,sans-Serif" font-size="10.00">src/LogView.cpp</text>
</a>
</g>
</g>
<!-- Node1&#45;&gt;Node5 -->
<g id="edge4" class="edge"><title>Node1&#45;&gt;Node5</title>
<path fill="none" stroke="midnightblue" d="M421.502,-49.0024C411.933,-39.4329 400.139,-27.6389 392.251,-19.7511"/>
<polygon fill="midnightblue" stroke="midnightblue" points="419.037,-51.4868 428.583,-56.083 423.987,-46.537 419.037,-51.4868"/>
</g>
<!-- Node6 -->
<g id="node6" class="node"><title>Node6</title>
<g id="a_node6"><a xlink:href="_main_frm_8cpp.html" target="_top" xlink:title="MainFrm.cpp : CMainFrame 类的实现 ">
<polygon fill="white" stroke="black" points="446.5,-0.5 446.5,-19.5 536.5,-19.5 536.5,-0.5 446.5,-0.5"/>
<text text-anchor="middle" x="491.5" y="-7.5" font-family="Helvetica,sans-Serif" font-size="10.00">src/MainFrm.cpp</text>
</a>
</g>
</g>
<!-- Node1&#45;&gt;Node6 -->
<g id="edge5" class="edge"><title>Node1&#45;&gt;Node6</title>
<path fill="none" stroke="midnightblue" d="M453.498,-49.0024C463.067,-39.4329 474.861,-27.6389 482.749,-19.7511"/>
<polygon fill="midnightblue" stroke="midnightblue" points="451.013,-46.537 446.417,-56.083 455.963,-51.4868 451.013,-46.537"/>
</g>
<!-- Node7 -->
<g id="node7" class="node"><title>Node7</title>
<g id="a_node7"><a xlink:href="_net_set_8cpp.html" target="_top" xlink:title="NetSet.cpp : 实现文件 ">
<polygon fill="white" stroke="black" points="554.5,-0.5 554.5,-19.5 636.5,-19.5 636.5,-0.5 554.5,-0.5"/>
<text text-anchor="middle" x="595.5" y="-7.5" font-family="Helvetica,sans-Serif" font-size="10.00">src/NetSet.cpp</text>
</a>
</g>
</g>
<!-- Node1&#45;&gt;Node7 -->
<g id="edge6" class="edge"><title>Node1&#45;&gt;Node7</title>
<path fill="none" stroke="midnightblue" d="M472.108,-53.172C501.859,-43.0039 544.047,-28.5852 570.582,-19.5164"/>
<polygon fill="midnightblue" stroke="midnightblue" points="470.866,-49.8975 462.536,-56.4435 473.13,-56.5213 470.866,-49.8975"/>
</g>
<!-- Node8 -->
<g id="node8" class="node"><title>Node8</title>
<g id="a_node8"><a xlink:href="_respond_view_8cpp.html" target="_top" xlink:title="RespondView.cpp : 实现文件 ">
<polygon fill="white" stroke="black" points="655,-0.5 655,-19.5 766,-19.5 766,-0.5 655,-0.5"/>
<text text-anchor="middle" x="710.5" y="-7.5" font-family="Helvetica,sans-Serif" font-size="10.00">src/RespondView.cpp</text>
</a>
</g>
</g>
<!-- Node1&#45;&gt;Node8 -->
<g id="edge7" class="edge"><title>Node1&#45;&gt;Node8</title>
<path fill="none" stroke="midnightblue" d="M485.911,-55.4241C537.322,-45.255 617.834,-29.3295 667.206,-19.5637"/>
<polygon fill="midnightblue" stroke="midnightblue" points="485.166,-52.0037 476.035,-57.3776 486.524,-58.8706 485.166,-52.0037"/>
</g>
<!-- Node9 -->
<g id="node9" class="node"><title>Node9</title>
<g id="a_node9"><a xlink:href="_u_i_ctrl_8cpp.html" target="_top" xlink:title="src/UICtrl.cpp">
<polygon fill="white" stroke="black" points="784.5,-0.5 784.5,-19.5 860.5,-19.5 860.5,-0.5 784.5,-0.5"/>
<text text-anchor="middle" x="822.5" y="-7.5" font-family="Helvetica,sans-Serif" font-size="10.00">src/UICtrl.cpp</text>
</a>
</g>
</g>
<!-- Node1&#45;&gt;Node9 -->
<g id="edge8" class="edge"><title>Node1&#45;&gt;Node9</title>
<path fill="none" stroke="midnightblue" d="M486.206,-59.3972C552.007,-51.6268 672.885,-36.6419 775.5,-20 778.37,-19.5345 781.334,-19.0281 784.313,-18.5006"/>
<polygon fill="midnightblue" stroke="midnightblue" points="485.652,-55.9381 476.129,-60.5815 486.469,-62.8903 485.652,-55.9381"/>
</g>
</g>
</svg>
