<?xml version="1.0" encoding="UTF-8" standalone="no"?>
<!DOCTYPE svg PUBLIC "-//W3C//DTD SVG 1.1//EN"
 "http://www.w3.org/Graphics/SVG/1.1/DTD/svg11.dtd">
<!-- Generated by graphviz version 2.38.0 (20140413.2041)
 -->
<!-- Title: src/HustNet.cpp Pages: 1 -->
<svg width="732pt" height="364pt"
 viewBox="0.00 0.00 732.00 364.00" xmlns="http://www.w3.org/2000/svg" xmlns:xlink="http://www.w3.org/1999/xlink">
<g id="graph0" class="graph" transform="scale(1 1) rotate(0) translate(4 360)">
<title>src/HustNet.cpp</title>
<polygon fill="white" stroke="none" points="-4,4 -4,-360 728,-360 728,4 -4,4"/>
<!-- Node1 -->
<g id="node1" class="node"><title>Node1</title>
<polygon fill="#bfbfbf" stroke="black" points="418.5,-336.5 418.5,-355.5 505.5,-355.5 505.5,-336.5 418.5,-336.5"/>
<text text-anchor="middle" x="462" y="-343.5" font-family="Helvetica,sans-Serif" font-size="10.00">src/HustNet.cpp</text>
</g>
<!-- Node2 -->
<g id="node2" class="node"><title>Node2</title>
<g id="a_node2"><a xlink:href="stdafx_8h.html" target="_top" xlink:title="stdafx.h : 标准系统包含文件的包含文件， &#160;或是经常使用但不常更改的 &#160;特定于项目的包含文件 ...">
<polygon fill="white" stroke="black" points="268.5,-112.5 268.5,-131.5 319.5,-131.5 319.5,-112.5 268.5,-112.5"/>
<text text-anchor="middle" x="294" y="-119.5" font-family="Helvetica,sans-Serif" font-size="10.00">stdafx.h</text>
</a>
</g>
</g>
<!-- Node1&#45;&gt;Node2 -->
<g id="edge1" class="edge"><title>Node1&#45;&gt;Node2</title>
<path fill="none" stroke="midnightblue" d="M418.441,-342.744C359.141,-338.656 257.757,-327.711 235,-300 194.805,-251.055 250.428,-173.622 278.95,-139.77"/>
<polygon fill="midnightblue" stroke="midnightblue" points="281.959,-141.642 285.859,-131.791 276.667,-137.06 281.959,-141.642"/>
</g>
<!-- Node12 -->
<g id="node12" class="node"><title>Node12</title>
<polygon fill="white" stroke="#bfbfbf" points="244,-280.5 244,-299.5 322,-299.5 322,-280.5 244,-280.5"/>
<text text-anchor="middle" x="283" y="-287.5" font-family="Helvetica,sans-Serif" font-size="10.00">afxwinappex.h</text>
</g>
<!-- Node1&#45;&gt;Node12 -->
<g id="edge11" class="edge"><title>Node1&#45;&gt;Node12</title>
<path fill="none" stroke="midnightblue" d="M433.637,-336.444C403.262,-327.28 354.89,-312.688 321.184,-302.519"/>
<polygon fill="midnightblue" stroke="midnightblue" points="321.815,-299.054 311.23,-299.516 319.793,-305.756 321.815,-299.054"/>
</g>
<!-- Node13 -->
<g id="node13" class="node"><title>Node13</title>
<polygon fill="white" stroke="#bfbfbf" points="340,-280.5 340,-299.5 414,-299.5 414,-280.5 340,-280.5"/>
<text text-anchor="middle" x="377" y="-287.5" font-family="Helvetica,sans-Serif" font-size="10.00">afxdialogex.h</text>
</g>
<!-- Node1&#45;&gt;Node13 -->
<g id="edge12" class="edge"><title>Node1&#45;&gt;Node13</title>
<path fill="none" stroke="midnightblue" d="M448.343,-336.324C435.084,-327.9 414.732,-314.971 399.154,-305.074"/>
<polygon fill="midnightblue" stroke="midnightblue" points="400.94,-302.063 390.623,-299.655 397.187,-307.971 400.94,-302.063"/>
</g>
<!-- Node14 -->
<g id="node14" class="node"><title>Node14</title>
<g id="a_node14"><a xlink:href="_hust_net_8h.html" target="_top" xlink:title="HustNet.h">
<polygon fill="white" stroke="black" points="432,-280.5 432,-299.5 492,-299.5 492,-280.5 432,-280.5"/>
<text text-anchor="middle" x="462" y="-287.5" font-family="Helvetica,sans-Serif" font-size="10.00">HustNet.h</text>
</a>
</g>
</g>
<!-- Node1&#45;&gt;Node14 -->
<g id="edge13" class="edge"><title>Node1&#45;&gt;Node14</title>
<path fill="none" stroke="midnightblue" d="M462,-336.083C462,-329.006 462,-318.861 462,-309.986"/>
<polygon fill="midnightblue" stroke="midnightblue" points="465.5,-309.751 462,-299.751 458.5,-309.751 465.5,-309.751"/>
</g>
<!-- Node16 -->
<g id="node16" class="node"><title>Node16</title>
<g id="a_node16"><a xlink:href="_main_frm_8h.html" target="_top" xlink:title="MainFrm.h">
<polygon fill="white" stroke="black" points="548.5,-280.5 548.5,-299.5 611.5,-299.5 611.5,-280.5 548.5,-280.5"/>
<text text-anchor="middle" x="580" y="-287.5" font-family="Helvetica,sans-Serif" font-size="10.00">MainFrm.h</text>
</a>
</g>
</g>
<!-- Node1&#45;&gt;Node16 -->
<g id="edge15" class="edge"><title>Node1&#45;&gt;Node16</title>
<path fill="none" stroke="midnightblue" d="M480.697,-336.444C499.944,-327.636 530.152,-313.812 552.2,-303.722"/>
<polygon fill="midnightblue" stroke="midnightblue" points="553.753,-306.86 561.39,-299.516 550.84,-300.495 553.753,-306.86"/>
</g>
<!-- Node17 -->
<g id="node17" class="node"><title>Node17</title>
<g id="a_node17"><a xlink:href="_cmd_view_8h.html" target="_top" xlink:title="CmdView.h">
<polygon fill="white" stroke="black" points="476,-224.5 476,-243.5 542,-243.5 542,-224.5 476,-224.5"/>
<text text-anchor="middle" x="509" y="-231.5" font-family="Helvetica,sans-Serif" font-size="10.00">CmdView.h</text>
</a>
</g>
</g>
<!-- Node1&#45;&gt;Node17 -->
<g id="edge24" class="edge"><title>Node1&#45;&gt;Node17</title>
<path fill="none" stroke="midnightblue" d="M472.56,-336.19C481.734,-327.878 494.533,-314.548 501,-300 507.43,-285.536 509.232,-267.58 509.538,-254.208"/>
<polygon fill="midnightblue" stroke="midnightblue" points="513.037,-253.827 509.501,-243.84 506.037,-253.853 513.037,-253.827"/>
</g>
<!-- Node23 -->
<g id="node23" class="node"><title>Node23</title>
<g id="a_node23"><a xlink:href="_hust_net_doc_8h.html" target="_top" xlink:title="HustNetDoc.h">
<polygon fill="white" stroke="black" points="629.5,-280.5 629.5,-299.5 706.5,-299.5 706.5,-280.5 629.5,-280.5"/>
<text text-anchor="middle" x="668" y="-287.5" font-family="Helvetica,sans-Serif" font-size="10.00">HustNetDoc.h</text>
</a>
</g>
</g>
<!-- Node1&#45;&gt;Node23 -->
<g id="edge23" class="edge"><title>Node1&#45;&gt;Node23</title>
<path fill="none" stroke="midnightblue" d="M494.641,-336.444C530.05,-327.162 586.709,-312.309 625.553,-302.127"/>
<polygon fill="midnightblue" stroke="midnightblue" points="626.726,-305.438 635.511,-299.516 624.951,-298.667 626.726,-305.438"/>
</g>
<!-- Node3 -->
<g id="node3" class="node"><title>Node3</title>
<g id="a_node3"><a xlink:href="targetver_8h.html" target="_top" xlink:title="包括 SDKDDKVer.h 将定义最高版本的可用 Windows 平台。 如果要为以前的 Windows 平台生成应用程序，请包括 ...">
<polygon fill="white" stroke="black" points="9,-56.5 9,-75.5 71,-75.5 71,-56.5 9,-56.5"/>
<text text-anchor="middle" x="40" y="-63.5" font-family="Helvetica,sans-Serif" font-size="10.00">targetver.h</text>
</a>
</g>
</g>
<!-- Node2&#45;&gt;Node3 -->
<g id="edge2" class="edge"><title>Node2&#45;&gt;Node3</title>
<path fill="none" stroke="midnightblue" d="M268.281,-115.714C229.799,-107.777 154.704,-92.1894 81.3062,-76.263"/>
<polygon fill="midnightblue" stroke="midnightblue" points="81.949,-72.821 71.4336,-74.1164 80.4617,-79.6612 81.949,-72.821"/>
</g>
<!-- Node5 -->
<g id="node5" class="node"><title>Node5</title>
<polygon fill="white" stroke="#bfbfbf" points="89,-56.5 89,-75.5 141,-75.5 141,-56.5 89,-56.5"/>
<text text-anchor="middle" x="115" y="-63.5" font-family="Helvetica,sans-Serif" font-size="10.00">afxwin.h</text>
</g>
<!-- Node2&#45;&gt;Node5 -->
<g id="edge4" class="edge"><title>Node2&#45;&gt;Node5</title>
<path fill="none" stroke="midnightblue" d="M268.354,-113.263C237.559,-103.973 185.72,-88.3345 150.944,-77.8434"/>
<polygon fill="midnightblue" stroke="midnightblue" points="151.766,-74.4356 141.181,-74.8981 149.744,-81.1372 151.766,-74.4356"/>
</g>
<!-- Node6 -->
<g id="node6" class="node"><title>Node6</title>
<polygon fill="white" stroke="#bfbfbf" points="159.5,-56.5 159.5,-75.5 210.5,-75.5 210.5,-56.5 159.5,-56.5"/>
<text text-anchor="middle" x="185" y="-63.5" font-family="Helvetica,sans-Serif" font-size="10.00">afxext.h</text>
</g>
<!-- Node2&#45;&gt;Node6 -->
<g id="edge5" class="edge"><title>Node2&#45;&gt;Node6</title>
<path fill="none" stroke="midnightblue" d="M276.487,-112.324C258.928,-103.625 231.669,-90.1202 211.469,-80.113"/>
<polygon fill="midnightblue" stroke="midnightblue" points="212.984,-76.9575 202.469,-75.6545 209.876,-83.23 212.984,-76.9575"/>
</g>
<!-- Node7 -->
<g id="node7" class="node"><title>Node7</title>
<polygon fill="white" stroke="#bfbfbf" points="229,-56.5 229,-75.5 285,-75.5 285,-56.5 229,-56.5"/>
<text text-anchor="middle" x="257" y="-63.5" font-family="Helvetica,sans-Serif" font-size="10.00">afxdisp.h</text>
</g>
<!-- Node2&#45;&gt;Node7 -->
<g id="edge6" class="edge"><title>Node2&#45;&gt;Node7</title>
<path fill="none" stroke="midnightblue" d="M287.89,-112.083C282.718,-104.534 275.154,-93.4948 268.806,-84.2298"/>
<polygon fill="midnightblue" stroke="midnightblue" points="271.536,-82.0221 262.996,-75.7511 265.761,-85.9787 271.536,-82.0221"/>
</g>
<!-- Node8 -->
<g id="node8" class="node"><title>Node8</title>
<polygon fill="white" stroke="#bfbfbf" points="303,-56.5 303,-75.5 359,-75.5 359,-56.5 303,-56.5"/>
<text text-anchor="middle" x="331" y="-63.5" font-family="Helvetica,sans-Serif" font-size="10.00">afxdtctl.h</text>
</g>
<!-- Node2&#45;&gt;Node8 -->
<g id="edge7" class="edge"><title>Node2&#45;&gt;Node8</title>
<path fill="none" stroke="midnightblue" d="M300.11,-112.083C305.282,-104.534 312.846,-93.4948 319.194,-84.2298"/>
<polygon fill="midnightblue" stroke="midnightblue" points="322.239,-85.9787 325.004,-75.7511 316.464,-82.0221 322.239,-85.9787"/>
</g>
<!-- Node9 -->
<g id="node9" class="node"><title>Node9</title>
<polygon fill="white" stroke="#bfbfbf" points="377,-56.5 377,-75.5 433,-75.5 433,-56.5 377,-56.5"/>
<text text-anchor="middle" x="405" y="-63.5" font-family="Helvetica,sans-Serif" font-size="10.00">afxcmn.h</text>
</g>
<!-- Node2&#45;&gt;Node9 -->
<g id="edge8" class="edge"><title>Node2&#45;&gt;Node9</title>
<path fill="none" stroke="midnightblue" d="M311.834,-112.324C329.716,-103.625 357.475,-90.1202 378.046,-80.113"/>
<polygon fill="midnightblue" stroke="midnightblue" points="379.749,-83.1765 387.21,-75.6545 376.687,-76.8819 379.749,-83.1765"/>
</g>
<!-- Node10 -->
<g id="node10" class="node"><title>Node10</title>
<polygon fill="white" stroke="#bfbfbf" points="451,-56.5 451,-75.5 537,-75.5 537,-56.5 451,-56.5"/>
<text text-anchor="middle" x="494" y="-63.5" font-family="Helvetica,sans-Serif" font-size="10.00">afxcontrolbars.h</text>
</g>
<!-- Node2&#45;&gt;Node10 -->
<g id="edge9" class="edge"><title>Node2&#45;&gt;Node10</title>
<path fill="none" stroke="midnightblue" d="M319.737,-114.051C353.389,-104.965 412.745,-88.9389 452.718,-78.1462"/>
<polygon fill="midnightblue" stroke="midnightblue" points="453.693,-81.5082 462.435,-75.5225 451.869,-74.7502 453.693,-81.5082"/>
</g>
<!-- Node11 -->
<g id="node11" class="node"><title>Node11</title>
<polygon fill="white" stroke="#bfbfbf" points="555.5,-56.5 555.5,-75.5 614.5,-75.5 614.5,-56.5 555.5,-56.5"/>
<text text-anchor="middle" x="585" y="-63.5" font-family="Helvetica,sans-Serif" font-size="10.00">afxsock.h</text>
</g>
<!-- Node2&#45;&gt;Node11 -->
<g id="edge10" class="edge"><title>Node2&#45;&gt;Node11</title>
<path fill="none" stroke="midnightblue" d="M319.838,-116.825C363.918,-109.609 456.685,-94.0127 545.28,-76.0617"/>
<polygon fill="midnightblue" stroke="midnightblue" points="546.124,-79.4616 555.223,-74.0333 544.725,-72.6028 546.124,-79.4616"/>
</g>
<!-- Node4 -->
<g id="node4" class="node"><title>Node4</title>
<polygon fill="white" stroke="#bfbfbf" points="0,-0.5 0,-19.5 80,-19.5 80,-0.5 0,-0.5"/>
<text text-anchor="middle" x="40" y="-7.5" font-family="Helvetica,sans-Serif" font-size="10.00">SDKDDKVer.h</text>
</g>
<!-- Node3&#45;&gt;Node4 -->
<g id="edge3" class="edge"><title>Node3&#45;&gt;Node4</title>
<path fill="none" stroke="midnightblue" d="M40,-56.083C40,-49.0059 40,-38.8611 40,-29.9865"/>
<polygon fill="midnightblue" stroke="midnightblue" points="43.5001,-29.751 40,-19.7511 36.5001,-29.7511 43.5001,-29.751"/>
</g>
<!-- Node15 -->
<g id="node15" class="node"><title>Node15</title>
<g id="a_node15"><a xlink:href="_resource_8h.html" target="_top" xlink:title="resource.h">
<polygon fill="white" stroke="black" points="396,-224.5 396,-243.5 458,-243.5 458,-224.5 396,-224.5"/>
<text text-anchor="middle" x="427" y="-231.5" font-family="Helvetica,sans-Serif" font-size="10.00">resource.h</text>
</a>
</g>
</g>
<!-- Node14&#45;&gt;Node15 -->
<g id="edge14" class="edge"><title>Node14&#45;&gt;Node15</title>
<path fill="none" stroke="midnightblue" d="M456.22,-280.083C451.328,-272.534 444.173,-261.495 438.167,-252.23"/>
<polygon fill="midnightblue" stroke="midnightblue" points="441.048,-250.239 432.672,-243.751 435.174,-254.046 441.048,-250.239"/>
</g>
<!-- Node16&#45;&gt;Node17 -->
<g id="edge16" class="edge"><title>Node16&#45;&gt;Node17</title>
<path fill="none" stroke="midnightblue" d="M568.593,-280.324C557.891,-272.185 541.659,-259.839 528.837,-250.087"/>
<polygon fill="midnightblue" stroke="midnightblue" points="530.693,-247.102 520.615,-243.834 526.456,-252.673 530.693,-247.102"/>
</g>
<!-- Node21 -->
<g id="node21" class="node"><title>Node21</title>
<g id="a_node21"><a xlink:href="_log_view_8h.html" target="_top" xlink:title="LogView.h">
<polygon fill="white" stroke="black" points="560,-224.5 560,-243.5 622,-243.5 622,-224.5 560,-224.5"/>
<text text-anchor="middle" x="591" y="-231.5" font-family="Helvetica,sans-Serif" font-size="10.00">LogView.h</text>
</a>
</g>
</g>
<!-- Node16&#45;&gt;Node21 -->
<g id="edge21" class="edge"><title>Node16&#45;&gt;Node21</title>
<path fill="none" stroke="midnightblue" d="M581.816,-280.083C583.274,-272.927 585.371,-262.635 587.193,-253.691"/>
<polygon fill="midnightblue" stroke="midnightblue" points="590.651,-254.248 589.217,-243.751 583.792,-252.851 590.651,-254.248"/>
</g>
<!-- Node22 -->
<g id="node22" class="node"><title>Node22</title>
<g id="a_node22"><a xlink:href="_respond_view_8h.html" target="_top" xlink:title="RespondView 视图 ">
<polygon fill="white" stroke="black" points="640,-224.5 640,-243.5 724,-243.5 724,-224.5 640,-224.5"/>
<text text-anchor="middle" x="682" y="-231.5" font-family="Helvetica,sans-Serif" font-size="10.00">RespondView.h</text>
</a>
</g>
</g>
<!-- Node16&#45;&gt;Node22 -->
<g id="edge22" class="edge"><title>Node16&#45;&gt;Node22</title>
<path fill="none" stroke="midnightblue" d="M596.388,-280.324C612.671,-271.703 637.867,-258.364 656.716,-248.386"/>
<polygon fill="midnightblue" stroke="midnightblue" points="658.452,-251.427 665.653,-243.655 655.177,-245.24 658.452,-251.427"/>
</g>
<!-- Node18 -->
<g id="node18" class="node"><title>Node18</title>
<g id="a_node18"><a xlink:href="_user_cmd_8h.html" target="_top" xlink:title="UserCmd.h">
<polygon fill="white" stroke="black" points="369.5,-168.5 369.5,-187.5 434.5,-187.5 434.5,-168.5 369.5,-168.5"/>
<text text-anchor="middle" x="402" y="-175.5" font-family="Helvetica,sans-Serif" font-size="10.00">UserCmd.h</text>
</a>
</g>
</g>
<!-- Node17&#45;&gt;Node18 -->
<g id="edge17" class="edge"><title>Node17&#45;&gt;Node18</title>
<path fill="none" stroke="midnightblue" d="M491.809,-224.324C474.649,-215.664 448.054,-202.242 428.253,-192.249"/>
<polygon fill="midnightblue" stroke="midnightblue" points="429.653,-189.035 419.149,-187.655 426.499,-195.285 429.653,-189.035"/>
</g>
<!-- Node20 -->
<g id="node20" class="node"><title>Node20</title>
<polygon fill="white" stroke="#bfbfbf" points="491.5,-168.5 491.5,-187.5 526.5,-187.5 526.5,-168.5 491.5,-168.5"/>
<text text-anchor="middle" x="509" y="-175.5" font-family="Helvetica,sans-Serif" font-size="10.00">map</text>
</g>
<!-- Node17&#45;&gt;Node20 -->
<g id="edge20" class="edge"><title>Node17&#45;&gt;Node20</title>
<path fill="none" stroke="midnightblue" d="M509,-224.083C509,-217.006 509,-206.861 509,-197.986"/>
<polygon fill="midnightblue" stroke="midnightblue" points="512.5,-197.751 509,-187.751 505.5,-197.751 512.5,-197.751"/>
</g>
<!-- Node18&#45;&gt;Node2 -->
<g id="edge18" class="edge"><title>Node18&#45;&gt;Node2</title>
<path fill="none" stroke="midnightblue" d="M384.648,-168.324C367.328,-159.664 340.485,-146.242 320.498,-136.249"/>
<polygon fill="midnightblue" stroke="midnightblue" points="321.819,-132.996 311.309,-131.655 318.688,-139.257 321.819,-132.996"/>
</g>
<!-- Node19 -->
<g id="node19" class="node"><title>Node19</title>
<g id="a_node19"><a xlink:href="_net_dll_8h.html" target="_top" xlink:title="NetDll.h">
<polygon fill="white" stroke="black" points="376.5,-112.5 376.5,-131.5 427.5,-131.5 427.5,-112.5 376.5,-112.5"/>
<text text-anchor="middle" x="402" y="-119.5" font-family="Helvetica,sans-Serif" font-size="10.00">NetDll.h</text>
</a>
</g>
</g>
<!-- Node18&#45;&gt;Node19 -->
<g id="edge19" class="edge"><title>Node18&#45;&gt;Node19</title>
<path fill="none" stroke="midnightblue" d="M402,-168.083C402,-161.006 402,-150.861 402,-141.986"/>
<polygon fill="midnightblue" stroke="midnightblue" points="405.5,-141.751 402,-131.751 398.5,-141.751 405.5,-141.751"/>
</g>
</g>
</svg>
