<?xml version="1.0" encoding="UTF-8" standalone="no"?>
<!DOCTYPE svg PUBLIC "-//W3C//DTD SVG 1.1//EN"
 "http://www.w3.org/Graphics/SVG/1.1/DTD/svg11.dtd">
<!-- Generated by graphviz version 2.38.0 (20140413.2041)
 -->
<!-- Title: CleanRp Pages: 1 -->
<svg width="499pt" height="28pt"
 viewBox="0.00 0.00 499.00 28.00" xmlns="http://www.w3.org/2000/svg" xmlns:xlink="http://www.w3.org/1999/xlink">
<g id="graph0" class="graph" transform="scale(1 1) rotate(0) translate(4 24)">
<title>CleanRp</title>
<polygon fill="white" stroke="none" points="-4,4 -4,-24 495,-24 495,4 -4,4"/>
<!-- Node1 -->
<g id="node1" class="node"><title>Node1</title>
<polygon fill="#bfbfbf" stroke="black" points="0,-0.5 0,-19.5 53,-19.5 53,-0.5 0,-0.5"/>
<text text-anchor="middle" x="26.5" y="-7.5" font-family="Helvetica,sans-Serif" font-size="10.00">CleanRp</text>
</g>
<!-- Node2 -->
<g id="node2" class="node"><title>Node2</title>
<g id="a_node2"><a xlink:href="class_user_cmd.html#a10f84fa025b752236348cc8abd2fa5c7" target="_top" xlink:title="UserCmd::cleanrp">
<polygon fill="white" stroke="black" points="89,-0.5 89,-19.5 184,-19.5 184,-0.5 89,-0.5"/>
<text text-anchor="middle" x="136.5" y="-7.5" font-family="Helvetica,sans-Serif" font-size="10.00">UserCmd::cleanrp</text>
</a>
</g>
</g>
<!-- Node1&#45;&gt;Node2 -->
<g id="edge1" class="edge"><title>Node1&#45;&gt;Node2</title>
<path fill="none" stroke="midnightblue" d="M63.1344,-10C71.3891,-10 80.2938,-10 88.9392,-10"/>
<polygon fill="midnightblue" stroke="midnightblue" points="63.0945,-6.5001 53.0945,-10 63.0945,-13.5001 63.0945,-6.5001"/>
</g>
<!-- Node3 -->
<g id="node3" class="node"><title>Node3</title>
<g id="a_node3"><a xlink:href="class_cmd_view.html#a70cf028b2bc48ea3e0e6be3319911c85" target="_top" xlink:title="创建消息处理线程,注册消息映射 ">
<polygon fill="white" stroke="black" points="220,-0.5 220,-19.5 325,-19.5 325,-0.5 220,-0.5"/>
<text text-anchor="middle" x="272.5" y="-7.5" font-family="Helvetica,sans-Serif" font-size="10.00">CmdView::Initialcmd</text>
</a>
</g>
</g>
<!-- Node2&#45;&gt;Node3 -->
<g id="edge2" class="edge"><title>Node2&#45;&gt;Node3</title>
<path fill="none" stroke="midnightblue" d="M194.496,-10C202.917,-10 211.555,-10 219.86,-10"/>
<polygon fill="midnightblue" stroke="midnightblue" points="194.367,-6.5001 184.367,-10 194.367,-13.5001 194.367,-6.5001"/>
</g>
<!-- Node4 -->
<g id="node4" class="node"><title>Node4</title>
<g id="a_node4"><a xlink:href="class_cmd_view.html#a37a513e8262ea52c1859f8be73dac1b7" target="_top" xlink:title="函数在视图附加到文档后触发,主要完成界面的初始化工作 ">
<polygon fill="white" stroke="black" points="361,-0.5 361,-19.5 491,-19.5 491,-0.5 361,-0.5"/>
<text text-anchor="middle" x="426" y="-7.5" font-family="Helvetica,sans-Serif" font-size="10.00">CmdView::OnInitialUpdate</text>
</a>
</g>
</g>
<!-- Node3&#45;&gt;Node4 -->
<g id="edge3" class="edge"><title>Node3&#45;&gt;Node4</title>
<path fill="none" stroke="midnightblue" d="M335.352,-10C343.784,-10 352.453,-10 360.924,-10"/>
<polygon fill="midnightblue" stroke="midnightblue" points="335.214,-6.5001 325.214,-10 335.214,-13.5001 335.214,-6.5001"/>
</g>
</g>
</svg>
