<?xml version="1.0" encoding="UTF-8" standalone="no"?>
<!DOCTYPE svg PUBLIC "-//W3C//DTD SVG 1.1//EN"
 "http://www.w3.org/Graphics/SVG/1.1/DTD/svg11.dtd">
<!-- Generated by graphviz version 2.38.0 (20140413.2041)
 -->
<!-- Title: src/NetSet.cpp Pages: 1 -->
<svg width="738pt" height="196pt"
 viewBox="0.00 0.00 738.00 196.00" xmlns="http://www.w3.org/2000/svg" xmlns:xlink="http://www.w3.org/1999/xlink">
<g id="graph0" class="graph" transform="scale(1 1) rotate(0) translate(4 192)">
<title>src/NetSet.cpp</title>
<polygon fill="white" stroke="none" points="-4,4 -4,-192 734,-192 734,4 -4,4"/>
<!-- Node1 -->
<g id="node1" class="node"><title>Node1</title>
<polygon fill="#bfbfbf" stroke="black" points="531,-168.5 531,-187.5 613,-187.5 613,-168.5 531,-168.5"/>
<text text-anchor="middle" x="572" y="-175.5" font-family="Helvetica,sans-Serif" font-size="10.00">src/NetSet.cpp</text>
</g>
<!-- Node2 -->
<g id="node2" class="node"><title>Node2</title>
<g id="a_node2"><a xlink:href="stdafx_8h.html" target="_top" xlink:title="stdafx.h : 标准系统包含文件的包含文件， &#160;或是经常使用但不常更改的 &#160;特定于项目的包含文件 ...">
<polygon fill="white" stroke="black" points="305.5,-112.5 305.5,-131.5 356.5,-131.5 356.5,-112.5 305.5,-112.5"/>
<text text-anchor="middle" x="331" y="-119.5" font-family="Helvetica,sans-Serif" font-size="10.00">stdafx.h</text>
</a>
</g>
</g>
<!-- Node1&#45;&gt;Node2 -->
<g id="edge1" class="edge"><title>Node1&#45;&gt;Node2</title>
<path fill="none" stroke="midnightblue" d="M533.813,-168.444C487.884,-158.152 411.394,-141.014 366.634,-130.984"/>
<polygon fill="midnightblue" stroke="midnightblue" points="367.305,-127.548 356.781,-128.777 365.774,-134.379 367.305,-127.548"/>
</g>
<!-- Node12 -->
<g id="node12" class="node"><title>Node12</title>
<g id="a_node12"><a xlink:href="_hust_net_8h.html" target="_top" xlink:title="HustNet.h">
<polygon fill="white" stroke="black" points="504,-112.5 504,-131.5 564,-131.5 564,-112.5 504,-112.5"/>
<text text-anchor="middle" x="534" y="-119.5" font-family="Helvetica,sans-Serif" font-size="10.00">HustNet.h</text>
</a>
</g>
</g>
<!-- Node1&#45;&gt;Node12 -->
<g id="edge11" class="edge"><title>Node1&#45;&gt;Node12</title>
<path fill="none" stroke="midnightblue" d="M565.725,-168.083C560.358,-160.455 552.482,-149.264 545.921,-139.941"/>
<polygon fill="midnightblue" stroke="midnightblue" points="548.775,-137.915 540.158,-131.751 543.051,-141.943 548.775,-137.915"/>
</g>
<!-- Node14 -->
<g id="node14" class="node"><title>Node14</title>
<g id="a_node14"><a xlink:href="_net_set_8h.html" target="_top" xlink:title="NetSet.h">
<polygon fill="white" stroke="black" points="582.5,-112.5 582.5,-131.5 637.5,-131.5 637.5,-112.5 582.5,-112.5"/>
<text text-anchor="middle" x="610" y="-119.5" font-family="Helvetica,sans-Serif" font-size="10.00">NetSet.h</text>
</a>
</g>
</g>
<!-- Node1&#45;&gt;Node14 -->
<g id="edge13" class="edge"><title>Node1&#45;&gt;Node14</title>
<path fill="none" stroke="midnightblue" d="M578.275,-168.083C583.642,-160.455 591.518,-149.264 598.079,-139.941"/>
<polygon fill="midnightblue" stroke="midnightblue" points="600.949,-141.943 603.842,-131.751 595.225,-137.915 600.949,-141.943"/>
</g>
<!-- Node15 -->
<g id="node15" class="node"><title>Node15</title>
<polygon fill="white" stroke="#bfbfbf" points="656,-112.5 656,-131.5 730,-131.5 730,-112.5 656,-112.5"/>
<text text-anchor="middle" x="693" y="-119.5" font-family="Helvetica,sans-Serif" font-size="10.00">afxdialogex.h</text>
</g>
<!-- Node1&#45;&gt;Node15 -->
<g id="edge14" class="edge"><title>Node1&#45;&gt;Node15</title>
<path fill="none" stroke="midnightblue" d="M591.173,-168.444C610.909,-159.636 641.885,-145.812 664.493,-135.722"/>
<polygon fill="midnightblue" stroke="midnightblue" points="666.211,-138.788 673.917,-131.516 663.359,-132.396 666.211,-138.788"/>
</g>
<!-- Node3 -->
<g id="node3" class="node"><title>Node3</title>
<g id="a_node3"><a xlink:href="targetver_8h.html" target="_top" xlink:title="包括 SDKDDKVer.h 将定义最高版本的可用 Windows 平台。 如果要为以前的 Windows 平台生成应用程序，请包括 ...">
<polygon fill="white" stroke="black" points="9,-56.5 9,-75.5 71,-75.5 71,-56.5 9,-56.5"/>
<text text-anchor="middle" x="40" y="-63.5" font-family="Helvetica,sans-Serif" font-size="10.00">targetver.h</text>
</a>
</g>
</g>
<!-- Node2&#45;&gt;Node3 -->
<g id="edge2" class="edge"><title>Node2&#45;&gt;Node3</title>
<path fill="none" stroke="midnightblue" d="M305.275,-116.771C261.385,-109.475 169.009,-93.7604 81.261,-76.1888"/>
<polygon fill="midnightblue" stroke="midnightblue" points="81.9093,-72.7492 71.415,-74.2052 80.5268,-79.6113 81.9093,-72.7492"/>
</g>
<!-- Node5 -->
<g id="node5" class="node"><title>Node5</title>
<polygon fill="white" stroke="#bfbfbf" points="89,-56.5 89,-75.5 141,-75.5 141,-56.5 89,-56.5"/>
<text text-anchor="middle" x="115" y="-63.5" font-family="Helvetica,sans-Serif" font-size="10.00">afxwin.h</text>
</g>
<!-- Node2&#45;&gt;Node5 -->
<g id="edge4" class="edge"><title>Node2&#45;&gt;Node5</title>
<path fill="none" stroke="midnightblue" d="M305.207,-114.656C271.866,-106.441 211.758,-91.5805 151.103,-76.2653"/>
<polygon fill="midnightblue" stroke="midnightblue" points="151.92,-72.8619 141.368,-73.8043 150.205,-79.6484 151.92,-72.8619"/>
</g>
<!-- Node6 -->
<g id="node6" class="node"><title>Node6</title>
<polygon fill="white" stroke="#bfbfbf" points="159.5,-56.5 159.5,-75.5 210.5,-75.5 210.5,-56.5 159.5,-56.5"/>
<text text-anchor="middle" x="185" y="-63.5" font-family="Helvetica,sans-Serif" font-size="10.00">afxext.h</text>
</g>
<!-- Node2&#45;&gt;Node6 -->
<g id="edge5" class="edge"><title>Node2&#45;&gt;Node6</title>
<path fill="none" stroke="midnightblue" d="M307.866,-112.444C283.518,-103.438 244.993,-89.1891 217.577,-79.049"/>
<polygon fill="midnightblue" stroke="midnightblue" points="218.619,-75.7028 208.026,-75.5164 216.191,-82.2681 218.619,-75.7028"/>
</g>
<!-- Node7 -->
<g id="node7" class="node"><title>Node7</title>
<polygon fill="white" stroke="#bfbfbf" points="229,-56.5 229,-75.5 285,-75.5 285,-56.5 229,-56.5"/>
<text text-anchor="middle" x="257" y="-63.5" font-family="Helvetica,sans-Serif" font-size="10.00">afxdisp.h</text>
</g>
<!-- Node2&#45;&gt;Node7 -->
<g id="edge6" class="edge"><title>Node2&#45;&gt;Node7</title>
<path fill="none" stroke="midnightblue" d="M319.111,-112.324C307.85,-104.107 290.713,-91.6017 277.291,-81.8069"/>
<polygon fill="midnightblue" stroke="midnightblue" points="279.247,-78.9014 269.106,-75.8339 275.12,-84.5559 279.247,-78.9014"/>
</g>
<!-- Node8 -->
<g id="node8" class="node"><title>Node8</title>
<polygon fill="white" stroke="#bfbfbf" points="303,-56.5 303,-75.5 359,-75.5 359,-56.5 303,-56.5"/>
<text text-anchor="middle" x="331" y="-63.5" font-family="Helvetica,sans-Serif" font-size="10.00">afxdtctl.h</text>
</g>
<!-- Node2&#45;&gt;Node8 -->
<g id="edge7" class="edge"><title>Node2&#45;&gt;Node8</title>
<path fill="none" stroke="midnightblue" d="M331,-112.083C331,-105.006 331,-94.8611 331,-85.9865"/>
<polygon fill="midnightblue" stroke="midnightblue" points="334.5,-85.751 331,-75.7511 327.5,-85.7511 334.5,-85.751"/>
</g>
<!-- Node9 -->
<g id="node9" class="node"><title>Node9</title>
<polygon fill="white" stroke="#bfbfbf" points="377,-56.5 377,-75.5 433,-75.5 433,-56.5 377,-56.5"/>
<text text-anchor="middle" x="405" y="-63.5" font-family="Helvetica,sans-Serif" font-size="10.00">afxcmn.h</text>
</g>
<!-- Node2&#45;&gt;Node9 -->
<g id="edge8" class="edge"><title>Node2&#45;&gt;Node9</title>
<path fill="none" stroke="midnightblue" d="M342.889,-112.324C354.15,-104.107 371.287,-91.6017 384.709,-81.8069"/>
<polygon fill="midnightblue" stroke="midnightblue" points="386.88,-84.5559 392.894,-75.8339 382.753,-78.9014 386.88,-84.5559"/>
</g>
<!-- Node10 -->
<g id="node10" class="node"><title>Node10</title>
<polygon fill="white" stroke="#bfbfbf" points="451,-56.5 451,-75.5 537,-75.5 537,-56.5 451,-56.5"/>
<text text-anchor="middle" x="494" y="-63.5" font-family="Helvetica,sans-Serif" font-size="10.00">afxcontrolbars.h</text>
</g>
<!-- Node2&#45;&gt;Node10 -->
<g id="edge9" class="edge"><title>Node2&#45;&gt;Node10</title>
<path fill="none" stroke="midnightblue" d="M356.828,-112.444C384.249,-103.359 427.777,-88.9388 458.432,-78.7831"/>
<polygon fill="midnightblue" stroke="midnightblue" points="459.901,-81.9837 468.293,-75.5164 457.7,-75.3389 459.901,-81.9837"/>
</g>
<!-- Node11 -->
<g id="node11" class="node"><title>Node11</title>
<polygon fill="white" stroke="#bfbfbf" points="555.5,-56.5 555.5,-75.5 614.5,-75.5 614.5,-56.5 555.5,-56.5"/>
<text text-anchor="middle" x="585" y="-63.5" font-family="Helvetica,sans-Serif" font-size="10.00">afxsock.h</text>
</g>
<!-- Node2&#45;&gt;Node11 -->
<g id="edge10" class="edge"><title>Node2&#45;&gt;Node11</title>
<path fill="none" stroke="midnightblue" d="M356.52,-115.835C395.091,-107.99 470.785,-92.4475 545.193,-76.1424"/>
<polygon fill="midnightblue" stroke="midnightblue" points="546.188,-79.5072 555.204,-73.9422 544.685,-72.6704 546.188,-79.5072"/>
</g>
<!-- Node4 -->
<g id="node4" class="node"><title>Node4</title>
<polygon fill="white" stroke="#bfbfbf" points="0,-0.5 0,-19.5 80,-19.5 80,-0.5 0,-0.5"/>
<text text-anchor="middle" x="40" y="-7.5" font-family="Helvetica,sans-Serif" font-size="10.00">SDKDDKVer.h</text>
</g>
<!-- Node3&#45;&gt;Node4 -->
<g id="edge3" class="edge"><title>Node3&#45;&gt;Node4</title>
<path fill="none" stroke="midnightblue" d="M40,-56.083C40,-49.0059 40,-38.8611 40,-29.9865"/>
<polygon fill="midnightblue" stroke="midnightblue" points="43.5001,-29.751 40,-19.7511 36.5001,-29.7511 43.5001,-29.751"/>
</g>
<!-- Node13 -->
<g id="node13" class="node"><title>Node13</title>
<g id="a_node13"><a xlink:href="_resource_8h.html" target="_top" xlink:title="resource.h">
<polygon fill="white" stroke="black" points="633,-56.5 633,-75.5 695,-75.5 695,-56.5 633,-56.5"/>
<text text-anchor="middle" x="664" y="-63.5" font-family="Helvetica,sans-Serif" font-size="10.00">resource.h</text>
</a>
</g>
</g>
<!-- Node12&#45;&gt;Node13 -->
<g id="edge12" class="edge"><title>Node12&#45;&gt;Node13</title>
<path fill="none" stroke="midnightblue" d="M554.599,-112.444C575.993,-103.557 609.681,-89.5632 634.024,-79.4514"/>
<polygon fill="midnightblue" stroke="midnightblue" points="635.605,-82.5848 643.497,-75.5164 632.92,-76.1203 635.605,-82.5848"/>
</g>
</g>
</svg>
