<?xml version="1.0" encoding="UTF-8" standalone="no"?>
<!DOCTYPE svg PUBLIC "-//W3C//DTD SVG 1.1//EN"
 "http://www.w3.org/Graphics/SVG/1.1/DTD/svg11.dtd">
<!-- Generated by graphviz version 2.38.0 (20140413.2041)
 -->
<!-- Title: src/NetSet.h Pages: 1 -->
<svg width="198pt" height="84pt"
 viewBox="0.00 0.00 198.00 84.00" xmlns="http://www.w3.org/2000/svg" xmlns:xlink="http://www.w3.org/1999/xlink">
<g id="graph0" class="graph" transform="scale(1 1) rotate(0) translate(4 80)">
<title>src/NetSet.h</title>
<polygon fill="white" stroke="none" points="-4,4 -4,-80 194,-80 194,4 -4,4"/>
<!-- Node1 -->
<g id="node1" class="node"><title>Node1</title>
<polygon fill="#bfbfbf" stroke="black" points="61.5,-56.5 61.5,-75.5 132.5,-75.5 132.5,-56.5 61.5,-56.5"/>
<text text-anchor="middle" x="97" y="-63.5" font-family="Helvetica,sans-Serif" font-size="10.00">src/NetSet.h</text>
</g>
<!-- Node2 -->
<g id="node2" class="node"><title>Node2</title>
<g id="a_node2"><a xlink:href="_main_frm_8cpp.html" target="_top" xlink:title="MainFrm.cpp : CMainFrame 类的实现 ">
<polygon fill="white" stroke="black" points="0,-0.5 0,-19.5 90,-19.5 90,-0.5 0,-0.5"/>
<text text-anchor="middle" x="45" y="-7.5" font-family="Helvetica,sans-Serif" font-size="10.00">src/MainFrm.cpp</text>
</a>
</g>
</g>
<!-- Node1&#45;&gt;Node2 -->
<g id="edge1" class="edge"><title>Node1&#45;&gt;Node2</title>
<path fill="none" stroke="midnightblue" d="M81.3206,-48.7175C72.1553,-39.1997 60.9474,-27.5608 53.427,-19.7511"/>
<polygon fill="midnightblue" stroke="midnightblue" points="78.9557,-51.3075 88.4133,-56.083 83.9979,-46.452 78.9557,-51.3075"/>
</g>
<!-- Node3 -->
<g id="node3" class="node"><title>Node3</title>
<g id="a_node3"><a xlink:href="_net_set_8cpp.html" target="_top" xlink:title="NetSet.cpp : 实现文件 ">
<polygon fill="white" stroke="black" points="108,-0.5 108,-19.5 190,-19.5 190,-0.5 108,-0.5"/>
<text text-anchor="middle" x="149" y="-7.5" font-family="Helvetica,sans-Serif" font-size="10.00">src/NetSet.cpp</text>
</a>
</g>
</g>
<!-- Node1&#45;&gt;Node3 -->
<g id="edge2" class="edge"><title>Node1&#45;&gt;Node3</title>
<path fill="none" stroke="midnightblue" d="M112.679,-48.7175C121.845,-39.1997 133.053,-27.5608 140.573,-19.7511"/>
<polygon fill="midnightblue" stroke="midnightblue" points="110.002,-46.452 105.587,-56.083 115.044,-51.3075 110.002,-46.452"/>
</g>
</g>
</svg>
