<?xml version="1.0" encoding="UTF-8" standalone="no"?>
<!DOCTYPE svg PUBLIC "-//W3C//DTD SVG 1.1//EN"
 "http://www.w3.org/Graphics/SVG/1.1/DTD/svg11.dtd">
<!-- Generated by graphviz version 2.38.0 (20140413.2041)
 -->
<!-- Title: src/NetWork.h Pages: 1 -->
<svg width="871pt" height="196pt"
 viewBox="0.00 0.00 870.50 196.00" xmlns="http://www.w3.org/2000/svg" xmlns:xlink="http://www.w3.org/1999/xlink">
<g id="graph0" class="graph" transform="scale(1 1) rotate(0) translate(4 192)">
<title>src/NetWork.h</title>
<polygon fill="white" stroke="none" points="-4,4 -4,-192 866.5,-192 866.5,4 -4,4"/>
<!-- Node1 -->
<g id="node1" class="node"><title>Node1</title>
<polygon fill="#bfbfbf" stroke="black" points="606,-168.5 606,-187.5 686,-187.5 686,-168.5 606,-168.5"/>
<text text-anchor="middle" x="646" y="-175.5" font-family="Helvetica,sans-Serif" font-size="10.00">src/NetWork.h</text>
</g>
<!-- Node2 -->
<g id="node2" class="node"><title>Node2</title>
<g id="a_node2"><a xlink:href="stdafx_8h.html" target="_top" xlink:title="stdafx.h : 标准系统包含文件的包含文件， &#160;或是经常使用但不常更改的 &#160;特定于项目的包含文件 ...">
<polygon fill="white" stroke="black" points="305.5,-112.5 305.5,-131.5 356.5,-131.5 356.5,-112.5 305.5,-112.5"/>
<text text-anchor="middle" x="331" y="-119.5" font-family="Helvetica,sans-Serif" font-size="10.00">stdafx.h</text>
</a>
</g>
</g>
<!-- Node1&#45;&gt;Node2 -->
<g id="edge1" class="edge"><title>Node1&#45;&gt;Node2</title>
<path fill="none" stroke="midnightblue" d="M605.785,-170.106C543.825,-159.484 425.996,-139.285 366.811,-129.139"/>
<polygon fill="midnightblue" stroke="midnightblue" points="367.257,-125.664 356.809,-127.424 366.074,-132.564 367.257,-125.664"/>
</g>
<!-- Node12 -->
<g id="node12" class="node"><title>Node12</title>
<polygon fill="white" stroke="#bfbfbf" points="632.5,-56.5 632.5,-75.5 667.5,-75.5 667.5,-56.5 632.5,-56.5"/>
<text text-anchor="middle" x="650" y="-63.5" font-family="Helvetica,sans-Serif" font-size="10.00">map</text>
</g>
<!-- Node1&#45;&gt;Node12 -->
<g id="edge11" class="edge"><title>Node1&#45;&gt;Node12</title>
<path fill="none" stroke="midnightblue" d="M644.337,-168.158C642.208,-155.642 639.015,-132.048 641,-112 641.874,-103.17 643.691,-93.5054 645.465,-85.4041"/>
<polygon fill="midnightblue" stroke="midnightblue" points="648.901,-86.0846 647.765,-75.5508 642.084,-84.4935 648.901,-86.0846"/>
</g>
<!-- Node13 -->
<g id="node13" class="node"><title>Node13</title>
<polygon fill="white" stroke="#bfbfbf" points="650,-112.5 650,-131.5 692,-131.5 692,-112.5 650,-112.5"/>
<text text-anchor="middle" x="671" y="-119.5" font-family="Helvetica,sans-Serif" font-size="10.00">vector</text>
</g>
<!-- Node1&#45;&gt;Node13 -->
<g id="edge12" class="edge"><title>Node1&#45;&gt;Node13</title>
<path fill="none" stroke="midnightblue" d="M650.128,-168.083C653.514,-160.77 658.416,-150.181 662.619,-141.103"/>
<polygon fill="midnightblue" stroke="midnightblue" points="665.923,-142.296 666.949,-131.751 659.571,-139.355 665.923,-142.296"/>
</g>
<!-- Node14 -->
<g id="node14" class="node"><title>Node14</title>
<g id="a_node14"><a xlink:href="_tools_8h.html" target="_top" xlink:title="Tools.h">
<polygon fill="white" stroke="black" points="710,-112.5 710,-131.5 758,-131.5 758,-112.5 710,-112.5"/>
<text text-anchor="middle" x="734" y="-119.5" font-family="Helvetica,sans-Serif" font-size="10.00">Tools.h</text>
</a>
</g>
</g>
<!-- Node1&#45;&gt;Node14 -->
<g id="edge13" class="edge"><title>Node1&#45;&gt;Node14</title>
<path fill="none" stroke="midnightblue" d="M660.139,-168.324C673.866,-159.9 694.936,-146.971 711.064,-137.074"/>
<polygon fill="midnightblue" stroke="midnightblue" points="713.204,-139.868 719.896,-131.655 709.543,-133.902 713.204,-139.868"/>
</g>
<!-- Node3 -->
<g id="node3" class="node"><title>Node3</title>
<g id="a_node3"><a xlink:href="targetver_8h.html" target="_top" xlink:title="包括 SDKDDKVer.h 将定义最高版本的可用 Windows 平台。 如果要为以前的 Windows 平台生成应用程序，请包括 ...">
<polygon fill="white" stroke="black" points="9,-56.5 9,-75.5 71,-75.5 71,-56.5 9,-56.5"/>
<text text-anchor="middle" x="40" y="-63.5" font-family="Helvetica,sans-Serif" font-size="10.00">targetver.h</text>
</a>
</g>
</g>
<!-- Node2&#45;&gt;Node3 -->
<g id="edge2" class="edge"><title>Node2&#45;&gt;Node3</title>
<path fill="none" stroke="midnightblue" d="M305.275,-116.771C261.385,-109.475 169.009,-93.7604 81.261,-76.1888"/>
<polygon fill="midnightblue" stroke="midnightblue" points="81.9093,-72.7492 71.415,-74.2052 80.5268,-79.6113 81.9093,-72.7492"/>
</g>
<!-- Node5 -->
<g id="node5" class="node"><title>Node5</title>
<polygon fill="white" stroke="#bfbfbf" points="89,-56.5 89,-75.5 141,-75.5 141,-56.5 89,-56.5"/>
<text text-anchor="middle" x="115" y="-63.5" font-family="Helvetica,sans-Serif" font-size="10.00">afxwin.h</text>
</g>
<!-- Node2&#45;&gt;Node5 -->
<g id="edge4" class="edge"><title>Node2&#45;&gt;Node5</title>
<path fill="none" stroke="midnightblue" d="M305.207,-114.656C271.866,-106.441 211.758,-91.5805 151.103,-76.2653"/>
<polygon fill="midnightblue" stroke="midnightblue" points="151.92,-72.8619 141.368,-73.8043 150.205,-79.6484 151.92,-72.8619"/>
</g>
<!-- Node6 -->
<g id="node6" class="node"><title>Node6</title>
<polygon fill="white" stroke="#bfbfbf" points="159.5,-56.5 159.5,-75.5 210.5,-75.5 210.5,-56.5 159.5,-56.5"/>
<text text-anchor="middle" x="185" y="-63.5" font-family="Helvetica,sans-Serif" font-size="10.00">afxext.h</text>
</g>
<!-- Node2&#45;&gt;Node6 -->
<g id="edge5" class="edge"><title>Node2&#45;&gt;Node6</title>
<path fill="none" stroke="midnightblue" d="M307.866,-112.444C283.518,-103.438 244.993,-89.1891 217.577,-79.049"/>
<polygon fill="midnightblue" stroke="midnightblue" points="218.619,-75.7028 208.026,-75.5164 216.191,-82.2681 218.619,-75.7028"/>
</g>
<!-- Node7 -->
<g id="node7" class="node"><title>Node7</title>
<polygon fill="white" stroke="#bfbfbf" points="229,-56.5 229,-75.5 285,-75.5 285,-56.5 229,-56.5"/>
<text text-anchor="middle" x="257" y="-63.5" font-family="Helvetica,sans-Serif" font-size="10.00">afxdisp.h</text>
</g>
<!-- Node2&#45;&gt;Node7 -->
<g id="edge6" class="edge"><title>Node2&#45;&gt;Node7</title>
<path fill="none" stroke="midnightblue" d="M319.111,-112.324C307.85,-104.107 290.713,-91.6017 277.291,-81.8069"/>
<polygon fill="midnightblue" stroke="midnightblue" points="279.247,-78.9014 269.106,-75.8339 275.12,-84.5559 279.247,-78.9014"/>
</g>
<!-- Node8 -->
<g id="node8" class="node"><title>Node8</title>
<polygon fill="white" stroke="#bfbfbf" points="303,-56.5 303,-75.5 359,-75.5 359,-56.5 303,-56.5"/>
<text text-anchor="middle" x="331" y="-63.5" font-family="Helvetica,sans-Serif" font-size="10.00">afxdtctl.h</text>
</g>
<!-- Node2&#45;&gt;Node8 -->
<g id="edge7" class="edge"><title>Node2&#45;&gt;Node8</title>
<path fill="none" stroke="midnightblue" d="M331,-112.083C331,-105.006 331,-94.8611 331,-85.9865"/>
<polygon fill="midnightblue" stroke="midnightblue" points="334.5,-85.751 331,-75.7511 327.5,-85.7511 334.5,-85.751"/>
</g>
<!-- Node9 -->
<g id="node9" class="node"><title>Node9</title>
<polygon fill="white" stroke="#bfbfbf" points="377,-56.5 377,-75.5 433,-75.5 433,-56.5 377,-56.5"/>
<text text-anchor="middle" x="405" y="-63.5" font-family="Helvetica,sans-Serif" font-size="10.00">afxcmn.h</text>
</g>
<!-- Node2&#45;&gt;Node9 -->
<g id="edge8" class="edge"><title>Node2&#45;&gt;Node9</title>
<path fill="none" stroke="midnightblue" d="M342.889,-112.324C354.15,-104.107 371.287,-91.6017 384.709,-81.8069"/>
<polygon fill="midnightblue" stroke="midnightblue" points="386.88,-84.5559 392.894,-75.8339 382.753,-78.9014 386.88,-84.5559"/>
</g>
<!-- Node10 -->
<g id="node10" class="node"><title>Node10</title>
<polygon fill="white" stroke="#bfbfbf" points="451,-56.5 451,-75.5 537,-75.5 537,-56.5 451,-56.5"/>
<text text-anchor="middle" x="494" y="-63.5" font-family="Helvetica,sans-Serif" font-size="10.00">afxcontrolbars.h</text>
</g>
<!-- Node2&#45;&gt;Node10 -->
<g id="edge9" class="edge"><title>Node2&#45;&gt;Node10</title>
<path fill="none" stroke="midnightblue" d="M356.828,-112.444C384.249,-103.359 427.777,-88.9388 458.432,-78.7831"/>
<polygon fill="midnightblue" stroke="midnightblue" points="459.901,-81.9837 468.293,-75.5164 457.7,-75.3389 459.901,-81.9837"/>
</g>
<!-- Node11 -->
<g id="node11" class="node"><title>Node11</title>
<polygon fill="white" stroke="#bfbfbf" points="555.5,-56.5 555.5,-75.5 614.5,-75.5 614.5,-56.5 555.5,-56.5"/>
<text text-anchor="middle" x="585" y="-63.5" font-family="Helvetica,sans-Serif" font-size="10.00">afxsock.h</text>
</g>
<!-- Node2&#45;&gt;Node11 -->
<g id="edge10" class="edge"><title>Node2&#45;&gt;Node11</title>
<path fill="none" stroke="midnightblue" d="M356.52,-115.835C395.091,-107.99 470.785,-92.4475 545.193,-76.1424"/>
<polygon fill="midnightblue" stroke="midnightblue" points="546.188,-79.5072 555.204,-73.9422 544.685,-72.6704 546.188,-79.5072"/>
</g>
<!-- Node4 -->
<g id="node4" class="node"><title>Node4</title>
<polygon fill="white" stroke="#bfbfbf" points="0,-0.5 0,-19.5 80,-19.5 80,-0.5 0,-0.5"/>
<text text-anchor="middle" x="40" y="-7.5" font-family="Helvetica,sans-Serif" font-size="10.00">SDKDDKVer.h</text>
</g>
<!-- Node3&#45;&gt;Node4 -->
<g id="edge3" class="edge"><title>Node3&#45;&gt;Node4</title>
<path fill="none" stroke="midnightblue" d="M40,-56.083C40,-49.0059 40,-38.8611 40,-29.9865"/>
<polygon fill="midnightblue" stroke="midnightblue" points="43.5001,-29.751 40,-19.7511 36.5001,-29.7511 43.5001,-29.751"/>
</g>
<!-- Node14&#45;&gt;Node12 -->
<g id="edge15" class="edge"><title>Node14&#45;&gt;Node12</title>
<path fill="none" stroke="midnightblue" d="M720.504,-112.324C707.4,-103.9 687.288,-90.9709 671.893,-81.0741"/>
<polygon fill="midnightblue" stroke="midnightblue" points="673.767,-78.118 663.463,-75.6545 669.982,-84.0063 673.767,-78.118"/>
</g>
<!-- Node15 -->
<g id="node15" class="node"><title>Node15</title>
<polygon fill="white" stroke="#bfbfbf" points="685.5,-56.5 685.5,-75.5 726.5,-75.5 726.5,-56.5 685.5,-56.5"/>
<text text-anchor="middle" x="706" y="-63.5" font-family="Helvetica,sans-Serif" font-size="10.00">string</text>
</g>
<!-- Node14&#45;&gt;Node15 -->
<g id="edge14" class="edge"><title>Node14&#45;&gt;Node15</title>
<path fill="none" stroke="midnightblue" d="M729.376,-112.083C725.544,-104.691 719.976,-93.9533 715.235,-84.8111"/>
<polygon fill="midnightblue" stroke="midnightblue" points="718.248,-83.0175 710.538,-75.7511 712.034,-86.2398 718.248,-83.0175"/>
</g>
<!-- Node16 -->
<g id="node16" class="node"><title>Node16</title>
<polygon fill="white" stroke="#bfbfbf" points="745,-56.5 745,-75.5 791,-75.5 791,-56.5 745,-56.5"/>
<text text-anchor="middle" x="768" y="-63.5" font-family="Helvetica,sans-Serif" font-size="10.00">mapi.h</text>
</g>
<!-- Node14&#45;&gt;Node16 -->
<g id="edge16" class="edge"><title>Node14&#45;&gt;Node16</title>
<path fill="none" stroke="midnightblue" d="M739.614,-112.083C744.367,-104.534 751.318,-93.4948 757.152,-84.2298"/>
<polygon fill="midnightblue" stroke="midnightblue" points="760.124,-86.0783 762.49,-75.7511 754.2,-82.3486 760.124,-86.0783"/>
</g>
<!-- Node17 -->
<g id="node17" class="node"><title>Node17</title>
<polygon fill="white" stroke="#bfbfbf" points="809.5,-56.5 809.5,-75.5 862.5,-75.5 862.5,-56.5 809.5,-56.5"/>
<text text-anchor="middle" x="836" y="-63.5" font-family="Helvetica,sans-Serif" font-size="10.00">afxinet.h</text>
</g>
<!-- Node14&#45;&gt;Node17 -->
<g id="edge17" class="edge"><title>Node14&#45;&gt;Node17</title>
<path fill="none" stroke="midnightblue" d="M750.388,-112.324C766.671,-103.703 791.867,-90.3643 810.716,-80.3855"/>
<polygon fill="midnightblue" stroke="midnightblue" points="812.452,-83.4267 819.653,-75.6545 809.177,-77.2402 812.452,-83.4267"/>
</g>
</g>
</svg>
