<?xml version="1.0" encoding="UTF-8" standalone="no"?>
<!DOCTYPE svg PUBLIC "-//W3C//DTD SVG 1.1//EN"
 "http://www.w3.org/Graphics/SVG/1.1/DTD/svg11.dtd">
<!-- Generated by graphviz version 2.38.0 (20140413.2041)
 -->
<!-- Title: PrintLog Pages: 1 -->
<svg width="643pt" height="88pt"
 viewBox="0.00 0.00 643.00 88.00" xmlns="http://www.w3.org/2000/svg" xmlns:xlink="http://www.w3.org/1999/xlink">
<g id="graph0" class="graph" transform="scale(1 1) rotate(0) translate(4 84)">
<title>PrintLog</title>
<polygon fill="white" stroke="none" points="-4,4 -4,-84 639,-84 639,4 -4,4"/>
<!-- Node1 -->
<g id="node1" class="node"><title>Node1</title>
<polygon fill="#bfbfbf" stroke="black" points="0,-30 0,-49 53,-49 53,-30 0,-30"/>
<text text-anchor="middle" x="26.5" y="-37" font-family="Helvetica,sans-Serif" font-size="10.00">PrintLog</text>
</g>
<!-- Node2 -->
<g id="node2" class="node"><title>Node2</title>
<g id="a_node2"><a xlink:href="class_net_work_1_1_chat_work.html#ac019f44ad1ecc33ce3eb2c42b6b537d9" target="_top" xlink:title="NetWork::ChatWork::\lBegin">
<polygon fill="white" stroke="black" points="94,-49.5 94,-79.5 204,-79.5 204,-49.5 94,-49.5"/>
<text text-anchor="start" x="102" y="-67.5" font-family="Helvetica,sans-Serif" font-size="10.00">NetWork::ChatWork::</text>
<text text-anchor="middle" x="149" y="-56.5" font-family="Helvetica,sans-Serif" font-size="10.00">Begin</text>
</a>
</g>
</g>
<!-- Node1&#45;&gt;Node2 -->
<g id="edge1" class="edge"><title>Node1&#45;&gt;Node2</title>
<path fill="none" stroke="midnightblue" d="M63.0426,-46.874C72.6699,-48.8713 83.3152,-51.0799 93.7207,-53.2387"/>
<polygon fill="midnightblue" stroke="midnightblue" points="63.5575,-43.4063 53.055,-44.8019 62.1354,-50.2604 63.5575,-43.4063"/>
</g>
<!-- Node6 -->
<g id="node6" class="node"><title>Node6</title>
<g id="a_node6"><a xlink:href="class_net_work_1_1_app_layer_http.html#ad2e8c8742f2c630bd2d43ad843454d7d" target="_top" xlink:title="NetWork::AppLayerHttp\l::Begin">
<polygon fill="white" stroke="black" points="89,-0.5 89,-30.5 209,-30.5 209,-0.5 89,-0.5"/>
<text text-anchor="start" x="97" y="-18.5" font-family="Helvetica,sans-Serif" font-size="10.00">NetWork::AppLayerHttp</text>
<text text-anchor="middle" x="149" y="-7.5" font-family="Helvetica,sans-Serif" font-size="10.00">::Begin</text>
</a>
</g>
</g>
<!-- Node1&#45;&gt;Node6 -->
<g id="edge5" class="edge"><title>Node1&#45;&gt;Node6</title>
<path fill="none" stroke="midnightblue" d="M62.914,-32.4466C71.0521,-30.8257 79.9231,-29.0589 88.7649,-27.2979"/>
<polygon fill="midnightblue" stroke="midnightblue" points="62.1786,-29.0242 53.055,-34.4102 63.546,-35.8894 62.1786,-29.0242"/>
</g>
<!-- Node3 -->
<g id="node3" class="node"><title>Node3</title>
<g id="a_node3"><a xlink:href="class_user_cmd.html#a8b9f5a09bef002aaefe10c43ae9ccea1" target="_top" xlink:title="UserCmd::Chat">
<polygon fill="white" stroke="black" points="245,-55 245,-74 328,-74 328,-55 245,-55"/>
<text text-anchor="middle" x="286.5" y="-62" font-family="Helvetica,sans-Serif" font-size="10.00">UserCmd::Chat</text>
</a>
</g>
</g>
<!-- Node2&#45;&gt;Node3 -->
<g id="edge2" class="edge"><title>Node2&#45;&gt;Node3</title>
<path fill="none" stroke="midnightblue" d="M214.597,-64.5C224.93,-64.5 235.361,-64.5 244.926,-64.5"/>
<polygon fill="midnightblue" stroke="midnightblue" points="214.332,-61.0001 204.332,-64.5 214.332,-68.0001 214.332,-61.0001"/>
</g>
<!-- Node4 -->
<g id="node4" class="node"><title>Node4</title>
<g id="a_node4"><a xlink:href="class_cmd_view.html#a70cf028b2bc48ea3e0e6be3319911c85" target="_top" xlink:title="创建消息处理线程,注册消息映射 ">
<polygon fill="white" stroke="black" points="364,-55 364,-74 469,-74 469,-55 364,-55"/>
<text text-anchor="middle" x="416.5" y="-62" font-family="Helvetica,sans-Serif" font-size="10.00">CmdView::Initialcmd</text>
</a>
</g>
</g>
<!-- Node3&#45;&gt;Node4 -->
<g id="edge3" class="edge"><title>Node3&#45;&gt;Node4</title>
<path fill="none" stroke="midnightblue" d="M338.359,-64.5C346.724,-64.5 355.402,-64.5 363.788,-64.5"/>
<polygon fill="midnightblue" stroke="midnightblue" points="338.352,-61.0001 328.352,-64.5 338.352,-68.0001 338.352,-61.0001"/>
</g>
<!-- Node5 -->
<g id="node5" class="node"><title>Node5</title>
<g id="a_node5"><a xlink:href="class_cmd_view.html#a37a513e8262ea52c1859f8be73dac1b7" target="_top" xlink:title="函数在视图附加到文档后触发,主要完成界面的初始化工作 ">
<polygon fill="white" stroke="black" points="505,-55 505,-74 635,-74 635,-55 505,-55"/>
<text text-anchor="middle" x="570" y="-62" font-family="Helvetica,sans-Serif" font-size="10.00">CmdView::OnInitialUpdate</text>
</a>
</g>
</g>
<!-- Node4&#45;&gt;Node5 -->
<g id="edge4" class="edge"><title>Node4&#45;&gt;Node5</title>
<path fill="none" stroke="midnightblue" d="M479.352,-64.5C487.784,-64.5 496.453,-64.5 504.924,-64.5"/>
<polygon fill="midnightblue" stroke="midnightblue" points="479.214,-61.0001 469.214,-64.5 479.214,-68.0001 479.214,-61.0001"/>
</g>
</g>
</svg>
