<?xml version="1.0" encoding="UTF-8" standalone="no"?>
<!DOCTYPE svg PUBLIC "-//W3C//DTD SVG 1.1//EN"
 "http://www.w3.org/Graphics/SVG/1.1/DTD/svg11.dtd">
<!-- Generated by graphviz version 2.38.0 (20140413.2041)
 -->
<!-- Title: PrintLog Pages: 1 -->
<svg width="658pt" height="267pt"
 viewBox="0.00 0.00 658.00 266.99" xmlns="http://www.w3.org/2000/svg" xmlns:xlink="http://www.w3.org/1999/xlink">
<g id="graph0" class="graph" transform="scale(1 1) rotate(0) translate(4 262.994)">
<title>PrintLog</title>
<polygon fill="white" stroke="none" points="-4,4 -4,-262.994 654,-262.994 654,4 -4,4"/>
<!-- Node1 -->
<g id="node1" class="node"><title>Node1</title>
<polygon fill="#bfbfbf" stroke="black" points="0,-106.494 0,-125.494 53,-125.494 53,-106.494 0,-106.494"/>
<text text-anchor="middle" x="26.5" y="-113.494" font-family="Helvetica,sans-Serif" font-size="10.00">PrintLog</text>
</g>
<!-- Node2 -->
<g id="node2" class="node"><title>Node2</title>
<g id="a_node2"><a xlink:href="class_cmd_view.html#a19fb61e29f7be75474462793ea26d461" target="_top" xlink:title="实现命令字符串到命令处理函数之间的映射 ">
<polygon fill="white" stroke="black" points="90.5,-239.494 90.5,-258.494 194.5,-258.494 194.5,-239.494 90.5,-239.494"/>
<text text-anchor="middle" x="142.5" y="-246.494" font-family="Helvetica,sans-Serif" font-size="10.00">CmdView::MapTask</text>
</a>
</g>
</g>
<!-- Node1&#45;&gt;Node2 -->
<g id="edge1" class="edge"><title>Node1&#45;&gt;Node2</title>
<path fill="none" stroke="midnightblue" d="M34.1758,-135.458C43.2386,-159.339 61.5236,-199.757 89,-224.994 95.569,-231.028 103.916,-235.767 112.011,-239.382"/>
<polygon fill="midnightblue" stroke="midnightblue" points="37.3598,-133.971 30.6609,-125.763 30.7789,-136.357 37.3598,-133.971"/>
</g>
<!-- Node4 -->
<g id="node4" class="node"><title>Node4</title>
<g id="a_node4"><a xlink:href="class_cmd_view.html#a70cf028b2bc48ea3e0e6be3319911c85" target="_top" xlink:title="创建消息处理线程,注册消息映射 ">
<polygon fill="white" stroke="black" points="379,-106.494 379,-125.494 484,-125.494 484,-106.494 379,-106.494"/>
<text text-anchor="middle" x="431.5" y="-113.494" font-family="Helvetica,sans-Serif" font-size="10.00">CmdView::Initialcmd</text>
</a>
</g>
</g>
<!-- Node1&#45;&gt;Node4 -->
<g id="edge5" class="edge"><title>Node1&#45;&gt;Node4</title>
<path fill="none" stroke="midnightblue" d="M36.2665,-134.453C46.1696,-152.896 64.1988,-180.16 89,-191.994 190.883,-240.612 237.252,-231.507 343,-191.994 379,-178.543 409.989,-142.858 423.404,-125.603"/>
<polygon fill="midnightblue" stroke="midnightblue" points="39.3708,-132.836 31.7223,-125.505 33.1294,-136.006 39.3708,-132.836"/>
</g>
<!-- Node6 -->
<g id="node6" class="node"><title>Node6</title>
<g id="a_node6"><a xlink:href="class_cmd_view.html#a9db1b898ce61e9feeb9a3255ac45b82d" target="_top" xlink:title="处理回车键消息,触发命令处理函数 ">
<polygon fill="white" stroke="black" points="89,-163.494 89,-182.494 196,-182.494 196,-163.494 89,-163.494"/>
<text text-anchor="middle" x="142.5" y="-170.494" font-family="Helvetica,sans-Serif" font-size="10.00">CmdView::DealEnter</text>
</a>
</g>
</g>
<!-- Node1&#45;&gt;Node6 -->
<g id="edge6" class="edge"><title>Node1&#45;&gt;Node6</title>
<path fill="none" stroke="midnightblue" d="M49.6665,-131.234C61.095,-138.688 75.4477,-147.442 89,-153.994 96.2431,-157.496 104.308,-160.725 111.901,-163.489"/>
<polygon fill="midnightblue" stroke="midnightblue" points="51.4639,-128.226 41.1992,-125.602 47.5868,-134.054 51.4639,-128.226"/>
</g>
<!-- Node8 -->
<g id="node8" class="node"><title>Node8</title>
<g id="a_node8"><a xlink:href="class_net_dll.html#abb349ff2f7a5d0cfc0906e70f7716638" target="_top" xlink:title="NetDll::LoadDll">
<polygon fill="white" stroke="black" points="102,-125.494 102,-144.494 183,-144.494 183,-125.494 102,-125.494"/>
<text text-anchor="middle" x="142.5" y="-132.494" font-family="Helvetica,sans-Serif" font-size="10.00">NetDll::LoadDll</text>
</a>
</g>
</g>
<!-- Node1&#45;&gt;Node8 -->
<g id="edge8" class="edge"><title>Node1&#45;&gt;Node8</title>
<path fill="none" stroke="midnightblue" d="M62.9655,-121.905C75.2399,-123.951 89.0762,-126.257 101.677,-128.357"/>
<polygon fill="midnightblue" stroke="midnightblue" points="63.5232,-118.45 53.0838,-120.258 62.3723,-125.355 63.5232,-118.45"/>
</g>
<!-- Node9 -->
<g id="node9" class="node"><title>Node9</title>
<g id="a_node9"><a xlink:href="class_user_cmd.html#acab5b5cbfcc9b92f860b3d48ae1c4ab5" target="_top" xlink:title="UserCmd::SetDll">
<polygon fill="white" stroke="black" points="243,-106.494 243,-125.494 332,-125.494 332,-106.494 243,-106.494"/>
<text text-anchor="middle" x="287.5" y="-113.494" font-family="Helvetica,sans-Serif" font-size="10.00">UserCmd::SetDll</text>
</a>
</g>
</g>
<!-- Node1&#45;&gt;Node9 -->
<g id="edge16" class="edge"><title>Node1&#45;&gt;Node9</title>
<path fill="none" stroke="midnightblue" d="M63.2825,-115.994C110.16,-115.994 192.314,-115.994 242.811,-115.994"/>
<polygon fill="midnightblue" stroke="midnightblue" points="63.2808,-112.494 53.2808,-115.994 63.2808,-119.494 63.2808,-112.494"/>
</g>
<!-- Node10 -->
<g id="node10" class="node"><title>Node10</title>
<g id="a_node10"><a xlink:href="class_net_dll.html#a27e156c4e33270dcf98f78a7328b86bc" target="_top" xlink:title="NetDll::OpenDll">
<polygon fill="white" stroke="black" points="101,-49.4943 101,-68.4943 184,-68.4943 184,-49.4943 101,-49.4943"/>
<text text-anchor="middle" x="142.5" y="-56.4943" font-family="Helvetica,sans-Serif" font-size="10.00">NetDll::OpenDll</text>
</a>
</g>
</g>
<!-- Node1&#45;&gt;Node10 -->
<g id="edge11" class="edge"><title>Node1&#45;&gt;Node10</title>
<path fill="none" stroke="midnightblue" d="M53.5597,-101.537C64.4337,-95.629 77.247,-88.8266 89,-82.9943 99.0545,-78.0049 110.36,-72.7875 119.898,-68.4966"/>
<polygon fill="midnightblue" stroke="midnightblue" points="51.6703,-98.5815 44.5784,-106.453 55.0309,-104.722 51.6703,-98.5815"/>
</g>
<!-- Node11 -->
<g id="node11" class="node"><title>Node11</title>
<g id="a_node11"><a xlink:href="class_user_cmd.html#a7e760ac67d39d2b210b7d2b4f8e8ad5b" target="_top" xlink:title="UserCmd::Compute">
<polygon fill="white" stroke="black" points="236.5,-49.4943 236.5,-68.4943 338.5,-68.4943 338.5,-49.4943 236.5,-49.4943"/>
<text text-anchor="middle" x="287.5" y="-56.4943" font-family="Helvetica,sans-Serif" font-size="10.00">UserCmd::Compute</text>
</a>
</g>
</g>
<!-- Node1&#45;&gt;Node11 -->
<g id="edge12" class="edge"><title>Node1&#45;&gt;Node11</title>
<path fill="none" stroke="midnightblue" d="M36.2665,-97.5353C46.1696,-79.0922 64.1988,-51.8292 89,-39.9943 146.98,-12.3271 225.301,-35.0558 263.554,-49.436"/>
<polygon fill="midnightblue" stroke="midnightblue" points="33.1294,-95.9829 31.7223,-106.484 39.3708,-99.1524 33.1294,-95.9829"/>
</g>
<!-- Node12 -->
<g id="node12" class="node"><title>Node12</title>
<g id="a_node12"><a xlink:href="class_user_cmd.html#abdb2a891ebfa05f462586a00b13cbcfc" target="_top" xlink:title="UserCmd::Connect">
<polygon fill="white" stroke="black" points="238,-2.49433 238,-21.4943 337,-21.4943 337,-2.49433 238,-2.49433"/>
<text text-anchor="middle" x="287.5" y="-9.49433" font-family="Helvetica,sans-Serif" font-size="10.00">UserCmd::Connect</text>
</a>
</g>
</g>
<!-- Node1&#45;&gt;Node12 -->
<g id="edge14" class="edge"><title>Node1&#45;&gt;Node12</title>
<path fill="none" stroke="midnightblue" d="M34.1046,-96.831C42.852,-74.7173 60.5787,-39.3081 89,-22.9943 134.271,2.99122 195.409,1.99686 237.612,-3.09969"/>
<polygon fill="midnightblue" stroke="midnightblue" points="30.7229,-95.8839 30.5242,-106.477 37.2854,-98.3198 30.7229,-95.8839"/>
</g>
<!-- Node3 -->
<g id="node3" class="node"><title>Node3</title>
<g id="a_node3"><a xlink:href="class_cmd_view.html#aa343e34b3fe9c6097c39a416c8ec5206" target="_top" xlink:title="监听命令处理状态 ">
<polygon fill="white" stroke="black" points="232,-239.494 232,-258.494 343,-258.494 343,-239.494 232,-239.494"/>
<text text-anchor="middle" x="287.5" y="-246.494" font-family="Helvetica,sans-Serif" font-size="10.00">CmdView::DEALCMD</text>
</a>
</g>
</g>
<!-- Node2&#45;&gt;Node3 -->
<g id="edge2" class="edge"><title>Node2&#45;&gt;Node3</title>
<path fill="none" stroke="midnightblue" d="M204.739,-248.994C213.722,-248.994 222.926,-248.994 231.767,-248.994"/>
<polygon fill="midnightblue" stroke="midnightblue" points="204.722,-245.494 194.722,-248.994 204.722,-252.494 204.722,-245.494"/>
</g>
<!-- Node3&#45;&gt;Node4 -->
<g id="edge3" class="edge"><title>Node3&#45;&gt;Node4</title>
<path fill="none" stroke="midnightblue" d="M326.287,-235.215C332.155,-232.282 337.941,-228.877 343,-224.994 381.116,-195.741 412.614,-146.534 424.93,-125.739"/>
<polygon fill="midnightblue" stroke="midnightblue" points="324.72,-232.083 317.09,-239.434 327.639,-238.445 324.72,-232.083"/>
</g>
<!-- Node5 -->
<g id="node5" class="node"><title>Node5</title>
<g id="a_node5"><a xlink:href="class_cmd_view.html#a37a513e8262ea52c1859f8be73dac1b7" target="_top" xlink:title="函数在视图附加到文档后触发,主要完成界面的初始化工作 ">
<polygon fill="white" stroke="black" points="520,-106.494 520,-125.494 650,-125.494 650,-106.494 520,-106.494"/>
<text text-anchor="middle" x="585" y="-113.494" font-family="Helvetica,sans-Serif" font-size="10.00">CmdView::OnInitialUpdate</text>
</a>
</g>
</g>
<!-- Node4&#45;&gt;Node5 -->
<g id="edge4" class="edge"><title>Node4&#45;&gt;Node5</title>
<path fill="none" stroke="midnightblue" d="M494.352,-115.994C502.784,-115.994 511.453,-115.994 519.924,-115.994"/>
<polygon fill="midnightblue" stroke="midnightblue" points="494.214,-112.494 484.214,-115.994 494.214,-119.494 494.214,-112.494"/>
</g>
<!-- Node7 -->
<g id="node7" class="node"><title>Node7</title>
<g id="a_node7"><a xlink:href="class_cmd_view.html#a7763f6d4cc758e91aa4ac6d97b5a275b" target="_top" xlink:title="函数在按下非系统键时触发,在OnKeyDown之后,OnKeyUp之前。 ">
<polygon fill="white" stroke="black" points="239,-163.494 239,-182.494 336,-182.494 336,-163.494 239,-163.494"/>
<text text-anchor="middle" x="287.5" y="-170.494" font-family="Helvetica,sans-Serif" font-size="10.00">CmdView::OnChar</text>
</a>
</g>
</g>
<!-- Node6&#45;&gt;Node7 -->
<g id="edge7" class="edge"><title>Node6&#45;&gt;Node7</title>
<path fill="none" stroke="midnightblue" d="M206.544,-172.994C217.302,-172.994 228.319,-172.994 238.602,-172.994"/>
<polygon fill="midnightblue" stroke="midnightblue" points="206.342,-169.494 196.342,-172.994 206.342,-176.494 206.342,-169.494"/>
</g>
<!-- Node8&#45;&gt;Node9 -->
<g id="edge9" class="edge"><title>Node8&#45;&gt;Node9</title>
<path fill="none" stroke="midnightblue" d="M193.618,-128.335C209.673,-126.202 227.313,-123.858 242.867,-121.792"/>
<polygon fill="midnightblue" stroke="midnightblue" points="192.785,-124.915 183.333,-129.702 193.707,-131.854 192.785,-124.915"/>
</g>
<!-- Node9&#45;&gt;Node4 -->
<g id="edge10" class="edge"><title>Node9&#45;&gt;Node4</title>
<path fill="none" stroke="midnightblue" d="M342.537,-115.994C354.467,-115.994 367.077,-115.994 378.908,-115.994"/>
<polygon fill="midnightblue" stroke="midnightblue" points="342.263,-112.494 332.263,-115.994 342.263,-119.494 342.263,-112.494"/>
</g>
<!-- Node11&#45;&gt;Node4 -->
<g id="edge13" class="edge"><title>Node11&#45;&gt;Node4</title>
<path fill="none" stroke="midnightblue" d="M321.735,-72.3352C347.779,-82.7893 383.384,-97.0817 406.655,-106.423"/>
<polygon fill="midnightblue" stroke="midnightblue" points="322.852,-69.012 312.268,-68.5348 320.244,-75.5082 322.852,-69.012"/>
</g>
<!-- Node12&#45;&gt;Node4 -->
<g id="edge15" class="edge"><title>Node12&#45;&gt;Node4</title>
<path fill="none" stroke="midnightblue" d="M318.994,-26.0283C327.025,-30.1591 335.528,-34.9383 343,-39.9943 373.663,-60.7425 405.45,-90.9269 420.906,-106.264"/>
<polygon fill="midnightblue" stroke="midnightblue" points="320.387,-22.8123 309.874,-21.4992 317.274,-29.0818 320.387,-22.8123"/>
</g>
</g>
</svg>
