<?xml version="1.0" encoding="UTF-8" standalone="no"?>
<!DOCTYPE svg PUBLIC "-//W3C//DTD SVG 1.1//EN"
 "http://www.w3.org/Graphics/SVG/1.1/DTD/svg11.dtd">
<!-- Generated by graphviz version 2.38.0 (20140413.2041)
 -->
<!-- Title: src/NetDll.h Pages: 1 -->
<svg width="534pt" height="308pt"
 viewBox="0.00 0.00 533.50 308.00" xmlns="http://www.w3.org/2000/svg" xmlns:xlink="http://www.w3.org/1999/xlink">
<g id="graph0" class="graph" transform="scale(1 1) rotate(0) translate(4 304)">
<title>src/NetDll.h</title>
<polygon fill="white" stroke="none" points="-4,4 -4,-304 529.5,-304 529.5,4 -4,4"/>
<!-- Node1 -->
<g id="node1" class="node"><title>Node1</title>
<polygon fill="#bfbfbf" stroke="black" points="181,-280.5 181,-299.5 249,-299.5 249,-280.5 181,-280.5"/>
<text text-anchor="middle" x="215" y="-287.5" font-family="Helvetica,sans-Serif" font-size="10.00">src/NetDll.h</text>
</g>
<!-- Node2 -->
<g id="node2" class="node"><title>Node2</title>
<g id="a_node2"><a xlink:href="_user_cmd_8h.html" target="_top" xlink:title="src/UserCmd.h">
<polygon fill="white" stroke="black" points="299,-224.5 299,-243.5 381,-243.5 381,-224.5 299,-224.5"/>
<text text-anchor="middle" x="340" y="-231.5" font-family="Helvetica,sans-Serif" font-size="10.00">src/UserCmd.h</text>
</a>
</g>
</g>
<!-- Node1&#45;&gt;Node2 -->
<g id="edge1" class="edge"><title>Node1&#45;&gt;Node2</title>
<path fill="none" stroke="midnightblue" d="M244.241,-276.368C267.65,-266.255 299.841,-252.349 320.286,-243.516"/>
<polygon fill="midnightblue" stroke="midnightblue" points="242.599,-273.265 234.807,-280.444 245.375,-279.691 242.599,-273.265"/>
</g>
<!-- Node7 -->
<g id="node7" class="node"><title>Node7</title>
<g id="a_node7"><a xlink:href="_net_dll_8cpp.html" target="_top" xlink:title="NetDll. ">
<polygon fill="white" stroke="black" points="310,-0.5 310,-19.5 388,-19.5 388,-0.5 310,-0.5"/>
<text text-anchor="middle" x="349" y="-7.5" font-family="Helvetica,sans-Serif" font-size="10.00">src/NetDll.cpp</text>
</a>
</g>
</g>
<!-- Node1&#45;&gt;Node7 -->
<g id="edge17" class="edge"><title>Node1&#45;&gt;Node7</title>
<path fill="none" stroke="midnightblue" d="M215,-270.251C215,-248.357 215,-211.052 215,-179 215,-179 215,-179 215,-121 215,-90.9022 213.681,-78.204 234,-56 245.724,-43.1887 288.662,-28.5714 318.613,-19.5641"/>
<polygon fill="midnightblue" stroke="midnightblue" points="211.5,-270.442 215,-280.442 218.5,-270.442 211.5,-270.442"/>
</g>
<!-- Node10 -->
<g id="node10" class="node"><title>Node10</title>
<g id="a_node10"><a xlink:href="_user_cmd_8cpp.html" target="_top" xlink:title="UserCmd.cpp. ">
<polygon fill="white" stroke="black" points="0,-0.5 0,-19.5 92,-19.5 92,-0.5 0,-0.5"/>
<text text-anchor="middle" x="46" y="-7.5" font-family="Helvetica,sans-Serif" font-size="10.00">src/UserCmd.cpp</text>
</a>
</g>
</g>
<!-- Node1&#45;&gt;Node10 -->
<g id="edge18" class="edge"><title>Node1&#45;&gt;Node10</title>
<path fill="none" stroke="midnightblue" d="M170.806,-279.844C121.63,-266.767 49,-237.543 49,-179 49,-179 49,-179 49,-121 49,-83.1734 47.2054,-38.0572 46.3922,-19.5556"/>
<polygon fill="midnightblue" stroke="midnightblue" points="170.052,-283.263 180.605,-282.321 171.768,-276.477 170.052,-283.263"/>
</g>
<!-- Node3 -->
<g id="node3" class="node"><title>Node3</title>
<g id="a_node3"><a xlink:href="_cmd_view_8h.html" target="_top" xlink:title="src/CmdView.h">
<polygon fill="white" stroke="black" points="353.5,-168.5 353.5,-187.5 436.5,-187.5 436.5,-168.5 353.5,-168.5"/>
<text text-anchor="middle" x="395" y="-175.5" font-family="Helvetica,sans-Serif" font-size="10.00">src/CmdView.h</text>
</a>
</g>
</g>
<!-- Node2&#45;&gt;Node3 -->
<g id="edge2" class="edge"><title>Node2&#45;&gt;Node3</title>
<path fill="none" stroke="midnightblue" d="M356.294,-217.002C366.041,-207.433 378.053,-195.639 386.087,-187.751"/>
<polygon fill="midnightblue" stroke="midnightblue" points="353.766,-214.58 349.082,-224.083 358.67,-219.575 353.766,-214.58"/>
</g>
<!-- Node4 -->
<g id="node4" class="node"><title>Node4</title>
<g id="a_node4"><a xlink:href="_cmd_view_8cpp.html" target="_top" xlink:title="CmdView.cpp : 实现文件 ">
<polygon fill="white" stroke="black" points="432.5,-0.5 432.5,-19.5 525.5,-19.5 525.5,-0.5 432.5,-0.5"/>
<text text-anchor="middle" x="479" y="-7.5" font-family="Helvetica,sans-Serif" font-size="10.00">src/CmdView.cpp</text>
</a>
</g>
</g>
<!-- Node2&#45;&gt;Node4 -->
<g id="edge15" class="edge"><title>Node2&#45;&gt;Node4</title>
<path fill="none" stroke="midnightblue" d="M385.739,-221.195C405.811,-214.186 428.507,-203.551 445,-188 485.492,-149.82 488.214,-130.164 501,-76 505.872,-55.3611 493.333,-31.9983 485.239,-19.6776"/>
<polygon fill="midnightblue" stroke="midnightblue" points="384.542,-217.904 376.134,-224.35 386.727,-224.554 384.542,-217.904"/>
</g>
<!-- Node2&#45;&gt;Node10 -->
<g id="edge16" class="edge"><title>Node2&#45;&gt;Node10</title>
<path fill="none" stroke="midnightblue" d="M317.089,-219.102C274.906,-193.112 182.792,-134.475 112,-76 89.6813,-57.5646 66.1189,-32.919 54.0957,-19.9104"/>
<polygon fill="midnightblue" stroke="midnightblue" points="315.418,-222.183 325.773,-224.425 319.076,-216.215 315.418,-222.183"/>
</g>
<!-- Node3&#45;&gt;Node4 -->
<g id="edge3" class="edge"><title>Node3&#45;&gt;Node4</title>
<path fill="none" stroke="midnightblue" d="M415.066,-162.109C437.053,-144.41 471.051,-112.621 485,-76 492.261,-56.9372 486.345,-32.5465 482.192,-19.7445"/>
<polygon fill="midnightblue" stroke="midnightblue" points="412.749,-159.478 407.02,-168.391 417.057,-164.996 412.749,-159.478"/>
</g>
<!-- Node5 -->
<g id="node5" class="node"><title>Node5</title>
<g id="a_node5"><a xlink:href="_main_frm_8h.html" target="_top" xlink:title="src/MainFrm.h">
<polygon fill="white" stroke="black" points="321,-112.5 321,-131.5 401,-131.5 401,-112.5 321,-112.5"/>
<text text-anchor="middle" x="361" y="-119.5" font-family="Helvetica,sans-Serif" font-size="10.00">src/MainFrm.h</text>
</a>
</g>
</g>
<!-- Node3&#45;&gt;Node5 -->
<g id="edge4" class="edge"><title>Node3&#45;&gt;Node5</title>
<path fill="none" stroke="midnightblue" d="M384.023,-159.566C378.173,-150.275 371.23,-139.248 366.51,-131.751"/>
<polygon fill="midnightblue" stroke="midnightblue" points="381.096,-161.486 389.386,-168.083 387.019,-157.756 381.096,-161.486"/>
</g>
<!-- Node11 -->
<g id="node11" class="node"><title>Node11</title>
<g id="a_node11"><a xlink:href="_hust_net_8cpp.html" target="_top" xlink:title="HustNet.cpp : 定义应用程序的类行为。 ">
<polygon fill="white" stroke="black" points="389.5,-56.5 389.5,-75.5 476.5,-75.5 476.5,-56.5 389.5,-56.5"/>
<text text-anchor="middle" x="433" y="-63.5" font-family="Helvetica,sans-Serif" font-size="10.00">src/HustNet.cpp</text>
</a>
</g>
</g>
<!-- Node3&#45;&gt;Node11 -->
<g id="edge14" class="edge"><title>Node3&#45;&gt;Node11</title>
<path fill="none" stroke="midnightblue" d="M401.331,-158.674C409.639,-134.625 423.884,-93.3881 430.032,-75.5914"/>
<polygon fill="midnightblue" stroke="midnightblue" points="397.939,-157.774 397.982,-168.368 404.555,-160.059 397.939,-157.774"/>
</g>
<!-- Node5&#45;&gt;Node4 -->
<g id="edge5" class="edge"><title>Node5&#45;&gt;Node4</title>
<path fill="none" stroke="midnightblue" d="M362.313,-102.256C364.208,-88.0724 368.818,-68.8972 380,-56 395.954,-37.5982 420.968,-26.3155 441.859,-19.6498"/>
<polygon fill="midnightblue" stroke="midnightblue" points="358.816,-102.047 361.301,-112.346 365.781,-102.745 358.816,-102.047"/>
</g>
<!-- Node6 -->
<g id="node6" class="node"><title>Node6</title>
<g id="a_node6"><a xlink:href="_u_i_ctrl_8h.html" target="_top" xlink:title="UICtrl. ">
<polygon fill="white" stroke="black" points="121.5,-56.5 121.5,-75.5 186.5,-75.5 186.5,-56.5 121.5,-56.5"/>
<text text-anchor="middle" x="154" y="-63.5" font-family="Helvetica,sans-Serif" font-size="10.00">src/UICtrl.h</text>
</a>
</g>
</g>
<!-- Node5&#45;&gt;Node6 -->
<g id="edge6" class="edge"><title>Node5&#45;&gt;Node6</title>
<path fill="none" stroke="midnightblue" d="M318.178,-109.829C279.094,-99.6333 222.165,-84.7823 186.646,-75.5164"/>
<polygon fill="midnightblue" stroke="midnightblue" points="317.641,-113.306 328.2,-112.444 319.408,-106.533 317.641,-113.306"/>
</g>
<!-- Node5&#45;&gt;Node11 -->
<g id="edge12" class="edge"><title>Node5&#45;&gt;Node11</title>
<path fill="none" stroke="midnightblue" d="M380.866,-106.101C393.823,-96.3824 410.297,-84.0269 421.221,-75.8339"/>
<polygon fill="midnightblue" stroke="midnightblue" points="378.468,-103.524 372.568,-112.324 382.668,-109.124 378.468,-103.524"/>
</g>
<!-- Node12 -->
<g id="node12" class="node"><title>Node12</title>
<g id="a_node12"><a xlink:href="_main_frm_8cpp.html" target="_top" xlink:title="MainFrm.cpp : CMainFrame 类的实现 ">
<polygon fill="white" stroke="black" points="243,-56.5 243,-75.5 333,-75.5 333,-56.5 243,-56.5"/>
<text text-anchor="middle" x="288" y="-63.5" font-family="Helvetica,sans-Serif" font-size="10.00">src/MainFrm.cpp</text>
</a>
</g>
</g>
<!-- Node5&#45;&gt;Node12 -->
<g id="edge13" class="edge"><title>Node5&#45;&gt;Node12</title>
<path fill="none" stroke="midnightblue" d="M340.858,-106.101C327.721,-96.3824 311.018,-84.0269 299.942,-75.8339"/>
<polygon fill="midnightblue" stroke="midnightblue" points="339.15,-109.191 349.271,-112.324 343.313,-103.563 339.15,-109.191"/>
</g>
<!-- Node6&#45;&gt;Node4 -->
<g id="edge7" class="edge"><title>Node6&#45;&gt;Node4</title>
<path fill="none" stroke="midnightblue" d="M196.704,-57.9046C257.67,-47.7748 369.24,-29.2371 432.322,-18.7557"/>
<polygon fill="midnightblue" stroke="midnightblue" points="195.941,-54.4832 186.65,-59.575 197.089,-61.3885 195.941,-54.4832"/>
</g>
<!-- Node6&#45;&gt;Node7 -->
<g id="edge8" class="edge"><title>Node6&#45;&gt;Node7</title>
<path fill="none" stroke="midnightblue" d="M194.81,-53.6986C231.613,-43.507 284.929,-28.7429 318.246,-19.5164"/>
<polygon fill="midnightblue" stroke="midnightblue" points="193.602,-50.4016 184.898,-56.4435 195.47,-57.1477 193.602,-50.4016"/>
</g>
<!-- Node8 -->
<g id="node8" class="node"><title>Node8</title>
<g id="a_node8"><a xlink:href="_net_html_8cpp.html" target="_top" xlink:title="NetHtml.cpp. ">
<polygon fill="white" stroke="black" points="110.5,-0.5 110.5,-19.5 197.5,-19.5 197.5,-0.5 110.5,-0.5"/>
<text text-anchor="middle" x="154" y="-7.5" font-family="Helvetica,sans-Serif" font-size="10.00">src/NetHtml.cpp</text>
</a>
</g>
</g>
<!-- Node6&#45;&gt;Node8 -->
<g id="edge9" class="edge"><title>Node6&#45;&gt;Node8</title>
<path fill="none" stroke="midnightblue" d="M154,-45.8045C154,-36.9102 154,-26.7798 154,-19.7511"/>
<polygon fill="midnightblue" stroke="midnightblue" points="150.5,-46.083 154,-56.083 157.5,-46.083 150.5,-46.083"/>
</g>
<!-- Node9 -->
<g id="node9" class="node"><title>Node9</title>
<g id="a_node9"><a xlink:href="_u_i_ctrl_8cpp.html" target="_top" xlink:title="src/UICtrl.cpp">
<polygon fill="white" stroke="black" points="216,-0.5 216,-19.5 292,-19.5 292,-0.5 216,-0.5"/>
<text text-anchor="middle" x="254" y="-7.5" font-family="Helvetica,sans-Serif" font-size="10.00">src/UICtrl.cpp</text>
</a>
</g>
</g>
<!-- Node6&#45;&gt;Node9 -->
<g id="edge10" class="edge"><title>Node6&#45;&gt;Node9</title>
<path fill="none" stroke="midnightblue" d="M179.088,-51.4526C197.549,-41.4835 222.097,-28.2279 237.973,-19.6545"/>
<polygon fill="midnightblue" stroke="midnightblue" points="177.203,-48.4928 170.067,-56.324 180.529,-54.6521 177.203,-48.4928"/>
</g>
<!-- Node6&#45;&gt;Node10 -->
<g id="edge11" class="edge"><title>Node6&#45;&gt;Node10</title>
<path fill="none" stroke="midnightblue" d="M127.452,-51.7261C107.454,-41.7271 80.613,-28.3065 63.309,-19.6545"/>
<polygon fill="midnightblue" stroke="midnightblue" points="126.138,-54.9823 136.648,-56.324 129.269,-48.7213 126.138,-54.9823"/>
</g>
</g>
</svg>
