<?xml version="1.0" encoding="UTF-8" standalone="no"?>
<!DOCTYPE svg PUBLIC "-//W3C//DTD SVG 1.1//EN"
 "http://www.w3.org/Graphics/SVG/1.1/DTD/svg11.dtd">
<!-- Generated by graphviz version 2.38.0 (20140413.2041)
 -->
<!-- Title: src/NetHtml.cpp Pages: 1 -->
<svg width="744pt" height="420pt"
 viewBox="0.00 0.00 744.00 420.00" xmlns="http://www.w3.org/2000/svg" xmlns:xlink="http://www.w3.org/1999/xlink">
<g id="graph0" class="graph" transform="scale(1 1) rotate(0) translate(4 416)">
<title>src/NetHtml.cpp</title>
<polygon fill="white" stroke="none" points="-4,4 -4,-416 740,-416 740,4 -4,4"/>
<!-- Node1 -->
<g id="node1" class="node"><title>Node1</title>
<polygon fill="#bfbfbf" stroke="black" points="437.5,-392.5 437.5,-411.5 524.5,-411.5 524.5,-392.5 437.5,-392.5"/>
<text text-anchor="middle" x="481" y="-399.5" font-family="Helvetica,sans-Serif" font-size="10.00">src/NetHtml.cpp</text>
</g>
<!-- Node2 -->
<g id="node2" class="node"><title>Node2</title>
<g id="a_node2"><a xlink:href="stdafx_8h.html" target="_top" xlink:title="stdafx.h : 标准系统包含文件的包含文件， &#160;或是经常使用但不常更改的 &#160;特定于项目的包含文件 ...">
<polygon fill="white" stroke="black" points="268.5,-112.5 268.5,-131.5 319.5,-131.5 319.5,-112.5 268.5,-112.5"/>
<text text-anchor="middle" x="294" y="-119.5" font-family="Helvetica,sans-Serif" font-size="10.00">stdafx.h</text>
</a>
</g>
</g>
<!-- Node1&#45;&gt;Node2 -->
<g id="edge1" class="edge"><title>Node1&#45;&gt;Node2</title>
<path fill="none" stroke="midnightblue" d="M437.338,-398.4C372.931,-391.94 260,-369.43 260,-291 260,-291 260,-291 260,-233 260,-199.16 274.87,-161.97 284.942,-140.661"/>
<polygon fill="midnightblue" stroke="midnightblue" points="288.145,-142.079 289.415,-131.56 281.863,-138.991 288.145,-142.079"/>
</g>
<!-- Node12 -->
<g id="node12" class="node"><title>Node12</title>
<g id="a_node12"><a xlink:href="_net_html_8h.html" target="_top" xlink:title="NetHtml.h">
<polygon fill="white" stroke="black" points="492,-336.5 492,-355.5 552,-355.5 552,-336.5 492,-336.5"/>
<text text-anchor="middle" x="522" y="-343.5" font-family="Helvetica,sans-Serif" font-size="10.00">NetHtml.h</text>
</a>
</g>
</g>
<!-- Node1&#45;&gt;Node12 -->
<g id="edge11" class="edge"><title>Node1&#45;&gt;Node12</title>
<path fill="none" stroke="midnightblue" d="M487.77,-392.083C493.562,-384.455 502.058,-373.264 509.138,-363.941"/>
<polygon fill="midnightblue" stroke="midnightblue" points="512.096,-365.832 515.356,-355.751 506.521,-361.599 512.096,-365.832"/>
</g>
<!-- Node14 -->
<g id="node14" class="node"><title>Node14</title>
<g id="a_node14"><a xlink:href="_tools_8h.html" target="_top" xlink:title="Tools.h">
<polygon fill="white" stroke="black" points="578,-336.5 578,-355.5 626,-355.5 626,-336.5 578,-336.5"/>
<text text-anchor="middle" x="602" y="-343.5" font-family="Helvetica,sans-Serif" font-size="10.00">Tools.h</text>
</a>
</g>
</g>
<!-- Node1&#45;&gt;Node14 -->
<g id="edge13" class="edge"><title>Node1&#45;&gt;Node14</title>
<path fill="none" stroke="midnightblue" d="M500.173,-392.444C519.909,-383.636 550.885,-369.812 573.493,-359.722"/>
<polygon fill="midnightblue" stroke="midnightblue" points="575.211,-362.788 582.917,-355.516 572.359,-356.396 575.211,-362.788"/>
</g>
<!-- Node18 -->
<g id="node18" class="node"><title>Node18</title>
<g id="a_node18"><a xlink:href="_u_i_ctrl_8h.html" target="_top" xlink:title="UICtrl. ">
<polygon fill="white" stroke="black" points="416.5,-336.5 416.5,-355.5 465.5,-355.5 465.5,-336.5 416.5,-336.5"/>
<text text-anchor="middle" x="441" y="-343.5" font-family="Helvetica,sans-Serif" font-size="10.00">UICtrl.h</text>
</a>
</g>
</g>
<!-- Node1&#45;&gt;Node18 -->
<g id="edge18" class="edge"><title>Node1&#45;&gt;Node18</title>
<path fill="none" stroke="midnightblue" d="M474.395,-392.083C468.745,-384.455 460.455,-373.264 453.549,-363.941"/>
<polygon fill="midnightblue" stroke="midnightblue" points="456.247,-361.703 447.482,-355.751 450.622,-365.87 456.247,-361.703"/>
</g>
<!-- Node3 -->
<g id="node3" class="node"><title>Node3</title>
<g id="a_node3"><a xlink:href="targetver_8h.html" target="_top" xlink:title="包括 SDKDDKVer.h 将定义最高版本的可用 Windows 平台。 如果要为以前的 Windows 平台生成应用程序，请包括 ...">
<polygon fill="white" stroke="black" points="9,-56.5 9,-75.5 71,-75.5 71,-56.5 9,-56.5"/>
<text text-anchor="middle" x="40" y="-63.5" font-family="Helvetica,sans-Serif" font-size="10.00">targetver.h</text>
</a>
</g>
</g>
<!-- Node2&#45;&gt;Node3 -->
<g id="edge2" class="edge"><title>Node2&#45;&gt;Node3</title>
<path fill="none" stroke="midnightblue" d="M268.281,-115.714C229.799,-107.777 154.704,-92.1894 81.3062,-76.263"/>
<polygon fill="midnightblue" stroke="midnightblue" points="81.949,-72.821 71.4336,-74.1164 80.4617,-79.6612 81.949,-72.821"/>
</g>
<!-- Node5 -->
<g id="node5" class="node"><title>Node5</title>
<polygon fill="white" stroke="#bfbfbf" points="89,-56.5 89,-75.5 141,-75.5 141,-56.5 89,-56.5"/>
<text text-anchor="middle" x="115" y="-63.5" font-family="Helvetica,sans-Serif" font-size="10.00">afxwin.h</text>
</g>
<!-- Node2&#45;&gt;Node5 -->
<g id="edge4" class="edge"><title>Node2&#45;&gt;Node5</title>
<path fill="none" stroke="midnightblue" d="M268.354,-113.263C237.559,-103.973 185.72,-88.3345 150.944,-77.8434"/>
<polygon fill="midnightblue" stroke="midnightblue" points="151.766,-74.4356 141.181,-74.8981 149.744,-81.1372 151.766,-74.4356"/>
</g>
<!-- Node6 -->
<g id="node6" class="node"><title>Node6</title>
<polygon fill="white" stroke="#bfbfbf" points="159.5,-56.5 159.5,-75.5 210.5,-75.5 210.5,-56.5 159.5,-56.5"/>
<text text-anchor="middle" x="185" y="-63.5" font-family="Helvetica,sans-Serif" font-size="10.00">afxext.h</text>
</g>
<!-- Node2&#45;&gt;Node6 -->
<g id="edge5" class="edge"><title>Node2&#45;&gt;Node6</title>
<path fill="none" stroke="midnightblue" d="M276.487,-112.324C258.928,-103.625 231.669,-90.1202 211.469,-80.113"/>
<polygon fill="midnightblue" stroke="midnightblue" points="212.984,-76.9575 202.469,-75.6545 209.876,-83.23 212.984,-76.9575"/>
</g>
<!-- Node7 -->
<g id="node7" class="node"><title>Node7</title>
<polygon fill="white" stroke="#bfbfbf" points="229,-56.5 229,-75.5 285,-75.5 285,-56.5 229,-56.5"/>
<text text-anchor="middle" x="257" y="-63.5" font-family="Helvetica,sans-Serif" font-size="10.00">afxdisp.h</text>
</g>
<!-- Node2&#45;&gt;Node7 -->
<g id="edge6" class="edge"><title>Node2&#45;&gt;Node7</title>
<path fill="none" stroke="midnightblue" d="M287.89,-112.083C282.718,-104.534 275.154,-93.4948 268.806,-84.2298"/>
<polygon fill="midnightblue" stroke="midnightblue" points="271.536,-82.0221 262.996,-75.7511 265.761,-85.9787 271.536,-82.0221"/>
</g>
<!-- Node8 -->
<g id="node8" class="node"><title>Node8</title>
<polygon fill="white" stroke="#bfbfbf" points="303,-56.5 303,-75.5 359,-75.5 359,-56.5 303,-56.5"/>
<text text-anchor="middle" x="331" y="-63.5" font-family="Helvetica,sans-Serif" font-size="10.00">afxdtctl.h</text>
</g>
<!-- Node2&#45;&gt;Node8 -->
<g id="edge7" class="edge"><title>Node2&#45;&gt;Node8</title>
<path fill="none" stroke="midnightblue" d="M300.11,-112.083C305.282,-104.534 312.846,-93.4948 319.194,-84.2298"/>
<polygon fill="midnightblue" stroke="midnightblue" points="322.239,-85.9787 325.004,-75.7511 316.464,-82.0221 322.239,-85.9787"/>
</g>
<!-- Node9 -->
<g id="node9" class="node"><title>Node9</title>
<polygon fill="white" stroke="#bfbfbf" points="377,-56.5 377,-75.5 433,-75.5 433,-56.5 377,-56.5"/>
<text text-anchor="middle" x="405" y="-63.5" font-family="Helvetica,sans-Serif" font-size="10.00">afxcmn.h</text>
</g>
<!-- Node2&#45;&gt;Node9 -->
<g id="edge8" class="edge"><title>Node2&#45;&gt;Node9</title>
<path fill="none" stroke="midnightblue" d="M311.834,-112.324C329.716,-103.625 357.475,-90.1202 378.046,-80.113"/>
<polygon fill="midnightblue" stroke="midnightblue" points="379.749,-83.1765 387.21,-75.6545 376.687,-76.8819 379.749,-83.1765"/>
</g>
<!-- Node10 -->
<g id="node10" class="node"><title>Node10</title>
<polygon fill="white" stroke="#bfbfbf" points="451,-56.5 451,-75.5 537,-75.5 537,-56.5 451,-56.5"/>
<text text-anchor="middle" x="494" y="-63.5" font-family="Helvetica,sans-Serif" font-size="10.00">afxcontrolbars.h</text>
</g>
<!-- Node2&#45;&gt;Node10 -->
<g id="edge9" class="edge"><title>Node2&#45;&gt;Node10</title>
<path fill="none" stroke="midnightblue" d="M319.737,-114.051C353.389,-104.965 412.745,-88.9389 452.718,-78.1462"/>
<polygon fill="midnightblue" stroke="midnightblue" points="453.693,-81.5082 462.435,-75.5225 451.869,-74.7502 453.693,-81.5082"/>
</g>
<!-- Node11 -->
<g id="node11" class="node"><title>Node11</title>
<polygon fill="white" stroke="#bfbfbf" points="555.5,-56.5 555.5,-75.5 614.5,-75.5 614.5,-56.5 555.5,-56.5"/>
<text text-anchor="middle" x="585" y="-63.5" font-family="Helvetica,sans-Serif" font-size="10.00">afxsock.h</text>
</g>
<!-- Node2&#45;&gt;Node11 -->
<g id="edge10" class="edge"><title>Node2&#45;&gt;Node11</title>
<path fill="none" stroke="midnightblue" d="M319.557,-113.956C322.396,-113.257 325.254,-112.589 328,-112 420.924,-92.0757 447.938,-94.8409 545.269,-76.0265"/>
<polygon fill="midnightblue" stroke="midnightblue" points="546.091,-79.432 555.231,-74.0735 544.745,-72.5627 546.091,-79.432"/>
</g>
<!-- Node4 -->
<g id="node4" class="node"><title>Node4</title>
<polygon fill="white" stroke="#bfbfbf" points="0,-0.5 0,-19.5 80,-19.5 80,-0.5 0,-0.5"/>
<text text-anchor="middle" x="40" y="-7.5" font-family="Helvetica,sans-Serif" font-size="10.00">SDKDDKVer.h</text>
</g>
<!-- Node3&#45;&gt;Node4 -->
<g id="edge3" class="edge"><title>Node3&#45;&gt;Node4</title>
<path fill="none" stroke="midnightblue" d="M40,-56.083C40,-49.0059 40,-38.8611 40,-29.9865"/>
<polygon fill="midnightblue" stroke="midnightblue" points="43.5001,-29.751 40,-19.7511 36.5001,-29.7511 43.5001,-29.751"/>
</g>
<!-- Node13 -->
<g id="node13" class="node"><title>Node13</title>
<polygon fill="white" stroke="#bfbfbf" points="512.5,-280.5 512.5,-299.5 565.5,-299.5 565.5,-280.5 512.5,-280.5"/>
<text text-anchor="middle" x="539" y="-287.5" font-family="Helvetica,sans-Serif" font-size="10.00">afxinet.h</text>
</g>
<!-- Node12&#45;&gt;Node13 -->
<g id="edge12" class="edge"><title>Node12&#45;&gt;Node13</title>
<path fill="none" stroke="midnightblue" d="M524.807,-336.083C527.085,-328.849 530.371,-318.409 533.208,-309.397"/>
<polygon fill="midnightblue" stroke="midnightblue" points="536.581,-310.341 536.245,-299.751 529.904,-308.239 536.581,-310.341"/>
</g>
<!-- Node14&#45;&gt;Node13 -->
<g id="edge17" class="edge"><title>Node14&#45;&gt;Node13</title>
<path fill="none" stroke="midnightblue" d="M591.878,-336.324C582.474,-328.263 568.256,-316.077 556.931,-306.369"/>
<polygon fill="midnightblue" stroke="midnightblue" points="559.177,-303.684 549.306,-299.834 554.621,-308.999 559.177,-303.684"/>
</g>
<!-- Node15 -->
<g id="node15" class="node"><title>Node15</title>
<polygon fill="white" stroke="#bfbfbf" points="630.5,-280.5 630.5,-299.5 671.5,-299.5 671.5,-280.5 630.5,-280.5"/>
<text text-anchor="middle" x="651" y="-287.5" font-family="Helvetica,sans-Serif" font-size="10.00">string</text>
</g>
<!-- Node14&#45;&gt;Node15 -->
<g id="edge14" class="edge"><title>Node14&#45;&gt;Node15</title>
<path fill="none" stroke="midnightblue" d="M610.091,-336.083C617.155,-328.298 627.588,-316.801 636.149,-307.367"/>
<polygon fill="midnightblue" stroke="midnightblue" points="638.931,-309.509 643.059,-299.751 633.747,-304.805 638.931,-309.509"/>
</g>
<!-- Node16 -->
<g id="node16" class="node"><title>Node16</title>
<polygon fill="white" stroke="#bfbfbf" points="496.5,-168.5 496.5,-187.5 531.5,-187.5 531.5,-168.5 496.5,-168.5"/>
<text text-anchor="middle" x="514" y="-175.5" font-family="Helvetica,sans-Serif" font-size="10.00">map</text>
</g>
<!-- Node14&#45;&gt;Node16 -->
<g id="edge15" class="edge"><title>Node14&#45;&gt;Node16</title>
<path fill="none" stroke="midnightblue" d="M602.91,-336.249C604.657,-315.091 606.451,-260.241 583,-224 572.994,-208.536 555.592,-197.242 540.768,-189.837"/>
<polygon fill="midnightblue" stroke="midnightblue" points="542.046,-186.571 531.503,-185.527 539.094,-192.918 542.046,-186.571"/>
</g>
<!-- Node17 -->
<g id="node17" class="node"><title>Node17</title>
<polygon fill="white" stroke="#bfbfbf" points="690,-280.5 690,-299.5 736,-299.5 736,-280.5 690,-280.5"/>
<text text-anchor="middle" x="713" y="-287.5" font-family="Helvetica,sans-Serif" font-size="10.00">mapi.h</text>
</g>
<!-- Node14&#45;&gt;Node17 -->
<g id="edge16" class="edge"><title>Node14&#45;&gt;Node17</title>
<path fill="none" stroke="midnightblue" d="M619.834,-336.324C637.716,-327.625 665.475,-314.12 686.046,-304.113"/>
<polygon fill="midnightblue" stroke="midnightblue" points="687.749,-307.177 695.21,-299.655 684.687,-300.882 687.749,-307.177"/>
</g>
<!-- Node18&#45;&gt;Node2 -->
<g id="edge19" class="edge"><title>Node18&#45;&gt;Node2</title>
<path fill="none" stroke="midnightblue" d="M424.188,-336.425C396.92,-321.576 343.443,-288.36 317,-244 297.812,-211.812 294.117,-166.99 293.694,-141.916"/>
<polygon fill="midnightblue" stroke="midnightblue" points="297.194,-141.616 293.691,-131.617 290.194,-141.618 297.194,-141.616"/>
</g>
<!-- Node19 -->
<g id="node19" class="node"><title>Node19</title>
<g id="a_node19"><a xlink:href="_main_frm_8h.html" target="_top" xlink:title="MainFrm.h">
<polygon fill="white" stroke="black" points="409.5,-280.5 409.5,-299.5 472.5,-299.5 472.5,-280.5 409.5,-280.5"/>
<text text-anchor="middle" x="441" y="-287.5" font-family="Helvetica,sans-Serif" font-size="10.00">MainFrm.h</text>
</a>
</g>
</g>
<!-- Node18&#45;&gt;Node19 -->
<g id="edge20" class="edge"><title>Node18&#45;&gt;Node19</title>
<path fill="none" stroke="midnightblue" d="M441,-336.083C441,-329.006 441,-318.861 441,-309.986"/>
<polygon fill="midnightblue" stroke="midnightblue" points="444.5,-309.751 441,-299.751 437.5,-309.751 444.5,-309.751"/>
</g>
<!-- Node20 -->
<g id="node20" class="node"><title>Node20</title>
<g id="a_node20"><a xlink:href="_cmd_view_8h.html" target="_top" xlink:title="CmdView.h">
<polygon fill="white" stroke="black" points="326,-224.5 326,-243.5 392,-243.5 392,-224.5 326,-224.5"/>
<text text-anchor="middle" x="359" y="-231.5" font-family="Helvetica,sans-Serif" font-size="10.00">CmdView.h</text>
</a>
</g>
</g>
<!-- Node19&#45;&gt;Node20 -->
<g id="edge21" class="edge"><title>Node19&#45;&gt;Node20</title>
<path fill="none" stroke="midnightblue" d="M427.825,-280.324C415.153,-271.979 395.767,-259.212 380.794,-249.352"/>
<polygon fill="midnightblue" stroke="midnightblue" points="382.419,-246.231 372.142,-243.655 378.569,-252.078 382.419,-246.231"/>
</g>
<!-- Node23 -->
<g id="node23" class="node"><title>Node23</title>
<g id="a_node23"><a xlink:href="_log_view_8h.html" target="_top" xlink:title="LogView.h">
<polygon fill="white" stroke="black" points="410,-224.5 410,-243.5 472,-243.5 472,-224.5 410,-224.5"/>
<text text-anchor="middle" x="441" y="-231.5" font-family="Helvetica,sans-Serif" font-size="10.00">LogView.h</text>
</a>
</g>
</g>
<!-- Node19&#45;&gt;Node23 -->
<g id="edge26" class="edge"><title>Node19&#45;&gt;Node23</title>
<path fill="none" stroke="midnightblue" d="M441,-280.083C441,-273.006 441,-262.861 441,-253.986"/>
<polygon fill="midnightblue" stroke="midnightblue" points="444.5,-253.751 441,-243.751 437.5,-253.751 444.5,-253.751"/>
</g>
<!-- Node24 -->
<g id="node24" class="node"><title>Node24</title>
<g id="a_node24"><a xlink:href="_respond_view_8h.html" target="_top" xlink:title="RespondView 视图 ">
<polygon fill="white" stroke="black" points="490,-224.5 490,-243.5 574,-243.5 574,-224.5 490,-224.5"/>
<text text-anchor="middle" x="532" y="-231.5" font-family="Helvetica,sans-Serif" font-size="10.00">RespondView.h</text>
</a>
</g>
</g>
<!-- Node19&#45;&gt;Node24 -->
<g id="edge27" class="edge"><title>Node19&#45;&gt;Node24</title>
<path fill="none" stroke="midnightblue" d="M455.621,-280.324C469.949,-271.822 492.013,-258.729 508.749,-248.797"/>
<polygon fill="midnightblue" stroke="midnightblue" points="510.602,-251.768 517.416,-243.655 507.03,-245.748 510.602,-251.768"/>
</g>
<!-- Node20&#45;&gt;Node16 -->
<g id="edge25" class="edge"><title>Node20&#45;&gt;Node16</title>
<path fill="none" stroke="midnightblue" d="M383.56,-224.444C411.661,-214.654 457.548,-198.667 486.734,-188.499"/>
<polygon fill="midnightblue" stroke="midnightblue" points="488.013,-191.76 496.304,-185.165 485.71,-185.15 488.013,-191.76"/>
</g>
<!-- Node21 -->
<g id="node21" class="node"><title>Node21</title>
<g id="a_node21"><a xlink:href="_user_cmd_8h.html" target="_top" xlink:title="UserCmd.h">
<polygon fill="white" stroke="black" points="326.5,-168.5 326.5,-187.5 391.5,-187.5 391.5,-168.5 326.5,-168.5"/>
<text text-anchor="middle" x="359" y="-175.5" font-family="Helvetica,sans-Serif" font-size="10.00">UserCmd.h</text>
</a>
</g>
</g>
<!-- Node20&#45;&gt;Node21 -->
<g id="edge22" class="edge"><title>Node20&#45;&gt;Node21</title>
<path fill="none" stroke="midnightblue" d="M359,-224.083C359,-217.006 359,-206.861 359,-197.986"/>
<polygon fill="midnightblue" stroke="midnightblue" points="362.5,-197.751 359,-187.751 355.5,-197.751 362.5,-197.751"/>
</g>
<!-- Node21&#45;&gt;Node2 -->
<g id="edge23" class="edge"><title>Node21&#45;&gt;Node2</title>
<path fill="none" stroke="midnightblue" d="M348.557,-168.324C338.854,-160.263 324.185,-148.077 312.5,-138.369"/>
<polygon fill="midnightblue" stroke="midnightblue" points="314.562,-135.532 304.633,-131.834 310.089,-140.916 314.562,-135.532"/>
</g>
<!-- Node22 -->
<g id="node22" class="node"><title>Node22</title>
<g id="a_node22"><a xlink:href="_net_dll_8h.html" target="_top" xlink:title="NetDll.h">
<polygon fill="white" stroke="black" points="337.5,-112.5 337.5,-131.5 388.5,-131.5 388.5,-112.5 337.5,-112.5"/>
<text text-anchor="middle" x="363" y="-119.5" font-family="Helvetica,sans-Serif" font-size="10.00">NetDll.h</text>
</a>
</g>
</g>
<!-- Node21&#45;&gt;Node22 -->
<g id="edge24" class="edge"><title>Node21&#45;&gt;Node22</title>
<path fill="none" stroke="midnightblue" d="M359.661,-168.083C360.185,-161.006 360.936,-150.861 361.594,-141.986"/>
<polygon fill="midnightblue" stroke="midnightblue" points="365.103,-141.982 362.352,-131.751 358.123,-141.465 365.103,-141.982"/>
</g>
</g>
</svg>
