<?xml version="1.0" encoding="UTF-8" standalone="no"?>
<!DOCTYPE svg PUBLIC "-//W3C//DTD SVG 1.1//EN"
 "http://www.w3.org/Graphics/SVG/1.1/DTD/svg11.dtd">
<!-- Generated by graphviz version 2.38.0 (20140413.2041)
 -->
<!-- Title: SetRp Pages: 1 -->
<svg width="494pt" height="28pt"
 viewBox="0.00 0.00 494.00 28.00" xmlns="http://www.w3.org/2000/svg" xmlns:xlink="http://www.w3.org/1999/xlink">
<g id="graph0" class="graph" transform="scale(1 1) rotate(0) translate(4 24)">
<title>SetRp</title>
<polygon fill="white" stroke="none" points="-4,4 -4,-24 490,-24 490,4 -4,4"/>
<!-- Node1 -->
<g id="node1" class="node"><title>Node1</title>
<polygon fill="#bfbfbf" stroke="black" points="0,-0.5 0,-19.5 44,-19.5 44,-0.5 0,-0.5"/>
<text text-anchor="middle" x="22" y="-7.5" font-family="Helvetica,sans-Serif" font-size="10.00">SetRp</text>
</g>
<!-- Node2 -->
<g id="node2" class="node"><title>Node2</title>
<g id="a_node2"><a xlink:href="class_user_cmd.html#ad5fa0ccaab5d2a8bf2b4aeccc6c4c01b" target="_top" xlink:title="UserCmd::GetHtml">
<polygon fill="white" stroke="black" points="80,-0.5 80,-19.5 179,-19.5 179,-0.5 80,-0.5"/>
<text text-anchor="middle" x="129.5" y="-7.5" font-family="Helvetica,sans-Serif" font-size="10.00">UserCmd::GetHtml</text>
</a>
</g>
</g>
<!-- Node1&#45;&gt;Node2 -->
<g id="edge1" class="edge"><title>Node1&#45;&gt;Node2</title>
<path fill="none" stroke="midnightblue" d="M54.1854,-10C62.2813,-10 71.1959,-10 79.9549,-10"/>
<polygon fill="midnightblue" stroke="midnightblue" points="54.096,-6.5001 44.0959,-10 54.0959,-13.5001 54.096,-6.5001"/>
</g>
<!-- Node3 -->
<g id="node3" class="node"><title>Node3</title>
<g id="a_node3"><a xlink:href="class_cmd_view.html#a70cf028b2bc48ea3e0e6be3319911c85" target="_top" xlink:title="创建消息处理线程,注册消息映射 ">
<polygon fill="white" stroke="black" points="215,-0.5 215,-19.5 320,-19.5 320,-0.5 215,-0.5"/>
<text text-anchor="middle" x="267.5" y="-7.5" font-family="Helvetica,sans-Serif" font-size="10.00">CmdView::Initialcmd</text>
</a>
</g>
</g>
<!-- Node2&#45;&gt;Node3 -->
<g id="edge2" class="edge"><title>Node2&#45;&gt;Node3</title>
<path fill="none" stroke="midnightblue" d="M189.429,-10C197.911,-10 206.584,-10 214.908,-10"/>
<polygon fill="midnightblue" stroke="midnightblue" points="189.215,-6.5001 179.215,-10 189.215,-13.5001 189.215,-6.5001"/>
</g>
<!-- Node4 -->
<g id="node4" class="node"><title>Node4</title>
<g id="a_node4"><a xlink:href="class_cmd_view.html#a37a513e8262ea52c1859f8be73dac1b7" target="_top" xlink:title="函数在视图附加到文档后触发,主要完成界面的初始化工作 ">
<polygon fill="white" stroke="black" points="356,-0.5 356,-19.5 486,-19.5 486,-0.5 356,-0.5"/>
<text text-anchor="middle" x="421" y="-7.5" font-family="Helvetica,sans-Serif" font-size="10.00">CmdView::OnInitialUpdate</text>
</a>
</g>
</g>
<!-- Node3&#45;&gt;Node4 -->
<g id="edge3" class="edge"><title>Node3&#45;&gt;Node4</title>
<path fill="none" stroke="midnightblue" d="M330.352,-10C338.784,-10 347.453,-10 355.924,-10"/>
<polygon fill="midnightblue" stroke="midnightblue" points="330.214,-6.5001 320.214,-10 330.214,-13.5001 330.214,-6.5001"/>
</g>
</g>
</svg>
