<?xml version="1.0" encoding="UTF-8" standalone="no"?>
<!DOCTYPE svg PUBLIC "-//W3C//DTD SVG 1.1//EN"
 "http://www.w3.org/Graphics/SVG/1.1/DTD/svg11.dtd">
<!-- Generated by graphviz version 2.38.0 (20140413.2041)
 -->
<!-- Title: SetHint Pages: 1 -->
<svg width="684pt" height="89pt"
 viewBox="0.00 0.00 684.00 89.11" xmlns="http://www.w3.org/2000/svg" xmlns:xlink="http://www.w3.org/1999/xlink">
<g id="graph0" class="graph" transform="scale(1 1) rotate(0) translate(4 85.1075)">
<title>SetHint</title>
<polygon fill="white" stroke="none" points="-4,4 -4,-85.1075 680,-85.1075 680,4 -4,4"/>
<!-- Node1 -->
<g id="node1" class="node"><title>Node1</title>
<polygon fill="#bfbfbf" stroke="black" points="0,-38.5 0,-57.5 49,-57.5 49,-38.5 0,-38.5"/>
<text text-anchor="middle" x="24.5" y="-45.5" font-family="Helvetica,sans-Serif" font-size="10.00">SetHint</text>
</g>
<!-- Node2 -->
<g id="node2" class="node"><title>Node2</title>
<g id="a_node2"><a xlink:href="class_cmd_view.html#a37a513e8262ea52c1859f8be73dac1b7" target="_top" xlink:title="函数在视图附加到文档后触发,主要完成界面的初始化工作 ">
<polygon fill="white" stroke="black" points="546,-47.5 546,-66.5 676,-66.5 676,-47.5 546,-47.5"/>
<text text-anchor="middle" x="611" y="-54.5" font-family="Helvetica,sans-Serif" font-size="10.00">CmdView::OnInitialUpdate</text>
</a>
</g>
</g>
<!-- Node1&#45;&gt;Node2 -->
<g id="edge1" class="edge"><title>Node1&#45;&gt;Node2</title>
<path fill="none" stroke="midnightblue" d="M58.6642,-60.5804C67.1284,-63.2364 76.2978,-65.6443 85,-67 249.388,-92.6099 446.207,-76.6235 545.673,-65.3328"/>
<polygon fill="midnightblue" stroke="midnightblue" points="59.7158,-57.2416 49.1221,-57.3966 57.5002,-63.8818 59.7158,-57.2416"/>
</g>
<!-- Node3 -->
<g id="node3" class="node"><title>Node3</title>
<g id="a_node3"><a xlink:href="class_cmd_view.html#a66c8fe29e4e6a3eb0568c5e04e49bfce" target="_top" xlink:title="接管命令行输入窗口 ">
<polygon fill="white" stroke="black" points="85,-38.5 85,-57.5 222,-57.5 222,-38.5 85,-38.5"/>
<text text-anchor="middle" x="153.5" y="-45.5" font-family="Helvetica,sans-Serif" font-size="10.00">CmdView::OnTakeOverCmd</text>
</a>
</g>
</g>
<!-- Node1&#45;&gt;Node3 -->
<g id="edge2" class="edge"><title>Node1&#45;&gt;Node3</title>
<path fill="none" stroke="midnightblue" d="M59.3272,-48C67.2421,-48 75.9506,-48 84.7683,-48"/>
<polygon fill="midnightblue" stroke="midnightblue" points="59.0901,-44.5001 49.0901,-48 59.0901,-51.5001 59.0901,-44.5001"/>
</g>
<!-- Node4 -->
<g id="node4" class="node"><title>Node4</title>
<g id="a_node4"><a xlink:href="class_cmd_view.html#a71dba2e0097271efdc1874ff3a01847a" target="_top" xlink:title="命令已处理完成 ">
<polygon fill="white" stroke="black" points="92,-0.5 92,-19.5 215,-19.5 215,-0.5 92,-0.5"/>
<text text-anchor="middle" x="153.5" y="-7.5" font-family="Helvetica,sans-Serif" font-size="10.00">CmdView::DealCmdOver</text>
</a>
</g>
</g>
<!-- Node1&#45;&gt;Node4 -->
<g id="edge3" class="edge"><title>Node1&#45;&gt;Node4</title>
<path fill="none" stroke="midnightblue" d="M58.8135,-37.1376C67.3326,-34.4216 76.4903,-31.5555 85,-29 95.6104,-25.8136 107.207,-22.4918 117.747,-19.5334"/>
<polygon fill="midnightblue" stroke="midnightblue" points="57.6345,-33.8401 49.1831,-40.2295 59.7744,-40.505 57.6345,-33.8401"/>
</g>
<!-- Node5 -->
<g id="node5" class="node"><title>Node5</title>
<g id="a_node5"><a xlink:href="class_cmd_view.html#aa343e34b3fe9c6097c39a416c8ec5206" target="_top" xlink:title="监听命令处理状态 ">
<polygon fill="white" stroke="black" points="258,-10.5 258,-29.5 369,-29.5 369,-10.5 258,-10.5"/>
<text text-anchor="middle" x="313.5" y="-17.5" font-family="Helvetica,sans-Serif" font-size="10.00">CmdView::DEALCMD</text>
</a>
</g>
</g>
<!-- Node4&#45;&gt;Node5 -->
<g id="edge4" class="edge"><title>Node4&#45;&gt;Node5</title>
<path fill="none" stroke="midnightblue" d="M225.159,-14.4721C236.168,-15.1689 247.395,-15.8795 257.973,-16.5489"/>
<polygon fill="midnightblue" stroke="midnightblue" points="225.336,-10.9764 215.135,-13.8377 224.894,-17.9624 225.336,-10.9764"/>
</g>
<!-- Node6 -->
<g id="node6" class="node"><title>Node6</title>
<g id="a_node6"><a xlink:href="class_cmd_view.html#a70cf028b2bc48ea3e0e6be3319911c85" target="_top" xlink:title="创建消息处理线程,注册消息映射 ">
<polygon fill="white" stroke="black" points="405,-19.5 405,-38.5 510,-38.5 510,-19.5 405,-19.5"/>
<text text-anchor="middle" x="457.5" y="-26.5" font-family="Helvetica,sans-Serif" font-size="10.00">CmdView::Initialcmd</text>
</a>
</g>
</g>
<!-- Node5&#45;&gt;Node6 -->
<g id="edge5" class="edge"><title>Node5&#45;&gt;Node6</title>
<path fill="none" stroke="midnightblue" d="M379.536,-24.122C387.917,-24.6532 396.409,-25.1914 404.541,-25.7068"/>
<polygon fill="midnightblue" stroke="midnightblue" points="379.602,-20.6193 369.401,-23.4796 379.159,-27.6053 379.602,-20.6193"/>
</g>
<!-- Node6&#45;&gt;Node2 -->
<g id="edge6" class="edge"><title>Node6&#45;&gt;Node2</title>
<path fill="none" stroke="midnightblue" d="M520.26,-40.4145C532.969,-42.7632 546.221,-45.2125 558.519,-47.4854"/>
<polygon fill="midnightblue" stroke="midnightblue" points="520.684,-36.9335 510.214,-38.5577 519.411,-43.8169 520.684,-36.9335"/>
</g>
</g>
</svg>
