<?xml version="1.0" encoding="UTF-8" standalone="no"?>
<!DOCTYPE svg PUBLIC "-//W3C//DTD SVG 1.1//EN"
 "http://www.w3.org/Graphics/SVG/1.1/DTD/svg11.dtd">
<!-- Generated by graphviz version 2.38.0 (20140413.2041)
 -->
<!-- Title: PrintLog Pages: 1 -->
<svg width="663pt" height="28pt"
 viewBox="0.00 0.00 663.00 28.00" xmlns="http://www.w3.org/2000/svg" xmlns:xlink="http://www.w3.org/1999/xlink">
<g id="graph0" class="graph" transform="scale(1 1) rotate(0) translate(4 24)">
<title>PrintLog</title>
<polygon fill="white" stroke="none" points="-4,4 -4,-24 659,-24 659,4 -4,4"/>
<!-- Node1 -->
<g id="node1" class="node"><title>Node1</title>
<polygon fill="#bfbfbf" stroke="black" points="0,-0.5 0,-19.5 53,-19.5 53,-0.5 0,-0.5"/>
<text text-anchor="middle" x="26.5" y="-7.5" font-family="Helvetica,sans-Serif" font-size="10.00">PrintLog</text>
</g>
<!-- Node2 -->
<g id="node2" class="node"><title>Node2</title>
<g id="a_node2"><a xlink:href="class_net_html.html#a1d26b557eca7cab7c987aae38438c3ae" target="_top" xlink:title="函数通过CSocket获取对应的html文件字符流。 函数通过CSocket和url对应的服务器建立连接,并将请求资源报文发送给服务器，成功响应后一行行的获取从服务器发来的数据， 并将数据转码为Unicode，拼接到返回的字符串myhtml ">
<polygon fill="white" stroke="black" points="89,-0.5 89,-19.5 213,-19.5 213,-0.5 89,-0.5"/>
<text text-anchor="middle" x="151" y="-7.5" font-family="Helvetica,sans-Serif" font-size="10.00">NetHtml::getURLContext</text>
</a>
</g>
</g>
<!-- Node1&#45;&gt;Node2 -->
<g id="edge1" class="edge"><title>Node1&#45;&gt;Node2</title>
<path fill="none" stroke="midnightblue" d="M63.2645,-10C71.2927,-10 80.0318,-10 88.7703,-10"/>
<polygon fill="midnightblue" stroke="midnightblue" points="63.18,-6.5001 53.18,-10 63.18,-13.5001 63.18,-6.5001"/>
</g>
<!-- Node3 -->
<g id="node3" class="node"><title>Node3</title>
<g id="a_node3"><a xlink:href="class_user_cmd.html#ad5fa0ccaab5d2a8bf2b4aeccc6c4c01b" target="_top" xlink:title="UserCmd::GetHtml">
<polygon fill="white" stroke="black" points="249,-0.5 249,-19.5 348,-19.5 348,-0.5 249,-0.5"/>
<text text-anchor="middle" x="298.5" y="-7.5" font-family="Helvetica,sans-Serif" font-size="10.00">UserCmd::GetHtml</text>
</a>
</g>
</g>
<!-- Node2&#45;&gt;Node3 -->
<g id="edge2" class="edge"><title>Node2&#45;&gt;Node3</title>
<path fill="none" stroke="midnightblue" d="M223.313,-10C231.892,-10 240.498,-10 248.652,-10"/>
<polygon fill="midnightblue" stroke="midnightblue" points="223.283,-6.5001 213.283,-10 223.283,-13.5001 223.283,-6.5001"/>
</g>
<!-- Node4 -->
<g id="node4" class="node"><title>Node4</title>
<g id="a_node4"><a xlink:href="class_cmd_view.html#a70cf028b2bc48ea3e0e6be3319911c85" target="_top" xlink:title="创建消息处理线程,注册消息映射 ">
<polygon fill="white" stroke="black" points="384,-0.5 384,-19.5 489,-19.5 489,-0.5 384,-0.5"/>
<text text-anchor="middle" x="436.5" y="-7.5" font-family="Helvetica,sans-Serif" font-size="10.00">CmdView::Initialcmd</text>
</a>
</g>
</g>
<!-- Node3&#45;&gt;Node4 -->
<g id="edge3" class="edge"><title>Node3&#45;&gt;Node4</title>
<path fill="none" stroke="midnightblue" d="M358.429,-10C366.911,-10 375.584,-10 383.908,-10"/>
<polygon fill="midnightblue" stroke="midnightblue" points="358.215,-6.5001 348.215,-10 358.215,-13.5001 358.215,-6.5001"/>
</g>
<!-- Node5 -->
<g id="node5" class="node"><title>Node5</title>
<g id="a_node5"><a xlink:href="class_cmd_view.html#a37a513e8262ea52c1859f8be73dac1b7" target="_top" xlink:title="函数在视图附加到文档后触发,主要完成界面的初始化工作 ">
<polygon fill="white" stroke="black" points="525,-0.5 525,-19.5 655,-19.5 655,-0.5 525,-0.5"/>
<text text-anchor="middle" x="590" y="-7.5" font-family="Helvetica,sans-Serif" font-size="10.00">CmdView::OnInitialUpdate</text>
</a>
</g>
</g>
<!-- Node4&#45;&gt;Node5 -->
<g id="edge4" class="edge"><title>Node4&#45;&gt;Node5</title>
<path fill="none" stroke="midnightblue" d="M499.352,-10C507.784,-10 516.453,-10 524.924,-10"/>
<polygon fill="midnightblue" stroke="midnightblue" points="499.214,-6.5001 489.214,-10 499.214,-13.5001 499.214,-6.5001"/>
</g>
</g>
</svg>
