<?xml version="1.0" encoding="UTF-8" standalone="no"?>
<!DOCTYPE svg PUBLIC "-//W3C//DTD SVG 1.1//EN"
 "http://www.w3.org/Graphics/SVG/1.1/DTD/svg11.dtd">
<!-- Generated by graphviz version 2.38.0 (20140413.2041)
 -->
<!-- Title: src/RespondView.h Pages: 1 -->
<svg width="508pt" height="196pt"
 viewBox="0.00 0.00 507.50 196.00" xmlns="http://www.w3.org/2000/svg" xmlns:xlink="http://www.w3.org/1999/xlink">
<g id="graph0" class="graph" transform="scale(1 1) rotate(0) translate(4 192)">
<title>src/RespondView.h</title>
<polygon fill="white" stroke="none" points="-4,4 -4,-192 503.5,-192 503.5,4 -4,4"/>
<!-- Node1 -->
<g id="node1" class="node"><title>Node1</title>
<polygon fill="#bfbfbf" stroke="black" points="254,-168.5 254,-187.5 355,-187.5 355,-168.5 254,-168.5"/>
<text text-anchor="middle" x="304.5" y="-175.5" font-family="Helvetica,sans-Serif" font-size="10.00">src/RespondView.h</text>
</g>
<!-- Node2 -->
<g id="node2" class="node"><title>Node2</title>
<g id="a_node2"><a xlink:href="_main_frm_8h.html" target="_top" xlink:title="src/MainFrm.h">
<polygon fill="white" stroke="black" points="207.5,-112.5 207.5,-131.5 287.5,-131.5 287.5,-112.5 207.5,-112.5"/>
<text text-anchor="middle" x="247.5" y="-119.5" font-family="Helvetica,sans-Serif" font-size="10.00">src/MainFrm.h</text>
</a>
</g>
</g>
<!-- Node1&#45;&gt;Node2 -->
<g id="edge1" class="edge"><title>Node1&#45;&gt;Node2</title>
<path fill="none" stroke="midnightblue" d="M287.879,-161.253C277.766,-151.673 265.223,-139.791 256.825,-131.834"/>
<polygon fill="midnightblue" stroke="midnightblue" points="285.675,-163.987 295.342,-168.324 290.49,-158.906 285.675,-163.987"/>
</g>
<!-- Node11 -->
<g id="node11" class="node"><title>Node11</title>
<g id="a_node11"><a xlink:href="_respond_view_8cpp.html" target="_top" xlink:title="RespondView.cpp : 实现文件 ">
<polygon fill="white" stroke="black" points="306,-112.5 306,-131.5 417,-131.5 417,-112.5 306,-112.5"/>
<text text-anchor="middle" x="361.5" y="-119.5" font-family="Helvetica,sans-Serif" font-size="10.00">src/RespondView.cpp</text>
</a>
</g>
</g>
<!-- Node1&#45;&gt;Node11 -->
<g id="edge11" class="edge"><title>Node1&#45;&gt;Node11</title>
<path fill="none" stroke="midnightblue" d="M321.121,-161.253C331.234,-151.673 343.777,-139.791 352.175,-131.834"/>
<polygon fill="midnightblue" stroke="midnightblue" points="318.51,-158.906 313.658,-168.324 323.325,-163.987 318.51,-158.906"/>
</g>
<!-- Node3 -->
<g id="node3" class="node"><title>Node3</title>
<g id="a_node3"><a xlink:href="_cmd_view_8cpp.html" target="_top" xlink:title="CmdView.cpp : 实现文件 ">
<polygon fill="white" stroke="black" points="0,-0.5 0,-19.5 93,-19.5 93,-0.5 0,-0.5"/>
<text text-anchor="middle" x="46.5" y="-7.5" font-family="Helvetica,sans-Serif" font-size="10.00">src/CmdView.cpp</text>
</a>
</g>
</g>
<!-- Node2&#45;&gt;Node3 -->
<g id="edge2" class="edge"><title>Node2&#45;&gt;Node3</title>
<path fill="none" stroke="midnightblue" d="M220.749,-107.977C202.968,-99.1979 179.175,-87.214 158.5,-76 122.928,-56.7059 82.0083,-32.4091 60.847,-19.6834"/>
<polygon fill="midnightblue" stroke="midnightblue" points="219.432,-111.23 229.951,-112.499 222.52,-104.947 219.432,-111.23"/>
</g>
<!-- Node4 -->
<g id="node4" class="node"><title>Node4</title>
<g id="a_node4"><a xlink:href="_u_i_ctrl_8h.html" target="_top" xlink:title="UICtrl. ">
<polygon fill="white" stroke="black" points="168,-56.5 168,-75.5 233,-75.5 233,-56.5 168,-56.5"/>
<text text-anchor="middle" x="200.5" y="-63.5" font-family="Helvetica,sans-Serif" font-size="10.00">src/UICtrl.h</text>
</a>
</g>
</g>
<!-- Node2&#45;&gt;Node4 -->
<g id="edge3" class="edge"><title>Node2&#45;&gt;Node4</title>
<path fill="none" stroke="midnightblue" d="M233.079,-104.431C224.842,-94.9673 214.846,-83.4827 208.117,-75.7511"/>
<polygon fill="midnightblue" stroke="midnightblue" points="230.534,-106.838 239.739,-112.083 235.814,-102.242 230.534,-106.838"/>
</g>
<!-- Node9 -->
<g id="node9" class="node"><title>Node9</title>
<g id="a_node9"><a xlink:href="_hust_net_8cpp.html" target="_top" xlink:title="HustNet.cpp : 定义应用程序的类行为。 ">
<polygon fill="white" stroke="black" points="251,-56.5 251,-75.5 338,-75.5 338,-56.5 251,-56.5"/>
<text text-anchor="middle" x="294.5" y="-63.5" font-family="Helvetica,sans-Serif" font-size="10.00">src/HustNet.cpp</text>
</a>
</g>
</g>
<!-- Node2&#45;&gt;Node9 -->
<g id="edge9" class="edge"><title>Node2&#45;&gt;Node9</title>
<path fill="none" stroke="midnightblue" d="M261.921,-104.431C270.158,-94.9673 280.154,-83.4827 286.883,-75.7511"/>
<polygon fill="midnightblue" stroke="midnightblue" points="259.186,-102.242 255.261,-112.083 264.466,-106.838 259.186,-102.242"/>
</g>
<!-- Node10 -->
<g id="node10" class="node"><title>Node10</title>
<g id="a_node10"><a xlink:href="_main_frm_8cpp.html" target="_top" xlink:title="MainFrm.cpp : CMainFrame 类的实现 ">
<polygon fill="white" stroke="black" points="356.5,-56.5 356.5,-75.5 446.5,-75.5 446.5,-56.5 356.5,-56.5"/>
<text text-anchor="middle" x="401.5" y="-63.5" font-family="Helvetica,sans-Serif" font-size="10.00">src/MainFrm.cpp</text>
</a>
</g>
</g>
<!-- Node2&#45;&gt;Node10 -->
<g id="edge10" class="edge"><title>Node2&#45;&gt;Node10</title>
<path fill="none" stroke="midnightblue" d="M281.611,-109.039C310.587,-98.8786 351.462,-84.5457 377.212,-75.5164"/>
<polygon fill="midnightblue" stroke="midnightblue" points="280.18,-105.832 271.902,-112.444 282.497,-112.437 280.18,-105.832"/>
</g>
<!-- Node4&#45;&gt;Node3 -->
<g id="edge4" class="edge"><title>Node4&#45;&gt;Node3</title>
<path fill="none" stroke="midnightblue" d="M166.389,-53.0392C137.413,-42.8786 96.5378,-28.5457 70.7876,-19.5164"/>
<polygon fill="midnightblue" stroke="midnightblue" points="165.503,-56.4373 176.098,-56.4435 167.82,-49.8317 165.503,-56.4373"/>
</g>
<!-- Node5 -->
<g id="node5" class="node"><title>Node5</title>
<g id="a_node5"><a xlink:href="_net_dll_8cpp.html" target="_top" xlink:title="NetDll. ">
<polygon fill="white" stroke="black" points="111.5,-0.5 111.5,-19.5 189.5,-19.5 189.5,-0.5 111.5,-0.5"/>
<text text-anchor="middle" x="150.5" y="-7.5" font-family="Helvetica,sans-Serif" font-size="10.00">src/NetDll.cpp</text>
</a>
</g>
</g>
<!-- Node4&#45;&gt;Node5 -->
<g id="edge5" class="edge"><title>Node4&#45;&gt;Node5</title>
<path fill="none" stroke="midnightblue" d="M185.424,-48.7175C176.611,-39.1997 165.834,-27.5608 158.603,-19.7511"/>
<polygon fill="midnightblue" stroke="midnightblue" points="182.881,-51.1233 192.244,-56.083 188.018,-46.3674 182.881,-51.1233"/>
</g>
<!-- Node6 -->
<g id="node6" class="node"><title>Node6</title>
<g id="a_node6"><a xlink:href="_net_html_8cpp.html" target="_top" xlink:title="NetHtml.cpp. ">
<polygon fill="white" stroke="black" points="208,-0.5 208,-19.5 295,-19.5 295,-0.5 208,-0.5"/>
<text text-anchor="middle" x="251.5" y="-7.5" font-family="Helvetica,sans-Serif" font-size="10.00">src/NetHtml.cpp</text>
</a>
</g>
</g>
<!-- Node4&#45;&gt;Node6 -->
<g id="edge6" class="edge"><title>Node4&#45;&gt;Node6</title>
<path fill="none" stroke="midnightblue" d="M215.878,-48.7175C224.867,-39.1997 235.859,-27.5608 243.235,-19.7511"/>
<polygon fill="midnightblue" stroke="midnightblue" points="213.243,-46.4096 208.922,-56.083 218.332,-51.216 213.243,-46.4096"/>
</g>
<!-- Node7 -->
<g id="node7" class="node"><title>Node7</title>
<g id="a_node7"><a xlink:href="_u_i_ctrl_8cpp.html" target="_top" xlink:title="src/UICtrl.cpp">
<polygon fill="white" stroke="black" points="313.5,-0.5 313.5,-19.5 389.5,-19.5 389.5,-0.5 313.5,-0.5"/>
<text text-anchor="middle" x="351.5" y="-7.5" font-family="Helvetica,sans-Serif" font-size="10.00">src/UICtrl.cpp</text>
</a>
</g>
</g>
<!-- Node4&#45;&gt;Node7 -->
<g id="edge7" class="edge"><title>Node4&#45;&gt;Node7</title>
<path fill="none" stroke="midnightblue" d="M233.946,-53.0392C262.358,-42.8786 302.437,-28.5457 327.686,-19.5164"/>
<polygon fill="midnightblue" stroke="midnightblue" points="232.664,-49.7806 224.426,-56.4435 235.021,-56.3718 232.664,-49.7806"/>
</g>
<!-- Node8 -->
<g id="node8" class="node"><title>Node8</title>
<g id="a_node8"><a xlink:href="_user_cmd_8cpp.html" target="_top" xlink:title="UserCmd.cpp. ">
<polygon fill="white" stroke="black" points="407.5,-0.5 407.5,-19.5 499.5,-19.5 499.5,-0.5 407.5,-0.5"/>
<text text-anchor="middle" x="453.5" y="-7.5" font-family="Helvetica,sans-Serif" font-size="10.00">src/UserCmd.cpp</text>
</a>
</g>
</g>
<!-- Node4&#45;&gt;Node8 -->
<g id="edge8" class="edge"><title>Node4&#45;&gt;Node8</title>
<path fill="none" stroke="midnightblue" d="M243.158,-55.8611C308.693,-41.8535 373.068,-28.1321 413.44,-19.5315"/>
<polygon fill="midnightblue" stroke="midnightblue" points="242.106,-52.5067 233.059,-58.0199 243.569,-59.352 242.106,-52.5067"/>
</g>
</g>
</svg>
