<?xml version="1.0" encoding="UTF-8" standalone="no"?>
<!DOCTYPE svg PUBLIC "-//W3C//DTD SVG 1.1//EN"
 "http://www.w3.org/Graphics/SVG/1.1/DTD/svg11.dtd">
<!-- Generated by graphviz version 2.38.0 (20140413.2041)
 -->
<!-- Title: src/Tools.h Pages: 1 -->
<svg width="238pt" height="84pt"
 viewBox="0.00 0.00 238.00 84.00" xmlns="http://www.w3.org/2000/svg" xmlns:xlink="http://www.w3.org/1999/xlink">
<g id="graph0" class="graph" transform="scale(1 1) rotate(0) translate(4 80)">
<title>src/Tools.h</title>
<polygon fill="white" stroke="none" points="-4,4 -4,-80 234,-80 234,4 -4,4"/>
<!-- Node1 -->
<g id="node1" class="node"><title>Node1</title>
<polygon fill="#bfbfbf" stroke="black" points="73,-56.5 73,-75.5 138,-75.5 138,-56.5 73,-56.5"/>
<text text-anchor="middle" x="105.5" y="-63.5" font-family="Helvetica,sans-Serif" font-size="10.00">src/Tools.h</text>
</g>
<!-- Node2 -->
<g id="node2" class="node"><title>Node2</title>
<polygon fill="white" stroke="#bfbfbf" points="0,-0.5 0,-19.5 41,-19.5 41,-0.5 0,-0.5"/>
<text text-anchor="middle" x="20.5" y="-7.5" font-family="Helvetica,sans-Serif" font-size="10.00">string</text>
</g>
<!-- Node1&#45;&gt;Node2 -->
<g id="edge1" class="edge"><title>Node1&#45;&gt;Node2</title>
<path fill="none" stroke="midnightblue" d="M91.8433,-56.324C78.5837,-47.9002 58.232,-34.9709 42.6538,-25.0741"/>
<polygon fill="midnightblue" stroke="midnightblue" points="44.4404,-22.0626 34.1228,-19.6545 40.6867,-27.9711 44.4404,-22.0626"/>
</g>
<!-- Node3 -->
<g id="node3" class="node"><title>Node3</title>
<polygon fill="white" stroke="#bfbfbf" points="59,-0.5 59,-19.5 94,-19.5 94,-0.5 59,-0.5"/>
<text text-anchor="middle" x="76.5" y="-7.5" font-family="Helvetica,sans-Serif" font-size="10.00">map</text>
</g>
<!-- Node1&#45;&gt;Node3 -->
<g id="edge2" class="edge"><title>Node1&#45;&gt;Node3</title>
<path fill="none" stroke="midnightblue" d="M100.711,-56.083C96.7416,-48.6913 90.9749,-37.9533 86.0652,-28.8111"/>
<polygon fill="midnightblue" stroke="midnightblue" points="89.0145,-26.9051 81.1997,-19.7511 82.8475,-30.217 89.0145,-26.9051"/>
</g>
<!-- Node4 -->
<g id="node4" class="node"><title>Node4</title>
<polygon fill="white" stroke="#bfbfbf" points="112.5,-0.5 112.5,-19.5 158.5,-19.5 158.5,-0.5 112.5,-0.5"/>
<text text-anchor="middle" x="135.5" y="-7.5" font-family="Helvetica,sans-Serif" font-size="10.00">mapi.h</text>
</g>
<!-- Node1&#45;&gt;Node4 -->
<g id="edge3" class="edge"><title>Node1&#45;&gt;Node4</title>
<path fill="none" stroke="midnightblue" d="M110.454,-56.083C114.604,-48.6127 120.653,-37.7244 125.767,-28.5199"/>
<polygon fill="midnightblue" stroke="midnightblue" points="128.841,-30.1924 130.638,-19.7511 122.722,-26.7929 128.841,-30.1924"/>
</g>
<!-- Node5 -->
<g id="node5" class="node"><title>Node5</title>
<polygon fill="white" stroke="#bfbfbf" points="177,-0.5 177,-19.5 230,-19.5 230,-0.5 177,-0.5"/>
<text text-anchor="middle" x="203.5" y="-7.5" font-family="Helvetica,sans-Serif" font-size="10.00">afxinet.h</text>
</g>
<!-- Node1&#45;&gt;Node5 -->
<g id="edge4" class="edge"><title>Node1&#45;&gt;Node5</title>
<path fill="none" stroke="midnightblue" d="M121.245,-56.324C136.819,-47.7428 160.877,-34.486 178.959,-24.5224"/>
<polygon fill="midnightblue" stroke="midnightblue" points="180.724,-27.546 187.794,-19.6545 177.346,-21.4152 180.724,-27.546"/>
</g>
</g>
</svg>
