<?xml version="1.0" encoding="UTF-8" standalone="no"?>
<!DOCTYPE svg PUBLIC "-//W3C//DTD SVG 1.1//EN"
 "http://www.w3.org/Graphics/SVG/1.1/DTD/svg11.dtd">
<!-- Generated by graphviz version 2.38.0 (20140413.2041)
 -->
<!-- Title: src/Tools.h Pages: 1 -->
<svg width="234pt" height="140pt"
 viewBox="0.00 0.00 233.50 140.00" xmlns="http://www.w3.org/2000/svg" xmlns:xlink="http://www.w3.org/1999/xlink">
<g id="graph0" class="graph" transform="scale(1 1) rotate(0) translate(4 136)">
<title>src/Tools.h</title>
<polygon fill="white" stroke="none" points="-4,4 -4,-136 229.5,-136 229.5,4 -4,4"/>
<!-- Node1 -->
<g id="node1" class="node"><title>Node1</title>
<polygon fill="#bfbfbf" stroke="black" points="113,-112.5 113,-131.5 178,-131.5 178,-112.5 113,-112.5"/>
<text text-anchor="middle" x="145.5" y="-119.5" font-family="Helvetica,sans-Serif" font-size="10.00">src/Tools.h</text>
</g>
<!-- Node2 -->
<g id="node2" class="node"><title>Node2</title>
<g id="a_node2"><a xlink:href="_net_html_8cpp.html" target="_top" xlink:title="NetHtml.cpp. ">
<polygon fill="white" stroke="black" points="0,-56.5 0,-75.5 87,-75.5 87,-56.5 0,-56.5"/>
<text text-anchor="middle" x="43.5" y="-63.5" font-family="Helvetica,sans-Serif" font-size="10.00">src/NetHtml.cpp</text>
</a>
</g>
</g>
<!-- Node1&#45;&gt;Node2 -->
<g id="edge1" class="edge"><title>Node1&#45;&gt;Node2</title>
<path fill="none" stroke="midnightblue" d="M120.169,-107.59C101.31,-97.6052 76.1158,-84.2672 59.8474,-75.6545"/>
<polygon fill="midnightblue" stroke="midnightblue" points="118.636,-110.738 129.112,-112.324 121.912,-104.552 118.636,-110.738"/>
</g>
<!-- Node3 -->
<g id="node3" class="node"><title>Node3</title>
<g id="a_node3"><a xlink:href="_net_work_8h.html" target="_top" xlink:title="TCP UDP方法集 ">
<polygon fill="white" stroke="black" points="105.5,-56.5 105.5,-75.5 185.5,-75.5 185.5,-56.5 105.5,-56.5"/>
<text text-anchor="middle" x="145.5" y="-63.5" font-family="Helvetica,sans-Serif" font-size="10.00">src/NetWork.h</text>
</a>
</g>
</g>
<!-- Node1&#45;&gt;Node3 -->
<g id="edge2" class="edge"><title>Node1&#45;&gt;Node3</title>
<path fill="none" stroke="midnightblue" d="M145.5,-101.805C145.5,-92.9102 145.5,-82.7798 145.5,-75.7511"/>
<polygon fill="midnightblue" stroke="midnightblue" points="142,-102.083 145.5,-112.083 149,-102.083 142,-102.083"/>
</g>
<!-- Node4 -->
<g id="node4" class="node"><title>Node4</title>
<g id="a_node4"><a xlink:href="_user_cmd_8cpp.html" target="_top" xlink:title="UserCmd.cpp. ">
<polygon fill="white" stroke="black" points="133.5,-0.5 133.5,-19.5 225.5,-19.5 225.5,-0.5 133.5,-0.5"/>
<text text-anchor="middle" x="179.5" y="-7.5" font-family="Helvetica,sans-Serif" font-size="10.00">src/UserCmd.cpp</text>
</a>
</g>
</g>
<!-- Node1&#45;&gt;Node4 -->
<g id="edge4" class="edge"><title>Node1&#45;&gt;Node4</title>
<path fill="none" stroke="midnightblue" d="M168.596,-106.354C178.542,-98.6586 189.11,-88.268 194.5,-76 202.885,-56.9145 192.063,-32.5329 184.898,-19.7385"/>
<polygon fill="midnightblue" stroke="midnightblue" points="166.248,-103.73 160.161,-112.402 170.328,-109.419 166.248,-103.73"/>
</g>
<!-- Node3&#45;&gt;Node4 -->
<g id="edge3" class="edge"><title>Node3&#45;&gt;Node4</title>
<path fill="none" stroke="midnightblue" d="M156.477,-47.5656C162.327,-38.2747 169.27,-27.2484 173.99,-19.7511"/>
<polygon fill="midnightblue" stroke="midnightblue" points="153.481,-45.7558 151.114,-56.083 159.404,-49.4855 153.481,-45.7558"/>
</g>
</g>
</svg>
