<?xml version="1.0" encoding="UTF-8" standalone="no"?>
<!DOCTYPE svg PUBLIC "-//W3C//DTD SVG 1.1//EN"
 "http://www.w3.org/Graphics/SVG/1.1/DTD/svg11.dtd">
<!-- Generated by graphviz version 2.38.0 (20140413.2041)
 -->
<!-- Title: GetLine Pages: 1 -->
<svg width="656pt" height="104pt"
 viewBox="0.00 0.00 656.00 103.94" xmlns="http://www.w3.org/2000/svg" xmlns:xlink="http://www.w3.org/1999/xlink">
<g id="graph0" class="graph" transform="scale(1 1) rotate(0) translate(4 99.9439)">
<title>GetLine</title>
<polygon fill="white" stroke="none" points="-4,4 -4,-99.9439 652,-99.9439 652,4 -4,4"/>
<!-- Node1 -->
<g id="node1" class="node"><title>Node1</title>
<polygon fill="#bfbfbf" stroke="black" points="0,-21.9439 0,-40.9439 50,-40.9439 50,-21.9439 0,-21.9439"/>
<text text-anchor="middle" x="25" y="-28.9439" font-family="Helvetica,sans-Serif" font-size="10.00">GetLine</text>
</g>
<!-- Node2 -->
<g id="node2" class="node"><title>Node2</title>
<g id="a_node2"><a xlink:href="class_net_work_1_1_chat_work.html#ac019f44ad1ecc33ce3eb2c42b6b537d9" target="_top" xlink:title="NetWork::ChatWork::\lBegin">
<polygon fill="white" stroke="black" points="91,-65.4439 91,-95.4439 201,-95.4439 201,-65.4439 91,-65.4439"/>
<text text-anchor="start" x="99" y="-83.4439" font-family="Helvetica,sans-Serif" font-size="10.00">NetWork::ChatWork::</text>
<text text-anchor="middle" x="146" y="-72.4439" font-family="Helvetica,sans-Serif" font-size="10.00">Begin</text>
</a>
</g>
</g>
<!-- Node1&#45;&gt;Node2 -->
<g id="edge1" class="edge"><title>Node1&#45;&gt;Node2</title>
<path fill="none" stroke="midnightblue" d="M58.159,-44.9022C67.1618,-48.6539 76.9575,-52.7209 86,-56.4439 93.0555,-59.3487 100.594,-62.4312 107.842,-65.3845"/>
<polygon fill="midnightblue" stroke="midnightblue" points="59.3509,-41.6071 48.7742,-40.9863 56.6552,-48.0673 59.3509,-41.6071"/>
</g>
<!-- Node6 -->
<g id="node6" class="node"><title>Node6</title>
<g id="a_node6"><a xlink:href="class_net_work_1_1_app_layer_http.html#ad2e8c8742f2c630bd2d43ad843454d7d" target="_top" xlink:title="NetWork::AppLayerHttp\l::Begin">
<polygon fill="white" stroke="black" points="86,-16.4439 86,-46.4439 206,-46.4439 206,-16.4439 86,-16.4439"/>
<text text-anchor="start" x="94" y="-34.4439" font-family="Helvetica,sans-Serif" font-size="10.00">NetWork::AppLayerHttp</text>
<text text-anchor="middle" x="146" y="-23.4439" font-family="Helvetica,sans-Serif" font-size="10.00">::Begin</text>
</a>
</g>
</g>
<!-- Node1&#45;&gt;Node6 -->
<g id="edge5" class="edge"><title>Node1&#45;&gt;Node6</title>
<path fill="none" stroke="midnightblue" d="M60.3461,-31.4439C68.2539,-31.4439 76.8881,-31.4439 85.5218,-31.4439"/>
<polygon fill="midnightblue" stroke="midnightblue" points="60.0815,-27.944 50.0814,-31.4439 60.0814,-34.944 60.0815,-27.944"/>
</g>
<!-- Node7 -->
<g id="node7" class="node"><title>Node7</title>
<g id="a_node7"><a xlink:href="class_user_cmd.html#abdb2a891ebfa05f462586a00b13cbcfc" target="_top" xlink:title="UserCmd::Connect">
<polygon fill="white" stroke="black" points="242,-4.94388 242,-23.9439 341,-23.9439 341,-4.94388 242,-4.94388"/>
<text text-anchor="middle" x="291.5" y="-11.9439" font-family="Helvetica,sans-Serif" font-size="10.00">UserCmd::Connect</text>
</a>
</g>
</g>
<!-- Node1&#45;&gt;Node7 -->
<g id="edge6" class="edge"><title>Node1&#45;&gt;Node7</title>
<path fill="none" stroke="midnightblue" d="M52.8967,-17.5782C63.0003,-13.0893 74.7632,-8.69123 86,-6.44388 138.435,4.04316 199.896,-0.565189 241.649,-6.14453"/>
<polygon fill="midnightblue" stroke="midnightblue" points="51.3615,-14.4323 43.7894,-21.8427 54.33,-20.7717 51.3615,-14.4323"/>
</g>
<!-- Node3 -->
<g id="node3" class="node"><title>Node3</title>
<g id="a_node3"><a xlink:href="class_user_cmd.html#a8b9f5a09bef002aaefe10c43ae9ccea1" target="_top" xlink:title="UserCmd::Chat">
<polygon fill="white" stroke="black" points="250,-56.9439 250,-75.9439 333,-75.9439 333,-56.9439 250,-56.9439"/>
<text text-anchor="middle" x="291.5" y="-63.9439" font-family="Helvetica,sans-Serif" font-size="10.00">UserCmd::Chat</text>
</a>
</g>
</g>
<!-- Node2&#45;&gt;Node3 -->
<g id="edge2" class="edge"><title>Node2&#45;&gt;Node3</title>
<path fill="none" stroke="midnightblue" d="M211.53,-74.1483C224.472,-72.8857 237.73,-71.5922 249.598,-70.4343"/>
<polygon fill="midnightblue" stroke="midnightblue" points="210.864,-70.6965 201.251,-75.1511 211.544,-77.6635 210.864,-70.6965"/>
</g>
<!-- Node4 -->
<g id="node4" class="node"><title>Node4</title>
<g id="a_node4"><a xlink:href="class_cmd_view.html#a70cf028b2bc48ea3e0e6be3319911c85" target="_top" xlink:title="创建消息处理线程,注册消息映射 ">
<polygon fill="white" stroke="black" points="377,-30.9439 377,-49.9439 482,-49.9439 482,-30.9439 377,-30.9439"/>
<text text-anchor="middle" x="429.5" y="-37.9439" font-family="Helvetica,sans-Serif" font-size="10.00">CmdView::Initialcmd</text>
</a>
</g>
</g>
<!-- Node3&#45;&gt;Node4 -->
<g id="edge3" class="edge"><title>Node3&#45;&gt;Node4</title>
<path fill="none" stroke="midnightblue" d="M343.24,-56.7436C354.796,-54.5343 367.064,-52.1889 378.586,-49.9863"/>
<polygon fill="midnightblue" stroke="midnightblue" points="342.469,-53.3274 333.304,-58.643 343.784,-60.2029 342.469,-53.3274"/>
</g>
<!-- Node5 -->
<g id="node5" class="node"><title>Node5</title>
<g id="a_node5"><a xlink:href="class_cmd_view.html#a37a513e8262ea52c1859f8be73dac1b7" target="_top" xlink:title="函数在视图附加到文档后触发,主要完成界面的初始化工作 ">
<polygon fill="white" stroke="black" points="518,-30.9439 518,-49.9439 648,-49.9439 648,-30.9439 518,-30.9439"/>
<text text-anchor="middle" x="583" y="-37.9439" font-family="Helvetica,sans-Serif" font-size="10.00">CmdView::OnInitialUpdate</text>
</a>
</g>
</g>
<!-- Node4&#45;&gt;Node5 -->
<g id="edge4" class="edge"><title>Node4&#45;&gt;Node5</title>
<path fill="none" stroke="midnightblue" d="M492.352,-40.4439C500.784,-40.4439 509.453,-40.4439 517.924,-40.4439"/>
<polygon fill="midnightblue" stroke="midnightblue" points="492.214,-36.944 482.214,-40.4439 492.214,-43.944 492.214,-36.944"/>
</g>
<!-- Node7&#45;&gt;Node4 -->
<g id="edge7" class="edge"><title>Node7&#45;&gt;Node4</title>
<path fill="none" stroke="midnightblue" d="M351.091,-25.6451C360.308,-27.4071 369.759,-29.214 378.751,-30.9331"/>
<polygon fill="midnightblue" stroke="midnightblue" points="351.694,-22.1971 341.215,-23.757 350.38,-29.0726 351.694,-22.1971"/>
</g>
</g>
</svg>
