<?xml version="1.0" encoding="UTF-8" standalone="no"?>
<!DOCTYPE svg PUBLIC "-//W3C//DTD SVG 1.1//EN"
 "http://www.w3.org/Graphics/SVG/1.1/DTD/svg11.dtd">
<!-- Generated by graphviz version 2.38.0 (20140413.2041)
 -->
<!-- Title: src/UICtrl.h Pages: 1 -->
<svg width="508pt" height="84pt"
 viewBox="0.00 0.00 507.50 84.00" xmlns="http://www.w3.org/2000/svg" xmlns:xlink="http://www.w3.org/1999/xlink">
<g id="graph0" class="graph" transform="scale(1 1) rotate(0) translate(4 80)">
<title>src/UICtrl.h</title>
<polygon fill="white" stroke="none" points="-4,4 -4,-80 503.5,-80 503.5,4 -4,4"/>
<!-- Node1 -->
<g id="node1" class="node"><title>Node1</title>
<polygon fill="#bfbfbf" stroke="black" points="219,-56.5 219,-75.5 284,-75.5 284,-56.5 219,-56.5"/>
<text text-anchor="middle" x="251.5" y="-63.5" font-family="Helvetica,sans-Serif" font-size="10.00">src/UICtrl.h</text>
</g>
<!-- Node2 -->
<g id="node2" class="node"><title>Node2</title>
<g id="a_node2"><a xlink:href="_cmd_view_8cpp.html" target="_top" xlink:title="CmdView.cpp : 实现文件 ">
<polygon fill="white" stroke="black" points="0,-0.5 0,-19.5 93,-19.5 93,-0.5 0,-0.5"/>
<text text-anchor="middle" x="46.5" y="-7.5" font-family="Helvetica,sans-Serif" font-size="10.00">src/CmdView.cpp</text>
</a>
</g>
</g>
<!-- Node1&#45;&gt;Node2 -->
<g id="edge1" class="edge"><title>Node1&#45;&gt;Node2</title>
<path fill="none" stroke="midnightblue" d="M209.092,-53.8291C170.386,-43.6333 114.007,-28.7823 78.8309,-19.5164"/>
<polygon fill="midnightblue" stroke="midnightblue" points="208.455,-57.2808 219.017,-56.4435 210.239,-50.5117 208.455,-57.2808"/>
</g>
<!-- Node3 -->
<g id="node3" class="node"><title>Node3</title>
<g id="a_node3"><a xlink:href="_net_dll_8cpp.html" target="_top" xlink:title="NetDll. ">
<polygon fill="white" stroke="black" points="111.5,-0.5 111.5,-19.5 189.5,-19.5 189.5,-0.5 111.5,-0.5"/>
<text text-anchor="middle" x="150.5" y="-7.5" font-family="Helvetica,sans-Serif" font-size="10.00">src/NetDll.cpp</text>
</a>
</g>
</g>
<!-- Node1&#45;&gt;Node3 -->
<g id="edge2" class="edge"><title>Node1&#45;&gt;Node3</title>
<path fill="none" stroke="midnightblue" d="M226.417,-51.5895C207.743,-41.6052 182.796,-28.2672 166.687,-19.6545"/>
<polygon fill="midnightblue" stroke="midnightblue" points="224.804,-54.6955 235.273,-56.324 228.104,-48.5224 224.804,-54.6955"/>
</g>
<!-- Node4 -->
<g id="node4" class="node"><title>Node4</title>
<g id="a_node4"><a xlink:href="_net_html_8cpp.html" target="_top" xlink:title="NetHtml.cpp. ">
<polygon fill="white" stroke="black" points="208,-0.5 208,-19.5 295,-19.5 295,-0.5 208,-0.5"/>
<text text-anchor="middle" x="251.5" y="-7.5" font-family="Helvetica,sans-Serif" font-size="10.00">src/NetHtml.cpp</text>
</a>
</g>
</g>
<!-- Node1&#45;&gt;Node4 -->
<g id="edge3" class="edge"><title>Node1&#45;&gt;Node4</title>
<path fill="none" stroke="midnightblue" d="M251.5,-45.8045C251.5,-36.9102 251.5,-26.7798 251.5,-19.7511"/>
<polygon fill="midnightblue" stroke="midnightblue" points="248,-46.083 251.5,-56.083 255,-46.083 248,-46.083"/>
</g>
<!-- Node5 -->
<g id="node5" class="node"><title>Node5</title>
<g id="a_node5"><a xlink:href="_u_i_ctrl_8cpp.html" target="_top" xlink:title="src/UICtrl.cpp">
<polygon fill="white" stroke="black" points="313.5,-0.5 313.5,-19.5 389.5,-19.5 389.5,-0.5 313.5,-0.5"/>
<text text-anchor="middle" x="351.5" y="-7.5" font-family="Helvetica,sans-Serif" font-size="10.00">src/UICtrl.cpp</text>
</a>
</g>
</g>
<!-- Node1&#45;&gt;Node5 -->
<g id="edge4" class="edge"><title>Node1&#45;&gt;Node5</title>
<path fill="none" stroke="midnightblue" d="M276.588,-51.4526C295.049,-41.4835 319.597,-28.2279 335.473,-19.6545"/>
<polygon fill="midnightblue" stroke="midnightblue" points="274.703,-48.4928 267.567,-56.324 278.029,-54.6521 274.703,-48.4928"/>
</g>
<!-- Node6 -->
<g id="node6" class="node"><title>Node6</title>
<g id="a_node6"><a xlink:href="_user_cmd_8cpp.html" target="_top" xlink:title="UserCmd.cpp. ">
<polygon fill="white" stroke="black" points="407.5,-0.5 407.5,-19.5 499.5,-19.5 499.5,-0.5 407.5,-0.5"/>
<text text-anchor="middle" x="453.5" y="-7.5" font-family="Helvetica,sans-Serif" font-size="10.00">src/UserCmd.cpp</text>
</a>
</g>
</g>
<!-- Node1&#45;&gt;Node6 -->
<g id="edge5" class="edge"><title>Node1&#45;&gt;Node6</title>
<path fill="none" stroke="midnightblue" d="M293.288,-53.8291C331.427,-43.6333 386.981,-28.7823 421.642,-19.5164"/>
<polygon fill="midnightblue" stroke="midnightblue" points="292.264,-50.4796 283.508,-56.4435 294.072,-57.2422 292.264,-50.4796"/>
</g>
</g>
</svg>
