<?xml version="1.0" encoding="UTF-8" standalone="no"?>
<!DOCTYPE svg PUBLIC "-//W3C//DTD SVG 1.1//EN"
 "http://www.w3.org/Graphics/SVG/1.1/DTD/svg11.dtd">
<!-- Generated by graphviz version 2.38.0 (20140413.2041)
 -->
<!-- Title: GetLine Pages: 1 -->
<svg width="149pt" height="66pt"
 viewBox="0.00 0.00 149.00 66.00" xmlns="http://www.w3.org/2000/svg" xmlns:xlink="http://www.w3.org/1999/xlink">
<g id="graph0" class="graph" transform="scale(1 1) rotate(0) translate(4 62)">
<title>GetLine</title>
<polygon fill="white" stroke="none" points="-4,4 -4,-62 145,-62 145,4 -4,4"/>
<!-- Node1 -->
<g id="node1" class="node"><title>Node1</title>
<polygon fill="#bfbfbf" stroke="black" points="0,-19.5 0,-38.5 50,-38.5 50,-19.5 0,-19.5"/>
<text text-anchor="middle" x="25" y="-26.5" font-family="Helvetica,sans-Serif" font-size="10.00">GetLine</text>
</g>
<!-- Node2 -->
<g id="node2" class="node"><title>Node2</title>
<g id="a_node2"><a xlink:href="_u_i_ctrl_8cpp.html#acd5d76443a9392735027919ea424c69c" target="_top" xlink:title="æ‰“å°ä¸€è¡Œæ–‡å­—åˆ°æ—¥å¿—çª—å£ å‡½æ•°å‘é€PRINTæ¶ˆæ¯åˆ°LogViewçª—å£ï¼Œå¹¶å°†å­—ç¬¦ä¸²å°è£…åˆ°lparamä¸­ï¼ŒLogViewçª—å£æŽ¥æ”¶åˆ°è¯¥æ¶...">
<polygon fill="white" stroke="black" points="87,-38.5 87,-57.5 140,-57.5 140,-38.5 87,-38.5"/>
<text text-anchor="middle" x="113.5" y="-45.5" font-family="Helvetica,sans-Serif" font-size="10.00">PrintLog</text>
</a>
</g>
</g>
<!-- Node1&#45;&gt;Node2 -->
<g id="edge1" class="edge"><title>Node1&#45;&gt;Node2</title>
<path fill="none" stroke="midnightblue" d="M50.0951,-34.2926C58.3762,-36.1115 67.8313,-38.1884 76.8339,-40.1658"/>
<polygon fill="midnightblue" stroke="midnightblue" points="76.2011,-43.6102 86.7192,-42.3372 77.7029,-36.7732 76.2011,-43.6102"/>
</g>
<!-- Node3 -->
<g id="node3" class="node"><title>Node3</title>
<g id="a_node3"><a xlink:href="_u_i_ctrl_8cpp.html#a4fdd03168a7e6952059fcf83e88c70f7" target="_top" xlink:title="é€šçŸ¥ä¸»çª—å£å‘½ä»¤å·²èŽ·å–å®Œæˆ å‡½æ•°å‘é€ENDINPUTæ¶ˆæ¯åˆ°CmdViewï¼Œé€šçŸ¥ç”¨æˆ·æ¨¡å¼ä¸‹æˆåŠŸèŽ·å–äº†ä¸€è¡Œè¾“å…¥ã€‚CmdViewæŽ¥æ”¶...">
<polygon fill="white" stroke="black" points="86,-0.5 86,-19.5 141,-19.5 141,-0.5 86,-0.5"/>
<text text-anchor="middle" x="113.5" y="-7.5" font-family="Helvetica,sans-Serif" font-size="10.00">EndInput</text>
</a>
</g>
</g>
<!-- Node1&#45;&gt;Node3 -->
<g id="edge2" class="edge"><title>Node1&#45;&gt;Node3</title>
<path fill="none" stroke="midnightblue" d="M50.0951,-23.7074C58.0715,-21.9554 67.1373,-19.9641 75.8387,-18.0528"/>
<polygon fill="midnightblue" stroke="midnightblue" points="76.7827,-21.4289 85.7989,-15.865 75.2808,-14.5919 76.7827,-21.4289"/>
</g>
</g>
</svg>
