<?xml version="1.0" encoding="UTF-8" standalone="no"?>
<!DOCTYPE svg PUBLIC "-//W3C//DTD SVG 1.1//EN"
 "http://www.w3.org/Graphics/SVG/1.1/DTD/svg11.dtd">
<!-- Generated by graphviz version 2.38.0 (20140413.2041)
 -->
<!-- Title: PrintLog Pages: 1 -->
<svg width="675pt" height="454pt"
 viewBox="0.00 0.00 675.00 453.65" xmlns="http://www.w3.org/2000/svg" xmlns:xlink="http://www.w3.org/1999/xlink">
<g id="graph0" class="graph" transform="scale(1 1) rotate(0) translate(4 449.654)">
<title>PrintLog</title>
<polygon fill="white" stroke="none" points="-4,4 -4,-449.654 671,-449.654 671,4 -4,4"/>
<!-- Node1 -->
<g id="node1" class="node"><title>Node1</title>
<polygon fill="#bfbfbf" stroke="black" points="0,-217.154 0,-236.154 53,-236.154 53,-217.154 0,-217.154"/>
<text text-anchor="middle" x="26.5" y="-224.154" font-family="Helvetica,sans-Serif" font-size="10.00">PrintLog</text>
</g>
<!-- Node2 -->
<g id="node2" class="node"><title>Node2</title>
<g id="a_node2"><a xlink:href="class_cmd_view.html#a19fb61e29f7be75474462793ea26d461" target="_top" xlink:title="实现命令字符串到命令处理函数之间的映射 ">
<polygon fill="white" stroke="black" points="99,-426.154 99,-445.154 203,-445.154 203,-426.154 99,-426.154"/>
<text text-anchor="middle" x="151" y="-433.154" font-family="Helvetica,sans-Serif" font-size="10.00">CmdView::MapTask</text>
</a>
</g>
</g>
<!-- Node1&#45;&gt;Node2 -->
<g id="edge1" class="edge"><title>Node1&#45;&gt;Node2</title>
<path fill="none" stroke="midnightblue" d="M28.7223,-246.642C32.0422,-283.9 44.2746,-364.45 89,-411.654 94.9489,-417.932 102.742,-422.598 110.76,-426.055"/>
<polygon fill="midnightblue" stroke="midnightblue" points="32.2033,-246.259 27.9521,-236.554 25.2236,-246.792 32.2033,-246.259"/>
</g>
<!-- Node4 -->
<g id="node4" class="node"><title>Node4</title>
<g id="a_node4"><a xlink:href="class_cmd_view.html#a70cf028b2bc48ea3e0e6be3319911c85" target="_top" xlink:title="创建消息处理线程,注册消息映射 ">
<polygon fill="white" stroke="black" points="396,-198.154 396,-217.154 501,-217.154 501,-198.154 396,-198.154"/>
<text text-anchor="middle" x="448.5" y="-205.154" font-family="Helvetica,sans-Serif" font-size="10.00">CmdView::Initialcmd</text>
</a>
</g>
</g>
<!-- Node1&#45;&gt;Node4 -->
<g id="edge5" class="edge"><title>Node1&#45;&gt;Node4</title>
<path fill="none" stroke="midnightblue" d="M28.7829,-246.435C32.1699,-280.3 44.4655,-348.631 89,-378.654 138.935,-412.317 308.625,-410.075 360,-378.654 420.597,-341.592 440.931,-247.824 446.052,-217.369"/>
<polygon fill="midnightblue" stroke="midnightblue" points="32.263,-246.05 27.9421,-236.376 25.2874,-246.633 32.263,-246.05"/>
</g>
<!-- Node6 -->
<g id="node6" class="node"><title>Node6</title>
<g id="a_node6"><a xlink:href="class_cmd_view.html#a9db1b898ce61e9feeb9a3255ac45b82d" target="_top" xlink:title="处理回车键消息,触发命令处理函数 ">
<polygon fill="white" stroke="black" points="97.5,-350.154 97.5,-369.154 204.5,-369.154 204.5,-350.154 97.5,-350.154"/>
<text text-anchor="middle" x="151" y="-357.154" font-family="Helvetica,sans-Serif" font-size="10.00">CmdView::DealEnter</text>
</a>
</g>
</g>
<!-- Node1&#45;&gt;Node6 -->
<g id="edge6" class="edge"><title>Node1&#45;&gt;Node6</title>
<path fill="none" stroke="midnightblue" d="M32.939,-246.116C41.0204,-271.503 58.608,-315.621 89,-340.654 93.7089,-344.532 99.2101,-347.621 104.946,-350.081"/>
<polygon fill="midnightblue" stroke="midnightblue" points="36.19,-244.772 29.9651,-236.199 29.485,-246.783 36.19,-244.772"/>
</g>
<!-- Node8 -->
<g id="node8" class="node"><title>Node8</title>
<g id="a_node8"><a xlink:href="class_net_dll.html#abb349ff2f7a5d0cfc0906e70f7716638" target="_top" xlink:title="NetDll::LoadDll">
<polygon fill="white" stroke="black" points="110.5,-312.154 110.5,-331.154 191.5,-331.154 191.5,-312.154 110.5,-312.154"/>
<text text-anchor="middle" x="151" y="-319.154" font-family="Helvetica,sans-Serif" font-size="10.00">NetDll::LoadDll</text>
</a>
</g>
</g>
<!-- Node1&#45;&gt;Node8 -->
<g id="edge8" class="edge"><title>Node1&#45;&gt;Node8</title>
<path fill="none" stroke="midnightblue" d="M39.2877,-244.634C50.4533,-260.454 68.5258,-283.163 89,-297.654 97.4533,-303.636 107.605,-308.398 117.179,-312.052"/>
<polygon fill="midnightblue" stroke="midnightblue" points="42.0768,-242.512 33.5456,-236.23 36.2969,-246.461 42.0768,-242.512"/>
</g>
<!-- Node9 -->
<g id="node9" class="node"><title>Node9</title>
<g id="a_node9"><a xlink:href="class_user_cmd.html#acab5b5cbfcc9b92f860b3d48ae1c4ab5" target="_top" xlink:title="UserCmd::SetDll">
<polygon fill="white" stroke="black" points="260,-274.154 260,-293.154 349,-293.154 349,-274.154 260,-274.154"/>
<text text-anchor="middle" x="304.5" y="-281.154" font-family="Helvetica,sans-Serif" font-size="10.00">UserCmd::SetDll</text>
</a>
</g>
</g>
<!-- Node1&#45;&gt;Node9 -->
<g id="edge24" class="edge"><title>Node1&#45;&gt;Node9</title>
<path fill="none" stroke="midnightblue" d="M47.726,-242.498C59.1795,-250.577 74.1514,-259.718 89,-264.654 145.94,-283.58 215.796,-286.243 259.992,-285.596"/>
<polygon fill="midnightblue" stroke="midnightblue" points="49.4935,-239.453 39.3643,-236.346 45.3453,-245.092 49.4935,-239.453"/>
</g>
<!-- Node10 -->
<g id="node10" class="node"><title>Node10</title>
<g id="a_node10"><a xlink:href="class_net_dll.html#a27e156c4e33270dcf98f78a7328b86bc" target="_top" xlink:title="NetDll::OpenDll">
<polygon fill="white" stroke="black" points="109.5,-236.154 109.5,-255.154 192.5,-255.154 192.5,-236.154 109.5,-236.154"/>
<text text-anchor="middle" x="151" y="-243.154" font-family="Helvetica,sans-Serif" font-size="10.00">NetDll::OpenDll</text>
</a>
</g>
</g>
<!-- Node1&#45;&gt;Node10 -->
<g id="edge11" class="edge"><title>Node1&#45;&gt;Node10</title>
<path fill="none" stroke="midnightblue" d="M63.2445,-232.198C77.709,-234.441 94.4838,-237.043 109.406,-239.357"/>
<polygon fill="midnightblue" stroke="midnightblue" points="63.5983,-228.711 53.18,-230.637 62.5254,-235.628 63.5983,-228.711"/>
</g>
<!-- Node11 -->
<g id="node11" class="node"><title>Node11</title>
<g id="a_node11"><a xlink:href="class_net_html.html#a1d26b557eca7cab7c987aae38438c3ae" target="_top" xlink:title="函数通过CSocket获取对应的html文件字符流。 函数通过CSocket和url对应的服务器建立连接,并将请求资源报文发送给服务器，成功响应后一行行的获取从服务器发来的数据， 并将数据转码为Unicode，拼接到返回的字符串myhtml ">
<polygon fill="white" stroke="black" points="89,-198.154 89,-217.154 213,-217.154 213,-198.154 89,-198.154"/>
<text text-anchor="middle" x="151" y="-205.154" font-family="Helvetica,sans-Serif" font-size="10.00">NetHtml::getURLContext</text>
</a>
</g>
</g>
<!-- Node1&#45;&gt;Node11 -->
<g id="edge12" class="edge"><title>Node1&#45;&gt;Node11</title>
<path fill="none" stroke="midnightblue" d="M63.2645,-221.106C71.2927,-219.861 80.0318,-218.506 88.7703,-217.15"/>
<polygon fill="midnightblue" stroke="midnightblue" points="62.5254,-217.679 53.18,-222.671 63.5983,-224.596 62.5254,-217.679"/>
</g>
<!-- Node13 -->
<g id="node13" class="node"><title>Node13</title>
<g id="a_node13"><a xlink:href="class_net_work_1_1_chat_work.html#ac019f44ad1ecc33ce3eb2c42b6b537d9" target="_top" xlink:title="NetWork::ChatWork::\lBegin">
<polygon fill="white" stroke="black" points="96,-148.654 96,-178.654 206,-178.654 206,-148.654 96,-148.654"/>
<text text-anchor="start" x="104" y="-166.654" font-family="Helvetica,sans-Serif" font-size="10.00">NetWork::ChatWork::</text>
<text text-anchor="middle" x="151" y="-155.654" font-family="Helvetica,sans-Serif" font-size="10.00">Begin</text>
</a>
</g>
</g>
<!-- Node1&#45;&gt;Node13 -->
<g id="edge15" class="edge"><title>Node1&#45;&gt;Node13</title>
<path fill="none" stroke="midnightblue" d="M50.2386,-211.359C61.6207,-204.028 75.7638,-195.397 89,-188.654 95.8326,-185.172 103.267,-181.801 110.52,-178.72"/>
<polygon fill="midnightblue" stroke="midnightblue" points="48.2236,-208.495 41.7725,-216.9 52.0566,-214.353 48.2236,-208.495"/>
</g>
<!-- Node15 -->
<g id="node15" class="node"><title>Node15</title>
<g id="a_node15"><a xlink:href="class_net_work_1_1_app_layer_http.html#ad2e8c8742f2c630bd2d43ad843454d7d" target="_top" xlink:title="NetWork::AppLayerHttp\l::Begin">
<polygon fill="white" stroke="black" points="91,-99.6536 91,-129.654 211,-129.654 211,-99.6536 91,-99.6536"/>
<text text-anchor="start" x="99" y="-117.654" font-family="Helvetica,sans-Serif" font-size="10.00">NetWork::AppLayerHttp</text>
<text text-anchor="middle" x="151" y="-106.654" font-family="Helvetica,sans-Serif" font-size="10.00">::Begin</text>
</a>
</g>
</g>
<!-- Node1&#45;&gt;Node15 -->
<g id="edge18" class="edge"><title>Node1&#45;&gt;Node15</title>
<path fill="none" stroke="midnightblue" d="M36.4137,-207.881C46.6226,-188.187 65.0724,-157.526 89,-138.654 93.2891,-135.271 98.1142,-132.313 103.124,-129.739"/>
<polygon fill="midnightblue" stroke="midnightblue" points="33.1677,-206.548 31.8409,-217.059 39.4331,-209.669 33.1677,-206.548"/>
</g>
<!-- Node16 -->
<g id="node16" class="node"><title>Node16</title>
<g id="a_node16"><a xlink:href="_u_i_ctrl_8h.html#ab7520283bb1638c3850a041326fddbde" target="_top" xlink:title="从CmdView中获取一行输入 ">
<polygon fill="white" stroke="black" points="126,-61.1536 126,-80.1536 176,-80.1536 176,-61.1536 126,-61.1536"/>
<text text-anchor="middle" x="151" y="-68.1536" font-family="Helvetica,sans-Serif" font-size="10.00">GetLine</text>
</a>
</g>
</g>
<!-- Node1&#45;&gt;Node16 -->
<g id="edge19" class="edge"><title>Node1&#45;&gt;Node16</title>
<path fill="none" stroke="midnightblue" d="M30.9767,-207.145C37.2732,-177.506 53.367,-121.248 89,-89.6536 99.2084,-80.6022 113.689,-75.8624 125.98,-73.3807"/>
<polygon fill="midnightblue" stroke="midnightblue" points="27.5155,-206.607 29.0229,-217.094 34.3843,-207.956 27.5155,-206.607"/>
</g>
<!-- Node17 -->
<g id="node17" class="node"><title>Node17</title>
<g id="a_node17"><a xlink:href="class_user_cmd.html#a7e760ac67d39d2b210b7d2b4f8e8ad5b" target="_top" xlink:title="UserCmd::Compute">
<polygon fill="white" stroke="black" points="253.5,-71.1536 253.5,-90.1536 355.5,-90.1536 355.5,-71.1536 253.5,-71.1536"/>
<text text-anchor="middle" x="304.5" y="-78.1536" font-family="Helvetica,sans-Serif" font-size="10.00">UserCmd::Compute</text>
</a>
</g>
</g>
<!-- Node1&#45;&gt;Node17 -->
<g id="edge20" class="edge"><title>Node1&#45;&gt;Node17</title>
<path fill="none" stroke="midnightblue" d="M27.6259,-206.622C29.0814,-168.831 38.2783,-87.5912 89,-51.6536 150.478,-8.09523 247.232,-50.5558 286.295,-71.0137"/>
<polygon fill="midnightblue" stroke="midnightblue" points="24.1213,-206.777 27.3853,-216.857 31.1194,-206.942 24.1213,-206.777"/>
</g>
<!-- Node18 -->
<g id="node18" class="node"><title>Node18</title>
<g id="a_node18"><a xlink:href="class_user_cmd.html#abdb2a891ebfa05f462586a00b13cbcfc" target="_top" xlink:title="UserCmd::Connect">
<polygon fill="white" stroke="black" points="255,-9.15361 255,-28.1536 354,-28.1536 354,-9.15361 255,-9.15361"/>
<text text-anchor="middle" x="304.5" y="-16.1536" font-family="Helvetica,sans-Serif" font-size="10.00">UserCmd::Connect</text>
</a>
</g>
</g>
<!-- Node1&#45;&gt;Node18 -->
<g id="edge22" class="edge"><title>Node1&#45;&gt;Node18</title>
<path fill="none" stroke="midnightblue" d="M26.9068,-206.682C26.9043,-165.802 33.3622,-72.8093 89,-29.6536 140.267,10.1122 220.937,0.903114 267.356,-9.07646"/>
<polygon fill="midnightblue" stroke="midnightblue" points="23.4079,-206.794 27.0433,-216.746 30.4073,-206.699 23.4079,-206.794"/>
</g>
<!-- Node3 -->
<g id="node3" class="node"><title>Node3</title>
<g id="a_node3"><a xlink:href="class_cmd_view.html#aa343e34b3fe9c6097c39a416c8ec5206" target="_top" xlink:title="监听命令处理状态 ">
<polygon fill="white" stroke="black" points="249,-426.154 249,-445.154 360,-445.154 360,-426.154 249,-426.154"/>
<text text-anchor="middle" x="304.5" y="-433.154" font-family="Helvetica,sans-Serif" font-size="10.00">CmdView::DEALCMD</text>
</a>
</g>
</g>
<!-- Node2&#45;&gt;Node3 -->
<g id="edge2" class="edge"><title>Node2&#45;&gt;Node3</title>
<path fill="none" stroke="midnightblue" d="M213.45,-435.654C225.183,-435.654 237.391,-435.654 248.892,-435.654"/>
<polygon fill="midnightblue" stroke="midnightblue" points="213.291,-432.154 203.291,-435.654 213.291,-439.154 213.291,-432.154"/>
</g>
<!-- Node3&#45;&gt;Node4 -->
<g id="edge3" class="edge"><title>Node3&#45;&gt;Node4</title>
<path fill="none" stroke="midnightblue" d="M347.184,-421.369C351.862,-418.63 356.276,-415.414 360,-411.654 418.033,-353.059 440.186,-249.874 445.893,-217.593"/>
<polygon fill="midnightblue" stroke="midnightblue" points="345.29,-418.405 337.971,-426.066 348.47,-424.641 345.29,-418.405"/>
</g>
<!-- Node5 -->
<g id="node5" class="node"><title>Node5</title>
<g id="a_node5"><a xlink:href="class_cmd_view.html#a37a513e8262ea52c1859f8be73dac1b7" target="_top" xlink:title="函数在视图附加到文档后触发,主要完成界面的初始化工作 ">
<polygon fill="white" stroke="black" points="537,-198.154 537,-217.154 667,-217.154 667,-198.154 537,-198.154"/>
<text text-anchor="middle" x="602" y="-205.154" font-family="Helvetica,sans-Serif" font-size="10.00">CmdView::OnInitialUpdate</text>
</a>
</g>
</g>
<!-- Node4&#45;&gt;Node5 -->
<g id="edge4" class="edge"><title>Node4&#45;&gt;Node5</title>
<path fill="none" stroke="midnightblue" d="M511.352,-207.654C519.784,-207.654 528.453,-207.654 536.924,-207.654"/>
<polygon fill="midnightblue" stroke="midnightblue" points="511.214,-204.154 501.214,-207.654 511.214,-211.154 511.214,-204.154"/>
</g>
<!-- Node7 -->
<g id="node7" class="node"><title>Node7</title>
<g id="a_node7"><a xlink:href="class_cmd_view.html#a7763f6d4cc758e91aa4ac6d97b5a275b" target="_top" xlink:title="函数在按下非系统键时触发,在OnKeyDown之后,OnKeyUp之前。 ">
<polygon fill="white" stroke="black" points="256,-350.154 256,-369.154 353,-369.154 353,-350.154 256,-350.154"/>
<text text-anchor="middle" x="304.5" y="-357.154" font-family="Helvetica,sans-Serif" font-size="10.00">CmdView::OnChar</text>
</a>
</g>
</g>
<!-- Node6&#45;&gt;Node7 -->
<g id="edge7" class="edge"><title>Node6&#45;&gt;Node7</title>
<path fill="none" stroke="midnightblue" d="M214.892,-359.654C228.587,-359.654 242.861,-359.654 255.85,-359.654"/>
<polygon fill="midnightblue" stroke="midnightblue" points="214.562,-356.154 204.562,-359.654 214.562,-363.154 214.562,-356.154"/>
</g>
<!-- Node8&#45;&gt;Node9 -->
<g id="edge9" class="edge"><title>Node8&#45;&gt;Node9</title>
<path fill="none" stroke="midnightblue" d="M200.002,-309.614C221.167,-304.305 245.686,-298.155 265.545,-293.174"/>
<polygon fill="midnightblue" stroke="midnightblue" points="199.078,-306.237 190.23,-312.065 200.781,-313.026 199.078,-306.237"/>
</g>
<!-- Node9&#45;&gt;Node4 -->
<g id="edge10" class="edge"><title>Node9&#45;&gt;Node4</title>
<path fill="none" stroke="midnightblue" d="M332.508,-269.198C361.035,-253.93 405.2,-230.293 429.662,-217.201"/>
<polygon fill="midnightblue" stroke="midnightblue" points="330.649,-266.224 323.484,-274.028 333.953,-272.395 330.649,-266.224"/>
</g>
<!-- Node12 -->
<g id="node12" class="node"><title>Node12</title>
<g id="a_node12"><a xlink:href="class_user_cmd.html#ad5fa0ccaab5d2a8bf2b4aeccc6c4c01b" target="_top" xlink:title="UserCmd::GetHtml">
<polygon fill="white" stroke="black" points="255,-198.154 255,-217.154 354,-217.154 354,-198.154 255,-198.154"/>
<text text-anchor="middle" x="304.5" y="-205.154" font-family="Helvetica,sans-Serif" font-size="10.00">UserCmd::GetHtml</text>
</a>
</g>
</g>
<!-- Node11&#45;&gt;Node12 -->
<g id="edge13" class="edge"><title>Node11&#45;&gt;Node12</title>
<path fill="none" stroke="midnightblue" d="M223.299,-207.654C233.914,-207.654 244.647,-207.654 254.659,-207.654"/>
<polygon fill="midnightblue" stroke="midnightblue" points="223.184,-204.154 213.184,-207.654 223.184,-211.154 223.184,-204.154"/>
</g>
<!-- Node12&#45;&gt;Node4 -->
<g id="edge14" class="edge"><title>Node12&#45;&gt;Node4</title>
<path fill="none" stroke="midnightblue" d="M364.539,-207.654C374.86,-207.654 385.527,-207.654 395.635,-207.654"/>
<polygon fill="midnightblue" stroke="midnightblue" points="364.368,-204.154 354.368,-207.654 364.368,-211.154 364.368,-204.154"/>
</g>
<!-- Node14 -->
<g id="node14" class="node"><title>Node14</title>
<g id="a_node14"><a xlink:href="class_user_cmd.html#a8b9f5a09bef002aaefe10c43ae9ccea1" target="_top" xlink:title="UserCmd::Chat">
<polygon fill="white" stroke="black" points="263,-157.154 263,-176.154 346,-176.154 346,-157.154 263,-157.154"/>
<text text-anchor="middle" x="304.5" y="-164.154" font-family="Helvetica,sans-Serif" font-size="10.00">UserCmd::Chat</text>
</a>
</g>
</g>
<!-- Node13&#45;&gt;Node14 -->
<g id="edge16" class="edge"><title>Node13&#45;&gt;Node14</title>
<path fill="none" stroke="midnightblue" d="M216.491,-164.931C232.239,-165.242 248.651,-165.567 262.923,-165.85"/>
<polygon fill="midnightblue" stroke="midnightblue" points="216.334,-161.427 206.267,-164.728 216.196,-168.426 216.334,-161.427"/>
</g>
<!-- Node14&#45;&gt;Node4 -->
<g id="edge17" class="edge"><title>Node14&#45;&gt;Node4</title>
<path fill="none" stroke="midnightblue" d="M348.155,-178.969C369.331,-185.084 394.531,-192.36 414.252,-198.054"/>
<polygon fill="midnightblue" stroke="midnightblue" points="349.013,-175.574 338.435,-176.163 347.071,-182.3 349.013,-175.574"/>
</g>
<!-- Node17&#45;&gt;Node4 -->
<g id="edge21" class="edge"><title>Node17&#45;&gt;Node4</title>
<path fill="none" stroke="midnightblue" d="M323.824,-97.0415C353.831,-123.88 412.53,-176.378 436.703,-197.997"/>
<polygon fill="midnightblue" stroke="midnightblue" points="325.96,-94.2569 316.173,-90.1993 321.294,-99.4745 325.96,-94.2569"/>
</g>
<!-- Node18&#45;&gt;Node4 -->
<g id="edge23" class="edge"><title>Node18&#45;&gt;Node4</title>
<path fill="none" stroke="midnightblue" d="M328.811,-34.1314C339.113,-41.6704 350.921,-51.3308 360,-61.6536 400.007,-107.143 432.05,-173.401 443.229,-197.995"/>
<polygon fill="midnightblue" stroke="midnightblue" points="330.789,-31.244 320.603,-28.3297 326.749,-36.9601 330.789,-31.244"/>
</g>
</g>
</svg>
