<?xml version="1.0" encoding="UTF-8" standalone="no"?>
<!DOCTYPE svg PUBLIC "-//W3C//DTD SVG 1.1//EN"
 "http://www.w3.org/Graphics/SVG/1.1/DTD/svg11.dtd">
<!-- Generated by graphviz version 2.38.0 (20140413.2041)
 -->
<!-- Title: src/UICtrl.cpp Pages: 1 -->
<svg width="623pt" height="420pt"
 viewBox="0.00 0.00 622.50 420.00" xmlns="http://www.w3.org/2000/svg" xmlns:xlink="http://www.w3.org/1999/xlink">
<g id="graph0" class="graph" transform="scale(1 1) rotate(0) translate(4 416)">
<title>src/UICtrl.cpp</title>
<polygon fill="white" stroke="none" points="-4,4 -4,-416 618.5,-416 618.5,4 -4,4"/>
<!-- Node1 -->
<g id="node1" class="node"><title>Node1</title>
<polygon fill="#bfbfbf" stroke="black" points="288,-392.5 288,-411.5 364,-411.5 364,-392.5 288,-392.5"/>
<text text-anchor="middle" x="326" y="-399.5" font-family="Helvetica,sans-Serif" font-size="10.00">src/UICtrl.cpp</text>
</g>
<!-- Node2 -->
<g id="node2" class="node"><title>Node2</title>
<g id="a_node2"><a xlink:href="stdafx_8h.html" target="_top" xlink:title="stdafx.h : 标准系统包含文件的包含文件， &#160;或是经常使用但不常更改的 &#160;特定于项目的包含文件 ...">
<polygon fill="white" stroke="black" points="268.5,-112.5 268.5,-131.5 319.5,-131.5 319.5,-112.5 268.5,-112.5"/>
<text text-anchor="middle" x="294" y="-119.5" font-family="Helvetica,sans-Serif" font-size="10.00">stdafx.h</text>
</a>
</g>
</g>
<!-- Node1&#45;&gt;Node2 -->
<g id="edge1" class="edge"><title>Node1&#45;&gt;Node2</title>
<path fill="none" stroke="midnightblue" d="M316.261,-392.372C297.902,-375.099 260,-334.206 260,-291 260,-291 260,-291 260,-233 260,-199.16 274.87,-161.97 284.942,-140.661"/>
<polygon fill="midnightblue" stroke="midnightblue" points="288.145,-142.079 289.415,-131.56 281.863,-138.991 288.145,-142.079"/>
</g>
<!-- Node12 -->
<g id="node12" class="node"><title>Node12</title>
<g id="a_node12"><a xlink:href="_u_i_ctrl_8h.html" target="_top" xlink:title="UICtrl. ">
<polygon fill="white" stroke="black" points="301.5,-336.5 301.5,-355.5 350.5,-355.5 350.5,-336.5 301.5,-336.5"/>
<text text-anchor="middle" x="326" y="-343.5" font-family="Helvetica,sans-Serif" font-size="10.00">UICtrl.h</text>
</a>
</g>
</g>
<!-- Node1&#45;&gt;Node12 -->
<g id="edge11" class="edge"><title>Node1&#45;&gt;Node12</title>
<path fill="none" stroke="midnightblue" d="M326,-392.083C326,-385.006 326,-374.861 326,-365.986"/>
<polygon fill="midnightblue" stroke="midnightblue" points="329.5,-365.751 326,-355.751 322.5,-365.751 329.5,-365.751"/>
</g>
<!-- Node20 -->
<g id="node20" class="node"><title>Node20</title>
<g id="a_node20"><a xlink:href="_hust_net_8h.html" target="_top" xlink:title="HustNet.h">
<polygon fill="white" stroke="black" points="396,-336.5 396,-355.5 456,-355.5 456,-336.5 396,-336.5"/>
<text text-anchor="middle" x="426" y="-343.5" font-family="Helvetica,sans-Serif" font-size="10.00">HustNet.h</text>
</a>
</g>
</g>
<!-- Node1&#45;&gt;Node20 -->
<g id="edge21" class="edge"><title>Node1&#45;&gt;Node20</title>
<path fill="none" stroke="midnightblue" d="M342.067,-392.324C357.958,-383.743 382.507,-370.486 400.958,-360.522"/>
<polygon fill="midnightblue" stroke="midnightblue" points="402.837,-363.486 409.973,-355.655 399.511,-357.326 402.837,-363.486"/>
</g>
<!-- Node3 -->
<g id="node3" class="node"><title>Node3</title>
<g id="a_node3"><a xlink:href="targetver_8h.html" target="_top" xlink:title="包括 SDKDDKVer.h 将定义最高版本的可用 Windows 平台。 如果要为以前的 Windows 平台生成应用程序，请包括 ...">
<polygon fill="white" stroke="black" points="9,-56.5 9,-75.5 71,-75.5 71,-56.5 9,-56.5"/>
<text text-anchor="middle" x="40" y="-63.5" font-family="Helvetica,sans-Serif" font-size="10.00">targetver.h</text>
</a>
</g>
</g>
<!-- Node2&#45;&gt;Node3 -->
<g id="edge2" class="edge"><title>Node2&#45;&gt;Node3</title>
<path fill="none" stroke="midnightblue" d="M268.281,-115.714C229.799,-107.777 154.704,-92.1894 81.3062,-76.263"/>
<polygon fill="midnightblue" stroke="midnightblue" points="81.949,-72.821 71.4336,-74.1164 80.4617,-79.6612 81.949,-72.821"/>
</g>
<!-- Node5 -->
<g id="node5" class="node"><title>Node5</title>
<polygon fill="white" stroke="#bfbfbf" points="89,-56.5 89,-75.5 141,-75.5 141,-56.5 89,-56.5"/>
<text text-anchor="middle" x="115" y="-63.5" font-family="Helvetica,sans-Serif" font-size="10.00">afxwin.h</text>
</g>
<!-- Node2&#45;&gt;Node5 -->
<g id="edge4" class="edge"><title>Node2&#45;&gt;Node5</title>
<path fill="none" stroke="midnightblue" d="M268.354,-113.263C237.559,-103.973 185.72,-88.3345 150.944,-77.8434"/>
<polygon fill="midnightblue" stroke="midnightblue" points="151.766,-74.4356 141.181,-74.8981 149.744,-81.1372 151.766,-74.4356"/>
</g>
<!-- Node6 -->
<g id="node6" class="node"><title>Node6</title>
<polygon fill="white" stroke="#bfbfbf" points="159.5,-56.5 159.5,-75.5 210.5,-75.5 210.5,-56.5 159.5,-56.5"/>
<text text-anchor="middle" x="185" y="-63.5" font-family="Helvetica,sans-Serif" font-size="10.00">afxext.h</text>
</g>
<!-- Node2&#45;&gt;Node6 -->
<g id="edge5" class="edge"><title>Node2&#45;&gt;Node6</title>
<path fill="none" stroke="midnightblue" d="M276.487,-112.324C258.928,-103.625 231.669,-90.1202 211.469,-80.113"/>
<polygon fill="midnightblue" stroke="midnightblue" points="212.984,-76.9575 202.469,-75.6545 209.876,-83.23 212.984,-76.9575"/>
</g>
<!-- Node7 -->
<g id="node7" class="node"><title>Node7</title>
<polygon fill="white" stroke="#bfbfbf" points="229,-56.5 229,-75.5 285,-75.5 285,-56.5 229,-56.5"/>
<text text-anchor="middle" x="257" y="-63.5" font-family="Helvetica,sans-Serif" font-size="10.00">afxdisp.h</text>
</g>
<!-- Node2&#45;&gt;Node7 -->
<g id="edge6" class="edge"><title>Node2&#45;&gt;Node7</title>
<path fill="none" stroke="midnightblue" d="M287.89,-112.083C282.718,-104.534 275.154,-93.4948 268.806,-84.2298"/>
<polygon fill="midnightblue" stroke="midnightblue" points="271.536,-82.0221 262.996,-75.7511 265.761,-85.9787 271.536,-82.0221"/>
</g>
<!-- Node8 -->
<g id="node8" class="node"><title>Node8</title>
<polygon fill="white" stroke="#bfbfbf" points="303,-56.5 303,-75.5 359,-75.5 359,-56.5 303,-56.5"/>
<text text-anchor="middle" x="331" y="-63.5" font-family="Helvetica,sans-Serif" font-size="10.00">afxdtctl.h</text>
</g>
<!-- Node2&#45;&gt;Node8 -->
<g id="edge7" class="edge"><title>Node2&#45;&gt;Node8</title>
<path fill="none" stroke="midnightblue" d="M300.11,-112.083C305.282,-104.534 312.846,-93.4948 319.194,-84.2298"/>
<polygon fill="midnightblue" stroke="midnightblue" points="322.239,-85.9787 325.004,-75.7511 316.464,-82.0221 322.239,-85.9787"/>
</g>
<!-- Node9 -->
<g id="node9" class="node"><title>Node9</title>
<polygon fill="white" stroke="#bfbfbf" points="377,-56.5 377,-75.5 433,-75.5 433,-56.5 377,-56.5"/>
<text text-anchor="middle" x="405" y="-63.5" font-family="Helvetica,sans-Serif" font-size="10.00">afxcmn.h</text>
</g>
<!-- Node2&#45;&gt;Node9 -->
<g id="edge8" class="edge"><title>Node2&#45;&gt;Node9</title>
<path fill="none" stroke="midnightblue" d="M311.834,-112.324C329.716,-103.625 357.475,-90.1202 378.046,-80.113"/>
<polygon fill="midnightblue" stroke="midnightblue" points="379.749,-83.1765 387.21,-75.6545 376.687,-76.8819 379.749,-83.1765"/>
</g>
<!-- Node10 -->
<g id="node10" class="node"><title>Node10</title>
<polygon fill="white" stroke="#bfbfbf" points="451,-56.5 451,-75.5 537,-75.5 537,-56.5 451,-56.5"/>
<text text-anchor="middle" x="494" y="-63.5" font-family="Helvetica,sans-Serif" font-size="10.00">afxcontrolbars.h</text>
</g>
<!-- Node2&#45;&gt;Node10 -->
<g id="edge9" class="edge"><title>Node2&#45;&gt;Node10</title>
<path fill="none" stroke="midnightblue" d="M319.737,-114.051C353.389,-104.965 412.745,-88.9389 452.718,-78.1462"/>
<polygon fill="midnightblue" stroke="midnightblue" points="453.693,-81.5082 462.435,-75.5225 451.869,-74.7502 453.693,-81.5082"/>
</g>
<!-- Node11 -->
<g id="node11" class="node"><title>Node11</title>
<polygon fill="white" stroke="#bfbfbf" points="555.5,-56.5 555.5,-75.5 614.5,-75.5 614.5,-56.5 555.5,-56.5"/>
<text text-anchor="middle" x="585" y="-63.5" font-family="Helvetica,sans-Serif" font-size="10.00">afxsock.h</text>
</g>
<!-- Node2&#45;&gt;Node11 -->
<g id="edge10" class="edge"><title>Node2&#45;&gt;Node11</title>
<path fill="none" stroke="midnightblue" d="M319.557,-113.956C322.396,-113.257 325.254,-112.589 328,-112 420.924,-92.0757 447.938,-94.8409 545.269,-76.0265"/>
<polygon fill="midnightblue" stroke="midnightblue" points="546.091,-79.432 555.231,-74.0735 544.745,-72.5627 546.091,-79.432"/>
</g>
<!-- Node4 -->
<g id="node4" class="node"><title>Node4</title>
<polygon fill="white" stroke="#bfbfbf" points="0,-0.5 0,-19.5 80,-19.5 80,-0.5 0,-0.5"/>
<text text-anchor="middle" x="40" y="-7.5" font-family="Helvetica,sans-Serif" font-size="10.00">SDKDDKVer.h</text>
</g>
<!-- Node3&#45;&gt;Node4 -->
<g id="edge3" class="edge"><title>Node3&#45;&gt;Node4</title>
<path fill="none" stroke="midnightblue" d="M40,-56.083C40,-49.0059 40,-38.8611 40,-29.9865"/>
<polygon fill="midnightblue" stroke="midnightblue" points="43.5001,-29.751 40,-19.7511 36.5001,-29.7511 43.5001,-29.751"/>
</g>
<!-- Node12&#45;&gt;Node2 -->
<g id="edge12" class="edge"><title>Node12&#45;&gt;Node2</title>
<path fill="none" stroke="midnightblue" d="M324.361,-336.391C322.664,-327.347 319.989,-312.7 318,-300 309.026,-242.699 300.354,-174.649 296.333,-142.142"/>
<polygon fill="midnightblue" stroke="midnightblue" points="299.763,-141.358 295.07,-131.859 292.815,-142.211 299.763,-141.358"/>
</g>
<!-- Node13 -->
<g id="node13" class="node"><title>Node13</title>
<g id="a_node13"><a xlink:href="_main_frm_8h.html" target="_top" xlink:title="MainFrm.h">
<polygon fill="white" stroke="black" points="327.5,-280.5 327.5,-299.5 390.5,-299.5 390.5,-280.5 327.5,-280.5"/>
<text text-anchor="middle" x="359" y="-287.5" font-family="Helvetica,sans-Serif" font-size="10.00">MainFrm.h</text>
</a>
</g>
</g>
<!-- Node12&#45;&gt;Node13 -->
<g id="edge13" class="edge"><title>Node12&#45;&gt;Node13</title>
<path fill="none" stroke="midnightblue" d="M331.449,-336.083C336.014,-328.613 342.668,-317.724 348.293,-308.52"/>
<polygon fill="midnightblue" stroke="midnightblue" points="351.424,-310.109 353.652,-299.751 345.451,-306.459 351.424,-310.109"/>
</g>
<!-- Node14 -->
<g id="node14" class="node"><title>Node14</title>
<g id="a_node14"><a xlink:href="_cmd_view_8h.html" target="_top" xlink:title="CmdView.h">
<polygon fill="white" stroke="black" points="326,-224.5 326,-243.5 392,-243.5 392,-224.5 326,-224.5"/>
<text text-anchor="middle" x="359" y="-231.5" font-family="Helvetica,sans-Serif" font-size="10.00">CmdView.h</text>
</a>
</g>
</g>
<!-- Node13&#45;&gt;Node14 -->
<g id="edge14" class="edge"><title>Node13&#45;&gt;Node14</title>
<path fill="none" stroke="midnightblue" d="M359,-280.083C359,-273.006 359,-262.861 359,-253.986"/>
<polygon fill="midnightblue" stroke="midnightblue" points="362.5,-253.751 359,-243.751 355.5,-253.751 362.5,-253.751"/>
</g>
<!-- Node18 -->
<g id="node18" class="node"><title>Node18</title>
<g id="a_node18"><a xlink:href="_log_view_8h.html" target="_top" xlink:title="LogView.h">
<polygon fill="white" stroke="black" points="410,-224.5 410,-243.5 472,-243.5 472,-224.5 410,-224.5"/>
<text text-anchor="middle" x="441" y="-231.5" font-family="Helvetica,sans-Serif" font-size="10.00">LogView.h</text>
</a>
</g>
</g>
<!-- Node13&#45;&gt;Node18 -->
<g id="edge19" class="edge"><title>Node13&#45;&gt;Node18</title>
<path fill="none" stroke="midnightblue" d="M372.175,-280.324C384.847,-271.979 404.233,-259.212 419.206,-249.352"/>
<polygon fill="midnightblue" stroke="midnightblue" points="421.431,-252.078 427.858,-243.655 417.581,-246.231 421.431,-252.078"/>
</g>
<!-- Node19 -->
<g id="node19" class="node"><title>Node19</title>
<g id="a_node19"><a xlink:href="_respond_view_8h.html" target="_top" xlink:title="RespondView 视图 ">
<polygon fill="white" stroke="black" points="490,-224.5 490,-243.5 574,-243.5 574,-224.5 490,-224.5"/>
<text text-anchor="middle" x="532" y="-231.5" font-family="Helvetica,sans-Serif" font-size="10.00">RespondView.h</text>
</a>
</g>
</g>
<!-- Node13&#45;&gt;Node19 -->
<g id="edge20" class="edge"><title>Node13&#45;&gt;Node19</title>
<path fill="none" stroke="midnightblue" d="M386.412,-280.444C415.769,-271.28 462.519,-256.688 495.096,-246.519"/>
<polygon fill="midnightblue" stroke="midnightblue" points="496.213,-249.837 504.716,-243.516 494.127,-243.155 496.213,-249.837"/>
</g>
<!-- Node15 -->
<g id="node15" class="node"><title>Node15</title>
<g id="a_node15"><a xlink:href="_user_cmd_8h.html" target="_top" xlink:title="UserCmd.h">
<polygon fill="white" stroke="black" points="326.5,-168.5 326.5,-187.5 391.5,-187.5 391.5,-168.5 326.5,-168.5"/>
<text text-anchor="middle" x="359" y="-175.5" font-family="Helvetica,sans-Serif" font-size="10.00">UserCmd.h</text>
</a>
</g>
</g>
<!-- Node14&#45;&gt;Node15 -->
<g id="edge15" class="edge"><title>Node14&#45;&gt;Node15</title>
<path fill="none" stroke="midnightblue" d="M359,-224.083C359,-217.006 359,-206.861 359,-197.986"/>
<polygon fill="midnightblue" stroke="midnightblue" points="362.5,-197.751 359,-187.751 355.5,-197.751 362.5,-197.751"/>
</g>
<!-- Node17 -->
<g id="node17" class="node"><title>Node17</title>
<polygon fill="white" stroke="#bfbfbf" points="409.5,-168.5 409.5,-187.5 444.5,-187.5 444.5,-168.5 409.5,-168.5"/>
<text text-anchor="middle" x="427" y="-175.5" font-family="Helvetica,sans-Serif" font-size="10.00">map</text>
</g>
<!-- Node14&#45;&gt;Node17 -->
<g id="edge18" class="edge"><title>Node14&#45;&gt;Node17</title>
<path fill="none" stroke="midnightblue" d="M369.925,-224.324C380.175,-216.185 395.721,-203.839 408.001,-194.087"/>
<polygon fill="midnightblue" stroke="midnightblue" points="410.221,-196.794 415.876,-187.834 405.868,-191.312 410.221,-196.794"/>
</g>
<!-- Node15&#45;&gt;Node2 -->
<g id="edge16" class="edge"><title>Node15&#45;&gt;Node2</title>
<path fill="none" stroke="midnightblue" d="M348.557,-168.324C338.854,-160.263 324.185,-148.077 312.5,-138.369"/>
<polygon fill="midnightblue" stroke="midnightblue" points="314.562,-135.532 304.633,-131.834 310.089,-140.916 314.562,-135.532"/>
</g>
<!-- Node16 -->
<g id="node16" class="node"><title>Node16</title>
<g id="a_node16"><a xlink:href="_net_dll_8h.html" target="_top" xlink:title="NetDll.h">
<polygon fill="white" stroke="black" points="337.5,-112.5 337.5,-131.5 388.5,-131.5 388.5,-112.5 337.5,-112.5"/>
<text text-anchor="middle" x="363" y="-119.5" font-family="Helvetica,sans-Serif" font-size="10.00">NetDll.h</text>
</a>
</g>
</g>
<!-- Node15&#45;&gt;Node16 -->
<g id="edge17" class="edge"><title>Node15&#45;&gt;Node16</title>
<path fill="none" stroke="midnightblue" d="M359.661,-168.083C360.185,-161.006 360.936,-150.861 361.594,-141.986"/>
<polygon fill="midnightblue" stroke="midnightblue" points="365.103,-141.982 362.352,-131.751 358.123,-141.465 365.103,-141.982"/>
</g>
<!-- Node21 -->
<g id="node21" class="node"><title>Node21</title>
<g id="a_node21"><a xlink:href="_resource_8h.html" target="_top" xlink:title="resource.h">
<polygon fill="white" stroke="black" points="409,-280.5 409,-299.5 471,-299.5 471,-280.5 409,-280.5"/>
<text text-anchor="middle" x="440" y="-287.5" font-family="Helvetica,sans-Serif" font-size="10.00">resource.h</text>
</a>
</g>
</g>
<!-- Node20&#45;&gt;Node21 -->
<g id="edge22" class="edge"><title>Node20&#45;&gt;Node21</title>
<path fill="none" stroke="midnightblue" d="M428.312,-336.083C430.167,-328.927 432.835,-318.635 435.154,-309.691"/>
<polygon fill="midnightblue" stroke="midnightblue" points="438.609,-310.309 437.731,-299.751 431.834,-308.553 438.609,-310.309"/>
</g>
</g>
</svg>
