<?xml version="1.0" encoding="UTF-8" standalone="no"?>
<!DOCTYPE svg PUBLIC "-//W3C//DTD SVG 1.1//EN"
 "http://www.w3.org/Graphics/SVG/1.1/DTD/svg11.dtd">
<!-- Generated by graphviz version 2.38.0 (20140413.2041)
 -->
<!-- Title: TakeOverCmd Pages: 1 -->
<svg width="683pt" height="103pt"
 viewBox="0.00 0.00 683.00 102.66" xmlns="http://www.w3.org/2000/svg" xmlns:xlink="http://www.w3.org/1999/xlink">
<g id="graph0" class="graph" transform="scale(1 1) rotate(0) translate(4 98.6643)">
<title>TakeOverCmd</title>
<polygon fill="white" stroke="none" points="-4,4 -4,-98.6643 679,-98.6643 679,4 -4,4"/>
<!-- Node1 -->
<g id="node1" class="node"><title>Node1</title>
<polygon fill="#bfbfbf" stroke="black" points="0,-20.6643 0,-39.6643 77,-39.6643 77,-20.6643 0,-20.6643"/>
<text text-anchor="middle" x="38.5" y="-27.6643" font-family="Helvetica,sans-Serif" font-size="10.00">TakeOverCmd</text>
</g>
<!-- Node2 -->
<g id="node2" class="node"><title>Node2</title>
<g id="a_node2"><a xlink:href="class_net_work_1_1_chat_work.html#ac019f44ad1ecc33ce3eb2c42b6b537d9" target="_top" xlink:title="NetWork::ChatWork::\lBegin">
<polygon fill="white" stroke="black" points="118,-64.1643 118,-94.1643 228,-94.1643 228,-64.1643 118,-64.1643"/>
<text text-anchor="start" x="126" y="-82.1643" font-family="Helvetica,sans-Serif" font-size="10.00">NetWork::ChatWork::</text>
<text text-anchor="middle" x="173" y="-71.1643" font-family="Helvetica,sans-Serif" font-size="10.00">Begin</text>
</a>
</g>
</g>
<!-- Node1&#45;&gt;Node2 -->
<g id="edge1" class="edge"><title>Node1&#45;&gt;Node2</title>
<path fill="none" stroke="midnightblue" d="M75.1059,-43.3318C92.4445,-49.7438 113.375,-57.484 131.339,-64.1273"/>
<polygon fill="midnightblue" stroke="midnightblue" points="75.9551,-39.9142 65.3619,-39.7283 73.5271,-46.4796 75.9551,-39.9142"/>
</g>
<!-- Node6 -->
<g id="node6" class="node"><title>Node6</title>
<g id="a_node6"><a xlink:href="class_net_work_1_1_app_layer_http.html#ad2e8c8742f2c630bd2d43ad843454d7d" target="_top" xlink:title="NetWork::AppLayerHttp\l::Begin">
<polygon fill="white" stroke="black" points="113,-15.1643 113,-45.1643 233,-45.1643 233,-15.1643 113,-15.1643"/>
<text text-anchor="start" x="121" y="-33.1643" font-family="Helvetica,sans-Serif" font-size="10.00">NetWork::AppLayerHttp</text>
<text text-anchor="middle" x="173" y="-22.1643" font-family="Helvetica,sans-Serif" font-size="10.00">::Begin</text>
</a>
</g>
</g>
<!-- Node1&#45;&gt;Node6 -->
<g id="edge5" class="edge"><title>Node1&#45;&gt;Node6</title>
<path fill="none" stroke="midnightblue" d="M87.3751,-30.1643C95.687,-30.1643 104.418,-30.1643 112.985,-30.1643"/>
<polygon fill="midnightblue" stroke="midnightblue" points="87.1148,-26.6644 77.1148,-30.1643 87.1147,-33.6644 87.1148,-26.6644"/>
</g>
<!-- Node7 -->
<g id="node7" class="node"><title>Node7</title>
<g id="a_node7"><a xlink:href="class_user_cmd.html#abdb2a891ebfa05f462586a00b13cbcfc" target="_top" xlink:title="UserCmd::Connect">
<polygon fill="white" stroke="black" points="269,-3.66429 269,-22.6643 368,-22.6643 368,-3.66429 269,-3.66429"/>
<text text-anchor="middle" x="318.5" y="-10.6643" font-family="Helvetica,sans-Serif" font-size="10.00">UserCmd::Connect</text>
</a>
</g>
</g>
<!-- Node1&#45;&gt;Node7 -->
<g id="edge6" class="edge"><title>Node1&#45;&gt;Node7</title>
<path fill="none" stroke="midnightblue" d="M71.2094,-16.8396C83.9557,-12.1594 98.9398,-7.49005 113,-5.16429 165.757,3.56244 227.161,-0.736478 268.812,-5.76182"/>
<polygon fill="midnightblue" stroke="midnightblue" points="69.6121,-13.7034 61.5273,-20.5508 72.1176,-20.2397 69.6121,-13.7034"/>
</g>
<!-- Node3 -->
<g id="node3" class="node"><title>Node3</title>
<g id="a_node3"><a xlink:href="class_user_cmd.html#a8b9f5a09bef002aaefe10c43ae9ccea1" target="_top" xlink:title="UserCmd::Chat">
<polygon fill="white" stroke="black" points="277,-55.6643 277,-74.6643 360,-74.6643 360,-55.6643 277,-55.6643"/>
<text text-anchor="middle" x="318.5" y="-62.6643" font-family="Helvetica,sans-Serif" font-size="10.00">UserCmd::Chat</text>
</a>
</g>
</g>
<!-- Node2&#45;&gt;Node3 -->
<g id="edge2" class="edge"><title>Node2&#45;&gt;Node3</title>
<path fill="none" stroke="midnightblue" d="M238.53,-72.8687C251.472,-71.6061 264.73,-70.3126 276.598,-69.1548"/>
<polygon fill="midnightblue" stroke="midnightblue" points="237.864,-69.4169 228.251,-73.8715 238.544,-76.3839 237.864,-69.4169"/>
</g>
<!-- Node4 -->
<g id="node4" class="node"><title>Node4</title>
<g id="a_node4"><a xlink:href="class_cmd_view.html#a70cf028b2bc48ea3e0e6be3319911c85" target="_top" xlink:title="创建消息处理线程,注册消息映射 ">
<polygon fill="white" stroke="black" points="404,-29.6643 404,-48.6643 509,-48.6643 509,-29.6643 404,-29.6643"/>
<text text-anchor="middle" x="456.5" y="-36.6643" font-family="Helvetica,sans-Serif" font-size="10.00">CmdView::Initialcmd</text>
</a>
</g>
</g>
<!-- Node3&#45;&gt;Node4 -->
<g id="edge3" class="edge"><title>Node3&#45;&gt;Node4</title>
<path fill="none" stroke="midnightblue" d="M370.24,-55.464C381.796,-53.2548 394.064,-50.9093 405.586,-48.7067"/>
<polygon fill="midnightblue" stroke="midnightblue" points="369.469,-52.0479 360.304,-57.3634 370.784,-58.9233 369.469,-52.0479"/>
</g>
<!-- Node5 -->
<g id="node5" class="node"><title>Node5</title>
<g id="a_node5"><a xlink:href="class_cmd_view.html#a37a513e8262ea52c1859f8be73dac1b7" target="_top" xlink:title="函数在视图附加到文档后触发,主要完成界面的初始化工作 ">
<polygon fill="white" stroke="black" points="545,-29.6643 545,-48.6643 675,-48.6643 675,-29.6643 545,-29.6643"/>
<text text-anchor="middle" x="610" y="-36.6643" font-family="Helvetica,sans-Serif" font-size="10.00">CmdView::OnInitialUpdate</text>
</a>
</g>
</g>
<!-- Node4&#45;&gt;Node5 -->
<g id="edge4" class="edge"><title>Node4&#45;&gt;Node5</title>
<path fill="none" stroke="midnightblue" d="M519.352,-39.1643C527.784,-39.1643 536.453,-39.1643 544.924,-39.1643"/>
<polygon fill="midnightblue" stroke="midnightblue" points="519.214,-35.6644 509.214,-39.1643 519.214,-42.6644 519.214,-35.6644"/>
</g>
<!-- Node7&#45;&gt;Node4 -->
<g id="edge7" class="edge"><title>Node7&#45;&gt;Node4</title>
<path fill="none" stroke="midnightblue" d="M378.091,-24.3655C387.308,-26.1275 396.759,-27.9345 405.751,-29.6535"/>
<polygon fill="midnightblue" stroke="midnightblue" points="378.694,-20.9175 368.215,-22.4774 377.38,-27.793 378.694,-20.9175"/>
</g>
</g>
</svg>
