<?xml version="1.0" encoding="UTF-8" standalone="no"?>
<!DOCTYPE svg PUBLIC "-//W3C//DTD SVG 1.1//EN"
 "http://www.w3.org/Graphics/SVG/1.1/DTD/svg11.dtd">
<!-- Generated by graphviz version 2.38.0 (20140413.2041)
 -->
<!-- Title: PrintRp Pages: 1 -->
<svg width="648pt" height="116pt"
 viewBox="0.00 0.00 648.00 115.50" xmlns="http://www.w3.org/2000/svg" xmlns:xlink="http://www.w3.org/1999/xlink">
<g id="graph0" class="graph" transform="scale(1 1) rotate(0) translate(4 111.5)">
<title>PrintRp</title>
<polygon fill="white" stroke="none" points="-4,4 -4,-111.5 644,-111.5 644,4 -4,4"/>
<!-- Node1 -->
<g id="node1" class="node"><title>Node1</title>
<polygon fill="#bfbfbf" stroke="black" points="0,-38.5 0,-57.5 49,-57.5 49,-38.5 0,-38.5"/>
<text text-anchor="middle" x="24.5" y="-45.5" font-family="Helvetica,sans-Serif" font-size="10.00">PrintRp</text>
</g>
<!-- Node2 -->
<g id="node2" class="node"><title>Node2</title>
<g id="a_node2"><a xlink:href="class_net_work_1_1_chat_work.html#ac019f44ad1ecc33ce3eb2c42b6b537d9" target="_top" xlink:title="NetWork::ChatWork::\lBegin">
<polygon fill="white" stroke="black" points="85,-77 85,-107 195,-107 195,-77 85,-77"/>
<text text-anchor="start" x="93" y="-95" font-family="Helvetica,sans-Serif" font-size="10.00">NetWork::ChatWork::</text>
<text text-anchor="middle" x="140" y="-84" font-family="Helvetica,sans-Serif" font-size="10.00">Begin</text>
</a>
</g>
</g>
<!-- Node1&#45;&gt;Node2 -->
<g id="edge1" class="edge"><title>Node1&#45;&gt;Node2</title>
<path fill="none" stroke="midnightblue" d="M58.4683,-60.7807C71.417,-65.8004 86.3823,-71.602 99.8727,-76.8317"/>
<polygon fill="midnightblue" stroke="midnightblue" points="59.6063,-57.4681 49.0173,-57.1168 57.0761,-63.9948 59.6063,-57.4681"/>
</g>
<!-- Node6 -->
<g id="node6" class="node"><title>Node6</title>
<g id="a_node6"><a xlink:href="class_user_cmd.html#a7e760ac67d39d2b210b7d2b4f8e8ad5b" target="_top" xlink:title="UserCmd::Compute">
<polygon fill="white" stroke="black" points="231,-38.5 231,-57.5 333,-57.5 333,-38.5 231,-38.5"/>
<text text-anchor="middle" x="282" y="-45.5" font-family="Helvetica,sans-Serif" font-size="10.00">UserCmd::Compute</text>
</a>
</g>
</g>
<!-- Node1&#45;&gt;Node6 -->
<g id="edge5" class="edge"><title>Node1&#45;&gt;Node6</title>
<path fill="none" stroke="midnightblue" d="M59.2224,-48C103.099,-48 180.131,-48 230.864,-48"/>
<polygon fill="midnightblue" stroke="midnightblue" points="59.0789,-44.5001 49.0789,-48 59.0788,-51.5001 59.0789,-44.5001"/>
</g>
<!-- Node7 -->
<g id="node7" class="node"><title>Node7</title>
<g id="a_node7"><a xlink:href="class_user_cmd.html#abdb2a891ebfa05f462586a00b13cbcfc" target="_top" xlink:title="UserCmd::Connect">
<polygon fill="white" stroke="black" points="90.5,-0.5 90.5,-19.5 189.5,-19.5 189.5,-0.5 90.5,-0.5"/>
<text text-anchor="middle" x="140" y="-7.5" font-family="Helvetica,sans-Serif" font-size="10.00">UserCmd::Connect</text>
</a>
</g>
</g>
<!-- Node1&#45;&gt;Node7 -->
<g id="edge7" class="edge"><title>Node1&#45;&gt;Node7</title>
<path fill="none" stroke="midnightblue" d="M58.7247,-36.8763C75.0725,-31.403 94.5851,-24.8702 110.279,-19.6159"/>
<polygon fill="midnightblue" stroke="midnightblue" points="57.3887,-33.6326 49.0173,-40.1264 59.6111,-40.2704 57.3887,-33.6326"/>
</g>
<!-- Node3 -->
<g id="node3" class="node"><title>Node3</title>
<g id="a_node3"><a xlink:href="class_user_cmd.html#a8b9f5a09bef002aaefe10c43ae9ccea1" target="_top" xlink:title="UserCmd::Chat">
<polygon fill="white" stroke="black" points="240.5,-79.5 240.5,-98.5 323.5,-98.5 323.5,-79.5 240.5,-79.5"/>
<text text-anchor="middle" x="282" y="-86.5" font-family="Helvetica,sans-Serif" font-size="10.00">UserCmd::Chat</text>
</a>
</g>
</g>
<!-- Node2&#45;&gt;Node3 -->
<g id="edge2" class="edge"><title>Node2&#45;&gt;Node3</title>
<path fill="none" stroke="midnightblue" d="M205.142,-90.6255C217.167,-90.3679 229.424,-90.1052 240.48,-89.8683"/>
<polygon fill="midnightblue" stroke="midnightblue" points="205.05,-87.1266 195.128,-90.8401 205.2,-94.125 205.05,-87.1266"/>
</g>
<!-- Node4 -->
<g id="node4" class="node"><title>Node4</title>
<g id="a_node4"><a xlink:href="class_cmd_view.html#a70cf028b2bc48ea3e0e6be3319911c85" target="_top" xlink:title="创建消息处理线程,注册消息映射 ">
<polygon fill="white" stroke="black" points="369,-38.5 369,-57.5 474,-57.5 474,-38.5 369,-38.5"/>
<text text-anchor="middle" x="421.5" y="-45.5" font-family="Helvetica,sans-Serif" font-size="10.00">CmdView::Initialcmd</text>
</a>
</g>
</g>
<!-- Node3&#45;&gt;Node4 -->
<g id="edge3" class="edge"><title>Node3&#45;&gt;Node4</title>
<path fill="none" stroke="midnightblue" d="M324.582,-76.6011C345.029,-70.5042 369.296,-63.2681 388.306,-57.5997"/>
<polygon fill="midnightblue" stroke="midnightblue" points="323.474,-73.2791 314.891,-79.4907 325.474,-79.9872 323.474,-73.2791"/>
</g>
<!-- Node5 -->
<g id="node5" class="node"><title>Node5</title>
<g id="a_node5"><a xlink:href="class_cmd_view.html#a37a513e8262ea52c1859f8be73dac1b7" target="_top" xlink:title="函数在视图附加到文档后触发,主要完成界面的初始化工作 ">
<polygon fill="white" stroke="black" points="510,-38.5 510,-57.5 640,-57.5 640,-38.5 510,-38.5"/>
<text text-anchor="middle" x="575" y="-45.5" font-family="Helvetica,sans-Serif" font-size="10.00">CmdView::OnInitialUpdate</text>
</a>
</g>
</g>
<!-- Node4&#45;&gt;Node5 -->
<g id="edge4" class="edge"><title>Node4&#45;&gt;Node5</title>
<path fill="none" stroke="midnightblue" d="M484.352,-48C492.784,-48 501.453,-48 509.924,-48"/>
<polygon fill="midnightblue" stroke="midnightblue" points="484.214,-44.5001 474.214,-48 484.214,-51.5001 484.214,-44.5001"/>
</g>
<!-- Node6&#45;&gt;Node4 -->
<g id="edge6" class="edge"><title>Node6&#45;&gt;Node4</title>
<path fill="none" stroke="midnightblue" d="M343.31,-48C351.84,-48 360.545,-48 368.891,-48"/>
<polygon fill="midnightblue" stroke="midnightblue" points="343.03,-44.5001 333.03,-48 343.03,-51.5001 343.03,-44.5001"/>
</g>
<!-- Node7&#45;&gt;Node4 -->
<g id="edge8" class="edge"><title>Node7&#45;&gt;Node4</title>
<path fill="none" stroke="midnightblue" d="M200.122,-14.0803C238.202,-17.1443 288.692,-22.0208 333,-29 348.816,-31.4913 366.07,-35.0536 381.044,-38.4218"/>
<polygon fill="midnightblue" stroke="midnightblue" points="199.97,-10.5576 189.726,-13.2639 199.422,-17.5362 199.97,-10.5576"/>
</g>
</g>
</svg>
