<?xml version="1.0" encoding="UTF-8" standalone="no"?>
<!DOCTYPE svg PUBLIC "-//W3C//DTD SVG 1.1//EN"
 "http://www.w3.org/Graphics/SVG/1.1/DTD/svg11.dtd">
<!-- Generated by graphviz version 2.38.0 (20140413.2041)
 -->
<!-- Title: src/UserCmd.cpp Pages: 1 -->
<svg width="724pt" height="420pt"
 viewBox="0.00 0.00 724.32 420.00" xmlns="http://www.w3.org/2000/svg" xmlns:xlink="http://www.w3.org/1999/xlink">
<g id="graph0" class="graph" transform="scale(1 1) rotate(0) translate(4 416)">
<title>src/UserCmd.cpp</title>
<polygon fill="white" stroke="none" points="-4,4 -4,-416 720.321,-416 720.321,4 -4,4"/>
<!-- Node1 -->
<g id="node1" class="node"><title>Node1</title>
<polygon fill="#bfbfbf" stroke="black" points="298,-392.5 298,-411.5 390,-411.5 390,-392.5 298,-392.5"/>
<text text-anchor="middle" x="344" y="-399.5" font-family="Helvetica,sans-Serif" font-size="10.00">src/UserCmd.cpp</text>
</g>
<!-- Node2 -->
<g id="node2" class="node"><title>Node2</title>
<g id="a_node2"><a xlink:href="stdafx_8h.html" target="_top" xlink:title="stdafx.h : 标准系统包含文件的包含文件， &#160;或是经常使用但不常更改的 &#160;特定于项目的包含文件 ...">
<polygon fill="white" stroke="black" points="268.5,-112.5 268.5,-131.5 319.5,-131.5 319.5,-112.5 268.5,-112.5"/>
<text text-anchor="middle" x="294" y="-119.5" font-family="Helvetica,sans-Serif" font-size="10.00">stdafx.h</text>
</a>
</g>
</g>
<!-- Node1&#45;&gt;Node2 -->
<g id="edge1" class="edge"><title>Node1&#45;&gt;Node2</title>
<path fill="none" stroke="midnightblue" d="M324.327,-392.398C282.793,-373.002 186.945,-321.427 150,-244 124.358,-190.262 208.302,-151.688 258.729,-133.94"/>
<polygon fill="midnightblue" stroke="midnightblue" points="259.989,-137.209 268.326,-130.67 257.731,-130.583 259.989,-137.209"/>
</g>
<!-- Node12 -->
<g id="node12" class="node"><title>Node12</title>
<g id="a_node12"><a xlink:href="_user_cmd_8h.html" target="_top" xlink:title="UserCmd.h">
<polygon fill="white" stroke="black" points="60.5,-168.5 60.5,-187.5 125.5,-187.5 125.5,-168.5 60.5,-168.5"/>
<text text-anchor="middle" x="93" y="-175.5" font-family="Helvetica,sans-Serif" font-size="10.00">UserCmd.h</text>
</a>
</g>
</g>
<!-- Node1&#45;&gt;Node12 -->
<g id="edge11" class="edge"><title>Node1&#45;&gt;Node12</title>
<path fill="none" stroke="midnightblue" d="M297.945,-398.066C238.877,-393.297 141.158,-381.677 117,-356 75.9668,-312.387 83.1812,-233.861 89.2033,-197.906"/>
<polygon fill="midnightblue" stroke="midnightblue" points="92.6905,-198.294 91.054,-187.827 85.8056,-197.03 92.6905,-198.294"/>
</g>
<!-- Node13 -->
<g id="node13" class="node"><title>Node13</title>
<g id="a_node13"><a xlink:href="_net_dll_8h.html" target="_top" xlink:title="NetDll.h">
<polygon fill="white" stroke="black" points="32.5,-112.5 32.5,-131.5 83.5,-131.5 83.5,-112.5 32.5,-112.5"/>
<text text-anchor="middle" x="58" y="-119.5" font-family="Helvetica,sans-Serif" font-size="10.00">NetDll.h</text>
</a>
</g>
</g>
<!-- Node1&#45;&gt;Node13 -->
<g id="edge27" class="edge"><title>Node1&#45;&gt;Node13</title>
<path fill="none" stroke="midnightblue" d="M297.878,-400.272C246.857,-397.752 163.475,-388.452 100,-356 62.7744,-336.968 32,-332.808 32,-291 32,-291 32,-291 32,-233 32,-199.929 43.2677,-162.729 50.9678,-141.168"/>
<polygon fill="midnightblue" stroke="midnightblue" points="54.293,-142.268 54.4935,-131.675 47.7309,-139.831 54.293,-142.268"/>
</g>
<!-- Node14 -->
<g id="node14" class="node"><title>Node14</title>
<g id="a_node14"><a xlink:href="_tools_8h.html" target="_top" xlink:title="Tools.h">
<polygon fill="white" stroke="black" points="515,-280.5 515,-299.5 563,-299.5 563,-280.5 515,-280.5"/>
<text text-anchor="middle" x="539" y="-287.5" font-family="Helvetica,sans-Serif" font-size="10.00">Tools.h</text>
</a>
</g>
</g>
<!-- Node1&#45;&gt;Node14 -->
<g id="edge14" class="edge"><title>Node1&#45;&gt;Node14</title>
<path fill="none" stroke="midnightblue" d="M359.301,-392.368C393.119,-373.292 474.433,-327.422 515.059,-304.505"/>
<polygon fill="midnightblue" stroke="midnightblue" points="516.78,-307.553 523.77,-299.591 513.34,-301.456 516.78,-307.553"/>
</g>
<!-- Node19 -->
<g id="node19" class="node"><title>Node19</title>
<g id="a_node19"><a xlink:href="_u_i_ctrl_8h.html" target="_top" xlink:title="UICtrl. ">
<polygon fill="white" stroke="black" points="319.5,-336.5 319.5,-355.5 368.5,-355.5 368.5,-336.5 319.5,-336.5"/>
<text text-anchor="middle" x="344" y="-343.5" font-family="Helvetica,sans-Serif" font-size="10.00">UICtrl.h</text>
</a>
</g>
</g>
<!-- Node1&#45;&gt;Node19 -->
<g id="edge19" class="edge"><title>Node1&#45;&gt;Node19</title>
<path fill="none" stroke="midnightblue" d="M344,-392.083C344,-385.006 344,-374.861 344,-365.986"/>
<polygon fill="midnightblue" stroke="midnightblue" points="347.5,-365.751 344,-355.751 340.5,-365.751 347.5,-365.751"/>
</g>
<!-- Node24 -->
<g id="node24" class="node"><title>Node24</title>
<g id="a_node24"><a xlink:href="_net_html_8h.html" target="_top" xlink:title="NetHtml.h">
<polygon fill="white" stroke="black" points="510,-336.5 510,-355.5 570,-355.5 570,-336.5 510,-336.5"/>
<text text-anchor="middle" x="540" y="-343.5" font-family="Helvetica,sans-Serif" font-size="10.00">NetHtml.h</text>
</a>
</g>
</g>
<!-- Node1&#45;&gt;Node24 -->
<g id="edge28" class="edge"><title>Node1&#45;&gt;Node24</title>
<path fill="none" stroke="midnightblue" d="M375.057,-392.444C408.801,-383.147 462.828,-368.262 499.791,-358.078"/>
<polygon fill="midnightblue" stroke="midnightblue" points="501.021,-361.369 509.733,-355.339 499.162,-354.621 501.021,-361.369"/>
</g>
<!-- Node25 -->
<g id="node25" class="node"><title>Node25</title>
<g id="a_node25"><a xlink:href="_net_work_8h.html" target="_top" xlink:title="TCP UDP方法集 ">
<polygon fill="white" stroke="black" points="622.5,-336.5 622.5,-355.5 685.5,-355.5 685.5,-336.5 622.5,-336.5"/>
<text text-anchor="middle" x="654" y="-343.5" font-family="Helvetica,sans-Serif" font-size="10.00">NetWork.h</text>
</a>
</g>
</g>
<!-- Node1&#45;&gt;Node25 -->
<g id="edge30" class="edge"><title>Node1&#45;&gt;Node25</title>
<path fill="none" stroke="midnightblue" d="M390.075,-392.974C450.22,-382.497 554.607,-364.314 612.437,-354.24"/>
<polygon fill="midnightblue" stroke="midnightblue" points="613.079,-357.681 622.33,-352.517 611.878,-350.785 613.079,-357.681"/>
</g>
<!-- Node3 -->
<g id="node3" class="node"><title>Node3</title>
<g id="a_node3"><a xlink:href="targetver_8h.html" target="_top" xlink:title="包括 SDKDDKVer.h 将定义最高版本的可用 Windows 平台。 如果要为以前的 Windows 平台生成应用程序，请包括 ...">
<polygon fill="white" stroke="black" points="9,-56.5 9,-75.5 71,-75.5 71,-56.5 9,-56.5"/>
<text text-anchor="middle" x="40" y="-63.5" font-family="Helvetica,sans-Serif" font-size="10.00">targetver.h</text>
</a>
</g>
</g>
<!-- Node2&#45;&gt;Node3 -->
<g id="edge2" class="edge"><title>Node2&#45;&gt;Node3</title>
<path fill="none" stroke="midnightblue" d="M268.281,-115.714C229.799,-107.777 154.704,-92.1894 81.3062,-76.263"/>
<polygon fill="midnightblue" stroke="midnightblue" points="81.949,-72.821 71.4336,-74.1164 80.4617,-79.6612 81.949,-72.821"/>
</g>
<!-- Node5 -->
<g id="node5" class="node"><title>Node5</title>
<polygon fill="white" stroke="#bfbfbf" points="89,-56.5 89,-75.5 141,-75.5 141,-56.5 89,-56.5"/>
<text text-anchor="middle" x="115" y="-63.5" font-family="Helvetica,sans-Serif" font-size="10.00">afxwin.h</text>
</g>
<!-- Node2&#45;&gt;Node5 -->
<g id="edge4" class="edge"><title>Node2&#45;&gt;Node5</title>
<path fill="none" stroke="midnightblue" d="M268.354,-113.263C237.559,-103.973 185.72,-88.3345 150.944,-77.8434"/>
<polygon fill="midnightblue" stroke="midnightblue" points="151.766,-74.4356 141.181,-74.8981 149.744,-81.1372 151.766,-74.4356"/>
</g>
<!-- Node6 -->
<g id="node6" class="node"><title>Node6</title>
<polygon fill="white" stroke="#bfbfbf" points="159.5,-56.5 159.5,-75.5 210.5,-75.5 210.5,-56.5 159.5,-56.5"/>
<text text-anchor="middle" x="185" y="-63.5" font-family="Helvetica,sans-Serif" font-size="10.00">afxext.h</text>
</g>
<!-- Node2&#45;&gt;Node6 -->
<g id="edge5" class="edge"><title>Node2&#45;&gt;Node6</title>
<path fill="none" stroke="midnightblue" d="M276.487,-112.324C258.928,-103.625 231.669,-90.1202 211.469,-80.113"/>
<polygon fill="midnightblue" stroke="midnightblue" points="212.984,-76.9575 202.469,-75.6545 209.876,-83.23 212.984,-76.9575"/>
</g>
<!-- Node7 -->
<g id="node7" class="node"><title>Node7</title>
<polygon fill="white" stroke="#bfbfbf" points="229,-56.5 229,-75.5 285,-75.5 285,-56.5 229,-56.5"/>
<text text-anchor="middle" x="257" y="-63.5" font-family="Helvetica,sans-Serif" font-size="10.00">afxdisp.h</text>
</g>
<!-- Node2&#45;&gt;Node7 -->
<g id="edge6" class="edge"><title>Node2&#45;&gt;Node7</title>
<path fill="none" stroke="midnightblue" d="M287.89,-112.083C282.718,-104.534 275.154,-93.4948 268.806,-84.2298"/>
<polygon fill="midnightblue" stroke="midnightblue" points="271.536,-82.0221 262.996,-75.7511 265.761,-85.9787 271.536,-82.0221"/>
</g>
<!-- Node8 -->
<g id="node8" class="node"><title>Node8</title>
<polygon fill="white" stroke="#bfbfbf" points="303,-56.5 303,-75.5 359,-75.5 359,-56.5 303,-56.5"/>
<text text-anchor="middle" x="331" y="-63.5" font-family="Helvetica,sans-Serif" font-size="10.00">afxdtctl.h</text>
</g>
<!-- Node2&#45;&gt;Node8 -->
<g id="edge7" class="edge"><title>Node2&#45;&gt;Node8</title>
<path fill="none" stroke="midnightblue" d="M300.11,-112.083C305.282,-104.534 312.846,-93.4948 319.194,-84.2298"/>
<polygon fill="midnightblue" stroke="midnightblue" points="322.239,-85.9787 325.004,-75.7511 316.464,-82.0221 322.239,-85.9787"/>
</g>
<!-- Node9 -->
<g id="node9" class="node"><title>Node9</title>
<polygon fill="white" stroke="#bfbfbf" points="377,-56.5 377,-75.5 433,-75.5 433,-56.5 377,-56.5"/>
<text text-anchor="middle" x="405" y="-63.5" font-family="Helvetica,sans-Serif" font-size="10.00">afxcmn.h</text>
</g>
<!-- Node2&#45;&gt;Node9 -->
<g id="edge8" class="edge"><title>Node2&#45;&gt;Node9</title>
<path fill="none" stroke="midnightblue" d="M311.834,-112.324C329.716,-103.625 357.475,-90.1202 378.046,-80.113"/>
<polygon fill="midnightblue" stroke="midnightblue" points="379.749,-83.1765 387.21,-75.6545 376.687,-76.8819 379.749,-83.1765"/>
</g>
<!-- Node10 -->
<g id="node10" class="node"><title>Node10</title>
<polygon fill="white" stroke="#bfbfbf" points="451,-56.5 451,-75.5 537,-75.5 537,-56.5 451,-56.5"/>
<text text-anchor="middle" x="494" y="-63.5" font-family="Helvetica,sans-Serif" font-size="10.00">afxcontrolbars.h</text>
</g>
<!-- Node2&#45;&gt;Node10 -->
<g id="edge9" class="edge"><title>Node2&#45;&gt;Node10</title>
<path fill="none" stroke="midnightblue" d="M319.737,-114.051C353.389,-104.965 412.745,-88.9389 452.718,-78.1462"/>
<polygon fill="midnightblue" stroke="midnightblue" points="453.693,-81.5082 462.435,-75.5225 451.869,-74.7502 453.693,-81.5082"/>
</g>
<!-- Node11 -->
<g id="node11" class="node"><title>Node11</title>
<polygon fill="white" stroke="#bfbfbf" points="555.5,-56.5 555.5,-75.5 614.5,-75.5 614.5,-56.5 555.5,-56.5"/>
<text text-anchor="middle" x="585" y="-63.5" font-family="Helvetica,sans-Serif" font-size="10.00">afxsock.h</text>
</g>
<!-- Node2&#45;&gt;Node11 -->
<g id="edge10" class="edge"><title>Node2&#45;&gt;Node11</title>
<path fill="none" stroke="midnightblue" d="M319.838,-116.825C363.918,-109.609 456.685,-94.0127 545.28,-76.0617"/>
<polygon fill="midnightblue" stroke="midnightblue" points="546.124,-79.4616 555.223,-74.0333 544.725,-72.6028 546.124,-79.4616"/>
</g>
<!-- Node4 -->
<g id="node4" class="node"><title>Node4</title>
<polygon fill="white" stroke="#bfbfbf" points="0,-0.5 0,-19.5 80,-19.5 80,-0.5 0,-0.5"/>
<text text-anchor="middle" x="40" y="-7.5" font-family="Helvetica,sans-Serif" font-size="10.00">SDKDDKVer.h</text>
</g>
<!-- Node3&#45;&gt;Node4 -->
<g id="edge3" class="edge"><title>Node3&#45;&gt;Node4</title>
<path fill="none" stroke="midnightblue" d="M40,-56.083C40,-49.0059 40,-38.8611 40,-29.9865"/>
<polygon fill="midnightblue" stroke="midnightblue" points="43.5001,-29.751 40,-19.7511 36.5001,-29.7511 43.5001,-29.751"/>
</g>
<!-- Node12&#45;&gt;Node2 -->
<g id="edge12" class="edge"><title>Node12&#45;&gt;Node2</title>
<path fill="none" stroke="midnightblue" d="M124.849,-168.444C161.174,-158.685 220.419,-142.768 258.283,-132.596"/>
<polygon fill="midnightblue" stroke="midnightblue" points="259.61,-135.863 268.359,-129.889 257.793,-129.103 259.61,-135.863"/>
</g>
<!-- Node12&#45;&gt;Node13 -->
<g id="edge13" class="edge"><title>Node12&#45;&gt;Node13</title>
<path fill="none" stroke="midnightblue" d="M87.2205,-168.083C82.3276,-160.534 75.1726,-149.495 69.1674,-140.23"/>
<polygon fill="midnightblue" stroke="midnightblue" points="72.048,-138.239 63.672,-131.751 66.174,-142.046 72.048,-138.239"/>
</g>
<!-- Node15 -->
<g id="node15" class="node"><title>Node15</title>
<polygon fill="white" stroke="#bfbfbf" points="565.5,-224.5 565.5,-243.5 606.5,-243.5 606.5,-224.5 565.5,-224.5"/>
<text text-anchor="middle" x="586" y="-231.5" font-family="Helvetica,sans-Serif" font-size="10.00">string</text>
</g>
<!-- Node14&#45;&gt;Node15 -->
<g id="edge15" class="edge"><title>Node14&#45;&gt;Node15</title>
<path fill="none" stroke="midnightblue" d="M546.761,-280.083C553.537,-272.298 563.543,-260.801 571.755,-251.367"/>
<polygon fill="midnightblue" stroke="midnightblue" points="574.458,-253.592 578.383,-243.751 569.178,-248.996 574.458,-253.592"/>
</g>
<!-- Node16 -->
<g id="node16" class="node"><title>Node16</title>
<polygon fill="white" stroke="#bfbfbf" points="519.5,-168.5 519.5,-187.5 554.5,-187.5 554.5,-168.5 519.5,-168.5"/>
<text text-anchor="middle" x="537" y="-175.5" font-family="Helvetica,sans-Serif" font-size="10.00">map</text>
</g>
<!-- Node14&#45;&gt;Node16 -->
<g id="edge16" class="edge"><title>Node14&#45;&gt;Node16</title>
<path fill="none" stroke="midnightblue" d="M538.843,-280.368C538.52,-262.617 537.776,-221.666 537.338,-197.597"/>
<polygon fill="midnightblue" stroke="midnightblue" points="540.838,-197.526 537.156,-187.591 533.839,-197.653 540.838,-197.526"/>
</g>
<!-- Node17 -->
<g id="node17" class="node"><title>Node17</title>
<polygon fill="white" stroke="#bfbfbf" points="463,-224.5 463,-243.5 509,-243.5 509,-224.5 463,-224.5"/>
<text text-anchor="middle" x="486" y="-231.5" font-family="Helvetica,sans-Serif" font-size="10.00">mapi.h</text>
</g>
<!-- Node14&#45;&gt;Node17 -->
<g id="edge17" class="edge"><title>Node14&#45;&gt;Node17</title>
<path fill="none" stroke="midnightblue" d="M530.248,-280.083C522.53,-272.22 511.095,-260.569 501.783,-251.081"/>
<polygon fill="midnightblue" stroke="midnightblue" points="504.092,-248.436 494.589,-243.751 499.096,-253.34 504.092,-248.436"/>
</g>
<!-- Node18 -->
<g id="node18" class="node"><title>Node18</title>
<polygon fill="white" stroke="#bfbfbf" points="624.5,-224.5 624.5,-243.5 677.5,-243.5 677.5,-224.5 624.5,-224.5"/>
<text text-anchor="middle" x="651" y="-231.5" font-family="Helvetica,sans-Serif" font-size="10.00">afxinet.h</text>
</g>
<!-- Node14&#45;&gt;Node18 -->
<g id="edge18" class="edge"><title>Node14&#45;&gt;Node18</title>
<path fill="none" stroke="midnightblue" d="M556.995,-280.324C575.038,-271.625 603.047,-258.12 623.803,-248.113"/>
<polygon fill="midnightblue" stroke="midnightblue" points="625.562,-251.15 633.05,-243.655 622.522,-244.845 625.562,-251.15"/>
</g>
<!-- Node19&#45;&gt;Node2 -->
<g id="edge20" class="edge"><title>Node19&#45;&gt;Node2</title>
<path fill="none" stroke="midnightblue" d="M356.198,-336.222C381.713,-316.718 436.704,-268.019 416,-224 396.569,-182.688 351.026,-152.479 321.414,-136.348"/>
<polygon fill="midnightblue" stroke="midnightblue" points="322.892,-133.171 312.413,-131.609 319.631,-139.365 322.892,-133.171"/>
</g>
<!-- Node20 -->
<g id="node20" class="node"><title>Node20</title>
<g id="a_node20"><a xlink:href="_main_frm_8h.html" target="_top" xlink:title="MainFrm.h">
<polygon fill="white" stroke="black" points="295.5,-280.5 295.5,-299.5 358.5,-299.5 358.5,-280.5 295.5,-280.5"/>
<text text-anchor="middle" x="327" y="-287.5" font-family="Helvetica,sans-Serif" font-size="10.00">MainFrm.h</text>
</a>
</g>
</g>
<!-- Node19&#45;&gt;Node20 -->
<g id="edge21" class="edge"><title>Node19&#45;&gt;Node20</title>
<path fill="none" stroke="midnightblue" d="M341.193,-336.083C338.915,-328.849 335.629,-318.409 332.792,-309.397"/>
<polygon fill="midnightblue" stroke="midnightblue" points="336.096,-308.239 329.755,-299.751 329.419,-310.341 336.096,-308.239"/>
</g>
<!-- Node21 -->
<g id="node21" class="node"><title>Node21</title>
<g id="a_node21"><a xlink:href="_cmd_view_8h.html" target="_top" xlink:title="CmdView.h">
<polygon fill="white" stroke="black" points="341,-224.5 341,-243.5 407,-243.5 407,-224.5 341,-224.5"/>
<text text-anchor="middle" x="374" y="-231.5" font-family="Helvetica,sans-Serif" font-size="10.00">CmdView.h</text>
</a>
</g>
</g>
<!-- Node20&#45;&gt;Node21 -->
<g id="edge22" class="edge"><title>Node20&#45;&gt;Node21</title>
<path fill="none" stroke="midnightblue" d="M334.761,-280.083C341.537,-272.298 351.543,-260.801 359.755,-251.367"/>
<polygon fill="midnightblue" stroke="midnightblue" points="362.458,-253.592 366.383,-243.751 357.178,-248.996 362.458,-253.592"/>
</g>
<!-- Node22 -->
<g id="node22" class="node"><title>Node22</title>
<g id="a_node22"><a xlink:href="_log_view_8h.html" target="_top" xlink:title="LogView.h">
<polygon fill="white" stroke="black" points="159,-224.5 159,-243.5 221,-243.5 221,-224.5 159,-224.5"/>
<text text-anchor="middle" x="190" y="-231.5" font-family="Helvetica,sans-Serif" font-size="10.00">LogView.h</text>
</a>
</g>
</g>
<!-- Node20&#45;&gt;Node22 -->
<g id="edge25" class="edge"><title>Node20&#45;&gt;Node22</title>
<path fill="none" stroke="midnightblue" d="M305.292,-280.444C282.645,-271.517 246.928,-257.439 221.248,-247.317"/>
<polygon fill="midnightblue" stroke="midnightblue" points="222.193,-243.927 211.606,-243.516 219.626,-250.44 222.193,-243.927"/>
</g>
<!-- Node23 -->
<g id="node23" class="node"><title>Node23</title>
<g id="a_node23"><a xlink:href="_respond_view_8h.html" target="_top" xlink:title="RespondView 视图 ">
<polygon fill="white" stroke="black" points="239,-224.5 239,-243.5 323,-243.5 323,-224.5 239,-224.5"/>
<text text-anchor="middle" x="281" y="-231.5" font-family="Helvetica,sans-Serif" font-size="10.00">RespondView.h</text>
</a>
</g>
</g>
<!-- Node20&#45;&gt;Node23 -->
<g id="edge26" class="edge"><title>Node20&#45;&gt;Node23</title>
<path fill="none" stroke="midnightblue" d="M319.404,-280.083C312.773,-272.298 302.979,-260.801 294.942,-251.367"/>
<polygon fill="midnightblue" stroke="midnightblue" points="297.604,-249.094 288.455,-243.751 292.275,-253.633 297.604,-249.094"/>
</g>
<!-- Node21&#45;&gt;Node12 -->
<g id="edge23" class="edge"><title>Node21&#45;&gt;Node12</title>
<path fill="none" stroke="midnightblue" d="M340.545,-225.752C337.657,-225.15 334.778,-224.559 332,-224 263.358,-210.186 183.357,-195.386 135.517,-186.674"/>
<polygon fill="midnightblue" stroke="midnightblue" points="135.987,-183.202 125.522,-184.857 134.735,-190.089 135.987,-183.202"/>
</g>
<!-- Node21&#45;&gt;Node16 -->
<g id="edge24" class="edge"><title>Node21&#45;&gt;Node16</title>
<path fill="none" stroke="midnightblue" d="M399.828,-224.444C429.83,-214.504 479.114,-198.177 509.722,-188.037"/>
<polygon fill="midnightblue" stroke="midnightblue" points="510.939,-191.321 519.331,-184.854 508.738,-184.676 510.939,-191.321"/>
</g>
<!-- Node24&#45;&gt;Node18 -->
<g id="edge29" class="edge"><title>Node24&#45;&gt;Node18</title>
<path fill="none" stroke="midnightblue" d="M548.71,-336.368C567.352,-317.894 611.35,-274.293 635.113,-250.744"/>
<polygon fill="midnightblue" stroke="midnightblue" points="637.691,-253.117 642.33,-243.591 632.764,-248.144 637.691,-253.117"/>
</g>
<!-- Node25&#45;&gt;Node2 -->
<g id="edge31" class="edge"><title>Node25&#45;&gt;Node2</title>
<path fill="none" stroke="midnightblue" d="M667.353,-336.449C678.498,-328.491 693.698,-315.541 701,-300 715.383,-269.386 724.031,-251.963 705,-224 662.4,-161.407 422.025,-134.137 329.917,-125.883"/>
<polygon fill="midnightblue" stroke="midnightblue" points="329.961,-122.373 319.695,-124.991 329.353,-129.347 329.961,-122.373"/>
</g>
<!-- Node25&#45;&gt;Node14 -->
<g id="edge34" class="edge"><title>Node25&#45;&gt;Node14</title>
<path fill="none" stroke="midnightblue" d="M635.778,-336.444C617.104,-327.675 587.844,-313.935 566.383,-303.858"/>
<polygon fill="midnightblue" stroke="midnightblue" points="567.676,-300.599 557.137,-299.516 564.701,-306.935 567.676,-300.599"/>
</g>
<!-- Node25&#45;&gt;Node16 -->
<g id="edge32" class="edge"><title>Node25&#45;&gt;Node16</title>
<path fill="none" stroke="midnightblue" d="M661.767,-336.455C668.991,-327.92 679.323,-314.079 684,-300 694.658,-267.92 707.179,-251.121 687,-224 658.761,-186.045 599.613,-178.896 564.619,-178.211"/>
<polygon fill="midnightblue" stroke="midnightblue" points="564.606,-174.711 554.595,-178.179 564.584,-181.711 564.606,-174.711"/>
</g>
<!-- Node26 -->
<g id="node26" class="node"><title>Node26</title>
<polygon fill="white" stroke="#bfbfbf" points="633,-280.5 633,-299.5 675,-299.5 675,-280.5 633,-280.5"/>
<text text-anchor="middle" x="654" y="-287.5" font-family="Helvetica,sans-Serif" font-size="10.00">vector</text>
</g>
<!-- Node25&#45;&gt;Node26 -->
<g id="edge33" class="edge"><title>Node25&#45;&gt;Node26</title>
<path fill="none" stroke="midnightblue" d="M654,-336.083C654,-329.006 654,-318.861 654,-309.986"/>
<polygon fill="midnightblue" stroke="midnightblue" points="657.5,-309.751 654,-299.751 650.5,-309.751 657.5,-309.751"/>
</g>
</g>
</svg>
