<?xml version="1.0" encoding="UTF-8" standalone="no"?>
<!DOCTYPE svg PUBLIC "-//W3C//DTD SVG 1.1//EN"
 "http://www.w3.org/Graphics/SVG/1.1/DTD/svg11.dtd">
<!-- Generated by graphviz version 2.38.0 (20140413.2041)
 -->
<!-- Title: src/UserCmd.h Pages: 1 -->
<svg width="515pt" height="252pt"
 viewBox="0.00 0.00 514.50 252.00" xmlns="http://www.w3.org/2000/svg" xmlns:xlink="http://www.w3.org/1999/xlink">
<g id="graph0" class="graph" transform="scale(1 1) rotate(0) translate(4 248)">
<title>src/UserCmd.h</title>
<polygon fill="white" stroke="none" points="-4,4 -4,-248 510.5,-248 510.5,4 -4,4"/>
<!-- Node1 -->
<g id="node1" class="node"><title>Node1</title>
<polygon fill="#bfbfbf" stroke="black" points="70.5,-224.5 70.5,-243.5 152.5,-243.5 152.5,-224.5 70.5,-224.5"/>
<text text-anchor="middle" x="111.5" y="-231.5" font-family="Helvetica,sans-Serif" font-size="10.00">src/UserCmd.h</text>
</g>
<!-- Node2 -->
<g id="node2" class="node"><title>Node2</title>
<g id="a_node2"><a xlink:href="_cmd_view_8h.html" target="_top" xlink:title="src/CmdView.h">
<polygon fill="white" stroke="black" points="70,-168.5 70,-187.5 153,-187.5 153,-168.5 70,-168.5"/>
<text text-anchor="middle" x="111.5" y="-175.5" font-family="Helvetica,sans-Serif" font-size="10.00">src/CmdView.h</text>
</a>
</g>
</g>
<!-- Node1&#45;&gt;Node2 -->
<g id="edge1" class="edge"><title>Node1&#45;&gt;Node2</title>
<path fill="none" stroke="midnightblue" d="M111.5,-213.805C111.5,-204.91 111.5,-194.78 111.5,-187.751"/>
<polygon fill="midnightblue" stroke="midnightblue" points="108,-214.083 111.5,-224.083 115,-214.083 108,-214.083"/>
</g>
<!-- Node3 -->
<g id="node3" class="node"><title>Node3</title>
<g id="a_node3"><a xlink:href="_cmd_view_8cpp.html" target="_top" xlink:title="CmdView.cpp : 实现文件 ">
<polygon fill="white" stroke="black" points="0,-0.5 0,-19.5 93,-19.5 93,-0.5 0,-0.5"/>
<text text-anchor="middle" x="46.5" y="-7.5" font-family="Helvetica,sans-Serif" font-size="10.00">src/CmdView.cpp</text>
</a>
</g>
</g>
<!-- Node1&#45;&gt;Node3 -->
<g id="edge14" class="edge"><title>Node1&#45;&gt;Node3</title>
<path fill="none" stroke="midnightblue" d="M88.3355,-218.522C78.0214,-210.79 66.8021,-200.319 60.5,-188 30.7378,-129.821 40.6682,-46.6161 44.9609,-19.7329"/>
<polygon fill="midnightblue" stroke="midnightblue" points="86.4604,-221.482 96.6585,-224.354 90.4774,-215.749 86.4604,-221.482"/>
</g>
<!-- Node9 -->
<g id="node9" class="node"><title>Node9</title>
<g id="a_node9"><a xlink:href="_user_cmd_8cpp.html" target="_top" xlink:title="UserCmd.cpp. ">
<polygon fill="white" stroke="black" points="414.5,-0.5 414.5,-19.5 506.5,-19.5 506.5,-0.5 414.5,-0.5"/>
<text text-anchor="middle" x="460.5" y="-7.5" font-family="Helvetica,sans-Serif" font-size="10.00">src/UserCmd.cpp</text>
</a>
</g>
</g>
<!-- Node1&#45;&gt;Node9 -->
<g id="edge15" class="edge"><title>Node1&#45;&gt;Node9</title>
<path fill="none" stroke="midnightblue" d="M140.047,-220.19C192.687,-195.919 307.519,-139.9 393.5,-76 417.174,-58.4061 441.05,-32.9754 452.876,-19.7434"/>
<polygon fill="midnightblue" stroke="midnightblue" points="138.305,-217.138 130.668,-224.481 141.218,-223.503 138.305,-217.138"/>
</g>
<!-- Node2&#45;&gt;Node3 -->
<g id="edge2" class="edge"><title>Node2&#45;&gt;Node3</title>
<path fill="none" stroke="midnightblue" d="M100.429,-159.833C88.3291,-140.296 69.2397,-107.06 58.5,-76 51.7499,-56.4783 48.5595,-32.274 47.2601,-19.6232"/>
<polygon fill="midnightblue" stroke="midnightblue" points="97.5922,-161.897 105.889,-168.486 103.512,-158.161 97.5922,-161.897"/>
</g>
<!-- Node4 -->
<g id="node4" class="node"><title>Node4</title>
<g id="a_node4"><a xlink:href="_main_frm_8h.html" target="_top" xlink:title="src/MainFrm.h">
<polygon fill="white" stroke="black" points="143.5,-112.5 143.5,-131.5 223.5,-131.5 223.5,-112.5 143.5,-112.5"/>
<text text-anchor="middle" x="183.5" y="-119.5" font-family="Helvetica,sans-Serif" font-size="10.00">src/MainFrm.h</text>
</a>
</g>
</g>
<!-- Node2&#45;&gt;Node4 -->
<g id="edge3" class="edge"><title>Node2&#45;&gt;Node4</title>
<path fill="none" stroke="midnightblue" d="M131.366,-162.101C144.323,-152.382 160.797,-140.027 171.721,-131.834"/>
<polygon fill="midnightblue" stroke="midnightblue" points="128.968,-159.524 123.068,-168.324 133.168,-165.124 128.968,-159.524"/>
</g>
<!-- Node10 -->
<g id="node10" class="node"><title>Node10</title>
<g id="a_node10"><a xlink:href="_hust_net_8cpp.html" target="_top" xlink:title="HustNet.cpp : 定义应用程序的类行为。 ">
<polygon fill="white" stroke="black" points="68,-56.5 68,-75.5 155,-75.5 155,-56.5 68,-56.5"/>
<text text-anchor="middle" x="111.5" y="-63.5" font-family="Helvetica,sans-Serif" font-size="10.00">src/HustNet.cpp</text>
</a>
</g>
</g>
<!-- Node2&#45;&gt;Node10 -->
<g id="edge13" class="edge"><title>Node2&#45;&gt;Node10</title>
<path fill="none" stroke="midnightblue" d="M111.5,-158.348C111.5,-134.254 111.5,-93.3079 111.5,-75.5914"/>
<polygon fill="midnightblue" stroke="midnightblue" points="108,-158.368 111.5,-168.368 115,-158.369 108,-158.368"/>
</g>
<!-- Node4&#45;&gt;Node3 -->
<g id="edge4" class="edge"><title>Node4&#45;&gt;Node3</title>
<path fill="none" stroke="midnightblue" d="M182.078,-102.05C180.06,-87.7547 175.198,-68.5302 163.5,-56 145.084,-36.274 117.058,-25.0997 93.0527,-18.8207"/>
<polygon fill="midnightblue" stroke="midnightblue" points="178.623,-102.662 183.162,-112.236 185.584,-101.921 178.623,-102.662"/>
</g>
<!-- Node5 -->
<g id="node5" class="node"><title>Node5</title>
<g id="a_node5"><a xlink:href="_u_i_ctrl_8h.html" target="_top" xlink:title="UICtrl. ">
<polygon fill="white" stroke="black" points="320,-56.5 320,-75.5 385,-75.5 385,-56.5 320,-56.5"/>
<text text-anchor="middle" x="352.5" y="-63.5" font-family="Helvetica,sans-Serif" font-size="10.00">src/UICtrl.h</text>
</a>
</g>
</g>
<!-- Node4&#45;&gt;Node5 -->
<g id="edge5" class="edge"><title>Node4&#45;&gt;Node5</title>
<path fill="none" stroke="midnightblue" d="M220.103,-109.304C251.947,-99.1294 297.342,-84.6246 325.847,-75.5164"/>
<polygon fill="midnightblue" stroke="midnightblue" points="218.739,-106.066 210.279,-112.444 220.869,-112.734 218.739,-106.066"/>
</g>
<!-- Node4&#45;&gt;Node10 -->
<g id="edge11" class="edge"><title>Node4&#45;&gt;Node10</title>
<path fill="none" stroke="midnightblue" d="M163.634,-106.101C150.677,-96.3824 134.203,-84.0269 123.279,-75.8339"/>
<polygon fill="midnightblue" stroke="midnightblue" points="161.832,-109.124 171.932,-112.324 166.032,-103.524 161.832,-109.124"/>
</g>
<!-- Node11 -->
<g id="node11" class="node"><title>Node11</title>
<g id="a_node11"><a xlink:href="_main_frm_8cpp.html" target="_top" xlink:title="MainFrm.cpp : CMainFrame 类的实现 ">
<polygon fill="white" stroke="black" points="211.5,-56.5 211.5,-75.5 301.5,-75.5 301.5,-56.5 211.5,-56.5"/>
<text text-anchor="middle" x="256.5" y="-63.5" font-family="Helvetica,sans-Serif" font-size="10.00">src/MainFrm.cpp</text>
</a>
</g>
</g>
<!-- Node4&#45;&gt;Node11 -->
<g id="edge12" class="edge"><title>Node4&#45;&gt;Node11</title>
<path fill="none" stroke="midnightblue" d="M203.642,-106.101C216.779,-96.3824 233.482,-84.0269 244.558,-75.8339"/>
<polygon fill="midnightblue" stroke="midnightblue" points="201.187,-103.563 195.229,-112.324 205.35,-109.191 201.187,-103.563"/>
</g>
<!-- Node5&#45;&gt;Node3 -->
<g id="edge6" class="edge"><title>Node5&#45;&gt;Node3</title>
<path fill="none" stroke="midnightblue" d="M309.964,-55.9669C227.848,-40.2957 144.139,-26.5014 93.3427,-18.3712"/>
<polygon fill="midnightblue" stroke="midnightblue" points="309.488,-59.4392 319.968,-57.887 310.807,-52.5647 309.488,-59.4392"/>
</g>
<!-- Node6 -->
<g id="node6" class="node"><title>Node6</title>
<g id="a_node6"><a xlink:href="_net_dll_8cpp.html" target="_top" xlink:title="NetDll. ">
<polygon fill="white" stroke="black" points="212.5,-0.5 212.5,-19.5 290.5,-19.5 290.5,-0.5 212.5,-0.5"/>
<text text-anchor="middle" x="251.5" y="-7.5" font-family="Helvetica,sans-Serif" font-size="10.00">src/NetDll.cpp</text>
</a>
</g>
</g>
<!-- Node5&#45;&gt;Node6 -->
<g id="edge7" class="edge"><title>Node5&#45;&gt;Node6</title>
<path fill="none" stroke="midnightblue" d="M327.417,-51.5895C308.743,-41.6052 283.796,-28.2672 267.687,-19.6545"/>
<polygon fill="midnightblue" stroke="midnightblue" points="325.804,-54.6955 336.273,-56.324 329.104,-48.5224 325.804,-54.6955"/>
</g>
<!-- Node7 -->
<g id="node7" class="node"><title>Node7</title>
<g id="a_node7"><a xlink:href="_net_html_8cpp.html" target="_top" xlink:title="NetHtml.cpp. ">
<polygon fill="white" stroke="black" points="309,-0.5 309,-19.5 396,-19.5 396,-0.5 309,-0.5"/>
<text text-anchor="middle" x="352.5" y="-7.5" font-family="Helvetica,sans-Serif" font-size="10.00">src/NetHtml.cpp</text>
</a>
</g>
</g>
<!-- Node5&#45;&gt;Node7 -->
<g id="edge8" class="edge"><title>Node5&#45;&gt;Node7</title>
<path fill="none" stroke="midnightblue" d="M352.5,-45.8045C352.5,-36.9102 352.5,-26.7798 352.5,-19.7511"/>
<polygon fill="midnightblue" stroke="midnightblue" points="349,-46.083 352.5,-56.083 356,-46.083 349,-46.083"/>
</g>
<!-- Node8 -->
<g id="node8" class="node"><title>Node8</title>
<g id="a_node8"><a xlink:href="_u_i_ctrl_8cpp.html" target="_top" xlink:title="src/UICtrl.cpp">
<polygon fill="white" stroke="black" points="118.5,-0.5 118.5,-19.5 194.5,-19.5 194.5,-0.5 118.5,-0.5"/>
<text text-anchor="middle" x="156.5" y="-7.5" font-family="Helvetica,sans-Serif" font-size="10.00">src/UICtrl.cpp</text>
</a>
</g>
</g>
<!-- Node5&#45;&gt;Node8 -->
<g id="edge9" class="edge"><title>Node5&#45;&gt;Node8</title>
<path fill="none" stroke="midnightblue" d="M311.48,-53.6986C274.489,-43.507 220.9,-28.7429 187.411,-19.5164"/>
<polygon fill="midnightblue" stroke="midnightblue" points="310.873,-57.1616 321.443,-56.4435 312.732,-50.4131 310.873,-57.1616"/>
</g>
<!-- Node5&#45;&gt;Node9 -->
<g id="edge10" class="edge"><title>Node5&#45;&gt;Node9</title>
<path fill="none" stroke="midnightblue" d="M379.048,-51.7261C399.046,-41.7271 425.887,-28.3065 443.191,-19.6545"/>
<polygon fill="midnightblue" stroke="midnightblue" points="377.231,-48.7213 369.852,-56.324 380.362,-54.9823 377.231,-48.7213"/>
</g>
</g>
</svg>
