<?xml version="1.0" encoding="UTF-8" standalone="no"?>
<!DOCTYPE svg PUBLIC "-//W3C//DTD SVG 1.1//EN"
 "http://www.w3.org/Graphics/SVG/1.1/DTD/svg11.dtd">
<!-- Generated by graphviz version 2.38.0 (20140413.2041)
 -->
<!-- Title: CmdView::OnInitialUpdate Pages: 1 -->
<svg width="768pt" height="493pt"
 viewBox="0.00 0.00 768.00 493.00" xmlns="http://www.w3.org/2000/svg" xmlns:xlink="http://www.w3.org/1999/xlink">
<g id="graph0" class="graph" transform="scale(1 1) rotate(0) translate(4 489)">
<title>CmdView::OnInitialUpdate</title>
<polygon fill="white" stroke="none" points="-4,4 -4,-489 764,-489 764,4 -4,4"/>
<!-- Node1 -->
<g id="node1" class="node"><title>Node1</title>
<polygon fill="#bfbfbf" stroke="black" points="0,-136.5 0,-155.5 130,-155.5 130,-136.5 0,-136.5"/>
<text text-anchor="middle" x="65" y="-143.5" font-family="Helvetica,sans-Serif" font-size="10.00">CmdView::OnInitialUpdate</text>
</g>
<!-- Node2 -->
<g id="node2" class="node"><title>Node2</title>
<g id="a_node2"><a xlink:href="class_cmd_view.html#a70cf028b2bc48ea3e0e6be3319911c85" target="_top" xlink:title="åˆ›å»ºæ¶ˆæ¯å¤„ç†çº¿ç¨‹,æ³¨å†Œæ¶ˆæ¯æ˜ å°„ ">
<polygon fill="white" stroke="black" points="166,-275.5 166,-294.5 271,-294.5 271,-275.5 166,-275.5"/>
<text text-anchor="middle" x="218.5" y="-282.5" font-family="Helvetica,sans-Serif" font-size="10.00">CmdView::Initialcmd</text>
</a>
</g>
</g>
<!-- Node1&#45;&gt;Node2 -->
<g id="edge1" class="edge"><title>Node1&#45;&gt;Node2</title>
<path fill="none" stroke="midnightblue" d="M76.4132,-155.554C101.82,-178.864 167.242,-238.889 199.278,-268.281"/>
<polygon fill="midnightblue" stroke="midnightblue" points="197.279,-271.198 207.014,-275.379 202.012,-266.04 197.279,-271.198"/>
</g>
<!-- Node7 -->
<g id="node7" class="node"><title>Node7</title>
<g id="a_node7"><a xlink:href="_net_work_8h.html#a2c381264f349b11e7959d11e88ffecee" target="_top" xlink:title="SetHint">
<polygon fill="white" stroke="black" points="662.5,-0.5 662.5,-19.5 711.5,-19.5 711.5,-0.5 662.5,-0.5"/>
<text text-anchor="middle" x="687" y="-7.5" font-family="Helvetica,sans-Serif" font-size="10.00">SetHint</text>
</a>
</g>
</g>
<!-- Node1&#45;&gt;Node7 -->
<g id="edge39" class="edge"><title>Node1&#45;&gt;Node7</title>
<path fill="none" stroke="midnightblue" d="M90.0204,-136.422C150.172,-112.916 312.6,-52.3741 454,-26 523.629,-13.0128 606.779,-10.3117 652.219,-9.89778"/>
<polygon fill="midnightblue" stroke="midnightblue" points="652.414,-13.3968 662.394,-9.83822 652.373,-6.39692 652.414,-13.3968"/>
</g>
<!-- Node3 -->
<g id="node3" class="node"><title>Node3</title>
<g id="a_node3"><a xlink:href="class_cmd_view.html#aa343e34b3fe9c6097c39a416c8ec5206" target="_top" xlink:title="ç›‘å¬å‘½ä»¤å¤„ç†çŠ¶æ€ ">
<polygon fill="white" stroke="black" points="307,-123.5 307,-142.5 418,-142.5 418,-123.5 307,-123.5"/>
<text text-anchor="middle" x="362.5" y="-130.5" font-family="Helvetica,sans-Serif" font-size="10.00">CmdView::DEALCMD</text>
</a>
</g>
</g>
<!-- Node2&#45;&gt;Node3 -->
<g id="edge2" class="edge"><title>Node2&#45;&gt;Node3</title>
<path fill="none" stroke="midnightblue" d="M223.214,-275.415C233.086,-251.166 262.314,-186.836 307,-152 309.297,-150.21 311.774,-148.581 314.362,-147.1"/>
<polygon fill="midnightblue" stroke="midnightblue" points="316.053,-150.169 323.483,-142.616 312.965,-143.887 316.053,-150.169"/>
</g>
<!-- Node5 -->
<g id="node5" class="node"><title>Node5</title>
<g id="a_node5"><a xlink:href="_net_dll_8cpp.html#a9c2b5e88743a9770d87dab4b3ec274ec" target="_top" xlink:title="æ‰“å°ä¸€è¡Œæ–‡å­—åˆ°æ—¥å¿—çª—å£ å‡½æ•°å‘é€PRINTæ¶ˆæ¯åˆ°LogViewçª—å£ï¼Œå¹¶å°†å­—ç¬¦ä¸²å°è£…åˆ°lparamä¸­ï¼ŒLogViewçª—å£æŽ¥æ”¶åˆ°è¯¥æ¶...">
<polygon fill="white" stroke="black" points="660.5,-234.5 660.5,-253.5 713.5,-253.5 713.5,-234.5 660.5,-234.5"/>
<text text-anchor="middle" x="687" y="-241.5" font-family="Helvetica,sans-Serif" font-size="10.00">PrintLog</text>
</a>
</g>
</g>
<!-- Node2&#45;&gt;Node5 -->
<g id="edge7" class="edge"><title>Node2&#45;&gt;Node5</title>
<path fill="none" stroke="midnightblue" d="M254.978,-294.508C270.777,-298.273 289.689,-302.142 307,-304 426.992,-316.878 460.846,-315.965 578,-287 605.863,-280.111 636.099,-267.605 657.473,-257.85"/>
<polygon fill="midnightblue" stroke="midnightblue" points="659.038,-260.982 666.629,-253.591 656.086,-254.635 659.038,-260.982"/>
</g>
<!-- Node8 -->
<g id="node8" class="node"><title>Node8</title>
<g id="a_node8"><a xlink:href="class_user_cmd.html#a10f84fa025b752236348cc8abd2fa5c7" target="_top" xlink:title="UserCmd::cleanrp">
<polygon fill="white" stroke="black" points="315,-465.5 315,-484.5 410,-484.5 410,-465.5 315,-465.5"/>
<text text-anchor="middle" x="362.5" y="-472.5" font-family="Helvetica,sans-Serif" font-size="10.00">UserCmd::cleanrp</text>
</a>
</g>
</g>
<!-- Node2&#45;&gt;Node8 -->
<g id="edge8" class="edge"><title>Node2&#45;&gt;Node8</title>
<path fill="none" stroke="midnightblue" d="M221.742,-294.709C228.905,-323.584 253.944,-409.78 307,-456 308.95,-457.699 311.061,-459.248 313.281,-460.661"/>
<polygon fill="midnightblue" stroke="midnightblue" points="311.8,-463.838 322.269,-465.461 315.097,-457.663 311.8,-463.838"/>
</g>
<!-- Node10 -->
<g id="node10" class="node"><title>Node10</title>
<g id="a_node10"><a xlink:href="class_user_cmd.html#ad75e005ff165f5d645b2520b644528bc" target="_top" xlink:title="UserCmd::cleanlog">
<polygon fill="white" stroke="black" points="313,-427.5 313,-446.5 412,-446.5 412,-427.5 313,-427.5"/>
<text text-anchor="middle" x="362.5" y="-434.5" font-family="Helvetica,sans-Serif" font-size="10.00">UserCmd::cleanlog</text>
</a>
</g>
</g>
<!-- Node2&#45;&gt;Node10 -->
<g id="edge10" class="edge"><title>Node2&#45;&gt;Node10</title>
<path fill="none" stroke="midnightblue" d="M223.214,-294.585C233.086,-318.834 262.314,-383.164 307,-418 309.297,-419.79 311.774,-421.419 314.362,-422.9"/>
<polygon fill="midnightblue" stroke="midnightblue" points="312.965,-426.113 323.483,-427.384 316.053,-419.831 312.965,-426.113"/>
</g>
<!-- Node12 -->
<g id="node12" class="node"><title>Node12</title>
<g id="a_node12"><a xlink:href="class_user_cmd.html#a7e760ac67d39d2b210b7d2b4f8e8ad5b" target="_top" xlink:title="UserCmd::Compute">
<polygon fill="white" stroke="black" points="465,-161.5 465,-180.5 567,-180.5 567,-161.5 465,-161.5"/>
<text text-anchor="middle" x="516" y="-168.5" font-family="Helvetica,sans-Serif" font-size="10.00">UserCmd::Compute</text>
</a>
</g>
</g>
<!-- Node2&#45;&gt;Node12 -->
<g id="edge12" class="edge"><title>Node2&#45;&gt;Node12</title>
<path fill="none" stroke="midnightblue" d="M256.632,-275.485C306.018,-262.477 390.309,-238.941 418,-223 436.811,-212.171 435.185,-200.822 454,-190 457.678,-187.885 461.618,-185.977 465.661,-184.263"/>
<polygon fill="midnightblue" stroke="midnightblue" points="467.118,-187.453 475.204,-180.606 464.614,-180.916 467.118,-187.453"/>
</g>
<!-- Node15 -->
<g id="node15" class="node"><title>Node15</title>
<g id="a_node15"><a xlink:href="class_user_cmd.html#abdb2a891ebfa05f462586a00b13cbcfc" target="_top" xlink:title="UserCmd::Connect">
<polygon fill="white" stroke="black" points="466.5,-123.5 466.5,-142.5 565.5,-142.5 565.5,-123.5 466.5,-123.5"/>
<text text-anchor="middle" x="516" y="-130.5" font-family="Helvetica,sans-Serif" font-size="10.00">UserCmd::Connect</text>
</a>
</g>
</g>
<!-- Node2&#45;&gt;Node15 -->
<g id="edge16" class="edge"><title>Node2&#45;&gt;Node15</title>
<path fill="none" stroke="midnightblue" d="M230.619,-275.277C246.537,-261.808 277.199,-237.496 307,-223 353.283,-200.488 374.142,-216.932 418,-190 437.825,-177.826 434.254,-164.302 454,-152 457.347,-149.915 460.94,-148.043 464.647,-146.364"/>
<polygon fill="midnightblue" stroke="midnightblue" points="466.057,-149.569 474.02,-142.58 463.437,-143.078 466.057,-149.569"/>
</g>
<!-- Node18 -->
<g id="node18" class="node"><title>Node18</title>
<g id="a_node18"><a xlink:href="class_user_cmd.html#acab5b5cbfcc9b92f860b3d48ae1c4ab5" target="_top" xlink:title="UserCmd::SetDll">
<polygon fill="white" stroke="black" points="318,-275.5 318,-294.5 407,-294.5 407,-275.5 318,-275.5"/>
<text text-anchor="middle" x="362.5" y="-282.5" font-family="Helvetica,sans-Serif" font-size="10.00">UserCmd::SetDll</text>
</a>
</g>
</g>
<!-- Node2&#45;&gt;Node18 -->
<g id="edge21" class="edge"><title>Node2&#45;&gt;Node18</title>
<path fill="none" stroke="midnightblue" d="M271.167,-285C282.943,-285 295.487,-285 307.363,-285"/>
<polygon fill="midnightblue" stroke="midnightblue" points="307.591,-288.5 317.591,-285 307.591,-281.5 307.591,-288.5"/>
</g>
<!-- Node20 -->
<g id="node20" class="node"><title>Node20</title>
<g id="a_node20"><a xlink:href="class_user_cmd.html#ad5fa0ccaab5d2a8bf2b4aeccc6c4c01b" target="_top" xlink:title="UserCmd::GetHtml">
<polygon fill="white" stroke="black" points="313,-389.5 313,-408.5 412,-408.5 412,-389.5 313,-389.5"/>
<text text-anchor="middle" x="362.5" y="-396.5" font-family="Helvetica,sans-Serif" font-size="10.00">UserCmd::GetHtml</text>
</a>
</g>
</g>
<!-- Node2&#45;&gt;Node20 -->
<g id="edge25" class="edge"><title>Node2&#45;&gt;Node20</title>
<path fill="none" stroke="midnightblue" d="M225.811,-294.524C238.812,-313.443 270.449,-356.003 307,-380 310.07,-382.016 313.379,-383.844 316.795,-385.497"/>
<polygon fill="midnightblue" stroke="midnightblue" points="315.427,-388.719 325.995,-389.471 318.203,-382.293 315.427,-388.719"/>
</g>
<!-- Node27 -->
<g id="node27" class="node"><title>Node27</title>
<g id="a_node27"><a xlink:href="class_user_cmd.html#a9c55a5ff5c5d0fa3598e7aac6c40db34" target="_top" xlink:title="UserCmd::Mail">
<polygon fill="white" stroke="black" points="322,-351.5 322,-370.5 403,-370.5 403,-351.5 322,-351.5"/>
<text text-anchor="middle" x="362.5" y="-358.5" font-family="Helvetica,sans-Serif" font-size="10.00">UserCmd::Mail</text>
</a>
</g>
</g>
<!-- Node2&#45;&gt;Node27 -->
<g id="edge32" class="edge"><title>Node2&#45;&gt;Node27</title>
<path fill="none" stroke="midnightblue" d="M234.36,-294.586C251.521,-305.478 280.763,-323.49 307,-337 313.888,-340.547 321.413,-344.074 328.613,-347.288"/>
<polygon fill="midnightblue" stroke="midnightblue" points="327.573,-350.653 338.138,-351.451 330.376,-344.239 327.573,-350.653"/>
</g>
<!-- Node28 -->
<g id="node28" class="node"><title>Node28</title>
<g id="a_node28"><a xlink:href="class_user_cmd.html#a8b9f5a09bef002aaefe10c43ae9ccea1" target="_top" xlink:title="UserCmd::Chat">
<polygon fill="white" stroke="black" points="321,-161.5 321,-180.5 404,-180.5 404,-161.5 321,-161.5"/>
<text text-anchor="middle" x="362.5" y="-168.5" font-family="Helvetica,sans-Serif" font-size="10.00">UserCmd::Chat</text>
</a>
</g>
</g>
<!-- Node2&#45;&gt;Node28 -->
<g id="edge33" class="edge"><title>Node2&#45;&gt;Node28</title>
<path fill="none" stroke="midnightblue" d="M226.729,-275.413C240.6,-257.561 272.637,-218.872 307,-195 312.591,-191.116 318.911,-187.643 325.215,-184.625"/>
<polygon fill="midnightblue" stroke="midnightblue" points="326.656,-187.815 334.354,-180.536 323.797,-181.425 326.656,-187.815"/>
</g>
<!-- Node4 -->
<g id="node4" class="node"><title>Node4</title>
<g id="a_node4"><a xlink:href="class_cmd_view.html#a19fb61e29f7be75474462793ea26d461" target="_top" xlink:title="å®žçŽ°å‘½ä»¤å­—ç¬¦ä¸²åˆ°å‘½ä»¤å¤„ç†å‡½æ•°ä¹‹é—´çš„æ˜ å°„ ">
<polygon fill="white" stroke="black" points="464,-199.5 464,-218.5 568,-218.5 568,-199.5 464,-199.5"/>
<text text-anchor="middle" x="516" y="-206.5" font-family="Helvetica,sans-Serif" font-size="10.00">CmdView::MapTask</text>
</a>
</g>
</g>
<!-- Node3&#45;&gt;Node4 -->
<g id="edge3" class="edge"><title>Node3&#45;&gt;Node4</title>
<path fill="none" stroke="midnightblue" d="M398.962,-142.594C405.558,-145.136 412.194,-148.246 418,-152 437.537,-164.631 434.254,-177.698 454,-190 457.347,-192.085 460.94,-193.957 464.647,-195.636"/>
<polygon fill="midnightblue" stroke="midnightblue" points="463.437,-198.922 474.02,-199.42 466.057,-192.431 463.437,-198.922"/>
</g>
<!-- Node6 -->
<g id="node6" class="node"><title>Node6</title>
<g id="a_node6"><a xlink:href="class_cmd_view.html#a71dba2e0097271efdc1874ff3a01847a" target="_top" xlink:title="å‘½ä»¤å·²å¤„ç†å®Œæˆ ">
<polygon fill="white" stroke="black" points="454.5,-35.5 454.5,-54.5 577.5,-54.5 577.5,-35.5 454.5,-35.5"/>
<text text-anchor="middle" x="516" y="-42.5" font-family="Helvetica,sans-Serif" font-size="10.00">CmdView::DealCmdOver</text>
</a>
</g>
</g>
<!-- Node3&#45;&gt;Node6 -->
<g id="edge5" class="edge"><title>Node3&#45;&gt;Node6</title>
<path fill="none" stroke="midnightblue" d="M373.543,-123.415C389.433,-108.72 421.874,-80.5897 454,-64 458.272,-61.7941 462.846,-59.7904 467.497,-57.9839"/>
<polygon fill="midnightblue" stroke="midnightblue" points="468.847,-61.2181 477.081,-54.5507 466.486,-54.6281 468.847,-61.2181"/>
</g>
<!-- Node4&#45;&gt;Node5 -->
<g id="edge4" class="edge"><title>Node4&#45;&gt;Node5</title>
<path fill="none" stroke="midnightblue" d="M563.18,-218.564C590.667,-224.256 625.016,-231.37 650.395,-236.626"/>
<polygon fill="midnightblue" stroke="midnightblue" points="649.831,-240.083 660.333,-238.684 651.25,-233.229 649.831,-240.083"/>
</g>
<!-- Node6&#45;&gt;Node7 -->
<g id="edge6" class="edge"><title>Node6&#45;&gt;Node7</title>
<path fill="none" stroke="midnightblue" d="M563.18,-35.4361C591.354,-29.6013 626.738,-22.2732 652.281,-16.9832"/>
<polygon fill="midnightblue" stroke="midnightblue" points="653.152,-20.3772 662.234,-14.9219 651.732,-13.5227 653.152,-20.3772"/>
</g>
<!-- Node9 -->
<g id="node9" class="node"><title>Node9</title>
<g id="a_node9"><a xlink:href="_net_work_8h.html#a977b03c3a05bd232dbcf4d72c35e99e4" target="_top" xlink:title="CleanRp">
<polygon fill="white" stroke="black" points="489.5,-465.5 489.5,-484.5 542.5,-484.5 542.5,-465.5 489.5,-465.5"/>
<text text-anchor="middle" x="516" y="-472.5" font-family="Helvetica,sans-Serif" font-size="10.00">CleanRp</text>
</a>
</g>
</g>
<!-- Node8&#45;&gt;Node9 -->
<g id="edge9" class="edge"><title>Node8&#45;&gt;Node9</title>
<path fill="none" stroke="midnightblue" d="M410.191,-475C432.402,-475 458.542,-475 479.16,-475"/>
<polygon fill="midnightblue" stroke="midnightblue" points="479.389,-478.5 489.388,-475 479.388,-471.5 479.389,-478.5"/>
</g>
<!-- Node11 -->
<g id="node11" class="node"><title>Node11</title>
<g id="a_node11"><a xlink:href="_net_work_8h.html#a85b3c9729953ae18b38d28b90d829786" target="_top" xlink:title="CleanLog">
<polygon fill="white" stroke="black" points="487.5,-427.5 487.5,-446.5 544.5,-446.5 544.5,-427.5 487.5,-427.5"/>
<text text-anchor="middle" x="516" y="-434.5" font-family="Helvetica,sans-Serif" font-size="10.00">CleanLog</text>
</a>
</g>
</g>
<!-- Node10&#45;&gt;Node11 -->
<g id="edge11" class="edge"><title>Node10&#45;&gt;Node11</title>
<path fill="none" stroke="midnightblue" d="M412.269,-437C433.24,-437 457.383,-437 476.994,-437"/>
<polygon fill="midnightblue" stroke="midnightblue" points="477.083,-440.5 487.083,-437 477.083,-433.5 477.083,-440.5"/>
</g>
<!-- Node12&#45;&gt;Node5 -->
<g id="edge14" class="edge"><title>Node12&#45;&gt;Node5</title>
<path fill="none" stroke="midnightblue" d="M556.428,-180.576C563.834,-183.119 571.337,-186.235 578,-190 596.638,-200.531 595.334,-211.52 614,-222 625.219,-228.299 638.456,-233.007 650.5,-236.415"/>
<polygon fill="midnightblue" stroke="midnightblue" points="649.705,-239.825 660.266,-238.98 651.482,-233.055 649.705,-239.825"/>
</g>
<!-- Node13 -->
<g id="node13" class="node"><title>Node13</title>
<g id="a_node13"><a xlink:href="class_net_dll.html#a98851c5ab77e42a6f84bcfa3584496cf" target="_top" xlink:title="NetDll::GetFun">
<polygon fill="white" stroke="black" points="646.5,-193.5 646.5,-212.5 727.5,-212.5 727.5,-193.5 646.5,-193.5"/>
<text text-anchor="middle" x="687" y="-200.5" font-family="Helvetica,sans-Serif" font-size="10.00">NetDll::GetFun</text>
</a>
</g>
</g>
<!-- Node12&#45;&gt;Node13 -->
<g id="edge13" class="edge"><title>Node12&#45;&gt;Node13</title>
<path fill="none" stroke="midnightblue" d="M567.248,-180.514C589.087,-184.65 614.6,-189.48 636.369,-193.602"/>
<polygon fill="midnightblue" stroke="midnightblue" points="635.924,-197.08 646.4,-195.502 637.226,-190.202 635.924,-197.08"/>
</g>
<!-- Node14 -->
<g id="node14" class="node"><title>Node14</title>
<g id="a_node14"><a xlink:href="_net_work_8h.html#a37f502656ead81caea91832807d5ba94" target="_top" xlink:title="æ‰“å°ä¸€è¡Œæ–‡å­—åˆ°å“åº”çª—å£ å‡½æ•°å‘é€PRINTæ¶ˆæ¯åˆ°RespondViewçª—å£ï¼Œå¹¶å°†å­—ç¬¦ä¸²å°è£…åˆ°lparamä¸­ï¼ŒRespondViewçª—å£æŽ...">
<polygon fill="white" stroke="black" points="662.5,-155.5 662.5,-174.5 711.5,-174.5 711.5,-155.5 662.5,-155.5"/>
<text text-anchor="middle" x="687" y="-162.5" font-family="Helvetica,sans-Serif" font-size="10.00">PrintRp</text>
</a>
</g>
</g>
<!-- Node12&#45;&gt;Node14 -->
<g id="edge15" class="edge"><title>Node12&#45;&gt;Node14</title>
<path fill="none" stroke="midnightblue" d="M567.248,-169.216C594.709,-168.241 627.979,-167.06 652.31,-166.196"/>
<polygon fill="midnightblue" stroke="midnightblue" points="652.607,-169.688 662.476,-165.835 652.358,-162.692 652.607,-169.688"/>
</g>
<!-- Node15&#45;&gt;Node5 -->
<g id="edge17" class="edge"><title>Node15&#45;&gt;Node5</title>
<path fill="none" stroke="midnightblue" d="M562.437,-142.623C568.049,-145.073 573.414,-148.146 578,-152 604.783,-174.507 587.156,-199.565 614,-222 624.288,-230.598 637.891,-235.838 650.501,-239.03"/>
<polygon fill="midnightblue" stroke="midnightblue" points="649.802,-242.46 660.319,-241.177 651.297,-235.622 649.802,-242.46"/>
</g>
<!-- Node15&#45;&gt;Node14 -->
<g id="edge19" class="edge"><title>Node15&#45;&gt;Node14</title>
<path fill="none" stroke="midnightblue" d="M565.882,-142.256C593.519,-147.489 627.378,-153.9 652.095,-158.58"/>
<polygon fill="midnightblue" stroke="midnightblue" points="651.607,-162.05 662.083,-160.471 652.909,-155.172 651.607,-162.05"/>
</g>
<!-- Node16 -->
<g id="node16" class="node"><title>Node16</title>
<g id="a_node16"><a xlink:href="_net_work_8h.html#ad0fd7e12f565bc4202d32e726131e5c0" target="_top" xlink:title="è®¾ç½®CmdViewçš„å‘½ä»¤æç¤ºè¯­ï¼ŒæŽ¥ç®¡CmdViewçš„è¾“å…¥ å‡½æ•°å‘é€TAKEOVERCMDæ¶ˆæ¯åˆ°CmdViewçª—å£ï¼Œå¹¶å°†å­—ç¬¦ä¸²å°è£…åˆ°lpar...">
<polygon fill="white" stroke="black" points="648.5,-79.5 648.5,-98.5 725.5,-98.5 725.5,-79.5 648.5,-79.5"/>
<text text-anchor="middle" x="687" y="-86.5" font-family="Helvetica,sans-Serif" font-size="10.00">TakeOverCmd</text>
</a>
</g>
</g>
<!-- Node15&#45;&gt;Node16 -->
<g id="edge18" class="edge"><title>Node15&#45;&gt;Node16</title>
<path fill="none" stroke="midnightblue" d="M553.67,-123.453C578.806,-116.908 612.361,-108.172 639.392,-101.135"/>
<polygon fill="midnightblue" stroke="midnightblue" points="640.606,-104.435 649.401,-98.5287 638.842,-97.6613 640.606,-104.435"/>
</g>
<!-- Node17 -->
<g id="node17" class="node"><title>Node17</title>
<g id="a_node17"><a xlink:href="_net_work_8h.html#ab7520283bb1638c3850a041326fddbde" target="_top" xlink:title="ä»ŽCmdViewä¸­èŽ·å–ä¸€è¡Œè¾“å…¥ å‡½æ•°åœ¨ç”¨æˆ·å‘½ä»¤æ¨¡å¼ä¸‹ä»ŽCmdèŽ·å–ä¸€è¡Œè¾“å…¥ã€‚å‡½æ•°é¦–å…ˆåˆ¤æ–­å½“å‰æ˜¯å¦å¤„äºŽç”¨æˆ·å‘½ä»¤æ¨¡å¼ ...">
<polygon fill="white" stroke="black" points="662,-117.5 662,-136.5 712,-136.5 712,-117.5 662,-117.5"/>
<text text-anchor="middle" x="687" y="-124.5" font-family="Helvetica,sans-Serif" font-size="10.00">GetLine</text>
</a>
</g>
</g>
<!-- Node15&#45;&gt;Node17 -->
<g id="edge20" class="edge"><title>Node15&#45;&gt;Node17</title>
<path fill="none" stroke="midnightblue" d="M565.882,-131.265C593.225,-130.294 626.66,-129.107 651.305,-128.232"/>
<polygon fill="midnightblue" stroke="midnightblue" points="651.751,-131.718 661.621,-127.866 651.503,-124.723 651.751,-131.718"/>
</g>
<!-- Node18&#45;&gt;Node5 -->
<g id="edge24" class="edge"><title>Node18&#45;&gt;Node5</title>
<path fill="none" stroke="midnightblue" d="M407.215,-282.574C450.679,-279.823 519.178,-274.568 578,-266 602.409,-262.444 629.62,-256.891 650.622,-252.254"/>
<polygon fill="midnightblue" stroke="midnightblue" points="651.401,-255.666 660.394,-250.064 649.87,-248.836 651.401,-255.666"/>
</g>
<!-- Node19 -->
<g id="node19" class="node"><title>Node19</title>
<g id="a_node19"><a xlink:href="class_net_dll.html#abb349ff2f7a5d0cfc0906e70f7716638" target="_top" xlink:title="NetDll::LoadDll">
<polygon fill="white" stroke="black" points="475.5,-237.5 475.5,-256.5 556.5,-256.5 556.5,-237.5 475.5,-237.5"/>
<text text-anchor="middle" x="516" y="-244.5" font-family="Helvetica,sans-Serif" font-size="10.00">NetDll::LoadDll</text>
</a>
</g>
</g>
<!-- Node18&#45;&gt;Node19 -->
<g id="edge22" class="edge"><title>Node18&#45;&gt;Node19</title>
<path fill="none" stroke="midnightblue" d="M401.73,-275.411C421.632,-270.419 446.157,-264.268 467.291,-258.967"/>
<polygon fill="midnightblue" stroke="midnightblue" points="468.197,-262.348 477.045,-256.52 466.494,-255.558 468.197,-262.348"/>
</g>
<!-- Node19&#45;&gt;Node5 -->
<g id="edge23" class="edge"><title>Node19&#45;&gt;Node5</title>
<path fill="none" stroke="midnightblue" d="M556.623,-246.297C584.873,-245.795 622.55,-245.126 649.956,-244.64"/>
<polygon fill="midnightblue" stroke="midnightblue" points="650.345,-248.134 660.281,-244.457 650.22,-241.135 650.345,-248.134"/>
</g>
<!-- Node21 -->
<g id="node21" class="node"><title>Node21</title>
<g id="a_node21"><a xlink:href="class_net_html.html#a1d26b557eca7cab7c987aae38438c3ae" target="_top" xlink:title="å‡½æ•°é€šè¿‡CSocketèŽ·å–å¯¹åº”çš„htmlæ–‡ä»¶å­—ç¬¦æµã€‚ å‡½æ•°é€šè¿‡CSocketå’Œurlå¯¹åº”çš„æœåŠ¡å™¨å»ºç«‹è¿žæŽ¥,å¹¶å°†è¯·æ±‚èµ„æºæŠ¥æ–‡å‘é€ç»™æœåŠ¡å™¨ï¼ŒæˆåŠŸå“åº”åŽä¸€è¡Œè¡Œçš„èŽ·å–ä»ŽæœåŠ¡å™¨å‘æ¥çš„æ•°æ®ï¼Œ å¹¶å°†æ•°æ®è½¬ç ä¸ºUnicodeï¼Œæ‹¼æŽ¥åˆ°è¿”å›žçš„å­—ç¬¦ä¸²myhtml ">
<polygon fill="white" stroke="black" points="454,-389.5 454,-408.5 578,-408.5 578,-389.5 454,-389.5"/>
<text text-anchor="middle" x="516" y="-396.5" font-family="Helvetica,sans-Serif" font-size="10.00">NetHtml::getURLContext</text>
</a>
</g>
</g>
<!-- Node20&#45;&gt;Node21 -->
<g id="edge26" class="edge"><title>Node20&#45;&gt;Node21</title>
<path fill="none" stroke="midnightblue" d="M412.269,-399C422.299,-399 433.054,-399 443.692,-399"/>
<polygon fill="midnightblue" stroke="midnightblue" points="443.828,-402.5 453.828,-399 443.828,-395.5 443.828,-402.5"/>
</g>
<!-- Node26 -->
<g id="node26" class="node"><title>Node26</title>
<g id="a_node26"><a xlink:href="_net_work_8h.html#a850221fdc22e3e0628077942ed82fefb" target="_top" xlink:title="è®¾ç½®ç›¸åº”çª—å£çš„å†…å®¹ å‡½æ•°å‘é€SETTEXTæ¶ˆæ¯åˆ°RespondViewçª—å£ï¼Œå¹¶å°†å­—ç¬¦ä¸²å°è£…åˆ°lparamä¸­ï¼ŒRespondViewçª—å£æŽ¥ ...">
<polygon fill="white" stroke="black" points="494,-351.5 494,-370.5 538,-370.5 538,-351.5 494,-351.5"/>
<text text-anchor="middle" x="516" y="-358.5" font-family="Helvetica,sans-Serif" font-size="10.00">SetRp</text>
</a>
</g>
</g>
<!-- Node20&#45;&gt;Node26 -->
<g id="edge31" class="edge"><title>Node20&#45;&gt;Node26</title>
<path fill="none" stroke="midnightblue" d="M401.73,-389.411C427.081,-383.052 459.932,-374.812 483.722,-368.845"/>
<polygon fill="midnightblue" stroke="midnightblue" points="484.787,-372.187 493.635,-366.359 483.084,-365.397 484.787,-372.187"/>
</g>
<!-- Node22 -->
<g id="node22" class="node"><title>Node22</title>
<g id="a_node22"><a xlink:href="class_tools_1_1_tstr.html#af2dbe21365f53b0bd531cf356d6b566f" target="_top" xlink:title="Tools::Tstr::Tchar2string">
<polygon fill="white" stroke="black" points="626,-446.5 626,-465.5 748,-465.5 748,-446.5 626,-446.5"/>
<text text-anchor="middle" x="687" y="-453.5" font-family="Helvetica,sans-Serif" font-size="10.00">Tools::Tstr::Tchar2string</text>
</a>
</g>
</g>
<!-- Node21&#45;&gt;Node22 -->
<g id="edge27" class="edge"><title>Node21&#45;&gt;Node22</title>
<path fill="none" stroke="midnightblue" d="M551.593,-408.564C560.323,-411.307 569.601,-414.51 578,-418 594.707,-424.942 597.145,-430.427 614,-437 620.231,-439.43 626.884,-441.654 633.534,-443.655"/>
<polygon fill="midnightblue" stroke="midnightblue" points="632.649,-447.042 643.226,-446.427 634.574,-440.312 632.649,-447.042"/>
</g>
<!-- Node23 -->
<g id="node23" class="node"><title>Node23</title>
<g id="a_node23"><a xlink:href="class_tools_1_1_tstr.html#a73550e362f50715445fe5dc9fef26b1e" target="_top" xlink:title="Tools::Tstr::String2LPCWSTR">
<polygon fill="white" stroke="black" points="614,-408.5 614,-427.5 760,-427.5 760,-408.5 614,-408.5"/>
<text text-anchor="middle" x="687" y="-415.5" font-family="Helvetica,sans-Serif" font-size="10.00">Tools::Tstr::String2LPCWSTR</text>
</a>
</g>
</g>
<!-- Node21&#45;&gt;Node23 -->
<g id="edge28" class="edge"><title>Node21&#45;&gt;Node23</title>
<path fill="none" stroke="midnightblue" d="M578.013,-405.859C586.371,-406.799 595.063,-407.776 603.723,-408.75"/>
<polygon fill="midnightblue" stroke="midnightblue" points="603.525,-412.25 613.854,-409.889 604.308,-405.294 603.525,-412.25"/>
</g>
<!-- Node24 -->
<g id="node24" class="node"><title>Node24</title>
<g id="a_node24"><a xlink:href="class_tools_1_1_tstr.html#a6f9002ef49d85db27430acae6733a747" target="_top" xlink:title="Tools::Tstr::S2Cstar">
<polygon fill="white" stroke="black" points="635,-370.5 635,-389.5 739,-389.5 739,-370.5 635,-370.5"/>
<text text-anchor="middle" x="687" y="-377.5" font-family="Helvetica,sans-Serif" font-size="10.00">Tools::Tstr::S2Cstar</text>
</a>
</g>
</g>
<!-- Node21&#45;&gt;Node24 -->
<g id="edge29" class="edge"><title>Node21&#45;&gt;Node24</title>
<path fill="none" stroke="midnightblue" d="M578.013,-392.141C593.146,-390.439 609.371,-388.615 624.527,-386.911"/>
<polygon fill="midnightblue" stroke="midnightblue" points="625.275,-390.349 634.821,-385.754 624.493,-383.393 625.275,-390.349"/>
</g>
<!-- Node25 -->
<g id="node25" class="node"><title>Node25</title>
<g id="a_node25"><a xlink:href="_net_html_8cpp.html#a9c2b5e88743a9770d87dab4b3ec274ec" target="_top" xlink:title="æ‰“å°ä¸€è¡Œæ–‡å­—åˆ°æ—¥å¿—çª—å£ å‡½æ•°å‘é€PRINTæ¶ˆæ¯åˆ°LogViewçª—å£ï¼Œå¹¶å°†å­—ç¬¦ä¸²å°è£…åˆ°lparamä¸­ï¼ŒLogViewçª—å£æŽ¥æ”¶åˆ°è¯¥æ¶...">
<polygon fill="white" stroke="black" points="660.5,-332.5 660.5,-351.5 713.5,-351.5 713.5,-332.5 660.5,-332.5"/>
<text text-anchor="middle" x="687" y="-339.5" font-family="Helvetica,sans-Serif" font-size="10.00">PrintLog</text>
</a>
</g>
</g>
<!-- Node21&#45;&gt;Node25 -->
<g id="edge30" class="edge"><title>Node21&#45;&gt;Node25</title>
<path fill="none" stroke="midnightblue" d="M551.593,-389.436C560.323,-386.693 569.601,-383.49 578,-380 594.707,-373.058 597.145,-367.573 614,-361 625.551,-356.495 638.553,-352.699 650.297,-349.713"/>
<polygon fill="midnightblue" stroke="midnightblue" points="651.335,-353.063 660.225,-347.3 649.682,-346.261 651.335,-353.063"/>
</g>
<!-- Node29 -->
<g id="node29" class="node"><title>Node29</title>
<g id="a_node29"><a xlink:href="class_net_work_1_1_chat_work.html#ac019f44ad1ecc33ce3eb2c42b6b537d9" target="_top" xlink:title="NetWork::ChatWork::\lBegin">
<polygon fill="white" stroke="black" points="461,-74 461,-104 571,-104 571,-74 461,-74"/>
<text text-anchor="start" x="469" y="-92" font-family="Helvetica,sans-Serif" font-size="10.00">NetWork::ChatWork::</text>
<text text-anchor="middle" x="516" y="-81" font-family="Helvetica,sans-Serif" font-size="10.00">Begin</text>
</a>
</g>
</g>
<!-- Node28&#45;&gt;Node29 -->
<g id="edge34" class="edge"><title>Node28&#45;&gt;Node29</title>
<path fill="none" stroke="midnightblue" d="M398.962,-161.406C405.558,-158.864 412.194,-155.754 418,-152 437.537,-139.369 434.808,-127.149 454,-114 456.691,-112.156 459.539,-110.413 462.475,-108.771"/>
<polygon fill="midnightblue" stroke="midnightblue" points="464.183,-111.829 471.482,-104.149 460.987,-105.601 464.183,-111.829"/>
</g>
<!-- Node29&#45;&gt;Node14 -->
<g id="edge38" class="edge"><title>Node29&#45;&gt;Node14</title>
<path fill="none" stroke="midnightblue" d="M559.273,-104.132C565.728,-107.061 572.174,-110.365 578,-114 596.162,-125.331 595.135,-135.881 614,-146 625.749,-152.302 639.715,-156.61 652.207,-159.507"/>
<polygon fill="midnightblue" stroke="midnightblue" points="651.766,-162.991 662.272,-161.623 653.205,-156.141 651.766,-162.991"/>
</g>
<!-- Node29&#45;&gt;Node16 -->
<g id="edge35" class="edge"><title>Node29&#45;&gt;Node16</title>
<path fill="none" stroke="midnightblue" d="M571.403,-89C592.865,-89 617.307,-89 638.089,-89"/>
<polygon fill="midnightblue" stroke="midnightblue" points="638.277,-92.5001 648.277,-89 638.277,-85.5001 638.277,-92.5001"/>
</g>
<!-- Node29&#45;&gt;Node17 -->
<g id="edge36" class="edge"><title>Node29&#45;&gt;Node17</title>
<path fill="none" stroke="midnightblue" d="M571.403,-101.233C597.845,-107.178 628.81,-114.141 651.881,-119.328"/>
<polygon fill="midnightblue" stroke="midnightblue" points="651.358,-122.798 661.882,-121.577 652.893,-115.968 651.358,-122.798"/>
</g>
<!-- Node30 -->
<g id="node30" class="node"><title>Node30</title>
<g id="a_node30"><a xlink:href="_net_work_8h.html#a9c2b5e88743a9770d87dab4b3ec274ec" target="_top" xlink:title="æ‰“å°ä¸€è¡Œæ–‡å­—åˆ°æ—¥å¿—çª—å£ å‡½æ•°å‘é€PRINTæ¶ˆæ¯åˆ°LogViewçª—å£ï¼Œå¹¶å°†å­—ç¬¦ä¸²å°è£…åˆ°lparamä¸­ï¼ŒLogViewçª—å£æŽ¥æ”¶åˆ°è¯¥æ¶...">
<polygon fill="white" stroke="black" points="660.5,-41.5 660.5,-60.5 713.5,-60.5 713.5,-41.5 660.5,-41.5"/>
<text text-anchor="middle" x="687" y="-48.5" font-family="Helvetica,sans-Serif" font-size="10.00">PrintLog</text>
</a>
</g>
</g>
<!-- Node29&#45;&gt;Node30 -->
<g id="edge37" class="edge"><title>Node29&#45;&gt;Node30</title>
<path fill="none" stroke="midnightblue" d="M571.403,-76.7674C597.175,-70.9724 627.245,-64.2113 650.114,-59.069"/>
<polygon fill="midnightblue" stroke="midnightblue" points="651.085,-62.4382 660.074,-56.8296 649.549,-55.6087 651.085,-62.4382"/>
</g>
</g>
</svg>
