<?xml version="1.0" encoding="UTF-8" standalone="no"?>
<!DOCTYPE svg PUBLIC "-//W3C//DTD SVG 1.1//EN"
 "http://www.w3.org/Graphics/SVG/1.1/DTD/svg11.dtd">
<!-- Generated by graphviz version 2.38.0 (20140413.2041)
 -->
<!-- Title: UserCmd::Compute Pages: 1 -->
<svg width="227pt" height="104pt"
 viewBox="0.00 0.00 227.00 104.00" xmlns="http://www.w3.org/2000/svg" xmlns:xlink="http://www.w3.org/1999/xlink">
<g id="graph0" class="graph" transform="scale(1 1) rotate(0) translate(4 100)">
<title>UserCmd::Compute</title>
<polygon fill="white" stroke="none" points="-4,4 -4,-100 223,-100 223,4 -4,4"/>
<!-- Node1 -->
<g id="node1" class="node"><title>Node1</title>
<polygon fill="#bfbfbf" stroke="black" points="0,-38.5 0,-57.5 102,-57.5 102,-38.5 0,-38.5"/>
<text text-anchor="middle" x="51" y="-45.5" font-family="Helvetica,sans-Serif" font-size="10.00">UserCmd::Compute</text>
</g>
<!-- Node2 -->
<g id="node2" class="node"><title>Node2</title>
<g id="a_node2"><a xlink:href="class_net_dll.html#a98851c5ab77e42a6f84bcfa3584496cf" target="_top" xlink:title="NetDll::GetFun">
<polygon fill="white" stroke="black" points="138,-76.5 138,-95.5 219,-95.5 219,-76.5 138,-76.5"/>
<text text-anchor="middle" x="178.5" y="-83.5" font-family="Helvetica,sans-Serif" font-size="10.00">NetDll::GetFun</text>
</a>
</g>
</g>
<!-- Node1&#45;&gt;Node2 -->
<g id="edge1" class="edge"><title>Node1&#45;&gt;Node2</title>
<path fill="none" stroke="midnightblue" d="M83.6689,-57.589C99.5725,-62.4044 119.04,-68.2988 136.111,-73.468"/>
<polygon fill="midnightblue" stroke="midnightblue" points="135.256,-76.8658 145.841,-76.4141 137.285,-70.1662 135.256,-76.8658"/>
</g>
<!-- Node3 -->
<g id="node3" class="node"><title>Node3</title>
<g id="a_node3"><a xlink:href="_net_dll_8cpp.html#a9c2b5e88743a9770d87dab4b3ec274ec" target="_top" xlink:title="æ‰“å°ä¸€è¡Œæ–‡å­—åˆ°æ—¥å¿—çª—å£ å‡½æ•°å‘é€PRINTæ¶ˆæ¯åˆ°LogViewçª—å£ï¼Œå¹¶å°†å­—ç¬¦ä¸²å°è£…åˆ°lparamä¸­ï¼ŒLogViewçª—å£æŽ¥æ”¶åˆ°è¯¥æ¶...">
<polygon fill="white" stroke="black" points="152,-38.5 152,-57.5 205,-57.5 205,-38.5 152,-38.5"/>
<text text-anchor="middle" x="178.5" y="-45.5" font-family="Helvetica,sans-Serif" font-size="10.00">PrintLog</text>
</a>
</g>
</g>
<!-- Node1&#45;&gt;Node3 -->
<g id="edge2" class="edge"><title>Node1&#45;&gt;Node3</title>
<path fill="none" stroke="midnightblue" d="M102.323,-48C115.508,-48 129.457,-48 141.711,-48"/>
<polygon fill="midnightblue" stroke="midnightblue" points="141.983,-51.5001 151.983,-48 141.983,-44.5001 141.983,-51.5001"/>
</g>
<!-- Node4 -->
<g id="node4" class="node"><title>Node4</title>
<g id="a_node4"><a xlink:href="_net_work_8h.html#a37f502656ead81caea91832807d5ba94" target="_top" xlink:title="æ‰“å°ä¸€è¡Œæ–‡å­—åˆ°å“åº”çª—å£ å‡½æ•°å‘é€PRINTæ¶ˆæ¯åˆ°RespondViewçª—å£ï¼Œå¹¶å°†å­—ç¬¦ä¸²å°è£…åˆ°lparamä¸­ï¼ŒRespondViewçª—å£æŽ...">
<polygon fill="white" stroke="black" points="154,-0.5 154,-19.5 203,-19.5 203,-0.5 154,-0.5"/>
<text text-anchor="middle" x="178.5" y="-7.5" font-family="Helvetica,sans-Serif" font-size="10.00">PrintRp</text>
</a>
</g>
</g>
<!-- Node1&#45;&gt;Node4 -->
<g id="edge3" class="edge"><title>Node1&#45;&gt;Node4</title>
<path fill="none" stroke="midnightblue" d="M83.6689,-38.411C102.134,-32.8198 125.404,-25.7741 144.15,-20.0979"/>
<polygon fill="midnightblue" stroke="midnightblue" points="145.209,-23.4344 153.765,-17.1866 143.18,-16.7348 145.209,-23.4344"/>
</g>
</g>
</svg>
