<?xml version="1.0" encoding="UTF-8" standalone="no"?>
<!DOCTYPE svg PUBLIC "-//W3C//DTD SVG 1.1//EN"
 "http://www.w3.org/Graphics/SVG/1.1/DTD/svg11.dtd">
<!-- Generated by graphviz version 2.38.0 (20140413.2041)
 -->
<!-- Title: CMyIP Pages: 1 -->
<svg width="115pt" height="162pt"
 viewBox="0.00 0.00 115.00 162.00" xmlns="http://www.w3.org/2000/svg" xmlns:xlink="http://www.w3.org/1999/xlink">
<g id="graph0" class="graph" transform="scale(1 1) rotate(0) translate(4 158)">
<title>CMyIP</title>
<polygon fill="white" stroke="none" points="-4,4 -4,-158 111,-158 111,4 -4,4"/>
<!-- Node1 -->
<g id="node1" class="node"><title>Node1</title>
<polygon fill="#bfbfbf" stroke="black" points="8.5,-0.5 8.5,-19.5 54.5,-19.5 54.5,-0.5 8.5,-0.5"/>
<text text-anchor="middle" x="31.5" y="-7.5" font-family="Helvetica,sans-Serif" font-size="10.00">CMyIP</text>
</g>
<!-- Node2 -->
<g id="node2" class="node"><title>Node2</title>
<g id="a_node2"><a xlink:href="struct_i_p__msg.html" target="_top" xlink:title="IP_msg">
<polygon fill="white" stroke="black" points="47.5,-67.5 47.5,-86.5 97.5,-86.5 97.5,-67.5 47.5,-67.5"/>
<text text-anchor="middle" x="72.5" y="-74.5" font-family="Helvetica,sans-Serif" font-size="10.00">IP_msg</text>
</a>
</g>
</g>
<!-- Node2&#45;&gt;Node1 -->
<g id="edge1" class="edge"><title>Node2&#45;&gt;Node1</title>
<path fill="none" stroke="#9a32cd" stroke-dasharray="5,2" d="M61.4834,-58.5347C53.5453,-45.9499 43.1738,-29.5072 36.9418,-19.6273"/>
<polygon fill="#9a32cd" stroke="#9a32cd" points="58.6752,-60.6431 66.9706,-67.2338 64.5958,-56.9085 58.6752,-60.6431"/>
<text text-anchor="middle" x="67" y="-41" font-family="Helvetica,sans-Serif" font-size="10.00"> buffer</text>
</g>
<!-- Node3 -->
<g id="node3" class="node"><title>Node3</title>
<g id="a_node3"><a xlink:href="struct_msg.html" target="_top" xlink:title="Msg">
<polygon fill="white" stroke="black" points="0,-134.5 0,-153.5 35,-153.5 35,-134.5 0,-134.5"/>
<text text-anchor="middle" x="17.5" y="-141.5" font-family="Helvetica,sans-Serif" font-size="10.00">Msg</text>
</a>
</g>
</g>
<!-- Node3&#45;&gt;Node1 -->
<g id="edge4" class="edge"><title>Node3&#45;&gt;Node1</title>
<path fill="none" stroke="#9a32cd" stroke-dasharray="5,2" d="M15.7258,-123.74C14.6708,-108.323 13.9754,-86.1826 16.5,-67 18.7589,-49.8363 24.7536,-30.457 28.4445,-19.5873"/>
<polygon fill="#9a32cd" stroke="#9a32cd" points="12.2652,-124.372 16.5554,-134.059 19.2427,-123.811 12.2652,-124.372"/>
<text text-anchor="middle" x="27.5" y="-74.5" font-family="Helvetica,sans-Serif" font-size="10.00"> msg</text>
</g>
<!-- Node3&#45;&gt;Node2 -->
<g id="edge2" class="edge"><title>Node3&#45;&gt;Node2</title>
<path fill="none" stroke="#9a32cd" stroke-dasharray="5,2" d="M31.6558,-126.27C42.3793,-113.597 56.6761,-96.701 65.2,-86.6273"/>
<polygon fill="#9a32cd" stroke="#9a32cd" points="28.7051,-124.339 24.9175,-134.234 34.0489,-128.861 28.7051,-124.339"/>
<text text-anchor="middle" x="58.5" y="-108" font-family="Helvetica,sans-Serif" font-size="10.00"> msg</text>
</g>
<!-- Node4 -->
<g id="node4" class="node"><title>Node4</title>
<g id="a_node4"><a xlink:href="struct__iphdr.html" target="_top" xlink:title="存放ip首部的结构体 ">
<polygon fill="white" stroke="black" points="64,-134.5 64,-153.5 107,-153.5 107,-134.5 64,-134.5"/>
<text text-anchor="middle" x="85.5" y="-141.5" font-family="Helvetica,sans-Serif" font-size="10.00">_iphdr</text>
</a>
</g>
</g>
<!-- Node4&#45;&gt;Node2 -->
<g id="edge3" class="edge"><title>Node4&#45;&gt;Node2</title>
<path fill="none" stroke="#9a32cd" stroke-dasharray="5,2" d="M81.7829,-124.415C79.2977,-111.988 76.1433,-96.2166 74.2255,-86.6273"/>
<polygon fill="#9a32cd" stroke="#9a32cd" points="78.3535,-125.114 83.7468,-134.234 85.2176,-123.742 78.3535,-125.114"/>
<text text-anchor="middle" x="92" y="-108" font-family="Helvetica,sans-Serif" font-size="10.00"> iphdr</text>
</g>
</g>
</svg>
