<?xml version="1.0" encoding="UTF-8" standalone="no"?>
<!DOCTYPE svg PUBLIC "-//W3C//DTD SVG 1.1//EN"
 "http://www.w3.org/Graphics/SVG/1.1/DTD/svg11.dtd">
<!-- Generated by graphviz version 2.38.0 (20140413.2041)
 -->
<!-- Title: Tools::Tstr::String2LPCWSTR Pages: 1 -->
<svg width="756pt" height="28pt"
 viewBox="0.00 0.00 756.00 28.00" xmlns="http://www.w3.org/2000/svg" xmlns:xlink="http://www.w3.org/1999/xlink">
<g id="graph0" class="graph" transform="scale(1 1) rotate(0) translate(4 24)">
<title>Tools::Tstr::String2LPCWSTR</title>
<polygon fill="white" stroke="none" points="-4,4 -4,-24 752,-24 752,4 -4,4"/>
<!-- Node1 -->
<g id="node1" class="node"><title>Node1</title>
<polygon fill="#bfbfbf" stroke="black" points="0,-0.5 0,-19.5 146,-19.5 146,-0.5 0,-0.5"/>
<text text-anchor="middle" x="73" y="-7.5" font-family="Helvetica,sans-Serif" font-size="10.00">Tools::Tstr::String2LPCWSTR</text>
</g>
<!-- Node2 -->
<g id="node2" class="node"><title>Node2</title>
<g id="a_node2"><a xlink:href="class_net_html.html#a1d26b557eca7cab7c987aae38438c3ae" target="_top" xlink:title="函数通过CSocket获取对应的html文件字符流。 函数通过CSocket和url对应的服务器建立连接,并将请求资源报文发送给服务器，成功响应后一行行的获取从服务器发来的数据， 并将数据转码为Unicode，拼接到返回的字符串myhtml ">
<polygon fill="white" stroke="black" points="182,-0.5 182,-19.5 306,-19.5 306,-0.5 182,-0.5"/>
<text text-anchor="middle" x="244" y="-7.5" font-family="Helvetica,sans-Serif" font-size="10.00">NetHtml::getURLContext</text>
</a>
</g>
</g>
<!-- Node1&#45;&gt;Node2 -->
<g id="edge1" class="edge"><title>Node1&#45;&gt;Node2</title>
<path fill="none" stroke="midnightblue" d="M156.287,-10C164.943,-10 173.63,-10 181.984,-10"/>
<polygon fill="midnightblue" stroke="midnightblue" points="156.161,-6.5001 146.161,-10 156.161,-13.5001 156.161,-6.5001"/>
</g>
<!-- Node3 -->
<g id="node3" class="node"><title>Node3</title>
<g id="a_node3"><a xlink:href="class_user_cmd.html#ad5fa0ccaab5d2a8bf2b4aeccc6c4c01b" target="_top" xlink:title="UserCmd::GetHtml">
<polygon fill="white" stroke="black" points="342,-0.5 342,-19.5 441,-19.5 441,-0.5 342,-0.5"/>
<text text-anchor="middle" x="391.5" y="-7.5" font-family="Helvetica,sans-Serif" font-size="10.00">UserCmd::GetHtml</text>
</a>
</g>
</g>
<!-- Node2&#45;&gt;Node3 -->
<g id="edge2" class="edge"><title>Node2&#45;&gt;Node3</title>
<path fill="none" stroke="midnightblue" d="M316.313,-10C324.892,-10 333.498,-10 341.652,-10"/>
<polygon fill="midnightblue" stroke="midnightblue" points="316.283,-6.5001 306.283,-10 316.283,-13.5001 316.283,-6.5001"/>
</g>
<!-- Node4 -->
<g id="node4" class="node"><title>Node4</title>
<g id="a_node4"><a xlink:href="class_cmd_view.html#a70cf028b2bc48ea3e0e6be3319911c85" target="_top" xlink:title="创建消息处理线程,注册消息映射 ">
<polygon fill="white" stroke="black" points="477,-0.5 477,-19.5 582,-19.5 582,-0.5 477,-0.5"/>
<text text-anchor="middle" x="529.5" y="-7.5" font-family="Helvetica,sans-Serif" font-size="10.00">CmdView::Initialcmd</text>
</a>
</g>
</g>
<!-- Node3&#45;&gt;Node4 -->
<g id="edge3" class="edge"><title>Node3&#45;&gt;Node4</title>
<path fill="none" stroke="midnightblue" d="M451.429,-10C459.911,-10 468.584,-10 476.908,-10"/>
<polygon fill="midnightblue" stroke="midnightblue" points="451.215,-6.5001 441.215,-10 451.215,-13.5001 451.215,-6.5001"/>
</g>
<!-- Node5 -->
<g id="node5" class="node"><title>Node5</title>
<g id="a_node5"><a xlink:href="class_cmd_view.html#a37a513e8262ea52c1859f8be73dac1b7" target="_top" xlink:title="函数在视图附加到文档后触发,主要完成界面的初始化工作 ">
<polygon fill="white" stroke="black" points="618,-0.5 618,-19.5 748,-19.5 748,-0.5 618,-0.5"/>
<text text-anchor="middle" x="683" y="-7.5" font-family="Helvetica,sans-Serif" font-size="10.00">CmdView::OnInitialUpdate</text>
</a>
</g>
</g>
<!-- Node4&#45;&gt;Node5 -->
<g id="edge4" class="edge"><title>Node4&#45;&gt;Node5</title>
<path fill="none" stroke="midnightblue" d="M592.352,-10C600.784,-10 609.453,-10 617.924,-10"/>
<polygon fill="midnightblue" stroke="midnightblue" points="592.214,-6.5001 582.214,-10 592.214,-13.5001 592.214,-6.5001"/>
</g>
</g>
</svg>
