<?xml version="1.0" encoding="UTF-8" standalone="no"?>
<!DOCTYPE svg PUBLIC "-//W3C//DTD SVG 1.1//EN"
 "http://www.w3.org/Graphics/SVG/1.1/DTD/svg11.dtd">
<!-- Generated by graphviz version 2.38.0 (20140413.2041)
 -->
<!-- Title: UserCmd::SetDll Pages: 1 -->
<svg width="303pt" height="47pt"
 viewBox="0.00 0.00 303.00 47.00" xmlns="http://www.w3.org/2000/svg" xmlns:xlink="http://www.w3.org/1999/xlink">
<g id="graph0" class="graph" transform="scale(1 1) rotate(0) translate(4 43)">
<title>UserCmd::SetDll</title>
<polygon fill="white" stroke="none" points="-4,4 -4,-43 299,-43 299,4 -4,4"/>
<!-- Node1 -->
<g id="node1" class="node"><title>Node1</title>
<polygon fill="#bfbfbf" stroke="black" points="0,-0.5 0,-19.5 89,-19.5 89,-0.5 0,-0.5"/>
<text text-anchor="middle" x="44.5" y="-7.5" font-family="Helvetica,sans-Serif" font-size="10.00">UserCmd::SetDll</text>
</g>
<!-- Node2 -->
<g id="node2" class="node"><title>Node2</title>
<g id="a_node2"><a xlink:href="class_net_dll.html#abb349ff2f7a5d0cfc0906e70f7716638" target="_top" xlink:title="NetDll::LoadDll">
<polygon fill="white" stroke="black" points="125,-19.5 125,-38.5 206,-38.5 206,-19.5 125,-19.5"/>
<text text-anchor="middle" x="165.5" y="-26.5" font-family="Helvetica,sans-Serif" font-size="10.00">NetDll::LoadDll</text>
</a>
</g>
</g>
<!-- Node1&#45;&gt;Node2 -->
<g id="edge1" class="edge"><title>Node1&#45;&gt;Node2</title>
<path fill="none" stroke="midnightblue" d="M89.1355,-16.967C97.5266,-18.3068 106.372,-19.719 114.935,-21.0862"/>
<polygon fill="midnightblue" stroke="midnightblue" points="114.386,-24.5428 124.813,-22.6634 115.49,-17.6304 114.386,-24.5428"/>
</g>
<!-- Node3 -->
<g id="node3" class="node"><title>Node3</title>
<g id="a_node3"><a xlink:href="_net_dll_8cpp.html#a9c2b5e88743a9770d87dab4b3ec274ec" target="_top" xlink:title="æ‰“å°ä¸€è¡Œæ–‡å­—åˆ°æ—¥å¿—çª—å£ å‡½æ•°å‘é€PRINTæ¶ˆæ¯åˆ°LogViewçª—å£ï¼Œå¹¶å°†å­—ç¬¦ä¸²å°è£…åˆ°lparamä¸­ï¼ŒLogViewçª—å£æŽ¥æ”¶åˆ°è¯¥æ¶...">
<polygon fill="white" stroke="black" points="242,-0.5 242,-19.5 295,-19.5 295,-0.5 242,-0.5"/>
<text text-anchor="middle" x="268.5" y="-7.5" font-family="Helvetica,sans-Serif" font-size="10.00">PrintLog</text>
</a>
</g>
</g>
<!-- Node1&#45;&gt;Node3 -->
<g id="edge3" class="edge"><title>Node1&#45;&gt;Node3</title>
<path fill="none" stroke="midnightblue" d="M89.0952,-10C130.763,-10 192.824,-10 231.686,-10"/>
<polygon fill="midnightblue" stroke="midnightblue" points="231.995,-13.5001 241.995,-10 231.995,-6.5001 231.995,-13.5001"/>
</g>
<!-- Node2&#45;&gt;Node3 -->
<g id="edge2" class="edge"><title>Node2&#45;&gt;Node3</title>
<path fill="none" stroke="midnightblue" d="M206.128,-21.5452C214.693,-19.9339 223.696,-18.2403 232.088,-16.6617"/>
<polygon fill="midnightblue" stroke="midnightblue" points="232.769,-20.0951 241.949,-14.8066 231.474,-13.2158 232.769,-20.0951"/>
</g>
</g>
</svg>
