<?xml version="1.0" encoding="UTF-8" standalone="no"?>
<!DOCTYPE svg PUBLIC "-//W3C//DTD SVG 1.1//EN"
 "http://www.w3.org/Graphics/SVG/1.1/DTD/svg11.dtd">
<!-- Generated by graphviz version 2.38.0 (20140413.2041)
 -->
<!-- Title: UserCmd::Connect Pages: 1 -->
<svg width="220pt" height="142pt"
 viewBox="0.00 0.00 220.00 142.00" xmlns="http://www.w3.org/2000/svg" xmlns:xlink="http://www.w3.org/1999/xlink">
<g id="graph0" class="graph" transform="scale(1 1) rotate(0) translate(4 138)">
<title>UserCmd::Connect</title>
<polygon fill="white" stroke="none" points="-4,4 -4,-138 216,-138 216,4 -4,4"/>
<!-- Node1 -->
<g id="node1" class="node"><title>Node1</title>
<polygon fill="#bfbfbf" stroke="black" points="0,-57.5 0,-76.5 99,-76.5 99,-57.5 0,-57.5"/>
<text text-anchor="middle" x="49.5" y="-64.5" font-family="Helvetica,sans-Serif" font-size="10.00">UserCmd::Connect</text>
</g>
<!-- Node2 -->
<g id="node2" class="node"><title>Node2</title>
<g id="a_node2"><a xlink:href="_net_dll_8cpp.html#a9c2b5e88743a9770d87dab4b3ec274ec" target="_top" xlink:title="æ‰“å°ä¸€è¡Œæ–‡å­—åˆ°æ—¥å¿—çª—å£ å‡½æ•°å‘é€PRINTæ¶ˆæ¯åˆ°LogViewçª—å£ï¼Œå¹¶å°†å­—ç¬¦ä¸²å°è£…åˆ°lparamä¸­ï¼ŒLogViewçª—å£æŽ¥æ”¶åˆ°è¯¥æ¶...">
<polygon fill="white" stroke="black" points="147,-114.5 147,-133.5 200,-133.5 200,-114.5 147,-114.5"/>
<text text-anchor="middle" x="173.5" y="-121.5" font-family="Helvetica,sans-Serif" font-size="10.00">PrintLog</text>
</a>
</g>
</g>
<!-- Node1&#45;&gt;Node2 -->
<g id="edge1" class="edge"><title>Node1&#45;&gt;Node2</title>
<path fill="none" stroke="midnightblue" d="M70.9201,-76.5405C90.5375,-85.7061 120.403,-99.6595 142.68,-110.068"/>
<polygon fill="midnightblue" stroke="midnightblue" points="141.472,-113.366 152.013,-114.428 144.435,-107.024 141.472,-113.366"/>
</g>
<!-- Node3 -->
<g id="node3" class="node"><title>Node3</title>
<g id="a_node3"><a xlink:href="_net_work_8h.html#ad0fd7e12f565bc4202d32e726131e5c0" target="_top" xlink:title="è®¾ç½®CmdViewçš„å‘½ä»¤æç¤ºè¯­ï¼ŒæŽ¥ç®¡CmdViewçš„è¾“å…¥ å‡½æ•°å‘é€TAKEOVERCMDæ¶ˆæ¯åˆ°CmdViewçª—å£ï¼Œå¹¶å°†å­—ç¬¦ä¸²å°è£…åˆ°lpar...">
<polygon fill="white" stroke="black" points="135,-76.5 135,-95.5 212,-95.5 212,-76.5 135,-76.5"/>
<text text-anchor="middle" x="173.5" y="-83.5" font-family="Helvetica,sans-Serif" font-size="10.00">TakeOverCmd</text>
</a>
</g>
</g>
<!-- Node1&#45;&gt;Node3 -->
<g id="edge2" class="edge"><title>Node1&#45;&gt;Node3</title>
<path fill="none" stroke="midnightblue" d="M99.0682,-74.5639C107.477,-75.8735 116.215,-77.2343 124.606,-78.5411"/>
<polygon fill="midnightblue" stroke="midnightblue" points="124.204,-82.0206 134.623,-80.1012 125.281,-75.1039 124.204,-82.0206"/>
</g>
<!-- Node4 -->
<g id="node4" class="node"><title>Node4</title>
<g id="a_node4"><a xlink:href="_net_work_8h.html#a37f502656ead81caea91832807d5ba94" target="_top" xlink:title="æ‰“å°ä¸€è¡Œæ–‡å­—åˆ°å“åº”çª—å£ å‡½æ•°å‘é€PRINTæ¶ˆæ¯åˆ°RespondViewçª—å£ï¼Œå¹¶å°†å­—ç¬¦ä¸²å°è£…åˆ°lparamä¸­ï¼ŒRespondViewçª—å£æŽ...">
<polygon fill="white" stroke="black" points="149,-38.5 149,-57.5 198,-57.5 198,-38.5 149,-38.5"/>
<text text-anchor="middle" x="173.5" y="-45.5" font-family="Helvetica,sans-Serif" font-size="10.00">PrintRp</text>
</a>
</g>
</g>
<!-- Node1&#45;&gt;Node4 -->
<g id="edge3" class="edge"><title>Node1&#45;&gt;Node4</title>
<path fill="none" stroke="midnightblue" d="M99.0682,-59.4361C112.328,-57.3711 126.406,-55.1786 138.65,-53.2716"/>
<polygon fill="midnightblue" stroke="midnightblue" points="139.53,-56.677 148.872,-51.6798 138.453,-49.7604 139.53,-56.677"/>
</g>
<!-- Node5 -->
<g id="node5" class="node"><title>Node5</title>
<g id="a_node5"><a xlink:href="_net_work_8h.html#ab7520283bb1638c3850a041326fddbde" target="_top" xlink:title="ä»ŽCmdViewä¸­èŽ·å–ä¸€è¡Œè¾“å…¥ å‡½æ•°åœ¨ç”¨æˆ·å‘½ä»¤æ¨¡å¼ä¸‹ä»ŽCmdèŽ·å–ä¸€è¡Œè¾“å…¥ã€‚å‡½æ•°é¦–å…ˆåˆ¤æ–­å½“å‰æ˜¯å¦å¤„äºŽç”¨æˆ·å‘½ä»¤æ¨¡å¼ ...">
<polygon fill="white" stroke="black" points="148.5,-0.5 148.5,-19.5 198.5,-19.5 198.5,-0.5 148.5,-0.5"/>
<text text-anchor="middle" x="173.5" y="-7.5" font-family="Helvetica,sans-Serif" font-size="10.00">GetLine</text>
</a>
</g>
</g>
<!-- Node1&#45;&gt;Node5 -->
<g id="edge4" class="edge"><title>Node1&#45;&gt;Node5</title>
<path fill="none" stroke="midnightblue" d="M70.9201,-57.4595C90.5375,-48.2939 120.403,-34.3405 142.68,-23.9324"/>
<polygon fill="midnightblue" stroke="midnightblue" points="144.435,-26.9756 152.013,-19.5716 141.472,-20.6336 144.435,-26.9756"/>
</g>
</g>
</svg>
