<?xml version="1.0" encoding="UTF-8" standalone="no"?>
<!DOCTYPE svg PUBLIC "-//W3C//DTD SVG 1.1//EN"
 "http://www.w3.org/Graphics/SVG/1.1/DTD/svg11.dtd">
<!-- Generated by graphviz version 2.38.0 (20140413.2041)
 -->
<!-- Title: CmdView::DEALCMD Pages: 1 -->
<svg width="367pt" height="66pt"
 viewBox="0.00 0.00 367.00 66.00" xmlns="http://www.w3.org/2000/svg" xmlns:xlink="http://www.w3.org/1999/xlink">
<g id="graph0" class="graph" transform="scale(1 1) rotate(0) translate(4 62)">
<title>CmdView::DEALCMD</title>
<polygon fill="white" stroke="none" points="-4,4 -4,-62 363,-62 363,4 -4,4"/>
<!-- Node1 -->
<g id="node1" class="node"><title>Node1</title>
<polygon fill="#bfbfbf" stroke="black" points="0,-19.5 0,-38.5 111,-38.5 111,-19.5 0,-19.5"/>
<text text-anchor="middle" x="55.5" y="-26.5" font-family="Helvetica,sans-Serif" font-size="10.00">CmdView::DEALCMD</text>
</g>
<!-- Node2 -->
<g id="node2" class="node"><title>Node2</title>
<g id="a_node2"><a xlink:href="class_cmd_view.html#a19fb61e29f7be75474462793ea26d461" target="_top" xlink:title="å®žçŽ°å‘½ä»¤å­—ç¬¦ä¸²åˆ°å‘½ä»¤å¤„ç†å‡½æ•°ä¹‹é—´çš„æ˜ å°„ ">
<polygon fill="white" stroke="black" points="156.5,-38.5 156.5,-57.5 260.5,-57.5 260.5,-38.5 156.5,-38.5"/>
<text text-anchor="middle" x="208.5" y="-45.5" font-family="Helvetica,sans-Serif" font-size="10.00">CmdView::MapTask</text>
</a>
</g>
</g>
<!-- Node1&#45;&gt;Node2 -->
<g id="edge1" class="edge"><title>Node1&#45;&gt;Node2</title>
<path fill="none" stroke="midnightblue" d="M111.014,-35.8594C122.449,-37.2982 134.58,-38.8247 146.241,-40.292"/>
<polygon fill="midnightblue" stroke="midnightblue" points="145.98,-43.7866 156.339,-41.5625 146.854,-36.8414 145.98,-43.7866"/>
</g>
<!-- Node4 -->
<g id="node4" class="node"><title>Node4</title>
<g id="a_node4"><a xlink:href="class_cmd_view.html#a71dba2e0097271efdc1874ff3a01847a" target="_top" xlink:title="å‘½ä»¤å·²å¤„ç†å®Œæˆ ">
<polygon fill="white" stroke="black" points="147,-0.5 147,-19.5 270,-19.5 270,-0.5 147,-0.5"/>
<text text-anchor="middle" x="208.5" y="-7.5" font-family="Helvetica,sans-Serif" font-size="10.00">CmdView::DealCmdOver</text>
</a>
</g>
</g>
<!-- Node1&#45;&gt;Node4 -->
<g id="edge3" class="edge"><title>Node1&#45;&gt;Node4</title>
<path fill="none" stroke="midnightblue" d="M111.014,-22.1406C119.394,-21.0862 128.147,-19.9848 136.816,-18.894"/>
<polygon fill="midnightblue" stroke="midnightblue" points="137.441,-22.3431 146.925,-17.622 136.567,-15.3979 137.441,-22.3431"/>
</g>
<!-- Node3 -->
<g id="node3" class="node"><title>Node3</title>
<g id="a_node3"><a xlink:href="_net_dll_8cpp.html#a9c2b5e88743a9770d87dab4b3ec274ec" target="_top" xlink:title="æ‰“å°ä¸€è¡Œæ–‡å­—åˆ°æ—¥å¿—çª—å£ å‡½æ•°å‘é€PRINTæ¶ˆæ¯åˆ°LogViewçª—å£ï¼Œå¹¶å°†å­—ç¬¦ä¸²å°è£…åˆ°lparamä¸­ï¼ŒLogViewçª—å£æŽ¥æ”¶åˆ°è¯¥æ¶...">
<polygon fill="white" stroke="black" points="306,-38.5 306,-57.5 359,-57.5 359,-38.5 306,-38.5"/>
<text text-anchor="middle" x="332.5" y="-45.5" font-family="Helvetica,sans-Serif" font-size="10.00">PrintLog</text>
</a>
</g>
</g>
<!-- Node2&#45;&gt;Node3 -->
<g id="edge2" class="edge"><title>Node2&#45;&gt;Node3</title>
<path fill="none" stroke="midnightblue" d="M260.532,-48C272.408,-48 284.801,-48 295.846,-48"/>
<polygon fill="midnightblue" stroke="midnightblue" points="295.962,-51.5001 305.962,-48 295.962,-44.5001 295.962,-51.5001"/>
</g>
<!-- Node5 -->
<g id="node5" class="node"><title>Node5</title>
<g id="a_node5"><a xlink:href="_net_work_8h.html#a2c381264f349b11e7959d11e88ffecee" target="_top" xlink:title="SetHint">
<polygon fill="white" stroke="black" points="308,-0.5 308,-19.5 357,-19.5 357,-0.5 308,-0.5"/>
<text text-anchor="middle" x="332.5" y="-7.5" font-family="Helvetica,sans-Serif" font-size="10.00">SetHint</text>
</a>
</g>
</g>
<!-- Node4&#45;&gt;Node5 -->
<g id="edge4" class="edge"><title>Node4&#45;&gt;Node5</title>
<path fill="none" stroke="midnightblue" d="M270.143,-10C279.561,-10 288.992,-10 297.535,-10"/>
<polygon fill="midnightblue" stroke="midnightblue" points="297.814,-13.5001 307.814,-10 297.814,-6.5001 297.814,-13.5001"/>
</g>
</g>
</svg>
