<?xml version="1.0" encoding="UTF-8" standalone="no"?>
<!DOCTYPE svg PUBLIC "-//W3C//DTD SVG 1.1//EN"
 "http://www.w3.org/Graphics/SVG/1.1/DTD/svg11.dtd">
<!-- Generated by graphviz version 2.38.0 (20140413.2041)
 -->
<!-- Title: NetWork::MySocket Pages: 1 -->
<svg width="214pt" height="84pt"
 viewBox="0.00 0.00 214.00 84.00" xmlns="http://www.w3.org/2000/svg" xmlns:xlink="http://www.w3.org/1999/xlink">
<g id="graph0" class="graph" transform="scale(1 1) rotate(0) translate(4 80)">
<title>NetWork::MySocket</title>
<polygon fill="white" stroke="none" points="-4,4 -4,-80 210,-80 210,4 -4,4"/>
<!-- Node1 -->
<g id="node1" class="node"><title>Node1</title>
<polygon fill="#bfbfbf" stroke="black" points="50,-56.5 50,-75.5 155,-75.5 155,-56.5 50,-56.5"/>
<text text-anchor="middle" x="102.5" y="-63.5" font-family="Helvetica,sans-Serif" font-size="10.00">NetWork::MySocket</text>
</g>
<!-- Node2 -->
<g id="node2" class="node"><title>Node2</title>
<g id="a_node2"><a xlink:href="class_net_work_1_1_my_t_c_p.html" target="_top" xlink:title="该类封装TCP协议方法. ">
<polygon fill="white" stroke="black" points="0,-0.5 0,-19.5 93,-19.5 93,-0.5 0,-0.5"/>
<text text-anchor="middle" x="46.5" y="-7.5" font-family="Helvetica,sans-Serif" font-size="10.00">NetWork::MyTCP</text>
</a>
</g>
</g>
<!-- Node1&#45;&gt;Node2 -->
<g id="edge1" class="edge"><title>Node1&#45;&gt;Node2</title>
<path fill="none" stroke="#8b1a1a" d="M86.1701,-49.2533C76.235,-39.6731 63.9125,-27.7906 55.6611,-19.8339"/>
<polygon fill="#8b1a1a" stroke="#8b1a1a" points="83.8747,-51.902 93.5026,-56.324 88.7336,-46.8631 83.8747,-51.902"/>
</g>
<!-- Node3 -->
<g id="node3" class="node"><title>Node3</title>
<g id="a_node3"><a xlink:href="class_net_work_1_1_my_u_d_p.html" target="_top" xlink:title="继承自MySocket，实现UDPSocket ">
<polygon fill="white" stroke="black" points="111,-0.5 111,-19.5 206,-19.5 206,-0.5 111,-0.5"/>
<text text-anchor="middle" x="158.5" y="-7.5" font-family="Helvetica,sans-Serif" font-size="10.00">NetWork::MyUDP</text>
</a>
</g>
</g>
<!-- Node1&#45;&gt;Node3 -->
<g id="edge2" class="edge"><title>Node1&#45;&gt;Node3</title>
<path fill="none" stroke="#8b1a1a" d="M118.83,-49.2533C128.765,-39.6731 141.088,-27.7906 149.339,-19.8339"/>
<polygon fill="#8b1a1a" stroke="#8b1a1a" points="116.266,-46.8631 111.497,-56.324 121.125,-51.902 116.266,-46.8631"/>
</g>
</g>
</svg>
