<?xml version="1.0" encoding="UTF-8" standalone="no"?>
<!DOCTYPE svg PUBLIC "-//W3C//DTD SVG 1.1//EN"
 "http://www.w3.org/Graphics/SVG/1.1/DTD/svg11.dtd">
<!-- Generated by graphviz version 2.38.0 (20140413.2041)
 -->
<!-- Title: NetWork::ChatWork::Begin Pages: 1 -->
<svg width="231pt" height="142pt"
 viewBox="0.00 0.00 231.00 142.00" xmlns="http://www.w3.org/2000/svg" xmlns:xlink="http://www.w3.org/1999/xlink">
<g id="graph0" class="graph" transform="scale(1 1) rotate(0) translate(4 138)">
<title>NetWork::ChatWork::Begin</title>
<polygon fill="white" stroke="none" points="-4,4 -4,-138 227,-138 227,4 -4,4"/>
<!-- Node1 -->
<g id="node1" class="node"><title>Node1</title>
<polygon fill="#bfbfbf" stroke="black" points="0,-52 0,-82 110,-82 110,-52 0,-52"/>
<text text-anchor="start" x="8" y="-70" font-family="Helvetica,sans-Serif" font-size="10.00">NetWork::ChatWork::</text>
<text text-anchor="middle" x="55" y="-59" font-family="Helvetica,sans-Serif" font-size="10.00">Begin</text>
</g>
<!-- Node2 -->
<g id="node2" class="node"><title>Node2</title>
<g id="a_node2"><a xlink:href="_net_work_8h.html#ad0fd7e12f565bc4202d32e726131e5c0" target="_top" xlink:title="è®¾ç½®CmdViewçš„å‘½ä»¤æç¤ºè¯­ï¼ŒæŽ¥ç®¡CmdViewçš„è¾“å…¥ å‡½æ•°å‘é€TAKEOVERCMDæ¶ˆæ¯åˆ°CmdViewçª—å£ï¼Œå¹¶å°†å­—ç¬¦ä¸²å°è£…åˆ°lpar...">
<polygon fill="white" stroke="black" points="146,-114.5 146,-133.5 223,-133.5 223,-114.5 146,-114.5"/>
<text text-anchor="middle" x="184.5" y="-121.5" font-family="Helvetica,sans-Serif" font-size="10.00">TakeOverCmd</text>
</a>
</g>
</g>
<!-- Node1&#45;&gt;Node2 -->
<g id="edge1" class="edge"><title>Node1&#45;&gt;Node2</title>
<path fill="none" stroke="midnightblue" d="M89.8329,-82.1253C109.308,-90.8319 133.601,-101.692 152.566,-110.171"/>
<polygon fill="midnightblue" stroke="midnightblue" points="151.387,-113.477 161.945,-114.363 154.244,-107.087 151.387,-113.477"/>
</g>
<!-- Node3 -->
<g id="node3" class="node"><title>Node3</title>
<g id="a_node3"><a xlink:href="_net_work_8h.html#ab7520283bb1638c3850a041326fddbde" target="_top" xlink:title="ä»ŽCmdViewä¸­èŽ·å–ä¸€è¡Œè¾“å…¥ å‡½æ•°åœ¨ç”¨æˆ·å‘½ä»¤æ¨¡å¼ä¸‹ä»ŽCmdèŽ·å–ä¸€è¡Œè¾“å…¥ã€‚å‡½æ•°é¦–å…ˆåˆ¤æ–­å½“å‰æ˜¯å¦å¤„äºŽç”¨æˆ·å‘½ä»¤æ¨¡å¼ ...">
<polygon fill="white" stroke="black" points="159.5,-76.5 159.5,-95.5 209.5,-95.5 209.5,-76.5 159.5,-76.5"/>
<text text-anchor="middle" x="184.5" y="-83.5" font-family="Helvetica,sans-Serif" font-size="10.00">GetLine</text>
</a>
</g>
</g>
<!-- Node1&#45;&gt;Node3 -->
<g id="edge2" class="edge"><title>Node1&#45;&gt;Node3</title>
<path fill="none" stroke="midnightblue" d="M110.071,-75.0577C123.405,-77.0447 137.317,-79.1178 149.4,-80.9185"/>
<polygon fill="midnightblue" stroke="midnightblue" points="149.081,-84.4095 159.488,-82.4217 150.113,-77.4859 149.081,-84.4095"/>
</g>
<!-- Node4 -->
<g id="node4" class="node"><title>Node4</title>
<g id="a_node4"><a xlink:href="_net_work_8h.html#a9c2b5e88743a9770d87dab4b3ec274ec" target="_top" xlink:title="æ‰“å°ä¸€è¡Œæ–‡å­—åˆ°æ—¥å¿—çª—å£ å‡½æ•°å‘é€PRINTæ¶ˆæ¯åˆ°LogViewçª—å£ï¼Œå¹¶å°†å­—ç¬¦ä¸²å°è£…åˆ°lparamä¸­ï¼ŒLogViewçª—å£æŽ¥æ”¶åˆ°è¯¥æ¶...">
<polygon fill="white" stroke="black" points="158,-38.5 158,-57.5 211,-57.5 211,-38.5 158,-38.5"/>
<text text-anchor="middle" x="184.5" y="-45.5" font-family="Helvetica,sans-Serif" font-size="10.00">PrintLog</text>
</a>
</g>
</g>
<!-- Node1&#45;&gt;Node4 -->
<g id="edge3" class="edge"><title>Node1&#45;&gt;Node4</title>
<path fill="none" stroke="midnightblue" d="M110.071,-58.9423C122.751,-57.0528 135.953,-55.0855 147.608,-53.3485"/>
<polygon fill="midnightblue" stroke="midnightblue" points="148.443,-56.7629 157.818,-51.8271 147.412,-49.8393 148.443,-56.7629"/>
</g>
<!-- Node5 -->
<g id="node5" class="node"><title>Node5</title>
<g id="a_node5"><a xlink:href="_net_work_8h.html#a37f502656ead81caea91832807d5ba94" target="_top" xlink:title="æ‰“å°ä¸€è¡Œæ–‡å­—åˆ°å“åº”çª—å£ å‡½æ•°å‘é€PRINTæ¶ˆæ¯åˆ°RespondViewçª—å£ï¼Œå¹¶å°†å­—ç¬¦ä¸²å°è£…åˆ°lparamä¸­ï¼ŒRespondViewçª—å£æŽ...">
<polygon fill="white" stroke="black" points="160,-0.5 160,-19.5 209,-19.5 209,-0.5 160,-0.5"/>
<text text-anchor="middle" x="184.5" y="-7.5" font-family="Helvetica,sans-Serif" font-size="10.00">PrintRp</text>
</a>
</g>
</g>
<!-- Node1&#45;&gt;Node5 -->
<g id="edge4" class="edge"><title>Node1&#45;&gt;Node5</title>
<path fill="none" stroke="midnightblue" d="M89.8329,-51.8747C109.308,-43.1681 133.601,-32.3078 152.566,-23.8292"/>
<polygon fill="midnightblue" stroke="midnightblue" points="154.244,-26.9131 161.945,-19.6365 151.387,-20.5226 154.244,-26.9131"/>
</g>
</g>
</svg>
