<?xml version="1.0" encoding="UTF-8" standalone="no"?>
<!DOCTYPE svg PUBLIC "-//W3C//DTD SVG 1.1//EN"
 "http://www.w3.org/Graphics/SVG/1.1/DTD/svg11.dtd">
<!-- Generated by graphviz version 2.38.0 (20140413.2041)
 -->
<!-- Title: UserCmd::GetHtml Pages: 1 -->
<svg width="414pt" height="28pt"
 viewBox="0.00 0.00 414.00 28.00" xmlns="http://www.w3.org/2000/svg" xmlns:xlink="http://www.w3.org/1999/xlink">
<g id="graph0" class="graph" transform="scale(1 1) rotate(0) translate(4 24)">
<title>UserCmd::GetHtml</title>
<polygon fill="white" stroke="none" points="-4,4 -4,-24 410,-24 410,4 -4,4"/>
<!-- Node1 -->
<g id="node1" class="node"><title>Node1</title>
<polygon fill="#bfbfbf" stroke="black" points="0,-0.5 0,-19.5 99,-19.5 99,-0.5 0,-0.5"/>
<text text-anchor="middle" x="49.5" y="-7.5" font-family="Helvetica,sans-Serif" font-size="10.00">UserCmd::GetHtml</text>
</g>
<!-- Node2 -->
<g id="node2" class="node"><title>Node2</title>
<g id="a_node2"><a xlink:href="class_cmd_view.html#a70cf028b2bc48ea3e0e6be3319911c85" target="_top" xlink:title="创建消息处理线程,注册消息映射 ">
<polygon fill="white" stroke="black" points="135,-0.5 135,-19.5 240,-19.5 240,-0.5 135,-0.5"/>
<text text-anchor="middle" x="187.5" y="-7.5" font-family="Helvetica,sans-Serif" font-size="10.00">CmdView::Initialcmd</text>
</a>
</g>
</g>
<!-- Node1&#45;&gt;Node2 -->
<g id="edge1" class="edge"><title>Node1&#45;&gt;Node2</title>
<path fill="none" stroke="midnightblue" d="M109.429,-10C117.911,-10 126.584,-10 134.908,-10"/>
<polygon fill="midnightblue" stroke="midnightblue" points="109.215,-6.5001 99.215,-10 109.215,-13.5001 109.215,-6.5001"/>
</g>
<!-- Node3 -->
<g id="node3" class="node"><title>Node3</title>
<g id="a_node3"><a xlink:href="class_cmd_view.html#a37a513e8262ea52c1859f8be73dac1b7" target="_top" xlink:title="函数在视图附加到文档后触发,主要完成界面的初始化工作 ">
<polygon fill="white" stroke="black" points="276,-0.5 276,-19.5 406,-19.5 406,-0.5 276,-0.5"/>
<text text-anchor="middle" x="341" y="-7.5" font-family="Helvetica,sans-Serif" font-size="10.00">CmdView::OnInitialUpdate</text>
</a>
</g>
</g>
<!-- Node2&#45;&gt;Node3 -->
<g id="edge2" class="edge"><title>Node2&#45;&gt;Node3</title>
<path fill="none" stroke="midnightblue" d="M250.352,-10C258.784,-10 267.453,-10 275.924,-10"/>
<polygon fill="midnightblue" stroke="midnightblue" points="250.214,-6.5001 240.214,-10 250.214,-13.5001 250.214,-6.5001"/>
</g>
</g>
</svg>
