<?xml version="1.0" encoding="UTF-8" standalone="no"?>
<!DOCTYPE svg PUBLIC "-//W3C//DTD SVG 1.1//EN"
 "http://www.w3.org/Graphics/SVG/1.1/DTD/svg11.dtd">
<!-- Generated by graphviz version 2.38.0 (20140413.2041)
 -->
<!-- Title: NetDll::GetFun Pages: 1 -->
<svg width="534pt" height="28pt"
 viewBox="0.00 0.00 534.00 28.00" xmlns="http://www.w3.org/2000/svg" xmlns:xlink="http://www.w3.org/1999/xlink">
<g id="graph0" class="graph" transform="scale(1 1) rotate(0) translate(4 24)">
<title>NetDll::GetFun</title>
<polygon fill="white" stroke="none" points="-4,4 -4,-24 530,-24 530,4 -4,4"/>
<!-- Node1 -->
<g id="node1" class="node"><title>Node1</title>
<polygon fill="#bfbfbf" stroke="black" points="0,-0.5 0,-19.5 81,-19.5 81,-0.5 0,-0.5"/>
<text text-anchor="middle" x="40.5" y="-7.5" font-family="Helvetica,sans-Serif" font-size="10.00">NetDll::GetFun</text>
</g>
<!-- Node2 -->
<g id="node2" class="node"><title>Node2</title>
<g id="a_node2"><a xlink:href="class_user_cmd.html#a7e760ac67d39d2b210b7d2b4f8e8ad5b" target="_top" xlink:title="UserCmd::Compute">
<polygon fill="white" stroke="black" points="117,-0.5 117,-19.5 219,-19.5 219,-0.5 117,-0.5"/>
<text text-anchor="middle" x="168" y="-7.5" font-family="Helvetica,sans-Serif" font-size="10.00">UserCmd::Compute</text>
</a>
</g>
</g>
<!-- Node1&#45;&gt;Node2 -->
<g id="edge1" class="edge"><title>Node1&#45;&gt;Node2</title>
<path fill="none" stroke="midnightblue" d="M91.2974,-10C99.7366,-10 108.503,-10 116.948,-10"/>
<polygon fill="midnightblue" stroke="midnightblue" points="91.209,-6.5001 81.209,-10 91.2089,-13.5001 91.209,-6.5001"/>
</g>
<!-- Node3 -->
<g id="node3" class="node"><title>Node3</title>
<g id="a_node3"><a xlink:href="class_cmd_view.html#a70cf028b2bc48ea3e0e6be3319911c85" target="_top" xlink:title="创建消息处理线程,注册消息映射 ">
<polygon fill="white" stroke="black" points="255,-0.5 255,-19.5 360,-19.5 360,-0.5 255,-0.5"/>
<text text-anchor="middle" x="307.5" y="-7.5" font-family="Helvetica,sans-Serif" font-size="10.00">CmdView::Initialcmd</text>
</a>
</g>
</g>
<!-- Node2&#45;&gt;Node3 -->
<g id="edge2" class="edge"><title>Node2&#45;&gt;Node3</title>
<path fill="none" stroke="midnightblue" d="M229.31,-10C237.84,-10 246.545,-10 254.891,-10"/>
<polygon fill="midnightblue" stroke="midnightblue" points="229.03,-6.5001 219.03,-10 229.03,-13.5001 229.03,-6.5001"/>
</g>
<!-- Node4 -->
<g id="node4" class="node"><title>Node4</title>
<g id="a_node4"><a xlink:href="class_cmd_view.html#a37a513e8262ea52c1859f8be73dac1b7" target="_top" xlink:title="函数在视图附加到文档后触发,主要完成界面的初始化工作 ">
<polygon fill="white" stroke="black" points="396,-0.5 396,-19.5 526,-19.5 526,-0.5 396,-0.5"/>
<text text-anchor="middle" x="461" y="-7.5" font-family="Helvetica,sans-Serif" font-size="10.00">CmdView::OnInitialUpdate</text>
</a>
</g>
</g>
<!-- Node3&#45;&gt;Node4 -->
<g id="edge3" class="edge"><title>Node3&#45;&gt;Node4</title>
<path fill="none" stroke="midnightblue" d="M370.352,-10C378.784,-10 387.453,-10 395.924,-10"/>
<polygon fill="midnightblue" stroke="midnightblue" points="370.214,-6.5001 360.214,-10 370.214,-13.5001 370.214,-6.5001"/>
</g>
</g>
</svg>
