<?xml version="1.0" encoding="UTF-8" standalone="no"?>
<!DOCTYPE svg PUBLIC "-//W3C//DTD SVG 1.1//EN"
 "http://www.w3.org/Graphics/SVG/1.1/DTD/svg11.dtd">
<!-- Generated by graphviz version 2.38.0 (20140413.2041)
 -->
<!-- Title: CMainFrame Pages: 1 -->
<svg width="321pt" height="152pt"
 viewBox="0.00 0.00 321.00 152.00" xmlns="http://www.w3.org/2000/svg" xmlns:xlink="http://www.w3.org/1999/xlink">
<g id="graph0" class="graph" transform="scale(1 1) rotate(0) translate(4 148)">
<title>CMainFrame</title>
<polygon fill="white" stroke="none" points="-4,4 -4,-148 317,-148 317,4 -4,4"/>
<!-- Node1 -->
<g id="node1" class="node"><title>Node1</title>
<polygon fill="#bfbfbf" stroke="black" points="124.5,-0.5 124.5,-19.5 196.5,-19.5 196.5,-0.5 124.5,-0.5"/>
<text text-anchor="middle" x="160.5" y="-7.5" font-family="Helvetica,sans-Serif" font-size="10.00">CMainFrame</text>
</g>
<!-- Node2 -->
<g id="node2" class="node"><title>Node2</title>
<polygon fill="white" stroke="#bfbfbf" points="0,-67.5 0,-86.5 71,-86.5 71,-67.5 0,-67.5"/>
<text text-anchor="middle" x="35.5" y="-74.5" font-family="Helvetica,sans-Serif" font-size="10.00">CFrameWnd</text>
</g>
<!-- Node2&#45;&gt;Node1 -->
<g id="edge1" class="edge"><title>Node2&#45;&gt;Node1</title>
<path fill="none" stroke="midnightblue" d="M61.2628,-62.6034C86.0174,-49.7309 122.692,-30.66 143.832,-19.6672"/>
<polygon fill="midnightblue" stroke="midnightblue" points="59.3565,-59.6497 52.099,-67.3685 62.586,-65.8602 59.3565,-59.6497"/>
</g>
<!-- Node3 -->
<g id="node3" class="node"><title>Node3</title>
<g id="a_node3"><a xlink:href="class_cmd_view.html" target="_top" xlink:title="CmdView位于主界面左上角,主要完成命令的输入(界面控制),命令解析和命令映射(功能映射)。 ...">
<polygon fill="white" stroke="black" points="89.5,-67.5 89.5,-86.5 147.5,-86.5 147.5,-67.5 89.5,-67.5"/>
<text text-anchor="middle" x="118.5" y="-74.5" font-family="Helvetica,sans-Serif" font-size="10.00">CmdView</text>
</a>
</g>
</g>
<!-- Node3&#45;&gt;Node1 -->
<g id="edge2" class="edge"><title>Node3&#45;&gt;Node1</title>
<path fill="none" stroke="#9a32cd" stroke-dasharray="5,2" d="M129.785,-58.5347C137.917,-45.9499 148.541,-29.5072 154.925,-19.6273"/>
<polygon fill="#9a32cd" stroke="#9a32cd" points="126.652,-56.9351 124.164,-67.2338 132.531,-60.7341 126.652,-56.9351"/>
<text text-anchor="middle" x="156.5" y="-41" font-family="Helvetica,sans-Serif" font-size="10.00"> pcmd</text>
</g>
<!-- Node4 -->
<g id="node4" class="node"><title>Node4</title>
<polygon fill="white" stroke="#bfbfbf" points="172.5,-124.5 172.5,-143.5 234.5,-143.5 234.5,-124.5 172.5,-124.5"/>
<text text-anchor="middle" x="203.5" y="-131.5" font-family="Helvetica,sans-Serif" font-size="10.00">CEditView</text>
</g>
<!-- Node4&#45;&gt;Node3 -->
<g id="edge3" class="edge"><title>Node4&#45;&gt;Node3</title>
<path fill="none" stroke="midnightblue" d="M181.592,-118.824C165.799,-108.605 145.002,-95.1483 131.688,-86.5334"/>
<polygon fill="midnightblue" stroke="midnightblue" points="179.922,-121.912 190.219,-124.406 183.724,-116.035 179.922,-121.912"/>
</g>
<!-- Node5 -->
<g id="node5" class="node"><title>Node5</title>
<g id="a_node5"><a xlink:href="class_respond_view.html" target="_top" xlink:title="RespondView 视图 ">
<polygon fill="white" stroke="black" points="165.5,-67.5 165.5,-86.5 241.5,-86.5 241.5,-67.5 165.5,-67.5"/>
<text text-anchor="middle" x="203.5" y="-74.5" font-family="Helvetica,sans-Serif" font-size="10.00">RespondView</text>
</a>
</g>
</g>
<!-- Node4&#45;&gt;Node5 -->
<g id="edge5" class="edge"><title>Node4&#45;&gt;Node5</title>
<path fill="none" stroke="midnightblue" d="M203.5,-114.117C203.5,-104.817 203.5,-94.0557 203.5,-86.7149"/>
<polygon fill="midnightblue" stroke="midnightblue" points="200,-114.406 203.5,-124.406 207,-114.406 200,-114.406"/>
</g>
<!-- Node6 -->
<g id="node6" class="node"><title>Node6</title>
<g id="a_node6"><a xlink:href="class_log_view.html" target="_top" xlink:title="LogView 视图 ">
<polygon fill="white" stroke="black" points="260,-67.5 260,-86.5 313,-86.5 313,-67.5 260,-67.5"/>
<text text-anchor="middle" x="286.5" y="-74.5" font-family="Helvetica,sans-Serif" font-size="10.00">LogView</text>
</a>
</g>
</g>
<!-- Node4&#45;&gt;Node6 -->
<g id="edge7" class="edge"><title>Node4&#45;&gt;Node6</title>
<path fill="none" stroke="midnightblue" d="M224.892,-118.824C240.314,-108.605 260.622,-95.1483 273.622,-86.5334"/>
<polygon fill="midnightblue" stroke="midnightblue" points="222.871,-115.965 216.469,-124.406 226.738,-121.8 222.871,-115.965"/>
</g>
<!-- Node5&#45;&gt;Node1 -->
<g id="edge4" class="edge"><title>Node5&#45;&gt;Node1</title>
<path fill="none" stroke="#9a32cd" stroke-dasharray="5,2" d="M191.946,-58.5347C183.621,-45.9499 172.743,-29.5072 166.207,-19.6273"/>
<polygon fill="#9a32cd" stroke="#9a32cd" points="189.264,-60.8247 197.701,-67.2338 195.103,-56.9625 189.264,-60.8247"/>
<text text-anchor="middle" x="207" y="-41" font-family="Helvetica,sans-Serif" font-size="10.00"> prespond</text>
</g>
<!-- Node6&#45;&gt;Node1 -->
<g id="edge6" class="edge"><title>Node6&#45;&gt;Node1</title>
<path fill="none" stroke="#9a32cd" stroke-dasharray="5,2" d="M267.818,-61.0722C257.753,-53.4987 244.887,-44.5433 232.5,-38 218.453,-30.5797 201.908,-24.2238 188.222,-19.5461"/>
<polygon fill="#9a32cd" stroke="#9a32cd" points="265.804,-63.9391 275.859,-67.2767 270.08,-58.3969 265.804,-63.9391"/>
<text text-anchor="middle" x="261.5" y="-41" font-family="Helvetica,sans-Serif" font-size="10.00"> plog</text>
</g>
</g>
</svg>
