<?xml version="1.0" encoding="UTF-8" standalone="no"?>
<!DOCTYPE svg PUBLIC "-//W3C//DTD SVG 1.1//EN"
 "http://www.w3.org/Graphics/SVG/1.1/DTD/svg11.dtd">
<!-- Generated by graphviz version 2.38.0 (20140413.2041)
 -->
<!-- Title: UserCmd::GetHtml Pages: 1 -->
<svg width="449pt" height="142pt"
 viewBox="0.00 0.00 449.00 142.00" xmlns="http://www.w3.org/2000/svg" xmlns:xlink="http://www.w3.org/1999/xlink">
<g id="graph0" class="graph" transform="scale(1 1) rotate(0) translate(4 138)">
<title>UserCmd::GetHtml</title>
<polygon fill="white" stroke="none" points="-4,4 -4,-138 445,-138 445,4 -4,4"/>
<!-- Node1 -->
<g id="node1" class="node"><title>Node1</title>
<polygon fill="#bfbfbf" stroke="black" points="0,-38.5 0,-57.5 99,-57.5 99,-38.5 0,-38.5"/>
<text text-anchor="middle" x="49.5" y="-45.5" font-family="Helvetica,sans-Serif" font-size="10.00">UserCmd::GetHtml</text>
</g>
<!-- Node2 -->
<g id="node2" class="node"><title>Node2</title>
<g id="a_node2"><a xlink:href="class_net_html.html#a1d26b557eca7cab7c987aae38438c3ae" target="_top" xlink:title="å‡½æ•°é€šè¿‡CSocketèŽ·å–å¯¹åº”çš„htmlæ–‡ä»¶å­—ç¬¦æµã€‚ å‡½æ•°é€šè¿‡CSocketå’Œurlå¯¹åº”çš„æœåŠ¡å™¨å»ºç«‹è¿žæŽ¥,å¹¶å°†è¯·æ±‚èµ„æºæŠ¥æ–‡å‘é€ç»™æœåŠ¡å™¨ï¼ŒæˆåŠŸå“åº”åŽä¸€è¡Œè¡Œçš„èŽ·å–ä»ŽæœåŠ¡å™¨å‘æ¥çš„æ•°æ®ï¼Œ å¹¶å°†æ•°æ®è½¬ç ä¸ºUnicodeï¼Œæ‹¼æŽ¥åˆ°è¿”å›žçš„å­—ç¬¦ä¸²myhtml ">
<polygon fill="white" stroke="black" points="135,-57.5 135,-76.5 259,-76.5 259,-57.5 135,-57.5"/>
<text text-anchor="middle" x="197" y="-64.5" font-family="Helvetica,sans-Serif" font-size="10.00">NetHtml::getURLContext</text>
</a>
</g>
</g>
<!-- Node1&#45;&gt;Node2 -->
<g id="edge1" class="edge"><title>Node1&#45;&gt;Node2</title>
<path fill="none" stroke="midnightblue" d="M99.3542,-54.3796C107.543,-55.4489 116.186,-56.5775 124.8,-57.7024"/>
<polygon fill="midnightblue" stroke="midnightblue" points="124.501,-61.193 134.87,-59.0174 125.407,-54.2519 124.501,-61.193"/>
</g>
<!-- Node7 -->
<g id="node7" class="node"><title>Node7</title>
<g id="a_node7"><a xlink:href="_net_work_8h.html#a850221fdc22e3e0628077942ed82fefb" target="_top" xlink:title="è®¾ç½®ç›¸åº”çª—å£çš„å†…å®¹ å‡½æ•°å‘é€SETTEXTæ¶ˆæ¯åˆ°RespondViewçª—å£ï¼Œå¹¶å°†å­—ç¬¦ä¸²å°è£…åˆ°lparamä¸­ï¼ŒRespondViewçª—å£æŽ¥ ...">
<polygon fill="white" stroke="black" points="175,-19.5 175,-38.5 219,-38.5 219,-19.5 175,-19.5"/>
<text text-anchor="middle" x="197" y="-26.5" font-family="Helvetica,sans-Serif" font-size="10.00">SetRp</text>
</a>
</g>
</g>
<!-- Node1&#45;&gt;Node7 -->
<g id="edge6" class="edge"><title>Node1&#45;&gt;Node7</title>
<path fill="none" stroke="midnightblue" d="M99.3542,-41.6204C120.948,-38.8006 145.702,-35.5682 164.751,-33.0806"/>
<polygon fill="midnightblue" stroke="midnightblue" points="165.228,-36.5481 174.691,-31.7826 164.322,-29.607 165.228,-36.5481"/>
</g>
<!-- Node3 -->
<g id="node3" class="node"><title>Node3</title>
<g id="a_node3"><a xlink:href="class_tools_1_1_tstr.html#af2dbe21365f53b0bd531cf356d6b566f" target="_top" xlink:title="Tools::Tstr::Tchar2string">
<polygon fill="white" stroke="black" points="307,-114.5 307,-133.5 429,-133.5 429,-114.5 307,-114.5"/>
<text text-anchor="middle" x="368" y="-121.5" font-family="Helvetica,sans-Serif" font-size="10.00">Tools::Tstr::Tchar2string</text>
</a>
</g>
</g>
<!-- Node2&#45;&gt;Node3 -->
<g id="edge2" class="edge"><title>Node2&#45;&gt;Node3</title>
<path fill="none" stroke="midnightblue" d="M220.466,-76.6547C239.956,-84.8236 269.039,-96.5208 295,-105 302.263,-107.372 310.01,-109.662 317.63,-111.78"/>
<polygon fill="midnightblue" stroke="midnightblue" points="316.957,-115.224 327.524,-114.46 318.786,-108.467 316.957,-115.224"/>
</g>
<!-- Node4 -->
<g id="node4" class="node"><title>Node4</title>
<g id="a_node4"><a xlink:href="class_tools_1_1_tstr.html#a73550e362f50715445fe5dc9fef26b1e" target="_top" xlink:title="Tools::Tstr::String2LPCWSTR">
<polygon fill="white" stroke="black" points="295,-76.5 295,-95.5 441,-95.5 441,-76.5 295,-76.5"/>
<text text-anchor="middle" x="368" y="-83.5" font-family="Helvetica,sans-Serif" font-size="10.00">Tools::Tstr::String2LPCWSTR</text>
</a>
</g>
</g>
<!-- Node2&#45;&gt;Node4 -->
<g id="edge3" class="edge"><title>Node2&#45;&gt;Node4</title>
<path fill="none" stroke="midnightblue" d="M259.013,-73.8594C267.371,-74.7992 276.063,-75.7763 284.723,-76.75"/>
<polygon fill="midnightblue" stroke="midnightblue" points="284.525,-80.2497 294.854,-77.8889 285.308,-73.2935 284.525,-80.2497"/>
</g>
<!-- Node5 -->
<g id="node5" class="node"><title>Node5</title>
<g id="a_node5"><a xlink:href="class_tools_1_1_tstr.html#a6f9002ef49d85db27430acae6733a747" target="_top" xlink:title="Tools::Tstr::S2Cstar">
<polygon fill="white" stroke="black" points="316,-38.5 316,-57.5 420,-57.5 420,-38.5 316,-38.5"/>
<text text-anchor="middle" x="368" y="-45.5" font-family="Helvetica,sans-Serif" font-size="10.00">Tools::Tstr::S2Cstar</text>
</a>
</g>
</g>
<!-- Node2&#45;&gt;Node5 -->
<g id="edge4" class="edge"><title>Node2&#45;&gt;Node5</title>
<path fill="none" stroke="midnightblue" d="M259.013,-60.1406C274.146,-58.4392 290.371,-56.615 305.527,-54.9112"/>
<polygon fill="midnightblue" stroke="midnightblue" points="306.275,-58.3492 315.821,-53.7538 305.493,-51.393 306.275,-58.3492"/>
</g>
<!-- Node6 -->
<g id="node6" class="node"><title>Node6</title>
<g id="a_node6"><a xlink:href="_net_html_8cpp.html#a9c2b5e88743a9770d87dab4b3ec274ec" target="_top" xlink:title="æ‰“å°ä¸€è¡Œæ–‡å­—åˆ°æ—¥å¿—çª—å£ å‡½æ•°å‘é€PRINTæ¶ˆæ¯åˆ°LogViewçª—å£ï¼Œå¹¶å°†å­—ç¬¦ä¸²å°è£…åˆ°lparamä¸­ï¼ŒLogViewçª—å£æŽ¥æ”¶åˆ°è¯¥æ¶...">
<polygon fill="white" stroke="black" points="341.5,-0.5 341.5,-19.5 394.5,-19.5 394.5,-0.5 341.5,-0.5"/>
<text text-anchor="middle" x="368" y="-7.5" font-family="Helvetica,sans-Serif" font-size="10.00">PrintLog</text>
</a>
</g>
</g>
<!-- Node2&#45;&gt;Node6 -->
<g id="edge5" class="edge"><title>Node2&#45;&gt;Node6</title>
<path fill="none" stroke="midnightblue" d="M232.593,-57.436C241.323,-54.6934 250.601,-51.4898 259,-48 275.707,-41.0584 278.145,-35.5728 295,-29 306.551,-24.4955 319.553,-20.6994 331.297,-17.7131"/>
<polygon fill="midnightblue" stroke="midnightblue" points="332.335,-21.0628 341.225,-15.2999 330.682,-14.2608 332.335,-21.0628"/>
</g>
</g>
</svg>
