<?xml version="1.0" encoding="UTF-8" standalone="no"?>
<!DOCTYPE svg PUBLIC "-//W3C//DTD SVG 1.1//EN"
 "http://www.w3.org/Graphics/SVG/1.1/DTD/svg11.dtd">
<!-- Generated by graphviz version 2.38.0 (20140413.2041)
 -->
<!-- Title: NetHtml::getURLContext Pages: 1 -->
<svg width="314pt" height="142pt"
 viewBox="0.00 0.00 314.00 142.00" xmlns="http://www.w3.org/2000/svg" xmlns:xlink="http://www.w3.org/1999/xlink">
<g id="graph0" class="graph" transform="scale(1 1) rotate(0) translate(4 138)">
<title>NetHtml::getURLContext</title>
<polygon fill="white" stroke="none" points="-4,4 -4,-138 310,-138 310,4 -4,4"/>
<!-- Node1 -->
<g id="node1" class="node"><title>Node1</title>
<polygon fill="#bfbfbf" stroke="black" points="0,-57.5 0,-76.5 124,-76.5 124,-57.5 0,-57.5"/>
<text text-anchor="middle" x="62" y="-64.5" font-family="Helvetica,sans-Serif" font-size="10.00">NetHtml::getURLContext</text>
</g>
<!-- Node2 -->
<g id="node2" class="node"><title>Node2</title>
<g id="a_node2"><a xlink:href="class_tools_1_1_tstr.html#af2dbe21365f53b0bd531cf356d6b566f" target="_top" xlink:title="Tools::Tstr::Tchar2string">
<polygon fill="white" stroke="black" points="172,-114.5 172,-133.5 294,-133.5 294,-114.5 172,-114.5"/>
<text text-anchor="middle" x="233" y="-121.5" font-family="Helvetica,sans-Serif" font-size="10.00">Tools::Tstr::Tchar2string</text>
</a>
</g>
</g>
<!-- Node1&#45;&gt;Node2 -->
<g id="edge1" class="edge"><title>Node1&#45;&gt;Node2</title>
<path fill="none" stroke="midnightblue" d="M85.4664,-76.6547C104.956,-84.8236 134.039,-96.5208 160,-105 167.263,-107.372 175.01,-109.662 182.63,-111.78"/>
<polygon fill="midnightblue" stroke="midnightblue" points="181.957,-115.224 192.524,-114.46 183.786,-108.467 181.957,-115.224"/>
</g>
<!-- Node3 -->
<g id="node3" class="node"><title>Node3</title>
<g id="a_node3"><a xlink:href="class_tools_1_1_tstr.html#a73550e362f50715445fe5dc9fef26b1e" target="_top" xlink:title="Tools::Tstr::String2LPCWSTR">
<polygon fill="white" stroke="black" points="160,-76.5 160,-95.5 306,-95.5 306,-76.5 160,-76.5"/>
<text text-anchor="middle" x="233" y="-83.5" font-family="Helvetica,sans-Serif" font-size="10.00">Tools::Tstr::String2LPCWSTR</text>
</a>
</g>
</g>
<!-- Node1&#45;&gt;Node3 -->
<g id="edge2" class="edge"><title>Node1&#45;&gt;Node3</title>
<path fill="none" stroke="midnightblue" d="M124.013,-73.8594C132.371,-74.7992 141.063,-75.7763 149.723,-76.75"/>
<polygon fill="midnightblue" stroke="midnightblue" points="149.525,-80.2497 159.854,-77.8889 150.308,-73.2935 149.525,-80.2497"/>
</g>
<!-- Node4 -->
<g id="node4" class="node"><title>Node4</title>
<g id="a_node4"><a xlink:href="class_tools_1_1_tstr.html#a6f9002ef49d85db27430acae6733a747" target="_top" xlink:title="Tools::Tstr::S2Cstar">
<polygon fill="white" stroke="black" points="181,-38.5 181,-57.5 285,-57.5 285,-38.5 181,-38.5"/>
<text text-anchor="middle" x="233" y="-45.5" font-family="Helvetica,sans-Serif" font-size="10.00">Tools::Tstr::S2Cstar</text>
</a>
</g>
</g>
<!-- Node1&#45;&gt;Node4 -->
<g id="edge3" class="edge"><title>Node1&#45;&gt;Node4</title>
<path fill="none" stroke="midnightblue" d="M124.013,-60.1406C139.146,-58.4392 155.371,-56.615 170.527,-54.9112"/>
<polygon fill="midnightblue" stroke="midnightblue" points="171.275,-58.3492 180.821,-53.7538 170.493,-51.393 171.275,-58.3492"/>
</g>
<!-- Node5 -->
<g id="node5" class="node"><title>Node5</title>
<g id="a_node5"><a xlink:href="_net_html_8cpp.html#a9c2b5e88743a9770d87dab4b3ec274ec" target="_top" xlink:title="æ‰“å°ä¸€è¡Œæ–‡å­—åˆ°æ—¥å¿—çª—å£ å‡½æ•°å‘é€PRINTæ¶ˆæ¯åˆ°LogViewçª—å£ï¼Œå¹¶å°†å­—ç¬¦ä¸²å°è£…åˆ°lparamä¸­ï¼ŒLogViewçª—å£æŽ¥æ”¶åˆ°è¯¥æ¶...">
<polygon fill="white" stroke="black" points="206.5,-0.5 206.5,-19.5 259.5,-19.5 259.5,-0.5 206.5,-0.5"/>
<text text-anchor="middle" x="233" y="-7.5" font-family="Helvetica,sans-Serif" font-size="10.00">PrintLog</text>
</a>
</g>
</g>
<!-- Node1&#45;&gt;Node5 -->
<g id="edge4" class="edge"><title>Node1&#45;&gt;Node5</title>
<path fill="none" stroke="midnightblue" d="M85.4664,-57.3453C104.956,-49.1764 134.039,-37.4792 160,-29 171.786,-25.1505 184.846,-21.5187 196.572,-18.4817"/>
<polygon fill="midnightblue" stroke="midnightblue" points="197.633,-21.8236 206.467,-15.9754 195.914,-15.0379 197.633,-21.8236"/>
</g>
</g>
</svg>
