<?xml version="1.0" encoding="UTF-8" standalone="no"?>
<!DOCTYPE svg PUBLIC "-//W3C//DTD SVG 1.1//EN"
 "http://www.w3.org/Graphics/SVG/1.1/DTD/svg11.dtd">
<!-- Generated by graphviz version 2.38.0 (20140413.2041)
 -->
<!-- Title: NetWork::AppLayerHttp::Begin Pages: 1 -->
<svg width="241pt" height="104pt"
 viewBox="0.00 0.00 241.00 104.00" xmlns="http://www.w3.org/2000/svg" xmlns:xlink="http://www.w3.org/1999/xlink">
<g id="graph0" class="graph" transform="scale(1 1) rotate(0) translate(4 100)">
<title>NetWork::AppLayerHttp::Begin</title>
<polygon fill="white" stroke="none" points="-4,4 -4,-100 237,-100 237,4 -4,4"/>
<!-- Node1 -->
<g id="node1" class="node"><title>Node1</title>
<polygon fill="#bfbfbf" stroke="black" points="0,-33 0,-63 120,-63 120,-33 0,-33"/>
<text text-anchor="start" x="8" y="-51" font-family="Helvetica,sans-Serif" font-size="10.00">NetWork::AppLayerHttp</text>
<text text-anchor="middle" x="60" y="-40" font-family="Helvetica,sans-Serif" font-size="10.00">::Begin</text>
</g>
<!-- Node2 -->
<g id="node2" class="node"><title>Node2</title>
<g id="a_node2"><a xlink:href="_net_work_8h.html#ad0fd7e12f565bc4202d32e726131e5c0" target="_top" xlink:title="è®¾ç½®CmdViewçš„å‘½ä»¤æç¤ºè¯­ï¼ŒæŽ¥ç®¡CmdViewçš„è¾“å…¥ å‡½æ•°å‘é€TAKEOVERCMDæ¶ˆæ¯åˆ°CmdViewçª—å£ï¼Œå¹¶å°†å­—ç¬¦ä¸²å°è£…åˆ°lpar...">
<polygon fill="white" stroke="black" points="156,-76.5 156,-95.5 233,-95.5 233,-76.5 156,-76.5"/>
<text text-anchor="middle" x="194.5" y="-83.5" font-family="Helvetica,sans-Serif" font-size="10.00">TakeOverCmd</text>
</a>
</g>
</g>
<!-- Node1&#45;&gt;Node2 -->
<g id="edge1" class="edge"><title>Node1&#45;&gt;Node2</title>
<path fill="none" stroke="midnightblue" d="M113.368,-63.0186C125.687,-66.5518 138.678,-70.2773 150.529,-73.6763"/>
<polygon fill="midnightblue" stroke="midnightblue" points="149.6,-77.0507 160.177,-76.4432 151.529,-70.322 149.6,-77.0507"/>
</g>
<!-- Node3 -->
<g id="node3" class="node"><title>Node3</title>
<g id="a_node3"><a xlink:href="_net_work_8h.html#ab7520283bb1638c3850a041326fddbde" target="_top" xlink:title="ä»ŽCmdViewä¸­èŽ·å–ä¸€è¡Œè¾“å…¥ å‡½æ•°åœ¨ç”¨æˆ·å‘½ä»¤æ¨¡å¼ä¸‹ä»ŽCmdèŽ·å–ä¸€è¡Œè¾“å…¥ã€‚å‡½æ•°é¦–å…ˆåˆ¤æ–­å½“å‰æ˜¯å¦å¤„äºŽç”¨æˆ·å‘½ä»¤æ¨¡å¼ ...">
<polygon fill="white" stroke="black" points="169.5,-38.5 169.5,-57.5 219.5,-57.5 219.5,-38.5 169.5,-38.5"/>
<text text-anchor="middle" x="194.5" y="-45.5" font-family="Helvetica,sans-Serif" font-size="10.00">GetLine</text>
</a>
</g>
</g>
<!-- Node1&#45;&gt;Node3 -->
<g id="edge2" class="edge"><title>Node1&#45;&gt;Node3</title>
<path fill="none" stroke="midnightblue" d="M120.274,-48C133.568,-48 147.241,-48 159.12,-48"/>
<polygon fill="midnightblue" stroke="midnightblue" points="159.462,-51.5001 169.462,-48 159.462,-44.5001 159.462,-51.5001"/>
</g>
<!-- Node4 -->
<g id="node4" class="node"><title>Node4</title>
<g id="a_node4"><a xlink:href="_net_work_8h.html#a9c2b5e88743a9770d87dab4b3ec274ec" target="_top" xlink:title="æ‰“å°ä¸€è¡Œæ–‡å­—åˆ°æ—¥å¿—çª—å£ å‡½æ•°å‘é€PRINTæ¶ˆæ¯åˆ°LogViewçª—å£ï¼Œå¹¶å°†å­—ç¬¦ä¸²å°è£…åˆ°lparamä¸­ï¼ŒLogViewçª—å£æŽ¥æ”¶åˆ°è¯¥æ¶...">
<polygon fill="white" stroke="black" points="168,-0.5 168,-19.5 221,-19.5 221,-0.5 168,-0.5"/>
<text text-anchor="middle" x="194.5" y="-7.5" font-family="Helvetica,sans-Serif" font-size="10.00">PrintLog</text>
</a>
</g>
</g>
<!-- Node1&#45;&gt;Node4 -->
<g id="edge3" class="edge"><title>Node1&#45;&gt;Node4</title>
<path fill="none" stroke="midnightblue" d="M113.368,-32.9814C128.239,-28.7163 144.088,-24.1709 157.732,-20.258"/>
<polygon fill="midnightblue" stroke="midnightblue" points="159.035,-23.5255 167.682,-17.4043 157.105,-16.7968 159.035,-23.5255"/>
</g>
</g>
</svg>
