<?xml version="1.0" encoding="UTF-8" standalone="no"?>
<!DOCTYPE svg PUBLIC "-//W3C//DTD SVG 1.1//EN"
 "http://www.w3.org/Graphics/SVG/1.1/DTD/svg11.dtd">
<!-- Generated by graphviz version 2.38.0 (20140413.2041)
 -->
<!-- Title: CMyIP::select_algorithm Pages: 1 -->
<svg width="279pt" height="66pt"
 viewBox="0.00 0.00 279.00 66.00" xmlns="http://www.w3.org/2000/svg" xmlns:xlink="http://www.w3.org/1999/xlink">
<g id="graph0" class="graph" transform="scale(1 1) rotate(0) translate(4 62)">
<title>CMyIP::select_algorithm</title>
<polygon fill="white" stroke="none" points="-4,4 -4,-62 275,-62 275,4 -4,4"/>
<!-- Node1 -->
<g id="node1" class="node"><title>Node1</title>
<polygon fill="#bfbfbf" stroke="black" points="0,-19.5 0,-38.5 123,-38.5 123,-19.5 0,-19.5"/>
<text text-anchor="middle" x="61.5" y="-26.5" font-family="Helvetica,sans-Serif" font-size="10.00">CMyIP::select_algorithm</text>
</g>
<!-- Node2 -->
<g id="node2" class="node"><title>Node2</title>
<g id="a_node2"><a xlink:href="class_c_my_i_p.html#a120bdc8113391219647816fa1343f898" target="_top" xlink:title="n为路由器个数，v为源节点，*dist为随着算法进行本次迭代，从源节点到目的v的最低费用路径的费用, *prev为从源节点v沿着当前最低费用路径的前一节点, c[maxnum][maxnum]为从节点x到节点y的链路费用矩阵, 如果x和y不是直连的，则 c(x,y)=maxint 链路状态选路算法的实现. ">
<polygon fill="white" stroke="black" points="172.5,-38.5 172.5,-57.5 257.5,-57.5 257.5,-38.5 172.5,-38.5"/>
<text text-anchor="middle" x="215" y="-45.5" font-family="Helvetica,sans-Serif" font-size="10.00">CMyIP::Dijkstra</text>
</a>
</g>
</g>
<!-- Node1&#45;&gt;Node2 -->
<g id="edge1" class="edge"><title>Node1&#45;&gt;Node2</title>
<path fill="none" stroke="midnightblue" d="M123.248,-36.6185C136.111,-38.2317 149.574,-39.9202 162.075,-41.4879"/>
<polygon fill="midnightblue" stroke="midnightblue" points="161.956,-45.0004 172.314,-42.772 162.827,-38.0548 161.956,-45.0004"/>
</g>
<!-- Node3 -->
<g id="node3" class="node"><title>Node3</title>
<g id="a_node3"><a xlink:href="class_c_my_i_p.html#a21d1ede1d36a306ef9df5087f0e482df" target="_top" xlink:title="n为节点数，dis[x][y]表示节点x到y的距离， *D[x]表示节点x的距离向量， V[x][y]=1表示节点x到y有一条边， c...">
<polygon fill="white" stroke="black" points="159,-0.5 159,-19.5 271,-19.5 271,-0.5 159,-0.5"/>
<text text-anchor="middle" x="215" y="-7.5" font-family="Helvetica,sans-Serif" font-size="10.00">CMyIP::Bellman_Ford</text>
</a>
</g>
</g>
<!-- Node1&#45;&gt;Node3 -->
<g id="edge2" class="edge"><title>Node1&#45;&gt;Node3</title>
<path fill="none" stroke="midnightblue" d="M123.248,-21.3815C131.558,-20.3392 140.12,-19.2655 148.51,-18.2132"/>
<polygon fill="midnightblue" stroke="midnightblue" points="149.145,-21.6611 158.632,-16.9439 148.274,-14.7155 149.145,-21.6611"/>
</g>
</g>
</svg>
