<?xml version="1.0" encoding="UTF-8" standalone="no"?>
<!DOCTYPE svg PUBLIC "-//W3C//DTD SVG 1.1//EN"
 "http://www.w3.org/Graphics/SVG/1.1/DTD/svg11.dtd">
<!-- Generated by graphviz version 2.38.0 (20140413.2041)
 -->
<!-- Title: CmdView::Initialcmd Pages: 1 -->
<svg width="602pt" height="493pt"
 viewBox="0.00 0.00 602.00 493.00" xmlns="http://www.w3.org/2000/svg" xmlns:xlink="http://www.w3.org/1999/xlink">
<g id="graph0" class="graph" transform="scale(1 1) rotate(0) translate(4 489)">
<title>CmdView::Initialcmd</title>
<polygon fill="white" stroke="none" points="-4,4 -4,-489 598,-489 598,4 -4,4"/>
<!-- Node1 -->
<g id="node1" class="node"><title>Node1</title>
<polygon fill="#bfbfbf" stroke="black" points="0,-214.5 0,-233.5 105,-233.5 105,-214.5 0,-214.5"/>
<text text-anchor="middle" x="52.5" y="-221.5" font-family="Helvetica,sans-Serif" font-size="10.00">CmdView::Initialcmd</text>
</g>
<!-- Node2 -->
<g id="node2" class="node"><title>Node2</title>
<g id="a_node2"><a xlink:href="class_cmd_view.html#aa343e34b3fe9c6097c39a416c8ec5206" target="_top" xlink:title="ç›‘å¬å‘½ä»¤å¤„ç†çŠ¶æ€ ">
<polygon fill="white" stroke="black" points="141,-427.5 141,-446.5 252,-446.5 252,-427.5 141,-427.5"/>
<text text-anchor="middle" x="196.5" y="-434.5" font-family="Helvetica,sans-Serif" font-size="10.00">CmdView::DEALCMD</text>
</a>
</g>
</g>
<!-- Node1&#45;&gt;Node2 -->
<g id="edge1" class="edge"><title>Node1&#45;&gt;Node2</title>
<path fill="none" stroke="midnightblue" d="M57.8551,-233.644C69.4779,-258.9 102.948,-328.58 141,-380 151.748,-394.524 165.898,-409.221 177.086,-420.053"/>
<polygon fill="midnightblue" stroke="midnightblue" points="174.955,-422.856 184.618,-427.2 179.773,-417.778 174.955,-422.856"/>
</g>
<!-- Node4 -->
<g id="node4" class="node"><title>Node4</title>
<g id="a_node4"><a xlink:href="_net_dll_8cpp.html#a9c2b5e88743a9770d87dab4b3ec274ec" target="_top" xlink:title="æ‰“å°ä¸€è¡Œæ–‡å­—åˆ°æ—¥å¿—çª—å£ å‡½æ•°å‘é€PRINTæ¶ˆæ¯åˆ°LogViewçª—å£ï¼Œå¹¶å°†å­—ç¬¦ä¸²å°è£…åˆ°lparamä¸­ï¼ŒLogViewçª—å£æŽ¥æ”¶åˆ°è¯¥æ¶...">
<polygon fill="white" stroke="black" points="494.5,-348.5 494.5,-367.5 547.5,-367.5 547.5,-348.5 494.5,-348.5"/>
<text text-anchor="middle" x="521" y="-355.5" font-family="Helvetica,sans-Serif" font-size="10.00">PrintLog</text>
</a>
</g>
</g>
<!-- Node1&#45;&gt;Node4 -->
<g id="edge6" class="edge"><title>Node1&#45;&gt;Node4</title>
<path fill="none" stroke="midnightblue" d="M66.7682,-233.522C83.3559,-244.994 112.986,-264.081 141,-275 204.141,-299.61 402.169,-336.81 484.033,-351.605"/>
<polygon fill="midnightblue" stroke="midnightblue" points="483.873,-355.132 494.335,-353.459 485.113,-348.243 483.873,-355.132"/>
</g>
<!-- Node7 -->
<g id="node7" class="node"><title>Node7</title>
<g id="a_node7"><a xlink:href="class_user_cmd.html#a10f84fa025b752236348cc8abd2fa5c7" target="_top" xlink:title="UserCmd::cleanrp">
<polygon fill="white" stroke="black" points="149,-153.5 149,-172.5 244,-172.5 244,-153.5 149,-153.5"/>
<text text-anchor="middle" x="196.5" y="-160.5" font-family="Helvetica,sans-Serif" font-size="10.00">UserCmd::cleanrp</text>
</a>
</g>
</g>
<!-- Node1&#45;&gt;Node7 -->
<g id="edge7" class="edge"><title>Node1&#45;&gt;Node7</title>
<path fill="none" stroke="midnightblue" d="M74.2705,-214.492C91.9424,-206.463 118.036,-194.749 141,-185 147.626,-182.187 154.739,-179.254 161.567,-176.48"/>
<polygon fill="midnightblue" stroke="midnightblue" points="163.313,-179.55 171.278,-172.563 160.694,-173.058 163.313,-179.55"/>
</g>
<!-- Node9 -->
<g id="node9" class="node"><title>Node9</title>
<g id="a_node9"><a xlink:href="class_user_cmd.html#ad75e005ff165f5d645b2520b644528bc" target="_top" xlink:title="UserCmd::cleanlog">
<polygon fill="white" stroke="black" points="147,-113.5 147,-132.5 246,-132.5 246,-113.5 147,-113.5"/>
<text text-anchor="middle" x="196.5" y="-120.5" font-family="Helvetica,sans-Serif" font-size="10.00">UserCmd::cleanlog</text>
</a>
</g>
</g>
<!-- Node1&#45;&gt;Node9 -->
<g id="edge9" class="edge"><title>Node1&#45;&gt;Node9</title>
<path fill="none" stroke="midnightblue" d="M61.7766,-214.376C76.3304,-197.964 108.096,-164.365 141,-144 145.466,-141.236 150.356,-138.731 155.315,-136.493"/>
<polygon fill="midnightblue" stroke="midnightblue" points="156.961,-139.598 164.845,-132.52 154.268,-133.137 156.961,-139.598"/>
</g>
<!-- Node11 -->
<g id="node11" class="node"><title>Node11</title>
<g id="a_node11"><a xlink:href="class_user_cmd.html#a7e760ac67d39d2b210b7d2b4f8e8ad5b" target="_top" xlink:title="UserCmd::Compute">
<polygon fill="white" stroke="black" points="299,-275.5 299,-294.5 401,-294.5 401,-275.5 299,-275.5"/>
<text text-anchor="middle" x="350" y="-282.5" font-family="Helvetica,sans-Serif" font-size="10.00">UserCmd::Compute</text>
</a>
</g>
</g>
<!-- Node1&#45;&gt;Node11 -->
<g id="edge11" class="edge"><title>Node1&#45;&gt;Node11</title>
<path fill="none" stroke="midnightblue" d="M82.4294,-233.565C99.3642,-238.92 121.239,-245.42 141,-250 190.269,-261.42 246.917,-270.705 288.642,-276.835"/>
<polygon fill="midnightblue" stroke="midnightblue" points="288.248,-280.314 298.647,-278.286 289.253,-273.387 288.248,-280.314"/>
</g>
<!-- Node14 -->
<g id="node14" class="node"><title>Node14</title>
<g id="a_node14"><a xlink:href="class_user_cmd.html#abdb2a891ebfa05f462586a00b13cbcfc" target="_top" xlink:title="UserCmd::Connect">
<polygon fill="white" stroke="black" points="300.5,-237.5 300.5,-256.5 399.5,-256.5 399.5,-237.5 300.5,-237.5"/>
<text text-anchor="middle" x="350" y="-244.5" font-family="Helvetica,sans-Serif" font-size="10.00">UserCmd::Connect</text>
</a>
</g>
</g>
<!-- Node1&#45;&gt;Node14 -->
<g id="edge15" class="edge"><title>Node1&#45;&gt;Node14</title>
<path fill="none" stroke="midnightblue" d="M105.31,-228.033C156.937,-232.051 236.096,-238.212 290.086,-242.414"/>
<polygon fill="midnightblue" stroke="midnightblue" points="289.955,-245.915 300.196,-243.201 290.498,-238.936 289.955,-245.915"/>
</g>
<!-- Node17 -->
<g id="node17" class="node"><title>Node17</title>
<g id="a_node17"><a xlink:href="class_user_cmd.html#acab5b5cbfcc9b92f860b3d48ae1c4ab5" target="_top" xlink:title="UserCmd::SetDll">
<polygon fill="white" stroke="black" points="152,-351.5 152,-370.5 241,-370.5 241,-351.5 152,-351.5"/>
<text text-anchor="middle" x="196.5" y="-358.5" font-family="Helvetica,sans-Serif" font-size="10.00">UserCmd::SetDll</text>
</a>
</g>
</g>
<!-- Node1&#45;&gt;Node17 -->
<g id="edge20" class="edge"><title>Node1&#45;&gt;Node17</title>
<path fill="none" stroke="midnightblue" d="M58.7957,-233.79C70.8022,-255.179 102.095,-306.596 141,-337 145.972,-340.885 151.67,-344.282 157.467,-347.203"/>
<polygon fill="midnightblue" stroke="midnightblue" points="156.019,-350.389 166.566,-351.402 158.953,-344.033 156.019,-350.389"/>
</g>
<!-- Node19 -->
<g id="node19" class="node"><title>Node19</title>
<g id="a_node19"><a xlink:href="class_user_cmd.html#ad5fa0ccaab5d2a8bf2b4aeccc6c4c01b" target="_top" xlink:title="UserCmd::GetHtml">
<polygon fill="white" stroke="black" points="147,-74.5 147,-93.5 246,-93.5 246,-74.5 147,-74.5"/>
<text text-anchor="middle" x="196.5" y="-81.5" font-family="Helvetica,sans-Serif" font-size="10.00">UserCmd::GetHtml</text>
</a>
</g>
</g>
<!-- Node1&#45;&gt;Node19 -->
<g id="edge24" class="edge"><title>Node1&#45;&gt;Node19</title>
<path fill="none" stroke="midnightblue" d="M57.987,-214.421C68.979,-191.946 99.4194,-135.364 141,-104 143.992,-101.743 147.265,-99.7196 150.674,-97.9097"/>
<polygon fill="midnightblue" stroke="midnightblue" points="152.33,-100.999 159.916,-93.6034 149.374,-94.6545 152.33,-100.999"/>
</g>
<!-- Node26 -->
<g id="node26" class="node"><title>Node26</title>
<g id="a_node26"><a xlink:href="class_user_cmd.html#a9c55a5ff5c5d0fa3598e7aac6c40db34" target="_top" xlink:title="UserCmd::Mail">
<polygon fill="white" stroke="black" points="156,-36.5 156,-55.5 237,-55.5 237,-36.5 156,-36.5"/>
<text text-anchor="middle" x="196.5" y="-43.5" font-family="Helvetica,sans-Serif" font-size="10.00">UserCmd::Mail</text>
</a>
</g>
</g>
<!-- Node1&#45;&gt;Node26 -->
<g id="edge31" class="edge"><title>Node1&#45;&gt;Node26</title>
<path fill="none" stroke="midnightblue" d="M56.1788,-214.188C64.2104,-186.583 90.7009,-107.502 141,-65 143.009,-63.3023 145.179,-61.753 147.456,-60.3395"/>
<polygon fill="midnightblue" stroke="midnightblue" points="149.411,-63.2671 156.654,-55.5342 146.17,-57.0628 149.411,-63.2671"/>
</g>
<!-- Node27 -->
<g id="node27" class="node"><title>Node27</title>
<g id="a_node27"><a xlink:href="class_user_cmd.html#a8b9f5a09bef002aaefe10c43ae9ccea1" target="_top" xlink:title="UserCmd::Chat">
<polygon fill="white" stroke="black" points="155,-194.5 155,-213.5 238,-213.5 238,-194.5 155,-194.5"/>
<text text-anchor="middle" x="196.5" y="-201.5" font-family="Helvetica,sans-Serif" font-size="10.00">UserCmd::Chat</text>
</a>
</g>
</g>
<!-- Node1&#45;&gt;Node27 -->
<g id="edge32" class="edge"><title>Node1&#45;&gt;Node27</title>
<path fill="none" stroke="midnightblue" d="M105.167,-216.723C118.057,-214.907 131.867,-212.962 144.714,-211.153"/>
<polygon fill="midnightblue" stroke="midnightblue" points="145.36,-214.597 154.774,-209.736 144.384,-207.665 145.36,-214.597"/>
</g>
<!-- Node3 -->
<g id="node3" class="node"><title>Node3</title>
<g id="a_node3"><a xlink:href="class_cmd_view.html#a19fb61e29f7be75474462793ea26d461" target="_top" xlink:title="å®žçŽ°å‘½ä»¤å­—ç¬¦ä¸²åˆ°å‘½ä»¤å¤„ç†å‡½æ•°ä¹‹é—´çš„æ˜ å°„ ">
<polygon fill="white" stroke="black" points="298,-427.5 298,-446.5 402,-446.5 402,-427.5 298,-427.5"/>
<text text-anchor="middle" x="350" y="-434.5" font-family="Helvetica,sans-Serif" font-size="10.00">CmdView::MapTask</text>
</a>
</g>
</g>
<!-- Node2&#45;&gt;Node3 -->
<g id="edge2" class="edge"><title>Node2&#45;&gt;Node3</title>
<path fill="none" stroke="midnightblue" d="M252.195,-437C263.732,-437 275.978,-437 287.739,-437"/>
<polygon fill="midnightblue" stroke="midnightblue" points="287.92,-440.5 297.92,-437 287.92,-433.5 287.92,-440.5"/>
</g>
<!-- Node5 -->
<g id="node5" class="node"><title>Node5</title>
<g id="a_node5"><a xlink:href="class_cmd_view.html#a71dba2e0097271efdc1874ff3a01847a" target="_top" xlink:title="å‘½ä»¤å·²å¤„ç†å®Œæˆ ">
<polygon fill="white" stroke="black" points="288.5,-465.5 288.5,-484.5 411.5,-484.5 411.5,-465.5 288.5,-465.5"/>
<text text-anchor="middle" x="350" y="-472.5" font-family="Helvetica,sans-Serif" font-size="10.00">CmdView::DealCmdOver</text>
</a>
</g>
</g>
<!-- Node2&#45;&gt;Node5 -->
<g id="edge4" class="edge"><title>Node2&#45;&gt;Node5</title>
<path fill="none" stroke="midnightblue" d="M235.73,-446.589C255.632,-451.581 280.157,-457.732 301.291,-463.033"/>
<polygon fill="midnightblue" stroke="midnightblue" points="300.494,-466.442 311.045,-465.48 302.197,-459.652 300.494,-466.442"/>
</g>
<!-- Node3&#45;&gt;Node4 -->
<g id="edge3" class="edge"><title>Node3&#45;&gt;Node4</title>
<path fill="none" stroke="midnightblue" d="M376.752,-427.499C387.717,-423.292 400.585,-418.138 412,-413 440.247,-400.286 471.721,-384.007 493.37,-372.467"/>
<polygon fill="midnightblue" stroke="midnightblue" points="495.134,-375.492 502.293,-367.682 491.826,-369.323 495.134,-375.492"/>
</g>
<!-- Node6 -->
<g id="node6" class="node"><title>Node6</title>
<g id="a_node6"><a xlink:href="_net_work_8h.html#a2c381264f349b11e7959d11e88ffecee" target="_top" xlink:title="SetHint">
<polygon fill="white" stroke="black" points="496.5,-465.5 496.5,-484.5 545.5,-484.5 545.5,-465.5 496.5,-465.5"/>
<text text-anchor="middle" x="521" y="-472.5" font-family="Helvetica,sans-Serif" font-size="10.00">SetHint</text>
</a>
</g>
</g>
<!-- Node5&#45;&gt;Node6 -->
<g id="edge5" class="edge"><title>Node5&#45;&gt;Node6</title>
<path fill="none" stroke="midnightblue" d="M411.536,-475C436.653,-475 464.85,-475 486.197,-475"/>
<polygon fill="midnightblue" stroke="midnightblue" points="486.383,-478.5 496.383,-475 486.383,-471.5 486.383,-478.5"/>
</g>
<!-- Node8 -->
<g id="node8" class="node"><title>Node8</title>
<g id="a_node8"><a xlink:href="_net_work_8h.html#a977b03c3a05bd232dbcf4d72c35e99e4" target="_top" xlink:title="CleanRp">
<polygon fill="white" stroke="black" points="323.5,-149.5 323.5,-168.5 376.5,-168.5 376.5,-149.5 323.5,-149.5"/>
<text text-anchor="middle" x="350" y="-156.5" font-family="Helvetica,sans-Serif" font-size="10.00">CleanRp</text>
</a>
</g>
</g>
<!-- Node7&#45;&gt;Node8 -->
<g id="edge8" class="edge"><title>Node7&#45;&gt;Node8</title>
<path fill="none" stroke="midnightblue" d="M244.191,-161.767C266.402,-161.181 292.542,-160.491 313.16,-159.946"/>
<polygon fill="midnightblue" stroke="midnightblue" points="313.484,-163.439 323.388,-159.676 313.3,-156.441 313.484,-163.439"/>
</g>
<!-- Node10 -->
<g id="node10" class="node"><title>Node10</title>
<g id="a_node10"><a xlink:href="_net_work_8h.html#a85b3c9729953ae18b38d28b90d829786" target="_top" xlink:title="CleanLog">
<polygon fill="white" stroke="black" points="321.5,-111.5 321.5,-130.5 378.5,-130.5 378.5,-111.5 321.5,-111.5"/>
<text text-anchor="middle" x="350" y="-118.5" font-family="Helvetica,sans-Serif" font-size="10.00">CleanLog</text>
</a>
</g>
</g>
<!-- Node9&#45;&gt;Node10 -->
<g id="edge10" class="edge"><title>Node9&#45;&gt;Node10</title>
<path fill="none" stroke="midnightblue" d="M246.269,-122.356C267.24,-122.079 291.383,-121.761 310.994,-121.502"/>
<polygon fill="midnightblue" stroke="midnightblue" points="311.13,-125 321.083,-121.369 311.038,-118.001 311.13,-125"/>
</g>
<!-- Node11&#45;&gt;Node4 -->
<g id="edge13" class="edge"><title>Node11&#45;&gt;Node4</title>
<path fill="none" stroke="midnightblue" d="M379.97,-294.579C390.352,-298.479 401.964,-303.397 412,-309 429.463,-318.749 430.169,-326.942 448,-336 459.38,-341.781 472.555,-346.353 484.5,-349.797"/>
<polygon fill="midnightblue" stroke="midnightblue" points="483.61,-353.182 494.177,-352.426 485.445,-346.427 483.61,-353.182"/>
</g>
<!-- Node12 -->
<g id="node12" class="node"><title>Node12</title>
<g id="a_node12"><a xlink:href="class_net_dll.html#a98851c5ab77e42a6f84bcfa3584496cf" target="_top" xlink:title="NetDll::GetFun">
<polygon fill="white" stroke="black" points="480.5,-307.5 480.5,-326.5 561.5,-326.5 561.5,-307.5 480.5,-307.5"/>
<text text-anchor="middle" x="521" y="-314.5" font-family="Helvetica,sans-Serif" font-size="10.00">NetDll::GetFun</text>
</a>
</g>
</g>
<!-- Node11&#45;&gt;Node12 -->
<g id="edge12" class="edge"><title>Node11&#45;&gt;Node12</title>
<path fill="none" stroke="midnightblue" d="M401.248,-294.514C423.087,-298.65 448.6,-303.48 470.369,-307.602"/>
<polygon fill="midnightblue" stroke="midnightblue" points="469.924,-311.08 480.4,-309.502 471.226,-304.202 469.924,-311.08"/>
</g>
<!-- Node13 -->
<g id="node13" class="node"><title>Node13</title>
<g id="a_node13"><a xlink:href="_net_work_8h.html#a37f502656ead81caea91832807d5ba94" target="_top" xlink:title="æ‰“å°ä¸€è¡Œæ–‡å­—åˆ°å“åº”çª—å£ å‡½æ•°å‘é€PRINTæ¶ˆæ¯åˆ°RespondViewçª—å£ï¼Œå¹¶å°†å­—ç¬¦ä¸²å°è£…åˆ°lparamä¸­ï¼ŒRespondViewçª—å£æŽ...">
<polygon fill="white" stroke="black" points="496.5,-269.5 496.5,-288.5 545.5,-288.5 545.5,-269.5 496.5,-269.5"/>
<text text-anchor="middle" x="521" y="-276.5" font-family="Helvetica,sans-Serif" font-size="10.00">PrintRp</text>
</a>
</g>
</g>
<!-- Node11&#45;&gt;Node13 -->
<g id="edge14" class="edge"><title>Node11&#45;&gt;Node13</title>
<path fill="none" stroke="midnightblue" d="M401.248,-283.216C428.709,-282.241 461.979,-281.06 486.31,-280.196"/>
<polygon fill="midnightblue" stroke="midnightblue" points="486.607,-283.688 496.476,-279.835 486.358,-276.692 486.607,-283.688"/>
</g>
<!-- Node14&#45;&gt;Node4 -->
<g id="edge16" class="edge"><title>Node14&#45;&gt;Node4</title>
<path fill="none" stroke="midnightblue" d="M396.437,-256.623C402.049,-259.073 407.414,-262.146 412,-266 438.783,-288.507 421.156,-313.565 448,-336 458.288,-344.598 471.891,-349.838 484.501,-353.03"/>
<polygon fill="midnightblue" stroke="midnightblue" points="483.802,-356.46 494.319,-355.177 485.297,-349.622 483.802,-356.46"/>
</g>
<!-- Node14&#45;&gt;Node13 -->
<g id="edge18" class="edge"><title>Node14&#45;&gt;Node13</title>
<path fill="none" stroke="midnightblue" d="M399.882,-256.256C427.519,-261.489 461.378,-267.9 486.095,-272.58"/>
<polygon fill="midnightblue" stroke="midnightblue" points="485.607,-276.05 496.083,-274.471 486.909,-269.172 485.607,-276.05"/>
</g>
<!-- Node15 -->
<g id="node15" class="node"><title>Node15</title>
<g id="a_node15"><a xlink:href="_net_work_8h.html#ad0fd7e12f565bc4202d32e726131e5c0" target="_top" xlink:title="è®¾ç½®CmdViewçš„å‘½ä»¤æç¤ºè¯­ï¼ŒæŽ¥ç®¡CmdViewçš„è¾“å…¥ å‡½æ•°å‘é€TAKEOVERCMDæ¶ˆæ¯åˆ°CmdViewçª—å£ï¼Œå¹¶å°†å­—ç¬¦ä¸²å°è£…åˆ°lpar...">
<polygon fill="white" stroke="black" points="482.5,-231.5 482.5,-250.5 559.5,-250.5 559.5,-231.5 482.5,-231.5"/>
<text text-anchor="middle" x="521" y="-238.5" font-family="Helvetica,sans-Serif" font-size="10.00">TakeOverCmd</text>
</a>
</g>
</g>
<!-- Node14&#45;&gt;Node15 -->
<g id="edge17" class="edge"><title>Node14&#45;&gt;Node15</title>
<path fill="none" stroke="midnightblue" d="M399.882,-245.265C422.622,-244.457 449.576,-243.5 472.182,-242.698"/>
<polygon fill="midnightblue" stroke="midnightblue" points="472.363,-246.194 482.233,-242.341 472.115,-239.198 472.363,-246.194"/>
</g>
<!-- Node16 -->
<g id="node16" class="node"><title>Node16</title>
<g id="a_node16"><a xlink:href="_net_work_8h.html#ab7520283bb1638c3850a041326fddbde" target="_top" xlink:title="ä»ŽCmdViewä¸­èŽ·å–ä¸€è¡Œè¾“å…¥ å‡½æ•°åœ¨ç”¨æˆ·å‘½ä»¤æ¨¡å¼ä¸‹ä»ŽCmdèŽ·å–ä¸€è¡Œè¾“å…¥ã€‚å‡½æ•°é¦–å…ˆåˆ¤æ–­å½“å‰æ˜¯å¦å¤„äºŽç”¨æˆ·å‘½ä»¤æ¨¡å¼ ...">
<polygon fill="white" stroke="black" points="496,-193.5 496,-212.5 546,-212.5 546,-193.5 496,-193.5"/>
<text text-anchor="middle" x="521" y="-200.5" font-family="Helvetica,sans-Serif" font-size="10.00">GetLine</text>
</a>
</g>
</g>
<!-- Node14&#45;&gt;Node16 -->
<g id="edge19" class="edge"><title>Node14&#45;&gt;Node16</title>
<path fill="none" stroke="midnightblue" d="M387.67,-237.453C416.894,-229.844 457.498,-219.273 485.998,-211.853"/>
<polygon fill="midnightblue" stroke="midnightblue" points="487.112,-215.179 495.907,-209.273 485.348,-208.405 487.112,-215.179"/>
</g>
<!-- Node17&#45;&gt;Node4 -->
<g id="edge23" class="edge"><title>Node17&#45;&gt;Node4</title>
<path fill="none" stroke="midnightblue" d="M234.214,-370.509C250.557,-374.274 270.115,-378.143 288,-380 342.816,-385.692 357.167,-385.528 412,-380 436.542,-377.526 463.752,-371.965 484.72,-367.054"/>
<polygon fill="midnightblue" stroke="midnightblue" points="485.567,-370.45 494.473,-364.711 483.932,-363.643 485.567,-370.45"/>
</g>
<!-- Node18 -->
<g id="node18" class="node"><title>Node18</title>
<g id="a_node18"><a xlink:href="class_net_dll.html#abb349ff2f7a5d0cfc0906e70f7716638" target="_top" xlink:title="NetDll::LoadDll">
<polygon fill="white" stroke="black" points="309.5,-351.5 309.5,-370.5 390.5,-370.5 390.5,-351.5 309.5,-351.5"/>
<text text-anchor="middle" x="350" y="-358.5" font-family="Helvetica,sans-Serif" font-size="10.00">NetDll::LoadDll</text>
</a>
</g>
</g>
<!-- Node17&#45;&gt;Node18 -->
<g id="edge21" class="edge"><title>Node17&#45;&gt;Node18</title>
<path fill="none" stroke="midnightblue" d="M241.32,-361C259.459,-361 280.588,-361 299.301,-361"/>
<polygon fill="midnightblue" stroke="midnightblue" points="299.415,-364.5 309.415,-361 299.415,-357.5 299.415,-364.5"/>
</g>
<!-- Node18&#45;&gt;Node4 -->
<g id="edge22" class="edge"><title>Node18&#45;&gt;Node4</title>
<path fill="none" stroke="midnightblue" d="M390.623,-360.297C418.873,-359.795 456.55,-359.126 483.956,-358.64"/>
<polygon fill="midnightblue" stroke="midnightblue" points="484.345,-362.134 494.281,-358.457 484.22,-355.135 484.345,-362.134"/>
</g>
<!-- Node20 -->
<g id="node20" class="node"><title>Node20</title>
<g id="a_node20"><a xlink:href="class_net_html.html#a1d26b557eca7cab7c987aae38438c3ae" target="_top" xlink:title="å‡½æ•°é€šè¿‡CSocketèŽ·å–å¯¹åº”çš„htmlæ–‡ä»¶å­—ç¬¦æµã€‚ å‡½æ•°é€šè¿‡CSocketå’Œurlå¯¹åº”çš„æœåŠ¡å™¨å»ºç«‹è¿žæŽ¥,å¹¶å°†è¯·æ±‚èµ„æºæŠ¥æ–‡å‘é€ç»™æœåŠ¡å™¨ï¼ŒæˆåŠŸå“åº”åŽä¸€è¡Œè¡Œçš„èŽ·å–ä»ŽæœåŠ¡å™¨å‘æ¥çš„æ•°æ®ï¼Œ å¹¶å°†æ•°æ®è½¬ç ä¸ºUnicodeï¼Œæ‹¼æŽ¥åˆ°è¿”å›žçš„å­—ç¬¦ä¸²myhtml ">
<polygon fill="white" stroke="black" points="288,-73.5 288,-92.5 412,-92.5 412,-73.5 288,-73.5"/>
<text text-anchor="middle" x="350" y="-80.5" font-family="Helvetica,sans-Serif" font-size="10.00">NetHtml::getURLContext</text>
</a>
</g>
</g>
<!-- Node19&#45;&gt;Node20 -->
<g id="edge25" class="edge"><title>Node19&#45;&gt;Node20</title>
<path fill="none" stroke="midnightblue" d="M246.269,-83.6781C256.299,-83.6119 267.054,-83.5409 277.692,-83.4707"/>
<polygon fill="midnightblue" stroke="midnightblue" points="277.851,-86.9698 287.828,-83.4038 277.805,-79.97 277.851,-86.9698"/>
</g>
<!-- Node25 -->
<g id="node25" class="node"><title>Node25</title>
<g id="a_node25"><a xlink:href="_net_work_8h.html#a850221fdc22e3e0628077942ed82fefb" target="_top" xlink:title="è®¾ç½®ç›¸åº”çª—å£çš„å†…å®¹ å‡½æ•°å‘é€SETTEXTæ¶ˆæ¯åˆ°RespondViewçª—å£ï¼Œå¹¶å°†å­—ç¬¦ä¸²å°è£…åˆ°lparamä¸­ï¼ŒRespondViewçª—å£æŽ¥ ...">
<polygon fill="white" stroke="black" points="328,-35.5 328,-54.5 372,-54.5 372,-35.5 328,-35.5"/>
<text text-anchor="middle" x="350" y="-42.5" font-family="Helvetica,sans-Serif" font-size="10.00">SetRp</text>
</a>
</g>
</g>
<!-- Node19&#45;&gt;Node25 -->
<g id="edge30" class="edge"><title>Node19&#45;&gt;Node25</title>
<path fill="none" stroke="midnightblue" d="M234.561,-74.4595C260.162,-67.8691 293.823,-59.204 318.001,-52.9799"/>
<polygon fill="midnightblue" stroke="midnightblue" points="318.92,-56.3576 327.731,-50.4751 317.175,-49.5787 318.92,-56.3576"/>
</g>
<!-- Node21 -->
<g id="node21" class="node"><title>Node21</title>
<g id="a_node21"><a xlink:href="class_tools_1_1_tstr.html#af2dbe21365f53b0bd531cf356d6b566f" target="_top" xlink:title="Tools::Tstr::Tchar2string">
<polygon fill="white" stroke="black" points="460,-76.5 460,-95.5 582,-95.5 582,-76.5 460,-76.5"/>
<text text-anchor="middle" x="521" y="-83.5" font-family="Helvetica,sans-Serif" font-size="10.00">Tools::Tstr::Tchar2string</text>
</a>
</g>
</g>
<!-- Node20&#45;&gt;Node21 -->
<g id="edge26" class="edge"><title>Node20&#45;&gt;Node21</title>
<path fill="none" stroke="midnightblue" d="M412.013,-84.0831C424.201,-84.2994 437.096,-84.5283 449.571,-84.7498"/>
<polygon fill="midnightblue" stroke="midnightblue" points="449.866,-88.2555 459.926,-84.9336 449.99,-81.2566 449.866,-88.2555"/>
</g>
<!-- Node22 -->
<g id="node22" class="node"><title>Node22</title>
<g id="a_node22"><a xlink:href="class_tools_1_1_tstr.html#a73550e362f50715445fe5dc9fef26b1e" target="_top" xlink:title="Tools::Tstr::String2LPCWSTR">
<polygon fill="white" stroke="black" points="448,-38.5 448,-57.5 594,-57.5 594,-38.5 448,-38.5"/>
<text text-anchor="middle" x="521" y="-45.5" font-family="Helvetica,sans-Serif" font-size="10.00">Tools::Tstr::String2LPCWSTR</text>
</a>
</g>
</g>
<!-- Node20&#45;&gt;Node22 -->
<g id="edge27" class="edge"><title>Node20&#45;&gt;Node22</title>
<path fill="none" stroke="midnightblue" d="M397.18,-73.4361C417.766,-69.1727 442.201,-64.1121 463.835,-59.6318"/>
<polygon fill="midnightblue" stroke="midnightblue" points="464.793,-63.0077 473.876,-57.5523 463.374,-56.1531 464.793,-63.0077"/>
</g>
<!-- Node23 -->
<g id="node23" class="node"><title>Node23</title>
<g id="a_node23"><a xlink:href="class_tools_1_1_tstr.html#a6f9002ef49d85db27430acae6733a747" target="_top" xlink:title="Tools::Tstr::S2Cstar">
<polygon fill="white" stroke="black" points="469,-0.5 469,-19.5 573,-19.5 573,-0.5 469,-0.5"/>
<text text-anchor="middle" x="521" y="-7.5" font-family="Helvetica,sans-Serif" font-size="10.00">Tools::Tstr::S2Cstar</text>
</a>
</g>
</g>
<!-- Node20&#45;&gt;Node23 -->
<g id="edge28" class="edge"><title>Node20&#45;&gt;Node23</title>
<path fill="none" stroke="midnightblue" d="M391.208,-73.4358C398.391,-70.9115 405.613,-67.7994 412,-64 431.179,-52.5914 428.575,-39.9845 448,-29 451.969,-26.7558 456.21,-24.7694 460.574,-23.0123"/>
<polygon fill="midnightblue" stroke="midnightblue" points="462.043,-26.2034 470.264,-19.5209 459.67,-19.6177 462.043,-26.2034"/>
</g>
<!-- Node24 -->
<g id="node24" class="node"><title>Node24</title>
<g id="a_node24"><a xlink:href="_net_html_8cpp.html#a9c2b5e88743a9770d87dab4b3ec274ec" target="_top" xlink:title="æ‰“å°ä¸€è¡Œæ–‡å­—åˆ°æ—¥å¿—çª—å£ å‡½æ•°å‘é€PRINTæ¶ˆæ¯åˆ°LogViewçª—å£ï¼Œå¹¶å°†å­—ç¬¦ä¸²å°è£…åˆ°lparamä¸­ï¼ŒLogViewçª—å£æŽ¥æ”¶åˆ°è¯¥æ¶...">
<polygon fill="white" stroke="black" points="494.5,-114.5 494.5,-133.5 547.5,-133.5 547.5,-114.5 494.5,-114.5"/>
<text text-anchor="middle" x="521" y="-121.5" font-family="Helvetica,sans-Serif" font-size="10.00">PrintLog</text>
</a>
</g>
</g>
<!-- Node20&#45;&gt;Node24 -->
<g id="edge29" class="edge"><title>Node20&#45;&gt;Node24</title>
<path fill="none" stroke="midnightblue" d="M390.197,-92.5093C418.643,-99.4104 456.814,-108.671 484.393,-115.362"/>
<polygon fill="midnightblue" stroke="midnightblue" points="483.858,-118.833 494.401,-117.79 485.508,-112.031 483.858,-118.833"/>
</g>
<!-- Node28 -->
<g id="node28" class="node"><title>Node28</title>
<g id="a_node28"><a xlink:href="class_net_work_1_1_chat_work.html#ac019f44ad1ecc33ce3eb2c42b6b537d9" target="_top" xlink:title="NetWork::ChatWork::\lBegin">
<polygon fill="white" stroke="black" points="295,-188 295,-218 405,-218 405,-188 295,-188"/>
<text text-anchor="start" x="303" y="-206" font-family="Helvetica,sans-Serif" font-size="10.00">NetWork::ChatWork::</text>
<text text-anchor="middle" x="350" y="-195" font-family="Helvetica,sans-Serif" font-size="10.00">Begin</text>
</a>
</g>
</g>
<!-- Node27&#45;&gt;Node28 -->
<g id="edge33" class="edge"><title>Node27&#45;&gt;Node28</title>
<path fill="none" stroke="midnightblue" d="M238.099,-203.732C252.407,-203.638 268.865,-203.529 284.647,-203.425"/>
<polygon fill="midnightblue" stroke="midnightblue" points="284.915,-206.923 294.892,-203.357 284.869,-199.923 284.915,-206.923"/>
</g>
<!-- Node28&#45;&gt;Node13 -->
<g id="edge37" class="edge"><title>Node28&#45;&gt;Node13</title>
<path fill="none" stroke="midnightblue" d="M393.273,-218.132C399.728,-221.061 406.174,-224.365 412,-228 430.162,-239.331 429.135,-249.881 448,-260 459.749,-266.302 473.715,-270.61 486.207,-273.507"/>
<polygon fill="midnightblue" stroke="midnightblue" points="485.766,-276.991 496.272,-275.623 487.205,-270.141 485.766,-276.991"/>
</g>
<!-- Node28&#45;&gt;Node15 -->
<g id="edge34" class="edge"><title>Node28&#45;&gt;Node15</title>
<path fill="none" stroke="midnightblue" d="M405.403,-215.233C426.963,-220.08 451.53,-225.604 472.373,-230.291"/>
<polygon fill="midnightblue" stroke="midnightblue" points="471.753,-233.739 482.277,-232.518 473.288,-226.909 471.753,-233.739"/>
</g>
<!-- Node28&#45;&gt;Node16 -->
<g id="edge35" class="edge"><title>Node28&#45;&gt;Node16</title>
<path fill="none" stroke="midnightblue" d="M405.403,-203C431.845,-203 462.81,-203 485.881,-203"/>
<polygon fill="midnightblue" stroke="midnightblue" points="485.882,-206.5 495.882,-203 485.882,-199.5 485.882,-206.5"/>
</g>
<!-- Node29 -->
<g id="node29" class="node"><title>Node29</title>
<g id="a_node29"><a xlink:href="_net_work_8h.html#a9c2b5e88743a9770d87dab4b3ec274ec" target="_top" xlink:title="æ‰“å°ä¸€è¡Œæ–‡å­—åˆ°æ—¥å¿—çª—å£ å‡½æ•°å‘é€PRINTæ¶ˆæ¯åˆ°LogViewçª—å£ï¼Œå¹¶å°†å­—ç¬¦ä¸²å°è£…åˆ°lparamä¸­ï¼ŒLogViewçª—å£æŽ¥æ”¶åˆ°è¯¥æ¶...">
<polygon fill="white" stroke="black" points="494.5,-155.5 494.5,-174.5 547.5,-174.5 547.5,-155.5 494.5,-155.5"/>
<text text-anchor="middle" x="521" y="-162.5" font-family="Helvetica,sans-Serif" font-size="10.00">PrintLog</text>
</a>
</g>
</g>
<!-- Node28&#45;&gt;Node29 -->
<g id="edge36" class="edge"><title>Node28&#45;&gt;Node29</title>
<path fill="none" stroke="midnightblue" d="M405.403,-190.767C431.175,-184.972 461.245,-178.211 484.114,-173.069"/>
<polygon fill="midnightblue" stroke="midnightblue" points="485.085,-176.438 494.074,-170.83 483.549,-169.609 485.085,-176.438"/>
</g>
</g>
</svg>
