<?xml version="1.0" encoding="UTF-8" standalone="no"?>
<!DOCTYPE svg PUBLIC "-//W3C//DTD SVG 1.1//EN"
 "http://www.w3.org/Graphics/SVG/1.1/DTD/svg11.dtd">
<!-- Generated by graphviz version 2.38.0 (20140413.2041)
 -->
<!-- Title: UserCmd::SetDll Pages: 1 -->
<svg width="404pt" height="28pt"
 viewBox="0.00 0.00 404.00 28.00" xmlns="http://www.w3.org/2000/svg" xmlns:xlink="http://www.w3.org/1999/xlink">
<g id="graph0" class="graph" transform="scale(1 1) rotate(0) translate(4 24)">
<title>UserCmd::SetDll</title>
<polygon fill="white" stroke="none" points="-4,4 -4,-24 400,-24 400,4 -4,4"/>
<!-- Node1 -->
<g id="node1" class="node"><title>Node1</title>
<polygon fill="#bfbfbf" stroke="black" points="0,-0.5 0,-19.5 89,-19.5 89,-0.5 0,-0.5"/>
<text text-anchor="middle" x="44.5" y="-7.5" font-family="Helvetica,sans-Serif" font-size="10.00">UserCmd::SetDll</text>
</g>
<!-- Node2 -->
<g id="node2" class="node"><title>Node2</title>
<g id="a_node2"><a xlink:href="class_cmd_view.html#a70cf028b2bc48ea3e0e6be3319911c85" target="_top" xlink:title="创建消息处理线程,注册消息映射 ">
<polygon fill="white" stroke="black" points="125,-0.5 125,-19.5 230,-19.5 230,-0.5 125,-0.5"/>
<text text-anchor="middle" x="177.5" y="-7.5" font-family="Helvetica,sans-Serif" font-size="10.00">CmdView::Initialcmd</text>
</a>
</g>
</g>
<!-- Node1&#45;&gt;Node2 -->
<g id="edge1" class="edge"><title>Node1&#45;&gt;Node2</title>
<path fill="none" stroke="midnightblue" d="M99.2744,-10C107.741,-10 116.477,-10 124.893,-10"/>
<polygon fill="midnightblue" stroke="midnightblue" points="99.1211,-6.5001 89.1211,-10 99.1211,-13.5001 99.1211,-6.5001"/>
</g>
<!-- Node3 -->
<g id="node3" class="node"><title>Node3</title>
<g id="a_node3"><a xlink:href="class_cmd_view.html#a37a513e8262ea52c1859f8be73dac1b7" target="_top" xlink:title="函数在视图附加到文档后触发,主要完成界面的初始化工作 ">
<polygon fill="white" stroke="black" points="266,-0.5 266,-19.5 396,-19.5 396,-0.5 266,-0.5"/>
<text text-anchor="middle" x="331" y="-7.5" font-family="Helvetica,sans-Serif" font-size="10.00">CmdView::OnInitialUpdate</text>
</a>
</g>
</g>
<!-- Node2&#45;&gt;Node3 -->
<g id="edge2" class="edge"><title>Node2&#45;&gt;Node3</title>
<path fill="none" stroke="midnightblue" d="M240.352,-10C248.784,-10 257.453,-10 265.924,-10"/>
<polygon fill="midnightblue" stroke="midnightblue" points="240.214,-6.5001 230.214,-10 240.214,-13.5001 240.214,-6.5001"/>
</g>
</g>
</svg>
