<?xml version="1.0" encoding="UTF-8" standalone="no"?>
<!DOCTYPE svg PUBLIC "-//W3C//DTD SVG 1.1//EN"
 "http://www.w3.org/Graphics/SVG/1.1/DTD/svg11.dtd">
<!-- Generated by graphviz version 2.38.0 (20140413.2041)
 -->
<!-- Title: 类继承关系图 Pages: 1 -->
<svg width="182pt" height="104pt"
 viewBox="0.00 0.00 182.00 104.00" xmlns="http://www.w3.org/2000/svg" xmlns:xlink="http://www.w3.org/1999/xlink">
<g id="graph0" class="graph" transform="scale(1 1) rotate(0) translate(4 100)">
<title>类继承关系图</title>
<polygon fill="white" stroke="none" points="-4,4 -4,-100 178,-100 178,4 -4,4"/>
<!-- Node1 -->
<g id="node1" class="node"><title>Node1</title>
<polygon fill="white" stroke="#bfbfbf" points="0,-38.5 0,-57.5 62,-57.5 62,-38.5 0,-38.5"/>
<text text-anchor="middle" x="31" y="-45.5" font-family="Helvetica,sans-Serif" font-size="10.00">CEditView</text>
</g>
<!-- Node2 -->
<g id="node2" class="node"><title>Node2</title>
<g id="a_node2"><a xlink:href="class_cmd_view.html" target="_top" xlink:title="CmdView位于主界面左上角,主要完成命令的输入(界面控制),命令解析和命令映射(功能映射)。 ...">
<polygon fill="white" stroke="black" points="107,-76.5 107,-95.5 165,-95.5 165,-76.5 107,-76.5"/>
<text text-anchor="middle" x="136" y="-83.5" font-family="Helvetica,sans-Serif" font-size="10.00">CmdView</text>
</a>
</g>
</g>
<!-- Node1&#45;&gt;Node2 -->
<g id="edge1" class="edge"><title>Node1&#45;&gt;Node2</title>
<path fill="none" stroke="midnightblue" d="M67.5567,-61.118C81.1796,-66.1439 96.4539,-71.7791 109.017,-76.4141"/>
<polygon fill="midnightblue" stroke="midnightblue" points="68.5846,-57.7667 57.9912,-57.589 66.1617,-64.334 68.5846,-57.7667"/>
</g>
<!-- Node3 -->
<g id="node3" class="node"><title>Node3</title>
<g id="a_node3"><a xlink:href="class_log_view.html" target="_top" xlink:title="LogView 视图 ">
<polygon fill="white" stroke="black" points="109.5,-38.5 109.5,-57.5 162.5,-57.5 162.5,-38.5 109.5,-38.5"/>
<text text-anchor="middle" x="136" y="-45.5" font-family="Helvetica,sans-Serif" font-size="10.00">LogView</text>
</a>
</g>
</g>
<!-- Node1&#45;&gt;Node3 -->
<g id="edge2" class="edge"><title>Node1&#45;&gt;Node3</title>
<path fill="none" stroke="midnightblue" d="M72.242,-48C84.6927,-48 98.0665,-48 109.256,-48"/>
<polygon fill="midnightblue" stroke="midnightblue" points="72.0688,-44.5001 62.0688,-48 72.0687,-51.5001 72.0688,-44.5001"/>
</g>
<!-- Node4 -->
<g id="node4" class="node"><title>Node4</title>
<g id="a_node4"><a xlink:href="class_respond_view.html" target="_top" xlink:title="RespondView 视图 ">
<polygon fill="white" stroke="black" points="98,-0.5 98,-19.5 174,-19.5 174,-0.5 98,-0.5"/>
<text text-anchor="middle" x="136" y="-7.5" font-family="Helvetica,sans-Serif" font-size="10.00">RespondView</text>
</a>
</g>
</g>
<!-- Node1&#45;&gt;Node4 -->
<g id="edge3" class="edge"><title>Node1&#45;&gt;Node4</title>
<path fill="none" stroke="midnightblue" d="M67.5567,-34.882C81.1796,-29.8561 96.4539,-24.2209 109.017,-19.5859"/>
<polygon fill="midnightblue" stroke="midnightblue" points="66.1617,-31.666 57.9912,-38.411 68.5846,-38.2333 66.1617,-31.666"/>
</g>
</g>
</svg>
