<?xml version="1.0" encoding="UTF-8" standalone="no"?>
<!DOCTYPE svg PUBLIC "-//W3C//DTD SVG 1.1//EN"
 "http://www.w3.org/Graphics/SVG/1.1/DTD/svg11.dtd">
<!-- Generated by graphviz version 2.38.0 (20140413.2041)
 -->
<!-- Title: 类继承关系图 Pages: 1 -->
<svg width="244pt" height="66pt"
 viewBox="0.00 0.00 244.00 66.00" xmlns="http://www.w3.org/2000/svg" xmlns:xlink="http://www.w3.org/1999/xlink">
<g id="graph0" class="graph" transform="scale(1 1) rotate(0) translate(4 62)">
<title>类继承关系图</title>
<polygon fill="white" stroke="none" points="-4,4 -4,-62 240,-62 240,4 -4,4"/>
<!-- Node1 -->
<g id="node1" class="node"><title>Node1</title>
<g id="a_node1"><a xlink:href="class_net_work_1_1_my_socket.html" target="_top" xlink:title="TCP和UDP的公共部分，支持可靠传输和不可靠传输的实现 ">
<polygon fill="white" stroke="black" points="0,-19.5 0,-38.5 105,-38.5 105,-19.5 0,-19.5"/>
<text text-anchor="middle" x="52.5" y="-26.5" font-family="Helvetica,sans-Serif" font-size="10.00">NetWork::MySocket</text>
</a>
</g>
</g>
<!-- Node2 -->
<g id="node2" class="node"><title>Node2</title>
<g id="a_node2"><a xlink:href="class_net_work_1_1_my_t_c_p.html" target="_top" xlink:title="该类封装TCP协议方法. ">
<polygon fill="white" stroke="black" points="142,-38.5 142,-57.5 235,-57.5 235,-38.5 142,-38.5"/>
<text text-anchor="middle" x="188.5" y="-45.5" font-family="Helvetica,sans-Serif" font-size="10.00">NetWork::MyTCP</text>
</a>
</g>
</g>
<!-- Node1&#45;&gt;Node2 -->
<g id="edge1" class="edge"><title>Node1&#45;&gt;Node2</title>
<path fill="none" stroke="#8b1a1a" d="M115.337,-37.768C124.298,-39.0385 133.382,-40.3265 141.944,-41.5405"/>
<polygon fill="#8b1a1a" stroke="#8b1a1a" points="115.7,-34.2845 105.308,-36.3459 114.717,-41.2152 115.7,-34.2845"/>
</g>
<!-- Node3 -->
<g id="node3" class="node"><title>Node3</title>
<g id="a_node3"><a xlink:href="class_net_work_1_1_my_u_d_p.html" target="_top" xlink:title="继承自MySocket，实现UDPSocket ">
<polygon fill="white" stroke="black" points="141,-0.5 141,-19.5 236,-19.5 236,-0.5 141,-0.5"/>
<text text-anchor="middle" x="188.5" y="-7.5" font-family="Helvetica,sans-Serif" font-size="10.00">NetWork::MyUDP</text>
</a>
</g>
</g>
<!-- Node1&#45;&gt;Node3 -->
<g id="edge2" class="edge"><title>Node1&#45;&gt;Node3</title>
<path fill="none" stroke="#8b1a1a" d="M115.246,-20.245C123.785,-19.0343 132.438,-17.8073 140.647,-16.6434"/>
<polygon fill="#8b1a1a" stroke="#8b1a1a" points="114.717,-16.7848 105.308,-21.6541 115.7,-23.7155 114.717,-16.7848"/>
</g>
</g>
</svg>
