<?xml version="1.0" encoding="UTF-8" standalone="no"?>
<!DOCTYPE svg PUBLIC "-//W3C//DTD SVG 1.1//EN"
 "http://www.w3.org/Graphics/SVG/1.1/DTD/svg11.dtd">
<!-- Generated by graphviz version 2.38.0 (20140413.2041)
 -->
<!-- Title: 类继承关系图 Pages: 1 -->
<svg width="169pt" height="66pt"
 viewBox="0.00 0.00 169.00 66.00" xmlns="http://www.w3.org/2000/svg" xmlns:xlink="http://www.w3.org/1999/xlink">
<g id="graph0" class="graph" transform="scale(1 1) rotate(0) translate(4 62)">
<title>类继承关系图</title>
<polygon fill="white" stroke="none" points="-4,4 -4,-62 165,-62 165,4 -4,4"/>
<!-- Node1 -->
<g id="node1" class="node"><title>Node1</title>
<polygon fill="white" stroke="#bfbfbf" points="0,-19.5 0,-38.5 62,-38.5 62,-19.5 0,-19.5"/>
<text text-anchor="middle" x="31" y="-26.5" font-family="Helvetica,sans-Serif" font-size="10.00">CDialogEx</text>
</g>
<!-- Node2 -->
<g id="node2" class="node"><title>Node2</title>
<g id="a_node2"><a xlink:href="class_c_about_dlg.html" target="_top" xlink:title="CAboutDlg">
<polygon fill="white" stroke="black" points="98,-38.5 98,-57.5 161,-57.5 161,-38.5 98,-38.5"/>
<text text-anchor="middle" x="129.5" y="-45.5" font-family="Helvetica,sans-Serif" font-size="10.00">CAboutDlg</text>
</a>
</g>
</g>
<!-- Node1&#45;&gt;Node2 -->
<g id="edge1" class="edge"><title>Node1&#45;&gt;Node2</title>
<path fill="none" stroke="midnightblue" d="M71.9293,-36.8617C80.5875,-38.5665 89.6143,-40.3438 97.8487,-41.965"/>
<polygon fill="midnightblue" stroke="midnightblue" points="72.492,-33.4054 62.0042,-34.9076 71.1397,-40.2735 72.492,-33.4054"/>
</g>
<!-- Node3 -->
<g id="node3" class="node"><title>Node3</title>
<g id="a_node3"><a xlink:href="class_net_set.html" target="_top" xlink:title="NetSet 对话框 ">
<polygon fill="white" stroke="black" points="106,-0.5 106,-19.5 153,-19.5 153,-0.5 106,-0.5"/>
<text text-anchor="middle" x="129.5" y="-7.5" font-family="Helvetica,sans-Serif" font-size="10.00">NetSet</text>
</a>
</g>
</g>
<!-- Node1&#45;&gt;Node3 -->
<g id="edge2" class="edge"><title>Node1&#45;&gt;Node3</title>
<path fill="none" stroke="midnightblue" d="M71.9403,-21.1361C83.5191,-18.8563 95.7562,-16.447 105.875,-14.4547"/>
<polygon fill="midnightblue" stroke="midnightblue" points="71.1397,-17.7265 62.0042,-23.0924 72.492,-24.5946 71.1397,-17.7265"/>
</g>
</g>
</svg>
