<?xml version="1.0" encoding="UTF-8" standalone="no"?>
<!DOCTYPE svg PUBLIC "-//W3C//DTD SVG 1.1//EN"
 "http://www.w3.org/Graphics/SVG/1.1/DTD/svg11.dtd">
<!-- Generated by graphviz version 2.38.0 (20140413.2041)
 -->
<!-- Title: IP_msg Pages: 1 -->
<svg width="104pt" height="95pt"
 viewBox="0.00 0.00 104.00 95.00" xmlns="http://www.w3.org/2000/svg" xmlns:xlink="http://www.w3.org/1999/xlink">
<g id="graph0" class="graph" transform="scale(1 1) rotate(0) translate(4 91)">
<title>IP_msg</title>
<polygon fill="white" stroke="none" points="-4,4 -4,-91 100,-91 100,4 -4,4"/>
<!-- Node1 -->
<g id="node1" class="node"><title>Node1</title>
<polygon fill="#bfbfbf" stroke="black" points="20.5,-0.5 20.5,-19.5 70.5,-19.5 70.5,-0.5 20.5,-0.5"/>
<text text-anchor="middle" x="45.5" y="-7.5" font-family="Helvetica,sans-Serif" font-size="10.00">IP_msg</text>
</g>
<!-- Node2 -->
<g id="node2" class="node"><title>Node2</title>
<g id="a_node2"><a xlink:href="struct_msg.html" target="_top" xlink:title="Msg">
<polygon fill="white" stroke="black" points="0,-67.5 0,-86.5 35,-86.5 35,-67.5 0,-67.5"/>
<text text-anchor="middle" x="17.5" y="-74.5" font-family="Helvetica,sans-Serif" font-size="10.00">Msg</text>
</a>
</g>
</g>
<!-- Node2&#45;&gt;Node1 -->
<g id="edge1" class="edge"><title>Node2&#45;&gt;Node1</title>
<path fill="none" stroke="#9a32cd" stroke-dasharray="5,2" d="M23.0289,-57.7043C25.134,-51.3702 27.7054,-44.2856 30.5,-38 33.2885,-31.7282 37.0385,-24.9782 40.0914,-19.7962"/>
<polygon fill="#9a32cd" stroke="#9a32cd" points="19.6465,-56.7924 19.9692,-67.3824 26.3209,-58.9026 19.6465,-56.7924"/>
<text text-anchor="middle" x="41.5" y="-41" font-family="Helvetica,sans-Serif" font-size="10.00"> msg</text>
</g>
<!-- Node3 -->
<g id="node3" class="node"><title>Node3</title>
<g id="a_node3"><a xlink:href="struct__iphdr.html" target="_top" xlink:title="存放ip首部的结构体 ">
<polygon fill="white" stroke="black" points="53,-67.5 53,-86.5 96,-86.5 96,-67.5 53,-67.5"/>
<text text-anchor="middle" x="74.5" y="-74.5" font-family="Helvetica,sans-Serif" font-size="10.00">_iphdr</text>
</a>
</g>
</g>
<!-- Node3&#45;&gt;Node1 -->
<g id="edge2" class="edge"><title>Node3&#45;&gt;Node1</title>
<path fill="none" stroke="#9a32cd" stroke-dasharray="5,2" d="M66.3756,-57.79C60.8065,-45.3076 53.6706,-29.3135 49.3491,-19.6273"/>
<polygon fill="#9a32cd" stroke="#9a32cd" points="63.3181,-59.5276 70.5889,-67.2338 69.7108,-56.6754 63.3181,-59.5276"/>
<text text-anchor="middle" x="74" y="-41" font-family="Helvetica,sans-Serif" font-size="10.00"> iphdr</text>
</g>
</g>
</svg>
