<?xml version="1.0" encoding="UTF-8" standalone="no"?>
<!DOCTYPE svg PUBLIC "-//W3C//DTD SVG 1.1//EN"
 "http://www.w3.org/Graphics/SVG/1.1/DTD/svg11.dtd">
<!-- Generated by graphviz version 2.38.0 (20140413.2041)
 -->
<!-- Title: src/targetver.h Pages: 1 -->
<svg width="1406pt" height="364pt"
 viewBox="0.00 0.00 1405.82 364.00" xmlns="http://www.w3.org/2000/svg" xmlns:xlink="http://www.w3.org/1999/xlink">
<g id="graph0" class="graph" transform="scale(1 1) rotate(0) translate(4 360)">
<title>src/targetver.h</title>
<polygon fill="white" stroke="none" points="-4,4 -4,-360 1401.82,-360 1401.82,4 -4,4"/>
<!-- Node1 -->
<g id="node1" class="node"><title>Node1</title>
<polygon fill="#bfbfbf" stroke="black" points="556.819,-336.5 556.819,-355.5 634.819,-355.5 634.819,-336.5 556.819,-336.5"/>
<text text-anchor="middle" x="595.819" y="-343.5" font-family="Helvetica,sans-Serif" font-size="10.00">src/targetver.h</text>
</g>
<!-- Node2 -->
<g id="node2" class="node"><title>Node2</title>
<g id="a_node2"><a xlink:href="stdafx_8h.html" target="_top" xlink:title="stdafx.h : 标准系统包含文件的包含文件， &#160;或是经常使用但不常更改的 &#160;特定于项目的包含文件 ...">
<polygon fill="white" stroke="black" points="561.819,-280.5 561.819,-299.5 629.819,-299.5 629.819,-280.5 561.819,-280.5"/>
<text text-anchor="middle" x="595.819" y="-287.5" font-family="Helvetica,sans-Serif" font-size="10.00">src/stdafx.h</text>
</a>
</g>
</g>
<!-- Node1&#45;&gt;Node2 -->
<g id="edge1" class="edge"><title>Node1&#45;&gt;Node2</title>
<path fill="none" stroke="midnightblue" d="M595.819,-325.805C595.819,-316.91 595.819,-306.78 595.819,-299.751"/>
<polygon fill="midnightblue" stroke="midnightblue" points="592.319,-326.083 595.819,-336.083 599.319,-326.083 592.319,-326.083"/>
</g>
<!-- Node3 -->
<g id="node3" class="node"><title>Node3</title>
<g id="a_node3"><a xlink:href="_cmd_view_8cpp.html" target="_top" xlink:title="CmdView.cpp : 实现文件 ">
<polygon fill="white" stroke="black" points="206.319,-0.5 206.319,-19.5 299.319,-19.5 299.319,-0.5 206.319,-0.5"/>
<text text-anchor="middle" x="252.819" y="-7.5" font-family="Helvetica,sans-Serif" font-size="10.00">src/CmdView.cpp</text>
</a>
</g>
</g>
<!-- Node2&#45;&gt;Node3 -->
<g id="edge2" class="edge"><title>Node2&#45;&gt;Node3</title>
<path fill="none" stroke="midnightblue" d="M551.376,-285.124C515.455,-280.202 464.938,-269.077 427.819,-244 380.869,-212.28 282.097,-57.6795 258.138,-19.5249"/>
<polygon fill="midnightblue" stroke="midnightblue" points="551.201,-288.629 561.56,-286.407 552.076,-281.684 551.201,-288.629"/>
</g>
<!-- Node4 -->
<g id="node4" class="node"><title>Node4</title>
<g id="a_node4"><a xlink:href="_user_cmd_8h.html" target="_top" xlink:title="src/UserCmd.h">
<polygon fill="white" stroke="black" points="225.819,-224.5 225.819,-243.5 307.819,-243.5 307.819,-224.5 225.819,-224.5"/>
<text text-anchor="middle" x="266.819" y="-231.5" font-family="Helvetica,sans-Serif" font-size="10.00">src/UserCmd.h</text>
</a>
</g>
</g>
<!-- Node2&#45;&gt;Node4 -->
<g id="edge3" class="edge"><title>Node2&#45;&gt;Node4</title>
<path fill="none" stroke="midnightblue" d="M551.362,-281.703C487.335,-271.194 370.05,-251.944 307.936,-241.749"/>
<polygon fill="midnightblue" stroke="midnightblue" points="551.107,-285.208 561.541,-283.374 552.24,-278.3 551.107,-285.208"/>
</g>
<!-- Node7 -->
<g id="node7" class="node"><title>Node7</title>
<g id="a_node7"><a xlink:href="_u_i_ctrl_8h.html" target="_top" xlink:title="UICtrl. ">
<polygon fill="white" stroke="black" points="388.319,-56.5 388.319,-75.5 453.319,-75.5 453.319,-56.5 388.319,-56.5"/>
<text text-anchor="middle" x="420.819" y="-63.5" font-family="Helvetica,sans-Serif" font-size="10.00">src/UICtrl.h</text>
</a>
</g>
</g>
<!-- Node2&#45;&gt;Node7 -->
<g id="edge19" class="edge"><title>Node2&#45;&gt;Node7</title>
<path fill="none" stroke="midnightblue" d="M551.762,-284.039C524.012,-278.651 489.465,-267.416 467.819,-244 421.633,-194.038 419.821,-103.92 420.47,-75.695"/>
<polygon fill="midnightblue" stroke="midnightblue" points="551.187,-287.492 561.642,-285.771 552.397,-280.597 551.187,-287.492"/>
</g>
<!-- Node8 -->
<g id="node8" class="node"><title>Node8</title>
<g id="a_node8"><a xlink:href="_net_dll_8cpp.html" target="_top" xlink:title="NetDll. ">
<polygon fill="white" stroke="black" points="317.819,-0.5 317.819,-19.5 395.819,-19.5 395.819,-0.5 317.819,-0.5"/>
<text text-anchor="middle" x="356.819" y="-7.5" font-family="Helvetica,sans-Serif" font-size="10.00">src/NetDll.cpp</text>
</a>
</g>
</g>
<!-- Node2&#45;&gt;Node8 -->
<g id="edge27" class="edge"><title>Node2&#45;&gt;Node8</title>
<path fill="none" stroke="midnightblue" d="M551.752,-285.26C519.962,-280.428 477.873,-269.357 449.819,-244 378.734,-179.747 361.144,-53.8524 357.602,-19.7152"/>
<polygon fill="midnightblue" stroke="midnightblue" points="551.299,-288.73 561.681,-286.62 552.249,-281.795 551.299,-288.73"/>
</g>
<!-- Node9 -->
<g id="node9" class="node"><title>Node9</title>
<g id="a_node9"><a xlink:href="_net_html_8cpp.html" target="_top" xlink:title="NetHtml.cpp. ">
<polygon fill="white" stroke="black" points="414.319,-0.5 414.319,-19.5 501.319,-19.5 501.319,-0.5 414.319,-0.5"/>
<text text-anchor="middle" x="457.819" y="-7.5" font-family="Helvetica,sans-Serif" font-size="10.00">src/NetHtml.cpp</text>
</a>
</g>
</g>
<!-- Node2&#45;&gt;Node9 -->
<g id="edge28" class="edge"><title>Node2&#45;&gt;Node9</title>
<path fill="none" stroke="midnightblue" d="M566.148,-276.07C532.371,-259.106 481.819,-225.885 481.819,-179 481.819,-179 481.819,-179 481.819,-121 481.819,-82.4934 467.607,-38.1113 461.056,-19.6992"/>
<polygon fill="midnightblue" stroke="midnightblue" points="564.647,-279.231 575.175,-280.421 567.687,-272.926 564.647,-279.231"/>
</g>
<!-- Node10 -->
<g id="node10" class="node"><title>Node10</title>
<g id="a_node10"><a xlink:href="_u_i_ctrl_8cpp.html" target="_top" xlink:title="src/UICtrl.cpp">
<polygon fill="white" stroke="black" points="519.819,-0.5 519.819,-19.5 595.819,-19.5 595.819,-0.5 519.819,-0.5"/>
<text text-anchor="middle" x="557.819" y="-7.5" font-family="Helvetica,sans-Serif" font-size="10.00">src/UICtrl.cpp</text>
</a>
</g>
</g>
<!-- Node2&#45;&gt;Node10 -->
<g id="edge34" class="edge"><title>Node2&#45;&gt;Node10</title>
<path fill="none" stroke="midnightblue" d="M585.676,-271.429C574.42,-250.236 557.819,-213.187 557.819,-179 557.819,-179 557.819,-179 557.819,-121 557.819,-83.1875 557.819,-38.0636 557.819,-19.5578"/>
<polygon fill="midnightblue" stroke="midnightblue" points="582.638,-273.168 590.535,-280.231 588.766,-269.785 582.638,-273.168"/>
</g>
<!-- Node11 -->
<g id="node11" class="node"><title>Node11</title>
<g id="a_node11"><a xlink:href="_user_cmd_8cpp.html" target="_top" xlink:title="UserCmd.cpp. ">
<polygon fill="white" stroke="black" points="613.819,-0.5 613.819,-19.5 705.819,-19.5 705.819,-0.5 613.819,-0.5"/>
<text text-anchor="middle" x="659.819" y="-7.5" font-family="Helvetica,sans-Serif" font-size="10.00">src/UserCmd.cpp</text>
</a>
</g>
</g>
<!-- Node2&#45;&gt;Node11 -->
<g id="edge35" class="edge"><title>Node2&#45;&gt;Node11</title>
<path fill="none" stroke="midnightblue" d="M595.819,-270.251C595.819,-248.357 595.819,-211.052 595.819,-179 595.819,-179 595.819,-179 595.819,-121 595.819,-78.1369 632.573,-37.0674 650.376,-19.6885"/>
<polygon fill="midnightblue" stroke="midnightblue" points="592.319,-270.442 595.819,-280.442 599.319,-270.442 592.319,-270.442"/>
</g>
<!-- Node12 -->
<g id="node12" class="node"><title>Node12</title>
<g id="a_node12"><a xlink:href="_hust_net_8cpp.html" target="_top" xlink:title="HustNet.cpp : 定义应用程序的类行为。 ">
<polygon fill="white" stroke="black" points="18.3191,-56.5 18.3191,-75.5 105.319,-75.5 105.319,-56.5 18.3191,-56.5"/>
<text text-anchor="middle" x="61.8191" y="-63.5" font-family="Helvetica,sans-Serif" font-size="10.00">src/HustNet.cpp</text>
</a>
</g>
</g>
<!-- Node2&#45;&gt;Node12 -->
<g id="edge23" class="edge"><title>Node2&#45;&gt;Node12</title>
<path fill="none" stroke="midnightblue" d="M551.402,-288.428C430.768,-285.782 102.178,-270.955 43.8191,-188 18.8902,-152.565 45.1219,-96.7682 56.8071,-75.563"/>
<polygon fill="midnightblue" stroke="midnightblue" points="551.675,-291.934 561.743,-288.635 551.816,-284.935 551.675,-291.934"/>
</g>
<!-- Node13 -->
<g id="node13" class="node"><title>Node13</title>
<g id="a_node13"><a xlink:href="_main_frm_8cpp.html" target="_top" xlink:title="MainFrm.cpp : CMainFrame 类的实现 ">
<polygon fill="white" stroke="black" points="161.819,-56.5 161.819,-75.5 251.819,-75.5 251.819,-56.5 161.819,-56.5"/>
<text text-anchor="middle" x="206.819" y="-63.5" font-family="Helvetica,sans-Serif" font-size="10.00">src/MainFrm.cpp</text>
</a>
</g>
</g>
<!-- Node2&#45;&gt;Node13 -->
<g id="edge26" class="edge"><title>Node2&#45;&gt;Node13</title>
<path fill="none" stroke="midnightblue" d="M551.577,-286.894C456.498,-281.926 239.43,-268.052 216.819,-244 171.705,-196.011 195.028,-104.567 203.895,-75.8543"/>
<polygon fill="midnightblue" stroke="midnightblue" points="551.573,-290.398 561.739,-287.415 551.932,-283.407 551.573,-290.398"/>
</g>
<!-- Node14 -->
<g id="node14" class="node"><title>Node14</title>
<g id="a_node14"><a xlink:href="_c_my_i_p_8cpp.html" target="_top" xlink:title="src/CMyIP.cpp">
<polygon fill="white" stroke="black" points="662.319,-224.5 662.319,-243.5 743.319,-243.5 743.319,-224.5 662.319,-224.5"/>
<text text-anchor="middle" x="702.819" y="-231.5" font-family="Helvetica,sans-Serif" font-size="10.00">src/CMyIP.cpp</text>
</a>
</g>
</g>
<!-- Node2&#45;&gt;Node14 -->
<g id="edge20" class="edge"><title>Node2&#45;&gt;Node14</title>
<path fill="none" stroke="midnightblue" d="M622.121,-275.726C641.934,-265.727 668.527,-252.307 685.67,-243.655"/>
<polygon fill="midnightblue" stroke="midnightblue" points="620.361,-272.694 613.011,-280.324 623.515,-278.943 620.361,-272.694"/>
</g>
<!-- Node15 -->
<g id="node15" class="node"><title>Node15</title>
<g id="a_node15"><a xlink:href="_c_my_link_8h.html" target="_top" xlink:title="src/CMyLink.h">
<polygon fill="white" stroke="black" points="761.819,-224.5 761.819,-243.5 841.819,-243.5 841.819,-224.5 761.819,-224.5"/>
<text text-anchor="middle" x="801.819" y="-231.5" font-family="Helvetica,sans-Serif" font-size="10.00">src/CMyLink.h</text>
</a>
</g>
</g>
<!-- Node2&#45;&gt;Node15 -->
<g id="edge21" class="edge"><title>Node2&#45;&gt;Node15</title>
<path fill="none" stroke="midnightblue" d="M638.434,-277.829C677.329,-267.633 733.983,-252.782 769.331,-243.516"/>
<polygon fill="midnightblue" stroke="midnightblue" points="637.246,-274.522 628.46,-280.444 639.021,-281.293 637.246,-274.522"/>
</g>
<!-- Node17 -->
<g id="node17" class="node"><title>Node17</title>
<g id="a_node17"><a xlink:href="_hust_net_doc_8cpp.html" target="_top" xlink:title="HustNetDoc.cpp : CHustNetDoc 类的实现 ">
<polygon fill="white" stroke="black" points="859.819,-224.5 859.819,-243.5 963.819,-243.5 963.819,-224.5 859.819,-224.5"/>
<text text-anchor="middle" x="911.819" y="-231.5" font-family="Helvetica,sans-Serif" font-size="10.00">src/HustNetDoc.cpp</text>
</a>
</g>
</g>
<!-- Node2&#45;&gt;Node17 -->
<g id="edge24" class="edge"><title>Node2&#45;&gt;Node17</title>
<path fill="none" stroke="midnightblue" d="M639.958,-281.457C698.349,-271.479 800.993,-253.939 862.07,-243.501"/>
<polygon fill="midnightblue" stroke="midnightblue" points="639.204,-278.035 629.937,-283.17 640.384,-284.935 639.204,-278.035"/>
</g>
<!-- Node18 -->
<g id="node18" class="node"><title>Node18</title>
<g id="a_node18"><a xlink:href="_log_view_8cpp.html" target="_top" xlink:title="LogView.cpp : 实现文件 ">
<polygon fill="white" stroke="black" points="982.319,-224.5 982.319,-243.5 1071.32,-243.5 1071.32,-224.5 982.319,-224.5"/>
<text text-anchor="middle" x="1026.82" y="-231.5" font-family="Helvetica,sans-Serif" font-size="10.00">src/LogView.cpp</text>
</a>
</g>
</g>
<!-- Node2&#45;&gt;Node18 -->
<g id="edge25" class="edge"><title>Node2&#45;&gt;Node18</title>
<path fill="none" stroke="midnightblue" d="M640.231,-284.373C710.811,-276.869 852.875,-261.144 972.819,-244 975.83,-243.57 978.932,-243.106 982.055,-242.625"/>
<polygon fill="midnightblue" stroke="midnightblue" points="639.514,-280.93 629.939,-285.463 640.252,-287.891 639.514,-280.93"/>
</g>
<!-- Node19 -->
<g id="node19" class="node"><title>Node19</title>
<g id="a_node19"><a xlink:href="_net_set_8cpp.html" target="_top" xlink:title="NetSet.cpp : 实现文件 ">
<polygon fill="white" stroke="black" points="1089.82,-224.5 1089.82,-243.5 1171.82,-243.5 1171.82,-224.5 1089.82,-224.5"/>
<text text-anchor="middle" x="1130.82" y="-231.5" font-family="Helvetica,sans-Serif" font-size="10.00">src/NetSet.cpp</text>
</a>
</g>
</g>
<!-- Node2&#45;&gt;Node19 -->
<g id="edge29" class="edge"><title>Node2&#45;&gt;Node19</title>
<path fill="none" stroke="midnightblue" d="M640.162,-286.161C725.659,-280.405 919.144,-266.01 1080.82,-244 1083.7,-243.607 1086.67,-243.166 1089.66,-242.696"/>
<polygon fill="midnightblue" stroke="midnightblue" points="639.783,-282.679 630.038,-286.836 640.249,-289.663 639.783,-282.679"/>
</g>
<!-- Node20 -->
<g id="node20" class="node"><title>Node20</title>
<g id="a_node20"><a xlink:href="_net_work_8h.html" target="_top" xlink:title="TCP UDP方法集 ">
<polygon fill="white" stroke="black" points="623.819,-112.5 623.819,-131.5 703.819,-131.5 703.819,-112.5 623.819,-112.5"/>
<text text-anchor="middle" x="663.819" y="-119.5" font-family="Helvetica,sans-Serif" font-size="10.00">src/NetWork.h</text>
</a>
</g>
</g>
<!-- Node2&#45;&gt;Node20 -->
<g id="edge30" class="edge"><title>Node2&#45;&gt;Node20</title>
<path fill="none" stroke="midnightblue" d="M603.441,-270.395C618.11,-234.585 649.751,-157.342 660.309,-131.568"/>
<polygon fill="midnightblue" stroke="midnightblue" points="600.027,-269.495 599.475,-280.075 606.505,-272.148 600.027,-269.495"/>
</g>
<!-- Node21 -->
<g id="node21" class="node"><title>Node21</title>
<g id="a_node21"><a xlink:href="_respond_view_8cpp.html" target="_top" xlink:title="RespondView.cpp : 实现文件 ">
<polygon fill="white" stroke="black" points="1190.32,-224.5 1190.32,-243.5 1301.32,-243.5 1301.32,-224.5 1190.32,-224.5"/>
<text text-anchor="middle" x="1245.82" y="-231.5" font-family="Helvetica,sans-Serif" font-size="10.00">src/RespondView.cpp</text>
</a>
</g>
</g>
<!-- Node2&#45;&gt;Node21 -->
<g id="edge32" class="edge"><title>Node2&#45;&gt;Node21</title>
<path fill="none" stroke="midnightblue" d="M639.936,-286.526C737.578,-280.848 979.277,-265.684 1180.82,-244 1183.88,-243.671 1187.01,-243.311 1190.18,-242.931"/>
<polygon fill="midnightblue" stroke="midnightblue" points="639.627,-283.038 629.846,-287.108 640.031,-290.026 639.627,-283.038"/>
</g>
<!-- Node22 -->
<g id="node22" class="node"><title>Node22</title>
<g id="a_node22"><a xlink:href="stdafx_8cpp.html" target="_top" xlink:title="src/stdafx.cpp">
<polygon fill="white" stroke="black" points="1319.82,-224.5 1319.82,-243.5 1397.82,-243.5 1397.82,-224.5 1319.82,-224.5"/>
<text text-anchor="middle" x="1358.82" y="-231.5" font-family="Helvetica,sans-Serif" font-size="10.00">src/stdafx.cpp</text>
</a>
</g>
</g>
<!-- Node2&#45;&gt;Node22 -->
<g id="edge33" class="edge"><title>Node2&#45;&gt;Node22</title>
<path fill="none" stroke="midnightblue" d="M640.097,-288.098C752.565,-285.398 1058.24,-275.507 1310.82,-244 1313.68,-243.643 1316.63,-243.222 1319.59,-242.761"/>
<polygon fill="midnightblue" stroke="midnightblue" points="639.74,-284.605 629.824,-288.337 639.903,-291.603 639.74,-284.605"/>
</g>
<!-- Node4&#45;&gt;Node3 -->
<g id="edge17" class="edge"><title>Node4&#45;&gt;Node3</title>
<path fill="none" stroke="midnightblue" d="M267.056,-214.297C267.27,-181.94 266.87,-113.462 260.819,-56 259.473,-43.216 256.627,-28.5914 254.718,-19.5751"/>
<polygon fill="midnightblue" stroke="midnightblue" points="263.554,-214.463 266.958,-224.496 270.554,-214.53 263.554,-214.463"/>
</g>
<!-- Node5 -->
<g id="node5" class="node"><title>Node5</title>
<g id="a_node5"><a xlink:href="_cmd_view_8h.html" target="_top" xlink:title="src/CmdView.h">
<polygon fill="white" stroke="black" points="53.3191,-168.5 53.3191,-187.5 136.319,-187.5 136.319,-168.5 53.3191,-168.5"/>
<text text-anchor="middle" x="94.8191" y="-175.5" font-family="Helvetica,sans-Serif" font-size="10.00">src/CmdView.h</text>
</a>
</g>
</g>
<!-- Node4&#45;&gt;Node5 -->
<g id="edge4" class="edge"><title>Node4&#45;&gt;Node5</title>
<path fill="none" stroke="midnightblue" d="M229.987,-221.436C197.558,-211.255 151.082,-196.664 121.946,-187.516"/>
<polygon fill="midnightblue" stroke="midnightblue" points="228.976,-224.787 239.565,-224.444 231.073,-218.109 228.976,-224.787"/>
</g>
<!-- Node4&#45;&gt;Node11 -->
<g id="edge18" class="edge"><title>Node4&#45;&gt;Node11</title>
<path fill="none" stroke="midnightblue" d="M291.265,-219.191C365.118,-177.472 584.541,-53.5233 644.52,-19.6425"/>
<polygon fill="midnightblue" stroke="midnightblue" points="289.211,-216.331 282.225,-224.297 292.654,-222.426 289.211,-216.331"/>
</g>
<!-- Node5&#45;&gt;Node3 -->
<g id="edge5" class="edge"><title>Node5&#45;&gt;Node3</title>
<path fill="none" stroke="midnightblue" d="M71.8462,-162.858C37.0832,-139.734 -21.7556,-92.7291 8.81915,-56 33.4498,-26.4114 142.644,-16.2034 206.302,-12.737"/>
<polygon fill="midnightblue" stroke="midnightblue" points="70.2104,-165.968 80.5079,-168.461 74.0123,-160.091 70.2104,-165.968"/>
</g>
<!-- Node6 -->
<g id="node6" class="node"><title>Node6</title>
<g id="a_node6"><a xlink:href="_main_frm_8h.html" target="_top" xlink:title="src/MainFrm.h">
<polygon fill="white" stroke="black" points="89.8191,-112.5 89.8191,-131.5 169.819,-131.5 169.819,-112.5 89.8191,-112.5"/>
<text text-anchor="middle" x="129.819" y="-119.5" font-family="Helvetica,sans-Serif" font-size="10.00">src/MainFrm.h</text>
</a>
</g>
</g>
<!-- Node5&#45;&gt;Node6 -->
<g id="edge6" class="edge"><title>Node5&#45;&gt;Node6</title>
<path fill="none" stroke="midnightblue" d="M106.119,-159.566C112.141,-150.275 119.288,-139.248 124.147,-131.751"/>
<polygon fill="midnightblue" stroke="midnightblue" points="103.101,-157.788 100.599,-168.083 108.975,-161.595 103.101,-157.788"/>
</g>
<!-- Node5&#45;&gt;Node12 -->
<g id="edge16" class="edge"><title>Node5&#45;&gt;Node12</title>
<path fill="none" stroke="midnightblue" d="M89.0695,-158.771C86.5108,-150.594 83.481,-140.823 80.8191,-132 74.7748,-111.965 67.9501,-88.366 64.3525,-75.8457"/>
<polygon fill="midnightblue" stroke="midnightblue" points="85.7543,-159.896 92.0911,-168.387 92.4324,-157.797 85.7543,-159.896"/>
</g>
<!-- Node6&#45;&gt;Node3 -->
<g id="edge7" class="edge"><title>Node6&#45;&gt;Node3</title>
<path fill="none" stroke="midnightblue" d="M132.401,-102.194C135.232,-87.977 141.049,-68.787 152.819,-56 169.71,-37.6506 195.499,-26.2971 216.658,-19.5846"/>
<polygon fill="midnightblue" stroke="midnightblue" points="128.906,-101.874 130.714,-112.313 135.811,-103.025 128.906,-101.874"/>
</g>
<!-- Node6&#45;&gt;Node7 -->
<g id="edge8" class="edge"><title>Node6&#45;&gt;Node7</title>
<path fill="none" stroke="midnightblue" d="M179.935,-111.7C239.628,-100.623 337.614,-82.4401 388.252,-73.0433"/>
<polygon fill="midnightblue" stroke="midnightblue" points="179.169,-108.282 169.976,-113.548 180.447,-115.165 179.169,-108.282"/>
</g>
<!-- Node6&#45;&gt;Node12 -->
<g id="edge14" class="edge"><title>Node6&#45;&gt;Node12</title>
<path fill="none" stroke="midnightblue" d="M111.057,-106.101C98.8192,-96.3824 83.2605,-84.0269 72.9433,-75.8339"/>
<polygon fill="midnightblue" stroke="midnightblue" points="108.886,-108.846 118.894,-112.324 113.239,-103.364 108.886,-108.846"/>
</g>
<!-- Node6&#45;&gt;Node13 -->
<g id="edge15" class="edge"><title>Node6&#45;&gt;Node13</title>
<path fill="none" stroke="midnightblue" d="M150.72,-106.342C164.73,-96.5169 182.702,-83.9132 194.478,-75.6545"/>
<polygon fill="midnightblue" stroke="midnightblue" points="148.368,-103.717 142.191,-112.324 152.387,-109.448 148.368,-103.717"/>
</g>
<!-- Node7&#45;&gt;Node3 -->
<g id="edge9" class="edge"><title>Node7&#45;&gt;Node3</title>
<path fill="none" stroke="midnightblue" d="M384.433,-53.3044C352.777,-43.1294 307.651,-28.6246 279.315,-19.5164"/>
<polygon fill="midnightblue" stroke="midnightblue" points="383.608,-56.7155 394.199,-56.4435 385.75,-50.0513 383.608,-56.7155"/>
</g>
<!-- Node7&#45;&gt;Node8 -->
<g id="edge10" class="edge"><title>Node7&#45;&gt;Node8</title>
<path fill="none" stroke="midnightblue" d="M402.828,-49.8197C391.362,-40.1452 376.906,-27.9481 367.289,-19.8339"/>
<polygon fill="midnightblue" stroke="midnightblue" points="400.636,-52.5502 410.536,-56.324 405.151,-47.2002 400.636,-52.5502"/>
</g>
<!-- Node7&#45;&gt;Node9 -->
<g id="edge11" class="edge"><title>Node7&#45;&gt;Node9</title>
<path fill="none" stroke="midnightblue" d="M432.765,-47.5656C439.131,-38.2747 446.686,-27.2484 451.823,-19.7511"/>
<polygon fill="midnightblue" stroke="midnightblue" points="429.694,-45.8553 426.929,-56.083 435.469,-49.812 429.694,-45.8553"/>
</g>
<!-- Node7&#45;&gt;Node10 -->
<g id="edge12" class="edge"><title>Node7&#45;&gt;Node10</title>
<path fill="none" stroke="midnightblue" d="M451.842,-52.772C477.576,-42.6287 513.505,-28.4669 536.213,-19.5164"/>
<polygon fill="midnightblue" stroke="midnightblue" points="450.547,-49.5203 442.527,-56.4435 453.114,-56.0326 450.547,-49.5203"/>
</g>
<!-- Node7&#45;&gt;Node11 -->
<g id="edge13" class="edge"><title>Node7&#45;&gt;Node11</title>
<path fill="none" stroke="midnightblue" d="M463.308,-55.3999C508.34,-45.2253 578.79,-29.3079 621.974,-19.5509"/>
<polygon fill="midnightblue" stroke="midnightblue" points="462.533,-51.9869 453.55,-57.6048 464.075,-58.8148 462.533,-51.9869"/>
</g>
<!-- Node16 -->
<g id="node16" class="node"><title>Node16</title>
<g id="a_node16"><a xlink:href="_c_my_link_8cpp.html" target="_top" xlink:title="src/CMyLink.cpp">
<polygon fill="white" stroke="black" points="756.819,-168.5 756.819,-187.5 846.819,-187.5 846.819,-168.5 756.819,-168.5"/>
<text text-anchor="middle" x="801.819" y="-175.5" font-family="Helvetica,sans-Serif" font-size="10.00">src/CMyLink.cpp</text>
</a>
</g>
</g>
<!-- Node15&#45;&gt;Node16 -->
<g id="edge22" class="edge"><title>Node15&#45;&gt;Node16</title>
<path fill="none" stroke="midnightblue" d="M801.819,-213.805C801.819,-204.91 801.819,-194.78 801.819,-187.751"/>
<polygon fill="midnightblue" stroke="midnightblue" points="798.319,-214.083 801.819,-224.083 805.319,-214.083 798.319,-214.083"/>
</g>
<!-- Node20&#45;&gt;Node11 -->
<g id="edge31" class="edge"><title>Node20&#45;&gt;Node11</title>
<path fill="none" stroke="midnightblue" d="M663.141,-102.348C662.265,-78.2538 660.776,-37.3079 660.132,-19.5914"/>
<polygon fill="midnightblue" stroke="midnightblue" points="659.644,-102.502 663.505,-112.368 666.639,-102.248 659.644,-102.502"/>
</g>
</g>
</svg>
